<svg width="215" height="213" viewBox="0 0 215 213" fill="none" xmlns="http://www.w3.org/2000/svg">
<path d="M31.1046 96.1149C38.8928 85.2289 50.5645 80.2947 50.5645 80.2947C50.9455 80.1362 49.3221 65.2223 49.289 64.1645C48.7967 46.7422 51.6863 28.6146 64.7826 16.0342C81.1542 0.318077 110.859 -2.93826 129.64 10.3024C129.403 10.1273 135.819 5.07006 136.36 4.74584C139.866 2.6304 143.821 1.37277 147.904 1.07536C164.338 -0.107897 179.408 12.8039 185.572 28.4229C191.737 44.042 190.322 79.6297 179.012 89.8934" stroke="#CCDDE2" strokeWidth="1.5"/>
<path d="M24.0831 115C24.4879 110.712 25.5902 106.52 27.3466 102.587C27.5138 102.213 27.6889 101.847 27.8719 101.489" stroke="#CCDDE2" strokeWidth="1.5"/>
<path d="M44.3926 160.305C42.4994 158.584 40.7458 156.833 39.1389 155.072" stroke="#CCDDE2" strokeWidth="1.5"/>
<path d="M202.154 109.138C202.169 110.321 202.154 111.528 202.098 112.737C201.762 120.218 200.159 127.949 196.155 134.249C195.426 135.411 194.613 136.519 193.722 137.562C185.203 136.438 183.932 127.748 174.08 122.835C162.279 116.936 142.953 119.049 142.953 119.049L152.474 110.267C151.965 83.8185 132.548 85.4419 132.548 85.4419L131.561 87.8581C132.31 85.6699 133.069 83.6292 133.835 81.7359L133.878 81.6365C142.871 59.3013 152.188 56.5325 159.436 53.3069C161.168 52.8956 162.941 52.6843 164.721 52.6774C183.253 52.578 194.13 71.451 198.886 86.6441C200.07 90.4305 201.889 98.5288 202.133 107.635C202.138 108.123 202.154 108.631 202.154 109.138Z" fill="#2E2E2E"/>
<path d="M212.567 208.267C211.128 210.248 208.755 211.327 206.308 211.327H178.193C176.009 211.358 173.913 210.465 172.421 208.868C172.407 208.868 172.421 208.868 172.421 208.868C172.321 208.767 172.228 208.659 172.142 208.546C171.261 207.455 170.71 206.135 170.554 204.741C170.412 203.46 171.364 202.322 172.651 202.374C173.66 202.413 174.485 203.192 174.582 204.196C174.582 204.298 174.603 204.398 174.618 204.497C174.722 205.075 174.976 205.615 175.354 206.064C176.031 206.864 177.039 207.31 178.087 207.273H206.428C207.455 207.291 208.438 206.858 209.119 206.09C209.891 205.196 210.136 203.963 209.763 202.843L197.104 165.203C197.001 164.915 196.878 164.633 196.737 164.361C195.22 161.155 191.975 159.127 188.429 159.169C183.099 159.233 176.333 159.247 175.697 159.247C161.514 159.195 155.061 159.195 151.511 159.289C151.754 158.417 152.195 157.612 152.798 156.937C152.798 156.937 152.812 156.923 152.812 156.916C153.678 155.993 154.863 155.435 156.126 155.356C161.384 154.925 166.59 154.14 171.648 152.767C180.572 150.349 189.084 146.2 194.998 139.529C197.877 136.3 200.053 132.507 201.388 128.392C202.424 125.125 203.077 121.748 203.333 118.33C203.424 117.25 203.481 116.163 203.503 115.068V115.019C203.503 114.768 203.518 114.51 203.518 114.259C203.55 112.7 203.479 111.14 203.305 109.59C204.85 109.602 206.33 110.215 207.432 111.299C207.528 111.554 207.6 111.818 207.645 112.087C207.688 112.342 207.709 112.6 207.709 112.858V143.469C207.714 147.692 206.027 151.742 203.025 154.712C200.564 157.15 199.864 160.849 201.03 164.103L213.611 201.536C214.382 203.816 213.993 206.328 212.567 208.267Z" fill="url(#paint0_linear)"/>
<path d="M39.1412 207.323V121.505H44.3925V207.358L39.1412 207.323Z" fill="#2E2E2E"/>
<path d="M142.956 119.037C146.716 118.637 151.066 118.164 155.243 118.258" stroke="black" strokeWidth="1.5"/>
<path d="M122.471 122.828C115.812 124.509 109.332 126.934 103.804 130.967C94.5273 137.726 90.2865 150.334 94.0777 161.258C94.0777 161.272 108.987 204.279 108.987 204.279H105.063C103.355 204.279 101.718 204.96 100.515 206.173C99.3479 207.332 98.7729 209.266 98.7729 211.04H134.089L120.668 167.141C119.989 164.947 120.396 162.56 121.763 160.714C123.131 158.868 125.295 157.784 127.592 157.794C135.239 158.009 142.341 158.302 150.074 157.966" stroke="black" strokeWidth="1.5"/>
<path d="M202.209 113.095V113.047C201.866 103.818 201.402 94.7116 198.877 86.637C194.12 71.444 183.244 52.5709 164.711 52.6703C162.932 52.6773 161.158 52.8885 159.427 53.2998C147.211 56.2036 138.727 68.7201 133.868 81.6295L133.826 81.7289C133.362 82.9674 132.933 84.2027 132.538 85.4348C132.271 86.2641 131.941 87.0718 131.552 87.8511C128.505 93.9894 122.005 97.6303 115.18 97.0213C92.7453 94.9814 63.178 93.8171 53.8657 109.58" stroke="black" strokeWidth="1.5"/>
<path d="M165.497 95.928C162.231 99.8706 158.793 103.678 155.238 107.361C147.961 114.905 141.683 122.918 130.39 123.453C121.38 123.886 112.804 120.429 104.284 118.031C95.171 115.468 90.5587 113.419 82.0652 110.83C79.6191 110.087 77.0815 109.689 74.5255 109.647L65.9752 109.713" stroke="black" strokeWidth="1.5"/>
<path d="M132.148 204.833C132.962 204.468 133.845 204.281 134.737 204.284H138.67C138.67 204.284 130.449 188.303 123.875 177.665" stroke="black" strokeWidth="1.5"/>
<path d="M137.548 158.002L165.047 211.327H133.942H128.3" stroke="black" strokeWidth="1.5"/>
<path fill-rule="evenodd" clip-rule="evenodd" d="M212.567 208.267C211.128 210.248 208.755 211.327 206.308 211.327H178.193C175.862 211.327 173.588 210.361 172.135 208.539C171.254 207.448 170.703 206.128 170.547 204.734C170.405 203.453 171.357 202.315 172.644 202.367C173.653 202.406 174.478 203.185 174.575 204.189C174.633 204.877 174.902 205.529 175.346 206.057C176.034 206.844 177.035 207.287 178.08 207.266H206.428C207.455 207.284 208.438 206.851 209.119 206.083C209.891 205.189 210.136 203.956 209.763 202.836L197.104 165.203C195.791 161.551 192.31 159.13 188.429 159.169C183.099 159.233 176.333 159.247 175.697 159.247C159.905 159.197 153.688 159.197 150.394 159.318C150.29 159.317 150.191 159.275 150.118 159.202C150.046 159.128 150.005 159.028 150.006 158.925C150.001 157.464 150.537 156.053 151.511 154.963C151.519 154.958 151.524 154.949 151.525 154.94C152.392 154.019 153.576 153.462 154.838 153.383C160.097 152.952 165.303 152.166 170.36 150.794C179.284 148.375 187.797 144.226 193.711 137.555C196.589 134.326 198.765 130.533 200.1 126.418C201.134 123.152 201.784 119.777 202.038 116.361C202.132 115.278 202.188 114.191 202.209 113.1V113.047C202.209 112.799 202.223 112.541 202.223 112.29C202.255 110.731 202.184 109.171 202.01 107.621C204.585 107.607 207.181 109.479 207.631 112.091C207.673 112.346 207.695 112.604 207.694 112.863V143.469C207.7 147.692 206.013 151.742 203.011 154.712C200.55 157.15 199.849 160.849 201.016 164.103L213.597 201.537C214.372 203.814 213.988 206.326 212.567 208.267V208.267Z" stroke="black" strokeWidth="1.5"/>
<rect x="1" y="115.002" width="79.7447" height="6.50084" rx="3.25042" stroke="black" strokeWidth="1.5"/>
<rect x="25.316" y="207.73" width="33.2567" height="3.63968" rx="1.81984" stroke="black" strokeWidth="1.5"/>
<path fill-rule="evenodd" clip-rule="evenodd" d="M35.0448 112.084V112.411C35.0921 114.657 37.2054 115 39.0277 115.014L74.2557 114.99C75.7987 114.99 77.0719 113.807 77.0743 112.354V112.292C77.0459 110.873 75.8058 109.715 74.2818 109.713C74.2818 109.713 54.5733 109.642 39.3093 109.597C39.0348 110.397 38.339 111.017 37.4705 111.523C36.7233 111.915 35.8881 112.108 35.0448 112.084Z" stroke="black" strokeWidth="1.5"/>
<path fill-rule="evenodd" clip-rule="evenodd" d="M15.6725 80.4439C15.6798 80.8178 15.7869 81.183 15.9825 81.5017L32.3115 108.927C32.7388 109.594 33.425 110.052 34.2047 110.191C34.8572 110.32 35.5333 110.246 36.1429 109.98C37.1439 109.536 37.7214 108.639 37.7024 107.73C37.6989 107.616 37.687 107.502 37.6669 107.389C37.6167 107.139 37.5239 106.898 37.3924 106.679L21.0634 79.2535C20.3535 78.0537 18.6164 77.5828 17.2202 78.2004C16.2239 78.6359 15.6464 79.5328 15.6725 80.4439V80.4439Z" stroke="black" strokeWidth="1.5"/>
<path d="M59.827 109.713C59.827 109.713 61.7936 107.841 66.316 104.869" stroke="black" strokeWidth="1.5"/>
<path d="M75.8626 78.9482L68.6944 86.8974C67.6577 88.0477 65.9015 88.184 64.6997 87.2074C64.0532 86.6825 63.6624 85.9059 63.6262 85.074C63.59 84.242 63.9118 83.4344 64.5104 82.8554L65.8214 81.5869C65.8711 81.5159 65.9279 81.452 65.9847 81.3857L66.9313 80.3421L75.0722 71.496C77.0796 69.2897 80.0693 68.2524 83.0119 68.7414L83.1326 68.7627" stroke="black" strokeWidth="1.5"/>
<path d="M85.9581 81.0993H78.7875C77.0884 81.0993 75.7111 79.722 75.7111 78.0229C75.7111 76.3238 77.0884 74.9464 78.7875 74.9464H88.9636" stroke="black" strokeWidth="1.5"/>
<path d="M80.4608 81.0993C80.3614 82.356 79.881 83.286 79.1734 83.9392C77.3511 85.5957 74.0096 85.4135 71.6857 84.2752" stroke="black" strokeWidth="1.5"/>
<path d="M66.9432 80.3373C64.882 77.8548 65.3056 74.4802 66.9077 71.8699C73.5221 61.0691 86.131 67.7214 94.4209 72.3763C99.3557 75.1606 104.073 78.3139 108.532 81.8093C112.48 84.8858 116.134 88.5681 120.876 90.4187C123.716 91.5286 127.069 91.7937 129.895 90.5134" stroke="black" strokeWidth="1.5"/>
<path d="M79.1733 83.9202C84.1754 87.6123 88.9517 91.6007 93.4766 95.8641" stroke="black" strokeWidth="1.5"/>
<path d="M140.036 25.86C141.233 26.9533 143.072 27.0125 144.594 26.8657C146.539 26.6883 148.465 26.2173 150.37 25.8197L151.527 25.7606H151.544C151.992 25.7649 152.42 25.9472 152.734 26.2672C153.048 26.5872 153.222 27.0187 153.217 27.4668C153.244 29.9644 152.994 32.4572 152.474 34.9001L154.692 36.0999C154.978 35.3 154.656 34.1475 155.335 34.06C155.771 33.2483 156.419 32.7205 157.437 33.324C159.429 34.5072 160.215 37.9837 158.296 39.5763L159.526 41.8766C160.411 43.5394 162.348 44.3444 164.151 43.7982L162.894 41.0199C165.843 41.5429 167.906 37.863 167.007 35.6171C166.394 34.0742 166.425 32.8743 167.244 31.374C167.298 31.2722 166.742 31.1373 166.789 31.0332C166.818 29.9328 166.512 28.7542 165.982 28.1934C165.05 27.19 163.173 27.0101 163.557 25.4861C163.727 24.8227 163.79 24.1365 163.743 23.4532C163.541 21.6457 162.567 20.014 161.072 18.9781C159.519 17.9581 157.782 18.8835 156.123 18.8574C154.109 18.8361 152.666 17.1275 150.555 17.1015C149.504 17.0849 148.662 17.4943 147.762 18.0031C147.01 18.4362 146.269 18.8882 145.55 19.3781C144.83 19.8679 144.191 20.2915 143.332 20.2939C142.213 20.3081 141.131 19.5981 140.005 19.9295C139.435 20.0827 138.935 20.4248 138.585 20.8997C138.228 22.6462 138.874 24.8069 140.036 25.86Z" fill="url(#paint1_linear)"/>
<path d="M154.701 35.8396C154.845 35.2231 155.058 34.6246 155.335 34.0552C155.771 33.2435 156.421 32.7158 157.437 33.3192C159.429 34.5025 160.215 37.9789 158.296 39.5716L159.526 41.8718C160.411 43.5347 162.348 44.3397 164.15 43.7935" stroke="black" strokeWidth="1.5" strokeLinecap="round" strokeLinejoin="round"/>
<path d="M162.894 41.0151L164.146 43.7981C164.46 44.4631 165.362 46.5078 166.306 48.633C166.978 50.1546 167.679 51.7213 168.2 52.8738" stroke="black" strokeWidth="1.5" strokeLinecap="round" strokeLinejoin="round"/>
<path d="M142.615 31.0214C142.615 31.0214 146.305 30.1031 147.916 32.9004" stroke="black" strokeWidth="1.5"/>
<path d="M143.701 39.3728C142.707 39.645 141.37 39.8887 140.604 39.0226L142.274 35.5059C142.68 34.6435 142.78 33.6687 142.558 32.7418C142.194 31.1823 141.283 28.8134 142.26 26.7569" stroke="black" strokeWidth="1.5"/>
<ellipse rx="0.982106" ry="1.15486" transform="matrix(0.516232 -0.856449 0.856446 0.516237 145.195 34.0636)" fill="black"/>
<path d="M151.568 56.7999L150.692 47.0829" stroke="black" strokeWidth="1.5"/>
<path d="M154.692 36.0952C154.692 36.01 154.692 35.9224 154.692 35.8372C154.696 35.7458 154.696 35.6541 154.692 35.5627" stroke="black" strokeWidth="1.5" strokeLinecap="round" strokeLinejoin="round"/>
<path d="M154.694 36.0975L153.932 35.6881L152.474 34.8953" stroke="black" strokeWidth="1.5" strokeLinecap="round" strokeLinejoin="round"/>
<path d="M148.593 39.6236C148.593 39.6236 148.52 42.0848 145.706 43.0977" stroke="black" strokeWidth="1.5"/>
<path d="M162.894 41.0152C165.843 41.5382 167.906 37.8582 167.007 35.6124C166.394 34.0694 166.425 32.8696 167.244 31.3692C167.298 31.2674 167.343 31.1681 167.39 31.0687C167.999 29.7268 167.783 28.3969 166.827 27.2562C165.921 26.1771 164.555 25.7984 164.948 24.2247C165.125 23.5415 165.19 22.8343 165.142 22.1303C164.936 20.2712 163.935 18.5926 162.397 17.5274C160.802 16.4696 159.006 17.428 157.288 17.402C155.219 17.3712 153.726 15.6105 151.556 15.5845C150.47 15.5845 149.594 15.9892 148.671 16.5145C147.895 16.9618 147.126 17.4328 146.392 17.9345C145.659 18.4362 144.972 18.8811 144.101 18.8811C142.947 18.8811 141.832 18.1711 140.677 18.5024C139.522 18.8337 138.836 19.7898 138.609 20.8973C138.239 22.6344 138.886 24.8045 140.048 25.867C141.245 26.9604 143.084 27.0195 144.605 26.8728C146.551 26.6953 148.477 26.2244 150.382 25.8268L151.539 25.7677H151.556C152.004 25.772 152.432 25.9543 152.746 26.2742C153.06 26.5942 153.233 27.0258 153.229 27.4739C153.255 29.9715 153.006 32.4643 152.486 34.9072" stroke="black" strokeWidth="1.5"/>
<path d="M155.139 43.7083C155.139 43.7083 150.742 49.5489 146.835 48.2402C142.928 46.9315 142.729 39.7018 142.729 39.7018" stroke="black" strokeWidth="1.5" strokeLinecap="round" strokeLinejoin="round"/>
<path d="M39.1412 207.323V121.505H44.3925V207.358" stroke="black" strokeWidth="1.5"/>
<ellipse cx="43.9737" cy="63.0924" rx="8.47688" ry="8.47688" fill="url(#paint2_linear)"/>
<path d="M40.6582 65.2792C40.4103 65.1096 40.19 64.9029 40.005 64.6662C39.3278 63.8278 39.3837 62.6156 40.1352 61.843C40.6154 61.3486 41.2995 61.1078 41.9835 61.1922C41.8299 60.2278 42.3337 59.2784 43.2183 58.8649C44.103 58.4514 45.1545 58.6738 45.7959 59.4102C46.4562 60.158 46.7662 61.2703 46.8822 62.25C46.9421 62.7614 46.95 63.2776 46.9058 63.7906C46.8845 64.0486 46.7922 65.5371 46.5508 65.6318C44.9558 66.2424 42.2367 66.3749 40.6582 65.2792Z" fill="white"/>
<circle cx="103.783" cy="65.0258" r="4.54373" fill="url(#paint3_linear)"/>
<path d="M103.47 62.9196C103.609 62.8362 103.76 62.7762 103.918 62.7422C104.479 62.6072 105.054 62.9116 105.257 63.4521C105.387 63.7983 105.348 64.1852 105.151 64.4981C105.642 64.6543 105.975 65.1104 105.975 65.6258C105.975 66.1412 105.642 66.5973 105.151 66.7534C104.609 66.8719 104.044 66.8308 103.525 66.6351C103.263 66.5469 103.011 66.4327 102.772 66.2943C102.652 66.2257 101.949 65.8423 101.961 65.7027C102.029 64.7845 102.585 63.4356 103.47 62.9196Z" fill="white"/>
<path d="M68.5524 59.8432C69.0617 60.268 69.6301 60.6164 70.2398 60.8774C72.5237 61.8306 75.1408 61.5114 77.1287 60.0373C77.886 59.4598 78.5486 58.6623 79.3319 58.0825C79.8785 57.6542 80.5346 57.3884 81.2252 57.3158C81.4547 57.3222 81.6826 57.2743 81.8902 57.1761C82.4155 56.8496 81.7955 56.3076 81.7411 55.9242C81.6681 55.311 81.8221 54.6923 82.1741 54.1848C84.0275 51.421 83.6765 47.734 81.335 45.3694C78.9934 43.0049 75.31 42.6179 72.5282 44.4442C71.1958 45.3175 70.2066 46.612 69.2032 47.8497C68.3181 48.9406 67.3928 50.015 66.7444 51.2622C65.2204 54.1943 66.1102 57.8056 68.5524 59.8432Z" fill="url(#paint4_linear)"/>
<ellipse cx="77.5902" cy="48.6613" rx="1.51694" ry="1.51694" fill="white"/>
<ellipse cx="74.6557" cy="52.249" rx="1.51694" ry="1.51694" fill="white"/>
<circle cx="71.9034" cy="55.6166" r="1.51694" fill="white"/>
<path opacity="0.46" d="M115.776 41.4104C115.536 42.6136 114.766 43.6442 113.68 44.2147L101.028 50.9356C100.065 51.4499 98.9358 51.5593 97.8914 51.2395C96.8469 50.9198 95.9728 50.1973 95.4622 49.2317L85.3784 30.2451C84.3145 28.2401 85.076 25.7522 87.0799 24.6862L99.7408 17.9676C101.646 16.9547 104.275 17.7309 105.297 19.6691L115.384 38.6486C115.838 39.4936 115.977 40.4723 115.776 41.4104Z" fill="url(#paint5_linear)"/>
<path d="M112.021 39.9715L99.684 35.2692C99.3593 35.1433 99.1738 34.8005 99.2461 34.4598L102.107 21.2996C102.174 21.0131 102.41 20.7972 102.701 20.7568C102.993 20.7163 103.279 20.8598 103.421 21.1174L112.896 38.9752C113.033 39.2356 112.996 39.5536 112.801 39.7747C112.607 39.9958 112.297 40.0741 112.021 39.9715Z" fill="white"/>
<path opacity="0.46" d="M130.449 54.6227C130.973 54.9989 131.299 55.5924 131.334 56.2367L131.807 63.7599C131.844 64.3334 131.65 64.8978 131.27 65.3285C130.889 65.7592 130.353 66.0207 129.779 66.0554L118.488 66.7512C117.297 66.8227 116.272 65.9166 116.198 64.7254L115.736 57.1975C115.694 56.0172 116.583 55.0105 117.76 54.9067L129.048 54.1968C129.551 54.1687 130.047 54.3196 130.449 54.6227Z" fill="url(#paint6_linear)"/>
<path d="M128.948 56.1088L124.007 61.0004C123.877 61.123 123.679 61.1369 123.534 61.0336L117.854 56.7975C117.73 56.7038 117.677 56.5427 117.722 56.3938C117.767 56.2448 117.9 56.1397 118.055 56.1301L128.676 55.4746C128.828 55.4707 128.967 55.5598 129.027 55.6995C129.087 55.8392 129.056 56.0014 128.948 56.1088Z" fill="white"/>
<g opacity="0.46">
<path d="M53.7734 95.9635C53.0325 96.0853 52.2832 96.1486 51.5323 96.1528C44.3428 96.1528 44.5842 89.4863 44.5842 89.4863L50.5407 90.7737C50.0838 89.6539 50.2133 88.3803 50.8863 87.3754C52.2494 85.3828 55.4158 86.4075 55.4158 86.4075L57.3847 85.139L56.9588 87.5055L59.5974 87.0606L58.2414 88.6296C60.0636 90.3809 62.3852 95.7126 56.786 98.4838C51.1868 101.255 48.7706 97.9348 48.7706 97.9348L51.5323 96.1552L53.7734 95.9635Z" fill="url(#paint7_linear)"/>
</g>
<ellipse cx="53.6551" cy="88.5824" rx="0.86141" ry="0.861413" fill="white"/>
<path d="M68.6708 211.327H167.182" stroke="#CCDDE2" strokeWidth="1.5"/>
<defs>
<linearGradient id="paint0_linear" x1="151.511" y1="118.674" x2="238.583" y2="167.38" gradientUnits="userSpaceOnUse">
<stop stop-color="#5F7DF1"/>
<stop offset="1" stop-color="#3055EC"/>
</linearGradient>
<linearGradient id="paint1_linear" x1="138.487" y1="19.4998" x2="165.463" y2="45.7988" gradientUnits="userSpaceOnUse">
<stop stop-color="#5F7DF1"/>
<stop offset="1" stop-color="#3055EC"/>
</linearGradient>
<linearGradient id="paint2_linear" x1="35.4968" y1="56.1293" x2="52.4506" y2="71.5693" gradientUnits="userSpaceOnUse">
<stop stop-color="#5F7DF1"/>
<stop offset="1" stop-color="#3055EC"/>
</linearGradient>
<linearGradient id="paint3_linear" x1="99.239" y1="61.2935" x2="108.326" y2="69.5696" gradientUnits="userSpaceOnUse">
<stop stop-color="#5F7DF1"/>
<stop offset="1" stop-color="#3055EC"/>
</linearGradient>
<linearGradient id="paint4_linear" x1="65.993" y1="44.9149" x2="84.0274" y2="60.6537" gradientUnits="userSpaceOnUse">
<stop stop-color="#5F7DF1"/>
<stop offset="1" stop-color="#3055EC"/>
</linearGradient>
<linearGradient id="paint5_linear" x1="84.8978" y1="20.5487" x2="118.376" y2="48.4026" gradientUnits="userSpaceOnUse">
<stop stop-color="#5F7DF1"/>
<stop offset="1" stop-color="#3055EC"/>
</linearGradient>
<linearGradient id="paint6_linear" x1="115.735" y1="55.315" x2="128.205" y2="69.8496" gradientUnits="userSpaceOnUse">
<stop stop-color="#5F7DF1"/>
<stop offset="1" stop-color="#3055EC"/>
</linearGradient>
<linearGradient id="paint7_linear" x1="44.5833" y1="86.4291" x2="59.0945" y2="100.81" gradientUnits="userSpaceOnUse">
<stop stop-color="#5F7DF1"/>
<stop offset="1" stop-color="#3055EC"/>
</linearGradient>
</defs>
</svg>
