<svg  viewBox="0 0 238 211" fill="none" xmlns="http://www.w3.org/2000/svg">
<path d="M78.3213 0.00570032C77.5374 0.195413 76.799 0.538994 76.149 1.01648C75.499 1.49397 74.9504 2.09586 74.535 2.78717C73.2555 1.90058 71.1277 2.0466 69.883 2.73849C69.8427 2.76439 69.8121 2.80298 69.7962 2.84817C69.7803 2.89336 69.7798 2.94256 69.795 2.98802C69.8102 3.03348 69.84 3.07259 69.8799 3.09918C69.9197 3.12577 69.9673 3.13832 70.0151 3.13485C70.8318 2.85071 71.7185 2.83851 72.5428 3.10008C73.2381 3.34346 73.7284 3.86499 74.3577 4.21267C74.4545 4.25637 74.5614 4.27267 74.6669 4.25979C74.7723 4.24692 74.8722 4.20537 74.9557 4.13966C74.9977 4.1092 75.0352 4.07291 75.0669 4.03187C75.1004 3.98349 75.1273 3.93088 75.1469 3.87542C75.1763 3.86344 75.2043 3.84829 75.2304 3.83022C75.5114 3.06651 75.9443 2.36771 76.5031 1.77609C77.0618 1.18447 77.7348 0.712307 78.4812 0.388152C78.7072 0.273417 78.5542 -0.0464522 78.3213 0.00570032Z" fill="black"/>
<path d="M88.7553 18.2799C87.4824 18.097 86.1859 18.1701 84.9416 18.4948C83.6974 18.8196 82.5306 19.3896 81.5095 20.1713C80.1188 18.1096 76.9027 17.07 74.6532 17.369C74.561 17.369 74.4726 17.4056 74.4074 17.4708C74.3422 17.536 74.3055 17.6245 74.3055 17.7167C74.3055 17.8089 74.3422 17.8973 74.4074 17.9625C74.4726 18.0277 74.561 18.0644 74.6532 18.0644C76.0245 18.117 77.3419 18.6122 78.4082 19.476C79.2913 20.2444 79.7155 21.3013 80.4387 22.1844C80.5574 22.3057 80.7066 22.3926 80.8706 22.436C81.0346 22.4795 81.2073 22.4778 81.3705 22.4313C81.4498 22.409 81.5258 22.3763 81.5965 22.3339C81.6748 22.2833 81.7461 22.2225 81.8086 22.1531C81.8515 22.1277 81.8922 22.0986 81.9302 22.0662C83.766 20.1644 86.0677 18.9371 88.7553 18.8849C89.1586 18.8884 89.1377 18.3286 88.7553 18.2799Z" fill="black"/>
<path d="M108.375 189.013C151.868 189.013 187.125 153.756 187.125 110.263C187.125 66.7705 151.868 31.5128 108.375 31.5128C64.8825 31.5128 29.6248 66.7705 29.6248 110.263C29.6248 153.756 64.8825 189.013 108.375 189.013Z" fill="#F2F5F8" stroke="white" strokeWidth="2" strokeMiterlimit="10"/>
<path d="M159.231 129.386C147.156 118.423 126.583 102.291 108.469 99.4849C95.6741 97.5031 85.7408 107.544 73.7006 107.134C68.5305 104.961 64.2088 101.223 67.0946 96.7034C69.2641 93.317 75.0913 92.8337 81.0019 89.4021C86.1789 86.3946 91.2447 80.3623 96.3 78.2762C104.036 75.0775 110.392 78.6065 117.856 76.5378C123.051 75.0984 139.044 81.9929 141.499 80.71C142.542 80.1641 146.453 72.6681 138.022 70.6272C129.135 68.4785 107.488 68.3151 107.078 68.1934C100.124 66.1073 86.5648 71.4651 84.1311 72.0179C75.9257 73.8919 69.4588 82.7961 59.7932 85.2299C46.3796 88.5815 36.8461 85.2299 26.4156 88.0113C19.3472 89.8958 17.6714 115.339 15.9851 122.432C29.5448 123.127 55.621 126.604 66.3992 129.733C66.7469 129.601 71.1103 125.231 74.3959 127.3C76.2908 128.496 77.1774 132.167 78.2204 135.644C80.3065 134.253 83.8112 133.109 85.8695 135.644C87.7226 137.928 87.9556 137.73 89.694 140.859C90.1182 141.624 91.7801 138.773 95.2569 140.164C101.616 142.709 98.3061 148.811 100.472 150.824C103.254 152.68 108.817 151.985 108.469 159.982C112.293 163.16 117.988 165.656 118.552 165.892C125.158 168.674 131.416 165.892 128.982 162.763C123.732 157.934 114.446 153.376 111.598 150.247C109.728 148.199 111.4 147.392 112.641 147.118C115.77 146.422 134.893 167.283 140.272 163.177C146.335 158.549 136.423 147.49 121.681 137.73C124.535 133.245 132.692 141.676 140.108 148.161C145.323 152.729 149.871 156.933 153.32 152.333C160.156 143.216 132.139 130.818 130.721 125.693C129.33 120.694 149.621 136.228 154.711 139.816C165.934 151.196 167.203 135.091 159.231 129.386Z" fill="white"/>
<path d="M107.05 167.589C107.05 167.589 108.469 161.018 106.209 158.758C104.203 156.853 100.427 154.669 98.5287 156.672C98.7999 155.132 99.544 152.948 98.56 149.023C97.517 144.851 92.0479 143.912 89.9375 145.358C89.3329 145.831 88.8501 146.441 88.5293 147.138C88.6649 146.791 88.8005 146.443 88.9327 146.137C88.9327 146.137 88.724 141.454 84.6005 140.021C80.477 138.589 79.4861 140.133 78.2623 141.801C77.8283 142.446 77.428 143.112 77.0627 143.797C77.9526 141.687 78.1021 139.338 77.4869 137.132C76.1553 132.021 73.1791 131.291 69.7092 133.13C66.2394 134.969 65.537 137.202 64.494 139.246C63.4509 141.29 61.7125 142.417 61.7125 145.546C61.7125 147.865 62.4079 150.761 65.6031 152.249C69.9248 154.259 72.9045 151.206 74.5768 148.327C74.7402 148.046 74.9245 147.761 75.0844 147.472C73.9336 149.628 72.7932 151.735 72.1569 152.583C71.9483 152.861 70.3803 158.921 74.9384 161.14C79.4965 163.358 82.9351 161.915 84.4962 161.028C84.4962 161.028 84.6631 160.333 84.9378 159.248C84.7771 160.881 84.8544 162.529 85.1672 164.14C86.3285 170.61 95.7264 169.474 95.7264 169.474C95.7264 169.474 95.7264 169.376 95.7264 169.199C96.1853 171.473 98.0002 171.567 100.396 172.808C103.177 174.254 106.282 174.477 109.839 171.031L107.05 167.589Z" fill="#A6B6FA"/>
<path d="M217.294 138.839L217.37 101.578C199.353 105.288 168.41 98.3445 156.401 94.6556C144.392 90.9666 127.724 84.7327 115.59 85.2681C103.455 85.8035 95.7368 84.7153 88.2929 89.9549C80.849 95.1945 83.0394 94.4956 77.5147 98.0802C71.99 101.665 67.1086 103.396 69.1703 105.382C71.2321 107.367 72.9948 109.276 77.8624 110.249C81.3392 110.945 89.1552 109.31 92.4651 105.729C95.7751 102.148 98.2088 101.373 101.505 101.651C104.801 101.929 113.361 103.581 117.224 105.236C121.086 106.891 137.351 111.296 144.798 117.919C152.246 124.542 168.969 144.433 168.969 144.433L217.294 138.839Z" fill="#A6B6FA"/>
<path d="M109.246 183.371L103.81 180.707L90.5028 207.871L95.9387 210.534L109.246 183.371Z" fill="#A8B8F9"/>
<path d="M70.0604 206.144C52.4119 201.433 35.8309 192.163 27.3509 175.767C24.4478 170.152 30.6157 162.589 36.116 167.899C42.9237 174.369 37.2634 186.986 28.394 190.074C19.5246 193.161 12.6822 193.898 1 186.746" stroke="#E2E9EB" strokeWidth="2" strokeMiterlimit="10" strokeLinecap="round"/>
<path d="M199.388 101.397C202.17 122.606 194.378 151.21 182.352 169.891C170.325 188.572 145.149 203.268 128.461 207.093" stroke="#E2E9EB" strokeWidth="2" strokeMiterlimit="10" strokeLinecap="round"/>
<path d="M207.733 46.4632C198.283 57.5717 196.259 68.6315 197.014 80.1433" stroke="#E2E9EB" strokeWidth="2" strokeMiterlimit="10" strokeLinecap="round"/>
<path d="M227.401 22.8068C227.536 22.6696 227.616 22.4882 227.627 22.2964C227.638 22.1045 227.578 21.9152 227.46 21.7637C227.36 21.6383 227.216 21.5556 227.057 21.5323C226.898 21.5091 226.737 21.5471 226.605 21.6386L212.638 30.8104L206.728 27.0381C206.364 26.7841 206.108 26.4028 206.012 25.9696C205.915 25.5364 205.985 25.0827 206.206 24.6982C206.395 24.3502 206.701 24.0796 207.069 23.9333L236.274 12.2129C236.441 12.1508 236.618 12.1245 236.796 12.1358C236.973 12.1471 237.147 12.1956 237.304 12.2783C237.461 12.3609 237.6 12.4759 237.71 12.6156C237.82 12.7553 237.899 12.9166 237.943 13.089C238.018 13.3584 238.019 13.643 237.946 13.913L231.149 39.9893C231.103 40.2065 231.013 40.4123 230.887 40.5947C230.76 40.7772 230.598 40.9326 230.411 41.052C230.224 41.1714 230.014 41.2523 229.796 41.2901C229.577 41.3279 229.353 41.3219 229.136 41.2722C228.985 41.2297 228.842 41.164 228.712 41.0775L221.508 36.4846L215.795 40.6568C215.66 40.7605 215.504 40.8342 215.338 40.8731C215.172 40.9119 214.999 40.915 214.832 40.8821C214.665 40.8492 214.506 40.7812 214.367 40.6824C214.228 40.5836 214.112 40.4564 214.026 40.3092C213.849 40.0047 213.786 39.6474 213.848 39.3009L214.512 35.386L227.401 22.8068Z" fill="#466BF0"/>
<path d="M78.2587 32.9661C73.5337 35.1669 69.8205 38.8489 68.0751 43.6817C63.6178 41.6547 57.1231 43.2853 53.6636 46.1155C53.5392 46.2225 53.4566 46.37 53.4305 46.532C53.4044 46.694 53.4364 46.8601 53.5209 47.0007C53.6054 47.1414 53.7369 47.2477 53.8922 47.3007C54.0475 47.3538 54.2165 47.3502 54.3694 47.2906C56.7649 46.0425 59.4456 45.3401 62.154 45.7782C64.4348 46.1468 66.2463 47.4749 68.3845 48.212C68.7091 48.2923 69.0493 48.283 69.369 48.185C69.6886 48.087 69.9756 47.9041 70.1994 47.6557C70.3121 47.5367 70.407 47.4021 70.4811 47.2559C70.5579 47.0886 70.6128 46.9122 70.6445 46.7309C70.6914 46.6439 70.7309 46.5532 70.7627 46.4597C71.8544 41.3592 74.4168 36.8671 78.888 34.0161C79.566 33.5606 78.9437 32.6427 78.2587 32.9661Z" fill="black"/>
<path d="M97.8855 93.3656C97.8855 93.3656 100.883 96.015 103.448 96.533" stroke="black" strokeWidth="2" strokeLinecap="round" strokeLinejoin="round"/>
<path d="M60.6277 81.1689L45.9416 81.9964C35.1008 82.0451 25.2544 81.1689 25.2544 81.1689" stroke="black" strokeWidth="2" strokeLinecap="round" strokeLinejoin="round"/>
<path d="M142.09 79.5417C145.81 75.1053 141.986 70.6237 136.51 70.2377C130.377 69.7997 115.155 69.2121 108.872 68.2803C102.59 67.3485 93.689 67.6788 85.0734 71.8649" stroke="black" strokeWidth="2" strokeLinecap="round" strokeLinejoin="round"/>
<path d="M148.609 118.062C150.695 119.922 161.286 130.436 163.038 135.512C164.495 139.74 164.86 143.376 161.946 146.29C158.222 150.014 155.243 148.779 153.497 146.916C151.752 145.052 149.308 140.633 145.81 137.608C142.312 134.584 130.922 125.172 130.922 125.172" stroke="black" strokeWidth="2" strokeLinecap="round" strokeLinejoin="round"/>
<path d="M139.997 110.263C133.714 104.676 119.981 100.956 116.723 99.5579C113.465 98.1602 106.251 96.7764 103.459 96.533C100.667 96.2897 95.5456 99.5579 92.7537 102.583C89.9618 105.608 82.2815 106.755 78.0919 107.005C73.9023 107.256 70.867 106.831 69.1251 105.156C67.3832 103.48 65.7109 101.421 66.5766 98.2402C67.6683 94.2348 75.3 92.8059 79.952 89.781C84.604 86.7562 86.0052 84.9135 92.2878 80.4735C98.5704 76.0336 105.086 76.9967 115.329 76.5169C125.572 76.0371 131.854 78.8464 149.774 84.4302C149.774 84.4302 164.067 87.5002 170.53 88.1852" stroke="black" strokeWidth="2" strokeLinecap="round" strokeLinejoin="round"/>
<path d="M202.371 87.9209C202.371 87.9209 194.142 88.2095 187.219 88.2686" stroke="black" strokeWidth="2" strokeLinecap="round" strokeLinejoin="round"/>
<path d="M129.264 143.773C134.792 148.588 141.701 155.125 142.326 158.202C143.369 163.4 138.154 164.721 136.103 164.856C134.052 164.992 132.317 165.301 128.363 162.395C124.41 159.488 111.737 150.059 111.737 150.059" stroke="black" strokeWidth="2" strokeLinecap="round" strokeLinejoin="round"/>
<path d="M122.31 137.956C122.31 137.956 124.049 139.347 126.503 141.405" stroke="black" strokeWidth="2" strokeLinecap="round" strokeLinejoin="round"/>
<path d="M142.333 158.202C142.681 158.789 148.411 158.897 151.182 155.876C153.953 152.854 153.963 150.295 153.963 147.733" stroke="black" strokeWidth="2" strokeLinecap="round" strokeLinejoin="round"/>
<path d="M130.571 163.907C130.571 163.907 130.279 170.68 122.776 169.953C117.307 169.724 110.673 166 108.229 163.907C108.229 163.907 109.714 157.03 107.346 154.662C104.912 152.336 99.9298 149.61 98.4974 153.911C96.978 158.462 96.2444 160.517 96.2444 164.255C96.2444 167.992 98.3305 167.864 101.248 169.373C104.165 170.882 107.415 171.111 111.139 167.509" stroke="black" strokeWidth="2" strokeLinecap="round" strokeLinejoin="round"/>
<path d="M87.1699 147.848C87.1699 147.848 88.1017 142.146 90.299 140.633C92.4964 139.121 98.2332 140.101 99.3388 144.458C100.444 148.814 99.4918 151.13 99.2623 152.757C98.4096 154.6 97.6904 156.502 97.1101 158.449C96.2618 161.355 96.3661 165.868 96.3661 165.868C96.3661 165.868 86.5232 167.071 85.3133 160.288C84.2041 154.162 86.1234 151.453 87.1699 147.848Z" stroke="black" strokeWidth="2" strokeLinecap="round" strokeLinejoin="round"/>
<path d="M71.691 148.195C71.472 148.491 69.8274 154.833 74.5977 157.155C79.3679 159.478 82.9803 157.969 84.6075 157.037C84.6075 157.037 87.1699 146.335 89.2595 141.447C89.2595 141.447 89.0404 136.544 84.7396 135.046C80.4387 133.547 79.3818 135.164 78.1023 136.91C76.8228 138.655 73.0887 146.335 71.691 148.195Z" stroke="black" strokeWidth="2" strokeLinecap="round" strokeLinejoin="round"/>
<path d="M63.663 134.232C64.7582 132.094 65.5023 129.758 69.1321 127.832C72.7619 125.905 75.8806 126.67 77.2783 132.021C78.676 137.372 75.9675 140.713 74.2222 143.742C72.4768 146.77 69.3546 149.955 64.8347 147.848C61.49 146.29 60.7634 143.258 60.7634 140.831C60.7529 137.553 62.5678 136.371 63.663 134.232Z" stroke="black" strokeWidth="2" strokeLinecap="round" strokeLinejoin="round"/>
<path d="M48.3267 129.518C53.9869 130.359 59.5603 131.656 63.4266 133.652" stroke="black" strokeWidth="2" strokeLinecap="round" strokeLinejoin="round"/>
<path d="M26.3114 127.953C26.3114 127.953 31.7283 127.929 38.6855 128.461" stroke="black" strokeWidth="2" strokeLinecap="round" strokeLinejoin="round"/>
<path d="M161.932 131.906C161.932 131.906 182.595 125.735 207.733 126.43" stroke="black" strokeWidth="2" strokeLinecap="round" strokeLinejoin="round"/>
<path d="M149.322 59.1536C156.331 59.1536 162.012 53.4719 162.012 46.4632C162.012 39.4544 156.331 33.7727 149.322 33.7727C142.313 33.7727 136.631 39.4544 136.631 46.4632C136.631 53.4719 142.313 59.1536 149.322 59.1536Z" fill="white"/>
<path d="M149.134 32.0447V30.3585H151.241C151.428 30.3594 151.607 30.2871 151.741 30.1571C151.875 30.0271 151.953 29.8497 151.957 29.6631V26.3045C151.956 26.1148 151.88 25.9332 151.746 25.799C151.612 25.6649 151.431 25.5892 151.241 25.5882H145.581C145.394 25.5937 145.217 25.6715 145.088 25.8053C144.958 25.939 144.885 26.1181 144.885 26.3045V29.6457C144.885 29.7388 144.904 29.831 144.94 29.9167C144.976 30.0025 145.029 30.0801 145.096 30.1449C145.163 30.2098 145.242 30.2606 145.329 30.2943C145.416 30.3279 145.508 30.3439 145.601 30.3411H147.688V32.0447H149.134ZM159.585 38.0736L162.113 35.5459C162.244 35.4121 162.317 35.2324 162.317 35.0452C162.317 34.8581 162.244 34.6784 162.113 34.5446L159.22 31.6449C159.086 31.5109 158.904 31.4357 158.714 31.4357C158.525 31.4357 158.343 31.5109 158.208 31.6449L155.681 34.1725L159.585 38.0736ZM146.307 27.0172H150.525V28.9156H146.307V27.0172ZM158.73 36.9123C158.45 36.5677 158.151 36.2381 157.836 35.9249C157.52 35.6085 157.19 35.3129 156.849 35.0313L158.716 33.1677L160.594 35.0452L158.73 36.9123Z" fill="#7691F4"/>
<path d="M153.963 55.8784C151.237 57.2747 148.093 57.6242 145.126 56.8607C142.16 56.0973 139.575 54.2738 137.862 51.7348C136.148 49.1957 135.423 46.1169 135.824 43.08C136.226 40.0431 137.725 37.2582 140.04 35.2516C142.355 33.245 145.324 32.1555 148.387 32.189C151.45 32.2224 154.395 33.3765 156.665 35.4332C158.936 37.4899 160.374 40.3068 160.709 43.3518C161.044 46.3968 160.252 49.459 158.483 51.96" stroke="#7691F4" strokeWidth="2" strokeMiterlimit="10" strokeLinecap="round"/>
<path d="M149.322 37.1035V46.1224H140.657" stroke="#7691F4" strokeWidth="2" strokeMiterlimit="10" strokeLinecap="round"/>
</svg>
