<svg viewBox="0 0 176 203" fill="none" xmlns="http://www.w3.org/2000/svg">
<g clip-path="url(#clip0)">
<path d="M95.5483 156.277C136.772 156.277 170.19 122.903 170.19 81.7337C170.19 40.5649 136.772 7.19092 95.5483 7.19092C54.3247 7.19092 20.9064 40.5649 20.9064 81.7337C20.9064 122.903 54.3247 156.277 95.5483 156.277Z" fill="#F2F5F8"/>
<path d="M84.1526 37.1825C93.5421 37.1825 101.154 29.5809 101.154 20.2039C101.154 10.8268 93.5421 3.22522 84.1526 3.22522C74.7631 3.22522 67.1514 10.8268 67.1514 20.2039C67.1514 29.5809 74.7631 37.1825 84.1526 37.1825Z" fill="#7794F8"/>
<path d="M85.7772 36.86C84.5451 37.0341 83.2985 37.0827 82.0566 37.0048C80.4737 36.9073 78.9104 36.6031 77.4067 36.0998" stroke="black" strokeWidth="2" strokeLinecap="round" strokeLinejoin="round"/>
<path d="M74.431 34.7735C70.8364 32.7917 68.0221 29.6498 66.4489 25.8622C64.8757 22.0746 64.6368 17.8658 65.7714 13.925C66.906 9.98411 69.3469 6.54476 72.6943 4.1701C76.0417 1.79544 80.0972 0.62621 84.1969 0.853856C88.2965 1.0815 92.1973 2.69254 95.2604 5.42316C98.3236 8.15379 100.368 11.8422 101.058 15.8844C101.748 19.9265 101.043 24.083 99.0593 27.673C97.0754 31.2631 93.9296 34.0741 90.1371 35.6456" stroke="black" strokeWidth="2" strokeLinecap="round" strokeLinejoin="round"/>
<path d="M83.3288 9.37631C83.3033 9.37897 83.2786 9.38681 83.2563 9.39935L74.6881 13.2071C74.6459 13.2257 74.61 13.2561 74.5849 13.2947C74.5597 13.3332 74.5463 13.3783 74.5464 13.4243V17.9463C74.5662 21.2637 75.0473 23.7056 76.3885 25.7593C77.7298 27.8129 79.885 29.4584 83.2398 31.2652C83.2744 31.2831 83.3128 31.2925 83.3518 31.2925C83.3908 31.2925 83.4292 31.2831 83.4639 31.2652C86.8186 29.4716 88.9936 27.8261 90.3316 25.7724C91.6695 23.7188 92.154 21.2768 92.1737 17.9594V13.4243C92.1738 13.3783 92.1604 13.3332 92.1353 13.2947C92.1101 13.2561 92.0742 13.2257 92.032 13.2071L83.4639 9.39935C83.4227 9.37661 83.3751 9.36849 83.3288 9.37631Z" fill="white"/>
<path d="M83.332 11.2983C83.3115 11.3007 83.2914 11.3063 83.2726 11.3148L76.25 14.4314C76.2161 14.4473 76.1874 14.4724 76.167 14.5038C76.1466 14.5352 76.1354 14.5717 76.1347 14.6091V18.3116C76.1512 21.0267 76.5433 23.0244 77.6407 24.7028C78.7381 26.3813 80.5176 27.7273 83.2595 29.1952C83.288 29.2099 83.3196 29.2176 83.3517 29.2176C83.3838 29.2176 83.4155 29.2099 83.444 29.1952C86.1858 27.7273 87.9686 26.3846 89.0462 24.7028C90.1239 23.0211 90.5358 21.0267 90.5523 18.3116V14.6091C90.5515 14.5717 90.5404 14.5352 90.52 14.5038C90.4996 14.4724 90.4708 14.4473 90.4369 14.4314L83.4143 11.3148C83.3884 11.3034 83.3603 11.2978 83.332 11.2983Z" fill="#D7E9F1"/>
<path d="M146.43 3.18248C147.123 3.18248 147.686 2.62109 147.686 1.92858C147.686 1.23607 147.123 0.674683 146.43 0.674683C145.737 0.674683 145.174 1.23607 145.174 1.92858C145.174 2.62109 145.737 3.18248 146.43 3.18248Z" fill="black"/>
<path d="M154.471 3.18248C155.164 3.18248 155.726 2.62109 155.726 1.92858C155.726 1.23607 155.164 0.674683 154.471 0.674683C153.777 0.674683 153.215 1.23607 153.215 1.92858C153.215 2.62109 153.777 3.18248 154.471 3.18248Z" fill="black"/>
<path d="M146.43 11.2095C147.123 11.2095 147.686 10.6481 147.686 9.95556C147.686 9.26305 147.123 8.70166 146.43 8.70166C145.737 8.70166 145.174 9.26305 145.174 9.95556C145.174 10.6481 145.737 11.2095 146.43 11.2095Z" fill="black"/>
<path d="M154.471 11.2095C155.164 11.2095 155.726 10.6481 155.726 9.95556C155.726 9.26305 155.164 8.70166 154.471 8.70166C153.777 8.70166 153.215 9.26305 153.215 9.95556C153.215 10.6481 153.777 11.2095 154.471 11.2095Z" fill="black"/>
<path d="M146.43 19.2397C147.123 19.2397 147.686 18.6783 147.686 17.9858C147.686 17.2933 147.123 16.7319 146.43 16.7319C145.737 16.7319 145.174 17.2933 145.174 17.9858C145.174 18.6783 145.737 19.2397 146.43 19.2397Z" fill="black"/>
<path d="M154.471 19.2397C155.164 19.2397 155.726 18.6783 155.726 17.9858C155.726 17.2933 155.164 16.7319 154.471 16.7319C153.777 16.7319 153.215 17.2933 153.215 17.9858C153.215 18.6783 153.777 19.2397 154.471 19.2397Z" fill="black"/>
<path d="M146.43 27.2699C147.123 27.2699 147.686 26.7085 147.686 26.016C147.686 25.3235 147.123 24.7621 146.43 24.7621C145.737 24.7621 145.174 25.3235 145.174 26.016C145.174 26.7085 145.737 27.2699 146.43 27.2699Z" fill="black"/>
<path d="M154.471 27.2699C155.164 27.2699 155.726 26.7085 155.726 26.016C155.726 25.3235 155.164 24.7621 154.471 24.7621C153.777 24.7621 153.215 25.3235 153.215 26.016C153.215 26.7085 153.777 27.2699 154.471 27.2699Z" fill="black"/>
<path d="M146.43 35.3001C147.123 35.3001 147.686 34.7387 147.686 34.0462C147.686 33.3537 147.123 32.7923 146.43 32.7923C145.737 32.7923 145.174 33.3537 145.174 34.0462C145.174 34.7387 145.737 35.3001 146.43 35.3001Z" fill="black"/>
<path d="M154.471 35.3001C155.164 35.3001 155.726 34.7387 155.726 34.0462C155.726 33.3537 155.164 32.7923 154.471 32.7923C153.777 32.7923 153.215 33.3537 153.215 34.0462C153.215 34.7387 153.777 35.3001 154.471 35.3001Z" fill="black"/>
<path d="M146.43 43.3303C147.123 43.3303 147.686 42.7689 147.686 42.0764C147.686 41.3839 147.123 40.8225 146.43 40.8225C145.737 40.8225 145.174 41.3839 145.174 42.0764C145.174 42.7689 145.737 43.3303 146.43 43.3303Z" fill="black"/>
<path d="M154.471 43.3303C155.164 43.3303 155.726 42.7689 155.726 42.0764C155.726 41.3839 155.164 40.8225 154.471 40.8225C153.777 40.8225 153.215 41.3839 153.215 42.0764C153.215 42.7689 153.777 43.3303 154.471 43.3303Z" fill="black"/>
<path d="M146.43 51.3572C147.123 51.3572 147.686 50.7958 147.686 50.1033C147.686 49.4108 147.123 48.8494 146.43 48.8494C145.737 48.8494 145.174 49.4108 145.174 50.1033C145.174 50.7958 145.737 51.3572 146.43 51.3572Z" fill="black"/>
<path d="M154.471 51.3572C155.164 51.3572 155.726 50.7958 155.726 50.1033C155.726 49.4108 155.164 48.8494 154.471 48.8494C153.777 48.8494 153.215 49.4108 153.215 50.1033C153.215 50.7958 153.777 51.3572 154.471 51.3572Z" fill="black"/>
<path d="M77.733 146.282C79.2489 161.875 86.1035 174.493 92.3187 188.819C94.9748 187.502 94.6782 188.862 97.3344 187.535C91.8588 171.817 90.6088 154.939 93.7094 138.587C87.9885 141.282 82.4159 144.383 77.733 146.282Z" fill="#ABB8EA"/>
<path d="M88.7859 190.632C84.716 193.123 82.5542 198.369 83.6845 203C88.341 199.113 98.3361 191.573 98.6887 190.329C99.0413 189.085 98 188.147 97.3343 187.535C94.9319 187.779 92.1604 188.579 88.7859 190.632Z" fill="#D6E8EF"/>
<path d="M113.251 46.8649C119.967 44.2321 130.661 43.5739 133.307 50.2975C135.954 57.0212 127.063 72.4432 120.346 75.0793C113.63 77.7155 110.816 66.766 108.173 60.0457C105.53 53.3253 106.535 49.5011 113.251 46.8649Z" fill="white"/>
<path d="M120.346 75.0793C115.258 77.077 112.411 71.2781 110.18 65.4299C109.771 64.357 109.382 63.2841 109.007 62.2573" stroke="black" strokeWidth="2" strokeMiterlimit="10" strokeLinecap="round"/>
<path d="M163.517 100.917C161.767 94.0062 159.457 87.0555 154.56 81.3883C149.663 75.721 143.378 69.6589 134.599 69.9287C131.198 70.0308 124.993 71.3439 123.395 73.878C121.912 76.2246 123.616 80.5062 124.822 82.8133C127.603 88.1152 131.488 92.9498 134.263 98.255C137.038 103.56 138.27 109.461 136.761 120.499C135.252 131.538 123.82 138.949 122.637 144.274C134.145 145.525 151.235 140.43 160.89 135.612C161.049 135.447 165.639 109.287 163.517 100.917Z" fill="#474747"/>
<path d="M163.148 98.5973C162.538 93.7693 159.638 84.8307 156.514 81.0756" stroke="black" strokeWidth="2" strokeMiterlimit="10" strokeLinecap="round"/>
<path d="M138.079 67.9212C136.168 67.5057 134.215 67.3168 132.26 67.3584C128.852 67.4374 125.01 68.5103 123.438 71.1827C121.978 73.6575 122.98 76.5636 124.209 79.022C127.046 84.6728 130.984 89.8365 133.815 95.4774C136.646 101.118 137.938 107.401 136.53 119.094C135.123 130.787 130.81 130.985 128.173 135.592" stroke="black" strokeWidth="2" strokeMiterlimit="10" strokeLinecap="round"/>
<path d="M96.4149 110.297L124.097 118.482C126.186 117.05 135.436 107.622 135.166 105.064C130.997 103.702 126.598 103.09 123.125 103.294C122.465 105.041 121.958 108.316 121.286 110.063L96.405 107.013L94.6057 106.874C94.4965 106.856 94.3909 106.82 94.2927 106.769L92.8756 105.834" stroke="black" strokeWidth="2" strokeLinecap="round" strokeLinejoin="round"/>
<path d="M121.651 103.596C121.816 96.705 123.026 89.8694 124.486 83.1161C125.25 79.5749 126.7 75.4084 130.312 74.5593C132.988 73.9209 135.782 75.5829 137.216 77.8504C138.649 80.118 138.992 82.8792 139.193 85.5482C139.743 92.6716 139.513 99.8337 138.508 106.907C132.919 105.667 127.3 104.502 121.651 103.596Z" fill="#474747"/>
<path d="M86.7132 109.027C86.7132 109.027 85.1643 108.948 84.9204 108.948C84.6766 108.948 83.309 108.757 83.1706 108.757C83.0322 108.757 81.7997 108.132 81.3712 108.013C81.0357 107.896 80.6871 107.821 80.3332 107.789C80.0959 107.789 79.7828 107.898 79.8455 108.398C79.8768 108.519 79.9397 108.629 80.0277 108.718C80.1158 108.806 80.2257 108.87 80.3464 108.902" stroke="black" strokeWidth="2" strokeLinecap="round" strokeLinejoin="round"/>
<path d="M81.7568 108.148C81.7568 108.148 81.6019 107.552 82.0303 107.49C82.2755 107.461 82.5236 107.51 82.7388 107.631C82.93 107.717 83.8296 108.148 84.0207 108.201C84.2119 108.253 85.2499 108.441 85.3883 108.441C85.5268 108.441 87.9654 108.599 87.9654 108.599" stroke="black" strokeWidth="2" strokeLinecap="round" strokeLinejoin="round"/>
<path d="M88.5619 108.276C88.5619 108.276 86.2353 108.105 86.0969 108.053C85.9585 108 85.1973 107.862 85.0061 107.776C84.815 107.691 84.3668 107.447 84.1065 107.5C83.5462 107.5 83.8593 108.089 83.8593 108.089" stroke="black" strokeWidth="2" strokeLinecap="round" strokeLinejoin="round"/>
<path d="M54.599 183.217C64.9203 162.25 80.5737 133.187 89.7812 131.472C96.906 130.155 104.667 129.853 120.429 134.763C136.504 139.769 141.487 141.974 150.345 146.993C136.175 163.701 128.72 153.061 106.878 154.792C93.9401 154.792 96.2436 151.784 90.1239 151.672C82.9563 151.672 82.7454 159.242 66.7757 175.612C64.6117 177.808 62.6476 180.193 60.9065 182.737C57.7033 182.214 58.1614 181.914 54.599 183.217Z" fill="#7794F8"/>
<path d="M112.085 130.725C114.675 131.383 124.1 134.296 127.185 135.257" stroke="#030303" strokeWidth="2" strokeLinecap="round" strokeLinejoin="round"/>
<path d="M54.599 183.217C64.9203 162.25 79.6741 130.488 88.8848 128.773C93.6632 127.881 99.1996 127.947 107.086 129.566" stroke="#030303" strokeWidth="2" strokeLinecap="round" strokeLinejoin="round"/>
<path d="M51.8308 182.444C47.1249 183.244 43.1704 187.312 42.4915 192.031C48.2618 190.152 60.3463 186.864 61.1372 185.84C61.9281 184.817 61.3118 183.56 60.9197 182.744C58.5997 182.076 55.7326 181.779 51.8308 182.444Z" fill="#D6E8EF"/>
<path d="M88.3411 104.304C87.682 104.13 86.5484 103.863 86.5484 103.863C86.4112 103.827 86.2662 103.834 86.1332 103.883V103.883C85.9748 103.931 85.8366 104.03 85.7396 104.165C85.6427 104.299 85.5923 104.461 85.596 104.626C85.5953 104.764 85.634 104.899 85.7076 105.016C85.7811 105.133 85.8865 105.226 86.0112 105.285L87.3953 105.943C87.3953 105.943 88.4532 106.657 88.7135 106.808C88.9738 106.96 89.0595 107.467 89.0595 107.467C89.0743 107.609 89.0457 107.753 88.9776 107.879C88.9094 108.005 88.8047 108.108 88.6772 108.174C88.3159 108.416 87.9331 108.624 87.5337 108.796C87.1811 108.902 85.2928 109.399 84.9204 109.385C84.5481 109.372 83.0256 109.349 82.7059 109.28L80.755 108.935C80.0267 108.849 79.6247 108.872 79.5291 109.343C79.3907 110.047 80.9198 110.491 81.3712 110.629C81.8101 110.795 82.2592 110.933 82.7158 111.041C83.1771 111.123 85.6817 111.265 85.708 111.265C85.7344 111.265 88.8288 111.281 89.5011 111.265C90.5062 111.281 94.2498 110.251 94.2498 110.251C94.2993 110.251 96.4117 110.287 96.4117 110.287" stroke="black" strokeWidth="2" strokeLinecap="round" strokeLinejoin="round"/>
<path d="M98.2504 55.2901C99.4902 56.8672 101.149 58.0642 103.038 58.7445C104.926 59.4248 106.969 59.561 108.931 59.1373C115.957 57.7617 120.732 52.5552 122.699 53.9177C124.667 55.2802 125.51 58.0381 125.51 58.0381C125.51 58.0381 126.604 56.1293 127.666 57.0508C128.588 57.8604 128.216 59.0715 127.853 60.1016C127.596 60.7783 127.282 61.4323 126.914 62.0565C127.511 63.5276 128.516 66.2855 128.516 66.2855C128.516 66.2855 134.523 59.4664 133.578 51.4362C131.788 36.238 118.748 44.5052 109.116 40.6316C102.749 38.0712 106.496 50.5213 102.749 50.337C99.3544 50.1955 96.1908 52.101 98.2504 55.2901Z" fill="#416AE4"/>
<path d="M91.3531 107.332C90.1502 108.155 87.5501 108.648 85.5795 108.415L78.3921 107.585C76.4148 107.358 75.7986 106.496 77.0014 105.673C78.2075 104.85 80.8076 104.357 82.775 104.59L89.9657 105.42C91.943 105.644 92.5592 106.509 91.3531 107.332Z" fill="#A8B8F9"/>
<path d="M75.459 105.416L75.7985 105.183" stroke="black" strokeWidth="2" strokeLinecap="round" strokeLinejoin="round"/>
<path d="M77.1464 104.261L77.6901 103.889C77.9059 103.777 78.1502 103.731 78.3921 103.758L93.0997 105.456C93.3369 105.486 93.4127 105.591 93.2677 105.69L88.8222 108.727C88.6064 108.84 88.3621 108.885 88.1202 108.859L73.4126 107.161C73.1754 107.131 73.0831 107.029 73.2446 106.927L75.1362 105.644" stroke="black" strokeWidth="2" strokeLinecap="round" strokeLinejoin="round"/>
<path d="M89.3758 107.74L91.1883 106.503" stroke="black" strokeWidth="2" strokeLinecap="round" strokeLinejoin="round"/>
<path d="M71.1158 80.1211C72.4909 77.6283 72.919 74.7236 72.3215 71.9408C71.7241 69.158 70.1411 66.6839 67.8634 64.9733C65.5858 63.2627 62.7665 62.4303 59.9236 62.6292C57.0808 62.8281 54.4052 64.0448 52.3886 66.0559C50.3721 68.0669 49.1499 70.7372 48.9468 73.576C48.7436 76.4149 49.5731 79.2316 51.2828 81.5086C52.9925 83.7856 55.4675 85.37 58.2532 85.9706C61.0389 86.5713 63.948 86.1478 66.4461 84.778L71.5573 85.2388L71.1158 80.1211Z" stroke="#466BF0" strokeWidth="2" strokeLinecap="round" strokeLinejoin="round"/>
<path d="M58.8632 71.4723V69.3034C58.8632 68.8775 59.0327 68.469 59.3342 68.1678C59.6358 67.8666 60.0449 67.6974 60.4714 67.6974H61.0349C61.4603 67.6991 61.8677 67.8691 62.1678 68.1701C62.468 68.4711 62.6365 68.8786 62.6365 69.3034V71.4723" stroke="#466BF0" strokeWidth="2" strokeLinecap="round" strokeLinejoin="round"/>
<path d="M60.7383 76.4911C60.9991 76.4911 61.2539 76.4139 61.4707 76.2693C61.6875 76.1246 61.8564 75.919 61.9562 75.6785C62.0559 75.4379 62.0821 75.1732 62.0312 74.9179C61.9803 74.6625 61.8548 74.428 61.6704 74.2438C61.4861 74.0597 61.2512 73.9344 60.9955 73.8836C60.7398 73.8328 60.4748 73.8588 60.2339 73.9585C59.993 74.0581 59.7872 74.2269 59.6423 74.4433C59.4975 74.6598 59.4202 74.9143 59.4202 75.1747C59.4202 75.5238 59.559 75.8587 59.8062 76.1056C60.0535 76.3524 60.3887 76.4911 60.7383 76.4911Z" fill="#466BF0"/>
<path d="M59.7794 78.5184H55.4755V71.6171H62.6069" stroke="#466BF0" strokeWidth="2" strokeLinecap="round" strokeLinejoin="round"/>
<path d="M64.9499 71.6171H66.0242V75.0661V78.5184H61.8423" stroke="#466BF0" strokeWidth="2" strokeLinecap="round" strokeLinejoin="round"/>
<path d="M25.3288 136.678L18.8071 127.098L39.7628 116.619L25.3288 136.678Z" fill="#466BF0"/>
<path d="M176 124.962V119.782H150.081V124.962H176Z" fill="#D6E8EF"/>
<path d="M124.485 82.4579C124.485 82.4579 127.02 75.5236 131.304 76.1818C135.588 76.8401 138.224 85.3969 138.224 85.3969C138.224 85.3969 138.224 74.5363 132.622 73.549C127.02 72.5617 124.485 82.4579 124.485 82.4579Z" fill="white"/>
<path d="M130.17 73.6445C132.846 72.9862 134.804 73.4964 137.091 77.0606C139.378 80.6248 139.414 91.0213 139.414 91.0213C139.523 96.3296 139.223 101.638 138.517 106.901C134.207 105.913 129.883 104.959 125.543 104.14C124.225 103.893 122.933 103.656 121.625 103.439C121.671 101.01 121.842 98.5908 122.103 96.1784" stroke="black" strokeWidth="2" strokeMiterlimit="10" strokeLinecap="round"/>
<path d="M79.071 162.579C79.071 162.579 86.9801 181.996 91.2642 188.249" stroke="#030303" strokeWidth="2" strokeLinecap="round" strokeLinejoin="round"/>
<path d="M85.9288 152.963C85.9288 152.963 88.7366 151.347 96.6324 153.621C106.094 156.333 120.623 153.469 134.286 144.863" stroke="#030303" strokeWidth="2" strokeLinecap="round" strokeLinejoin="round"/>
<path d="M59.5355 100.694L62.0005 94.8981L68.9242 99.6702L59.5355 100.694Z" fill="#A8B8F9"/>
<path d="M85.8003 72.3806L86.6274 75.3195L81.6843 75.8593L85.8003 72.3806Z" fill="#474747"/>
<path d="M80.5144 104.794L75.6635 95.1021" stroke="black" strokeWidth="2" strokeMiterlimit="10" strokeLinecap="round"/>
<path d="M74.1772 92.4957L72.8755 89.899" stroke="black" strokeWidth="2" strokeMiterlimit="10" strokeLinecap="round"/>
<path d="M105.537 62.4668C105.354 61.953 104.789 61.6845 104.275 61.867C103.76 62.0496 103.491 62.6141 103.674 63.1279L105.329 67.7796C105.512 68.2934 106.077 68.562 106.592 68.3794C107.106 68.1969 107.375 67.6323 107.192 67.1185L105.537 62.4668Z" fill="black"/>
<path d="M126.521 58.2201C127.028 58.0181 127.275 57.4437 127.073 56.9372C126.87 56.4308 126.295 56.184 125.788 56.3861L106.453 64.0898C105.946 64.2919 105.698 64.8663 105.901 65.3727C106.103 65.8792 106.678 66.126 107.185 65.9239L126.521 58.2201Z" fill="black"/>
<path d="M88.9342 93.4829C89.6119 93.8071 90.2481 94.2115 90.8291 94.6874C91.4067 95.1709 91.9225 95.7235 92.3648 96.333" stroke="#D7E9F1" strokeWidth="2" strokeMiterlimit="10"/>
<path d="M86.7295 85.9728C89.8466 86.3033 92.7942 87.5545 95.1956 89.5664C97.5971 91.5784 99.3433 94.2597 100.211 97.2677" stroke="#D7E9F1" strokeWidth="2" strokeMiterlimit="10"/>
<path d="M88.0774 89.6259C89.8747 90.0741 91.5481 90.9198 92.9741 92.1007C94.4002 93.2816 95.5422 94.7674 96.316 96.4483" stroke="#D7E9F1" strokeWidth="2" strokeMiterlimit="10"/>
<path d="M20.9326 75.257C32.1677 75.257 41.2754 66.1613 41.2754 54.9412C41.2754 43.7211 32.1677 34.6254 20.9326 34.6254C9.69763 34.6254 0.589844 43.7211 0.589844 54.9412C0.589844 66.1613 9.69763 75.257 20.9326 75.257Z" fill="white"/>
<path d="M23.6909 62.2967H11.1847L19.3442 50.778C19.5798 50.445 19.9381 50.2191 20.3405 50.1499C20.7428 50.0808 21.1561 50.1741 21.4896 50.4094C21.823 50.6446 22.0492 51.0025 22.1184 51.4043C22.1876 51.8061 22.0942 52.2189 21.8587 52.5519L17.1363 59.2393H23.6909C24.0991 59.2393 24.4905 59.4012 24.7791 59.6895C25.0678 59.9777 25.2299 60.3686 25.2299 60.7763C25.2299 61.1839 25.0678 61.5748 24.7791 61.863C24.4905 62.1513 24.0991 62.3132 23.6909 62.3132V62.2967Z" fill="#3E61EE"/>
<path d="M28.7659 62.3988C28.3577 62.3988 27.9663 62.2368 27.6776 61.9486C27.389 61.6604 27.2269 61.2694 27.2269 60.8618V46.3416H13.2871C12.879 46.3416 12.4875 46.1797 12.1989 45.8915C11.9103 45.6032 11.7482 45.2123 11.7482 44.8047C11.7482 44.3971 11.9103 44.0061 12.1989 43.7179C12.4875 43.4297 12.879 43.2678 13.2871 43.2678H30.318V60.8618C30.318 61.0648 30.2778 61.2657 30.1996 61.453C30.1215 61.6404 30.0069 61.8104 29.8626 61.9533C29.7183 62.0962 29.5471 62.2091 29.3589 62.2856C29.1706 62.362 28.9691 62.4005 28.7659 62.3988Z" fill="#3E61EE"/>
<path d="M33.8706 70.5014C33.0741 71.048 32.2418 71.5406 31.3793 71.9758" stroke="black" strokeWidth="2" strokeLinecap="round" strokeLinejoin="round"/>
<path d="M25.3024 73.9472C20.5866 74.7163 15.7491 73.8634 11.5821 71.5283C7.41506 69.1931 4.16553 65.514 2.36567 61.0936C0.565807 56.6732 0.322302 51.7734 1.67503 47.1967C3.02776 42.6201 5.89655 38.6378 9.81156 35.902C13.7266 33.1662 18.4558 31.8392 23.2246 32.1382C27.9935 32.4372 32.5193 34.3445 36.061 37.5478C39.6026 40.7511 41.9501 45.0605 42.7191 49.7702C43.488 54.4799 42.6327 59.3108 40.2934 63.4717" stroke="black" strokeWidth="2" strokeLinecap="round" strokeLinejoin="round"/>
</g>
<defs>
<clipPath id="clip0">
<rect width="176" height="203" fill="white"/>
</clipPath>
</defs>
</svg>
