<svg  viewBox="0 0 206 174" fill="none" xmlns="http://www.w3.org/2000/svg">
<g clip-path="url(#clip0)">
<path d="M53.4728 61.8452C48.6939 67.217 45.0298 73.4822 42.6925 80.278C33.065 80.5125 23.9093 84.4904 17.1747 91.365C10.4402 98.2395 6.65869 107.468 6.63538 117.085" stroke="black" strokeWidth="2" strokeLinecap="round" strokeLinejoin="round"/>
<path d="M148.119 147.103C171.272 147.103 190.283 130.325 190.283 109.889C190.283 88.1638 169.077 70.3092 143.732 72.8906C133.738 58.4789 116.189 49.6607 96.9362 49.6607C73.3019 49.6607 52.5804 62.7803 45.0233 82.1395C25.0375 82.5702 8.95142 96.9849 8.95142 114.621C8.95142 132.476 25.525 147.103 45.756 147.103H148.119Z" fill="#F2F5F8" stroke="white" strokeWidth="2" strokeMiterlimit="10"/>
<path d="M23.2355 104.771V100.127H-4.95911e-05V104.771H23.2355Z" fill="#A8B8F9"/>
<path d="M130.547 44.8785H74.9889C72.6018 44.8785 70.6667 46.8109 70.6667 49.1947V169.002C70.6667 171.386 72.6018 173.319 74.9889 173.319H130.547C132.934 173.319 134.869 171.386 134.869 169.002V49.1947C134.869 46.8109 132.934 44.8785 130.547 44.8785Z" fill="#A8B8F9"/>
<path d="M106.618 74.6637H92.7295V87.7331H106.618V74.6637Z" fill="white"/>
<path d="M106.618 98.1356H92.7295V111.205H106.618V98.1356Z" fill="white"/>
<path d="M106.618 123.206H92.7295V136.276H106.618V123.206Z" fill="white"/>
<path d="M98.2037 33.8418H103.202" stroke="black" strokeWidth="2" strokeLinecap="round" strokeLinejoin="round"/>
<path d="M122.952 33.8418H130.875C131.912 33.8434 132.906 34.2554 133.639 34.9876C134.373 35.7198 134.785 36.7124 134.787 37.7479V169.362C134.784 170.397 134.37 171.388 133.637 172.119C132.904 172.85 131.911 173.261 130.875 173.262H65.7774C64.7425 173.259 63.751 172.847 63.0192 172.117C62.2874 171.386 61.8749 170.396 61.8718 169.362V37.7479C61.8749 36.7144 62.2874 35.7242 63.0192 34.9935C63.751 34.2627 64.7425 33.8508 65.7774 33.8477H93.6512" stroke="black" strokeWidth="2" strokeLinecap="round" strokeLinejoin="round"/>
<path d="M85.0542 166.424H111.604" stroke="black" strokeWidth="2" strokeLinecap="round" strokeLinejoin="round"/>
<path d="M106.677 79.5315V87.8216H90.0706V71.2385H106.677" stroke="black" strokeWidth="2" strokeLinecap="round" strokeLinejoin="round"/>
<path d="M106.677 95.0762H90.0706V111.659H106.677V95.0762Z" stroke="black" strokeWidth="2" strokeLinecap="round" strokeLinejoin="round"/>
<path d="M106.677 119.256H90.0706V135.839H106.677V119.256Z" stroke="black" strokeWidth="2" strokeLinecap="round" strokeLinejoin="round"/>
<path d="M102.972 24.1946V4.13321C102.977 3.03947 103.415 1.99206 104.189 1.21866C104.964 0.445255 106.013 0.00835781 107.108 0.00292969H144.019C145.114 0.00835781 146.163 0.445255 146.937 1.21866C147.712 1.99206 148.149 3.03947 148.155 4.13321V24.1946C148.149 25.2883 147.712 26.3357 146.937 27.1092C146.163 27.8826 145.114 28.3195 144.019 28.3249H125.557L114.169 35.6827L114.31 28.3278H107.117C106.019 28.3247 104.968 27.8885 104.191 27.1142C103.415 26.3399 102.976 25.2904 102.972 24.1946Z" fill="#466BF0"/>
<path d="M115.977 16.8014C115.46 16.8014 114.954 16.6483 114.524 16.3614C114.094 16.0745 113.759 15.6667 113.561 15.1896C113.363 14.7125 113.312 14.1876 113.412 13.6811C113.513 13.1746 113.762 12.7094 114.128 12.3443C114.494 11.9791 114.959 11.7304 115.467 11.6297C115.974 11.529 116.5 11.5807 116.977 11.7783C117.455 11.9759 117.863 12.3105 118.151 12.7399C118.438 13.1693 118.591 13.6741 118.591 14.1905C118.59 14.8824 118.314 15.5456 117.824 16.0349C117.334 16.5242 116.67 16.7998 115.977 16.8014Z" fill="white"/>
<path d="M125.558 16.8014C125.04 16.8014 124.535 16.6483 124.105 16.3614C123.675 16.0745 123.34 15.6667 123.142 15.1896C122.944 14.7125 122.892 14.1876 122.993 13.6811C123.094 13.1746 123.343 12.7094 123.709 12.3443C124.074 11.9791 124.54 11.7304 125.047 11.6297C125.555 11.529 126.08 11.5807 126.558 11.7783C127.036 11.9759 127.444 12.3105 127.731 12.7399C128.019 13.1693 128.172 13.6741 128.172 14.1905C128.171 14.8827 127.896 15.5463 127.405 16.0358C126.915 16.5253 126.251 16.8006 125.558 16.8014Z" fill="white"/>
<path d="M135.159 16.8014C134.642 16.8009 134.137 16.6472 133.707 16.36C133.278 16.0727 132.943 15.6648 132.746 15.1876C132.548 14.7105 132.497 14.1856 132.598 13.6793C132.699 13.1731 132.948 12.7081 133.314 12.3433C133.68 11.9784 134.146 11.73 134.653 11.6295C135.16 11.529 135.686 11.5809 136.163 11.7786C136.641 11.9763 137.049 12.311 137.336 12.7403C137.623 13.1696 137.776 13.6742 137.776 14.1905C137.776 14.8832 137.5 15.5473 137.009 16.0369C136.518 16.5265 135.853 16.8014 135.159 16.8014Z" fill="white"/>
<path d="M186.338 51.8045L167.17 58.9878C164.935 59.8254 163.804 62.3135 164.642 64.5453L177.536 98.8562C178.375 101.088 180.867 102.218 183.101 101.381L202.269 94.1973C204.504 93.3598 205.636 90.8717 204.797 88.6399L191.903 54.329C191.065 52.0972 188.573 50.967 186.338 51.8045Z" fill="#D7E9F1"/>
<path d="M202.461 93.315L177.848 102.496C176.777 102.896 175.591 102.858 174.547 102.39C173.503 101.922 172.686 101.063 172.274 99.9972L158.456 63.4147C158.058 62.347 158.101 61.1652 158.574 60.1287C159.048 59.0922 159.914 58.2856 160.982 57.886L185.603 48.7079C186.675 48.3105 187.86 48.3513 188.902 48.8214C189.943 49.2914 190.757 50.1528 191.166 51.2185L204.987 87.8011C205.381 88.8669 205.336 90.0453 204.863 91.0786C204.39 92.1118 203.526 92.9159 202.461 93.315V93.315Z" stroke="black" strokeWidth="2" strokeLinecap="round" strokeLinejoin="round"/>
<path d="M171.934 67.3029L170.082 68.0021" stroke="black" strokeWidth="2" strokeLinecap="round" strokeLinejoin="round"/>
<path d="M194.091 58.9391L185.078 62.3407" stroke="black" strokeWidth="2" strokeLinecap="round" strokeLinejoin="round"/>
<path d="M161.429 71.268L166.144 69.489" stroke="black" strokeWidth="2" strokeLinecap="round" strokeLinejoin="round"/>
<path d="M179.99 70.2266C180.18 70.2247 180.367 70.2799 180.525 70.3851C180.683 70.4904 180.805 70.6408 180.877 70.8167C180.92 70.9273 180.94 71.0454 180.937 71.164C180.933 71.2825 180.906 71.3992 180.856 71.507C180.781 71.6703 180.661 71.8088 180.509 71.906C180.358 72.0033 180.182 72.0552 180.002 72.0558C179.812 72.0582 179.626 72.0031 179.468 71.8978C179.309 71.7925 179.187 71.6419 179.116 71.4657C179.073 71.3551 179.052 71.237 179.056 71.1184C179.06 70.9999 179.087 70.8832 179.137 70.7754C179.186 70.6644 179.257 70.5644 179.346 70.4813C179.435 70.3982 179.539 70.3337 179.654 70.2915C179.761 70.2508 179.875 70.2299 179.99 70.2296V70.2266ZM179.99 67.5744C179.23 67.5792 178.49 67.8265 177.88 68.2801C177.27 68.7337 176.821 69.37 176.598 70.0964C176.375 70.8227 176.39 71.6012 176.641 72.3183C176.892 73.0354 177.366 73.6537 177.994 74.0832C178.621 74.5127 179.37 74.7309 180.13 74.706C180.89 74.6811 181.623 74.4145 182.221 73.945C182.819 73.4754 183.251 72.8275 183.455 72.0955C183.658 71.3635 183.622 70.5858 183.352 69.8756C183.091 69.197 182.63 68.6137 182.03 68.2028C181.429 67.7918 180.718 67.5727 179.99 67.5744Z" fill="#2D2D2D"/>
<path d="M175.391 58.1956C175.581 58.1932 175.767 58.2483 175.925 58.3536C176.083 58.4589 176.206 58.6095 176.277 58.7857C176.319 58.8958 176.34 59.0134 176.336 59.1315C176.333 59.2495 176.305 59.3657 176.256 59.4731C176.206 59.5843 176.134 59.6846 176.045 59.7681C175.955 59.8517 175.851 59.9168 175.736 59.9599C175.505 60.0486 175.247 60.0422 175.02 59.9422C174.793 59.8421 174.615 59.6565 174.525 59.4259C174.481 59.3155 174.461 59.1975 174.464 59.0789C174.467 58.9603 174.494 58.8435 174.543 58.7355C174.593 58.6244 174.665 58.5244 174.754 58.4414C174.843 58.3583 174.948 58.2938 175.063 58.2517C175.17 58.211 175.284 58.19 175.399 58.1897L175.391 58.1956ZM175.399 55.5346C174.921 55.5208 174.445 55.603 173.999 55.7763C173.553 55.9496 173.147 56.2105 172.803 56.5435C172.46 56.8764 172.187 57.2748 172.001 57.7149C171.815 58.155 171.719 58.628 171.719 59.1058C171.719 59.5836 171.815 60.0565 172.001 60.4967C172.187 60.9368 172.46 61.3351 172.803 61.6681C173.147 62.001 173.553 62.2619 173.999 62.4352C174.445 62.6085 174.921 62.6907 175.399 62.677C175.835 62.6761 176.268 62.5972 176.676 62.4439C177.46 62.1484 178.115 61.5872 178.526 60.8584C178.938 60.1297 179.08 59.2796 178.928 58.4567C178.776 57.6338 178.34 56.8904 177.695 56.3563C177.05 55.8222 176.237 55.5314 175.399 55.5346Z" fill="#2D2D2D"/>
<path d="M177.553 61.3908L180.147 68.1762L178.014 68.9816L175.42 62.1962L177.553 61.3908ZM177.553 59.9157C177.374 59.9153 177.197 59.9473 177.03 60.0101L174.894 60.8155C174.712 60.8843 174.546 60.9882 174.405 61.1214C174.263 61.2545 174.149 61.4142 174.07 61.5914C173.989 61.7681 173.945 61.959 173.939 62.1531C173.934 62.3471 173.967 62.5403 174.037 62.7213L176.631 69.5067C176.771 69.8706 177.049 70.1645 177.405 70.3242C177.761 70.484 178.166 70.4966 178.531 70.3594L180.664 69.554C180.846 69.4855 181.013 69.3818 181.154 69.2489C181.296 69.116 181.41 68.9564 181.49 68.7793C181.57 68.6023 181.614 68.4112 181.62 68.2171C181.626 68.0229 181.593 67.8296 181.524 67.6481L178.93 60.8627C178.823 60.584 178.634 60.3442 178.387 60.1751C178.141 60.006 177.849 59.9156 177.55 59.9157H177.553Z" fill="#2D2D2D"/>
<path d="M177.178 60.4378L185.078 64.3881" stroke="#2D2D2D" strokeWidth="2" strokeLinecap="round" strokeLinejoin="round"/>
<path d="M117.732 106.175L157.585 91.055" stroke="#030303" strokeWidth="2" strokeLinecap="round" strokeLinejoin="round"/>
<path d="M127.179 113.483L185.609 91.3176" stroke="#030303" strokeWidth="2" strokeLinecap="round" strokeLinejoin="round"/>
<path d="M129.345 90.8751L170.797 75.1476" stroke="#030303" strokeWidth="2" strokeLinecap="round" strokeLinejoin="round"/>
<path d="M162.634 32.8475L163.842 35.2962L166.548 35.6886L164.59 37.5915L165.053 40.282L162.634 39.0135L160.214 40.282L160.678 37.5915L158.719 35.6886L161.425 35.2962L162.634 32.8475Z" fill="#A8B8F9"/>
<path d="M156.3 43.784L157.041 45.2827L158.699 45.5246L157.499 46.6899L157.783 48.3391L156.3 47.5603L154.817 48.3391L155.1 46.6899L153.901 45.5246L155.558 45.2827L156.3 43.784Z" fill="#7691F4"/>
<path d="M109.962 71.9702L97.9791 83.9362L93.7308 79.6968" stroke="#030303" strokeWidth="2" strokeLinecap="round" strokeLinejoin="round"/>
<path d="M147.269 147.103C170.418 147.103 189.429 128.092 189.429 104.936" stroke="black" strokeWidth="2" strokeLinecap="round" strokeLinejoin="round"/>
</g>
<defs>
<clipPath id="clip0">
<rect width="206" height="174" fill="white"/>
</clipPath>
</defs>
</svg>
