<svg width="258" height="258" viewBox="0 0 258 258" fill="none" xmlns="http://www.w3.org/2000/svg">
<ellipse cx="108.868" cy="135.258" rx="4.5764" ry="3.71927" transform="rotate(-60 108.868 135.258)" fill="#CCDDE2"/>
<ellipse cx="119.987" cy="137.59" rx="4.59216" ry="3.73208" transform="rotate(-60.1135 119.987 137.59)" fill="#CCDDE2"/>
<path d="M82.8187 168.58C85.7062 162.006 87.5291 154.421 87.7011 145.624C88.5354 102.601 137.182 69.4006 191.146 105.893C245.109 142.385 197.416 242.778 197.416 242.778" stroke="#CCDDE2" strokeWidth="1.5"/>
<path d="M45.0899 242.778C42.7057 240.904 24.529 223.132 35.4466 212.961C40.1115 208.619 50.1518 203.55 60.2098 195.821" stroke="#CCDDE2" strokeWidth="1.5"/>
<path d="M175.158 134.942C175.355 135.96 175.869 136.89 176.627 137.597" stroke="#CCDDE2" strokeWidth="4.47"/>
<path d="M132.793 154.476C132.418 154.575 132.102 154.646 131.852 154.704C131.665 154.737 131.511 154.769 131.404 154.785H131.382L131.235 154.81C131.235 154.81 131.22 154.792 131.21 154.792C128.681 152.936 129.458 149.483 129.458 149.483C137.017 150.673 138.585 144.55 138.585 144.55C138.486 141.614 137.928 140.234 136.638 139.44C135.291 138.595 133.141 138.378 129.857 137.67L129.313 137.549C124.429 136.439 122.15 131.425 121.25 128.644C121.041 128.027 120.872 127.398 120.745 126.76C115.213 128.838 111.749 131.781 109.754 133.989C108.965 118.34 124.671 120.588 124.671 120.588C127.314 120.626 129.941 121.01 132.484 121.731C133.061 121.984 133.612 122.237 134.138 122.489C134.39 122.618 134.658 122.757 134.896 122.902C135.134 123.046 135.402 123.187 135.634 123.331C135.804 123.43 135.976 123.536 136.14 123.647C139.595 125.84 142.357 128.968 144.105 132.669C144.129 132.719 144.151 132.77 144.17 132.823C144.25 132.994 144.32 133.17 144.38 133.349C147.935 148.904 136.967 153.356 132.793 154.476Z" fill="url(#paint0_linear)"/>
<path d="M132.793 154.476C131.69 152.643 132.201 150.431 132.201 150.431C139.753 151.624 141.326 145.5 141.326 145.5C141.164 140.997 139.948 140.153 136.638 139.432C135.412 139.157 133.905 138.904 132.054 138.492C131.286 138.319 130.546 138.037 129.857 137.655C124.828 134.899 123.473 127.695 123.473 127.695C122.694 127.986 121.956 128.302 121.25 128.628C121.041 128.012 120.872 127.383 120.745 126.745C115.213 128.823 111.749 131.766 109.754 133.973C108.965 118.325 124.671 120.573 124.671 120.573C127.314 120.611 129.941 120.995 132.484 121.716C133.061 121.969 133.612 122.221 134.138 122.474C134.39 122.603 134.658 122.742 134.896 122.886C135.134 123.03 135.402 123.172 135.634 123.316C135.804 123.415 135.976 123.521 136.14 123.632C139.595 125.825 142.357 128.953 144.105 132.654C144.129 132.704 144.151 132.755 144.17 132.808C144.25 132.979 144.32 133.155 144.38 133.334C147.935 148.904 136.967 153.356 132.793 154.476Z" fill="url(#paint1_linear)"/>
<path d="M159.298 223.732C160.466 231.357 161.894 238.859 163.386 242.778H96.3305C88.2573 219.856 92.0853 194.814 92.0853 194.814L80.1765 195.188C87.3395 182.622 84.7908 171.998 83.5823 168.453C92.9374 166.863 102.292 165.614 111.746 165.508C111.493 170.918 117.4 177.138 125.918 175.502C129.372 174.845 133.581 173.48 133.672 167.429L135.895 167.819C138.969 168.324 141.751 168.865 144.388 169.475C151.214 171.047 157.08 173.014 164.39 175.502C154.276 182.989 159.303 200.281 159.303 200.281L159.556 200.857L156.327 200.281C156.327 200.281 157.523 212.141 159.298 223.732Z" fill="#353642"/>
<ellipse cx="89.7262" cy="44.9788" rx="12.106" ry="12.106" fill="url(#paint2_linear)"/>
<path d="M93.706 40.9384C93.5358 40.5443 93.3064 40.1785 93.0259 39.8537C92.0361 38.6763 90.3244 38.4205 89.0335 39.257C88.2068 39.7915 87.6803 40.6844 87.6126 41.6665C86.3048 41.1936 84.8418 41.6409 84.0222 42.7644C83.2026 43.8879 83.2232 45.4176 84.0728 46.5185C84.9401 47.6487 86.4141 48.3921 87.7491 48.8244C88.4495 49.0474 89.1703 49.2007 89.9008 49.2821C90.2699 49.3225 92.3811 49.6057 92.5784 49.2821C93.8678 47.2265 94.8034 43.4516 93.706 40.9384Z" fill="white"/>
<path d="M69.3575 41.0445C68.5636 40.956 67.7596 40.9004 66.9581 40.8574C66.0984 40.9004 65.2388 40.9636 64.3791 41.0698C61.664 41.3728 59.0045 42.0536 56.4779 43.0925C55.3461 43.5581 54.2551 44.1171 53.2162 44.7638C52.4666 45.2143 51.7486 45.7152 51.0671 46.2632C50.564 45.5417 50.16 44.7559 49.8661 43.9269C48.4976 40.1003 49.5696 35.8261 52.582 33.0983C55.5944 30.3704 59.9536 29.7263 63.6261 31.4665C67.2987 33.2067 69.5609 36.9882 69.3575 41.0471V41.0445Z" fill="url(#paint3_linear)"/>
<path d="M64.3791 41.0699C61.664 41.3728 59.0045 42.0536 56.4778 43.0926C56.3312 42.7032 56.2098 42.3341 56.1694 42.2076C55.9666 41.6332 55.8201 41.0405 55.732 40.4378C55.5777 39.2848 55.6005 37.9094 56.1365 36.8601C56.6509 35.8249 57.7887 35.2556 58.9256 35.4645C60.0625 35.6733 60.9236 36.6098 61.0365 37.7602C61.798 37.4634 62.6538 37.5352 63.3551 37.9549C64.4147 38.6011 64.8486 39.9209 64.3791 41.0699Z" fill="white"/>
<path d="M53.2161 44.7613C52.4665 45.2117 51.7485 45.7127 51.067 46.2606C50.6101 46.6143 50.1713 46.9907 49.7522 47.3883C49.2151 47.9006 48.7422 48.4762 48.3439 49.1026C47.9712 49.6855 47.6481 50.2987 47.378 50.9357C46.9699 51.9096 46.6443 52.916 46.4046 53.9444C45.924 56.1625 45.6338 58.4177 45.5374 60.6852C41.8778 58.8572 39.948 54.7593 40.87 50.7739C41.792 46.7885 45.3254 43.9544 49.4159 43.9193H49.8685C51.0292 43.9749 52.1672 44.2612 53.2161 44.7613Z" fill="url(#paint4_linear)"/>
<path d="M48.3439 49.1025C47.9712 49.6854 47.6482 50.2986 47.3781 50.9356C46.97 51.9095 46.6443 52.916 46.4047 53.9444C45.8788 53.2137 45.4312 52.3389 45.3604 51.4641C45.3106 50.8282 45.5274 50.2003 45.9591 49.7308C46.3907 49.2612 46.9982 48.9924 47.636 48.9888C47.8768 48.9857 48.1162 49.0242 48.3439 49.1025Z" fill="white"/>
<g opacity="0.72">
<ellipse cx="103.721" cy="36.7893" rx="6.66486" ry="6.66486" fill="url(#paint5_linear)"/>
<path d="M106.614 37.9776C106.777 37.8084 106.916 37.6158 107.023 37.4062C107.416 36.6556 107.189 35.7295 106.492 35.2469C106.049 34.9409 105.487 34.8595 104.975 35.027C104.947 34.2594 104.413 33.6035 103.667 33.4193C102.922 33.2351 102.144 33.5671 101.762 34.2331C101.367 34.9132 101.296 35.8184 101.357 36.5895C101.389 36.9928 101.462 37.3918 101.574 37.7804C101.63 37.9776 101.926 39.1103 102.128 39.1457C103.443 39.3682 105.562 39.0572 106.614 37.9776Z" fill="white"/>
</g>
<g opacity="0.72">
<ellipse cx="100.75" cy="106.651" rx="4.75845" ry="4.75845" fill="url(#paint6_linear)"/>
<path d="M102.813 107.509C102.931 107.388 103.029 107.25 103.104 107.099C103.384 106.564 103.223 105.904 102.727 105.559C102.409 105.338 102.005 105.28 101.638 105.402C101.614 104.857 101.234 104.391 100.704 104.26C100.174 104.128 99.62 104.362 99.3443 104.834C99.0868 105.355 98.9859 105.94 99.0536 106.517C99.0769 106.805 99.1294 107.09 99.2103 107.367C99.2508 107.506 99.4632 108.318 99.6048 108.34C100.55 108.492 102.062 108.267 102.813 107.509Z" fill="white"/>
</g>
<path d="M92.666 64.2906C88.3866 62.2668 86.5581 57.1571 88.5818 52.8777C90.6056 48.5983 95.7153 46.7698 99.9947 48.7936C104.274 50.8173 106.103 55.927 104.079 60.2064C102.055 64.4858 96.9454 66.3143 92.666 64.2906Z" fill="url(#paint7_linear)"/>
<path d="M103.858 58.0329L101.564 62.8823C100.565 64.9913 98.0491 65.8956 95.9361 64.9051L90.1208 62.1542C88.013 61.1541 87.1091 58.639 88.0981 56.5259L88.2523 56.1973C89.8325 54.9331 92.5657 53.234 93.5619 55.5525C94.9981 58.89 96.864 57.8104 99.2508 56.4147C101.253 55.2339 103.645 54.842 103.858 58.0329Z" fill="white"/>
<ellipse cx="94.8438" cy="51.0848" rx="1.79011" ry="1.7901" fill="white"/>
<path d="M115.556 90.8575C109.922 88.1929 107.514 81.4651 110.179 75.8306C112.844 70.196 119.571 67.7885 125.206 70.4531C130.84 73.1177 133.248 79.8455 130.583 85.48C127.919 91.1145 121.191 93.5221 115.556 90.8575Z" fill="url(#paint8_linear)"/>
<path d="M130.289 82.619L127.255 89.0032C125.936 91.7757 122.624 92.9609 119.845 91.6555L112.199 88.0399C109.426 86.7201 108.241 83.4084 109.546 80.6292L109.751 80.1968C111.832 78.5382 115.427 76.2955 116.74 79.3473C118.633 83.7416 121.089 82.3207 124.231 80.4825C126.858 78.9377 130.011 78.4168 130.289 82.619Z" fill="white"/>
<circle cx="118.421" cy="73.4713" r="2.35647" fill="white"/>
<path d="M129.402 46.291C129.753 46.9375 130.009 47.6316 130.16 48.3516C130.708 51.0468 129.799 53.8314 127.766 55.684C126.975 56.3843 125.966 56.933 125.162 57.6662C124.578 58.1719 124.147 58.8316 123.92 59.5701C123.878 59.822 123.777 60.0603 123.625 60.2654C123.154 60.7711 122.697 59.9772 122.29 59.8331C121.637 59.621 120.928 59.6561 120.3 59.9317C116.894 61.3356 112.97 60.1566 110.902 57.108C108.835 54.0594 109.19 49.978 111.754 47.3327C112.993 46.0685 114.616 45.267 116.181 44.4376C117.561 43.7044 118.934 42.9206 120.431 42.4882C123.956 41.4415 127.7 43.1886 129.402 46.291Z" fill="url(#paint9_linear)"/>
<circle cx="115.263" cy="53.7473" r="1.68644" fill="white"/>
<ellipse cx="119.807" cy="51.3175" rx="1.68644" ry="1.68644" fill="white"/>
<ellipse cx="124.069" cy="49.0369" rx="1.68644" ry="1.68644" fill="white"/>
<path d="M181.768 159.862V159.902L181.143 174.258L180.794 182.124C180.794 181.833 180.809 181.533 180.827 181.242C176.511 179.798 170.966 177.745 166.688 176.294C158.269 173.421 151.925 171.214 144.383 169.48C143.928 167.283 143.498 162.57 145.614 155.69C148.648 145.875 149.647 135.915 148.105 133.991C148.09 133.969 148.071 133.95 148.049 133.935C146.952 129.979 144.049 132.54 144.049 132.54C144.049 132.54 144.067 132.58 144.074 132.603C143.47 131.602 142.807 130.637 142.087 129.716C142.111 129.572 142.149 129.432 142.201 129.296C143.134 126.489 148.105 125.814 148.105 125.814C155.381 126.35 159.209 129.594 161.141 133.855C162.843 139.232 161.839 145.063 161.619 150.58C161.53 152.972 161.189 156.648 163.015 158.585C164.701 161.773 168.944 160.395 170.094 160.046C170.468 159.94 171.439 159.874 172.714 159.834C175.31 159.771 179.131 159.819 181.459 159.859C181.573 159.862 181.672 159.862 181.768 159.862Z" fill="url(#paint10_linear)"/>
<path d="M81.0615 30.8248C80.5316 30.9428 79.9874 30.9837 79.4458 30.9461C77.4252 30.7866 75.6376 29.5754 74.7405 27.7578C74.4042 27.0524 74.2348 26.2256 73.8682 25.5075C73.6289 24.9919 73.2495 24.5539 72.7734 24.2433C72.6033 24.1624 72.455 24.0418 72.341 23.8919C72.0882 23.457 72.7355 23.2952 72.92 23.0373C73.2019 22.6177 73.3214 22.11 73.2563 21.6087C72.9467 18.9043 74.5827 16.3554 77.1704 15.5106C79.7581 14.6659 82.5829 15.7585 83.9287 18.1246C84.5709 19.2599 84.806 20.5721 85.074 21.8489C85.3117 22.9741 85.5797 24.1043 85.5797 25.2547C85.6025 27.9576 83.6025 30.2533 81.0615 30.8248Z" fill="url(#paint11_linear)"/>
<ellipse cx="78.6645" cy="19.2952" rx="1.24144" ry="1.24145" fill="white"/>
<ellipse cx="79.4585" cy="23.0069" rx="1.24145" ry="1.24145" fill="white"/>
<ellipse cx="80.2043" cy="26.4911" rx="1.24144" ry="1.24145" fill="white"/>
<g opacity="0.72">
<circle cx="155.083" cy="66.5258" r="9.43599" fill="url(#paint12_linear)"/>
<path d="M155.437 70.9328C155.755 71.0342 156.087 71.0862 156.42 71.087C157.619 71.1025 158.643 70.224 158.81 69.0365C158.915 68.2769 158.658 67.512 158.114 66.9708C159.064 66.443 159.55 65.3509 159.307 64.2919C159.064 63.233 158.15 62.4625 157.065 62.402C155.955 62.3387 154.767 62.8267 153.829 63.3931C153.341 63.6918 152.883 64.0382 152.463 64.4272C152.249 64.6244 151.005 65.7243 151.091 65.9999C151.647 67.8127 153.394 70.2982 155.437 70.9328Z" fill="white"/>
</g>
<path d="M159.465 105.038C158.875 105.896 158.163 106.662 157.351 107.314C154.294 109.729 150.193 110.359 146.552 108.973C145.159 108.419 143.824 107.491 142.383 106.95C141.371 106.535 140.263 106.412 139.184 106.596C138.839 106.703 138.474 106.727 138.117 106.667C137.182 106.394 137.89 105.311 137.811 104.705C137.662 103.744 137.166 102.872 136.418 102.252C132.442 98.8488 131.411 93.1159 133.953 88.5407C136.496 83.9654 141.908 81.813 146.899 83.3927C149.29 84.1512 151.336 85.691 153.384 87.1398C155.189 88.4166 157.048 89.6682 158.56 91.2661C162.122 95.0613 162.302 100.912 159.465 105.038Z" fill="url(#paint13_linear)"/>
<ellipse cx="141.02" cy="91.9312" rx="2.3868" ry="2.38681" fill="white"/>
<circle cx="146.99" cy="96.1233" r="2.38681" fill="white"/>
<ellipse cx="152.592" cy="100.055" rx="2.38682" ry="2.38681" fill="white"/>
<g opacity="0.54">
<path d="M86.983 34.2103C86.9515 34.6225 86.8881 35.0316 86.7934 35.434L85.7365 40.018C85.4129 41.4213 85.0488 42.9004 84.045 43.932C82.174 45.846 79.0413 45.4086 76.4295 44.827L70.0175 43.4036C68.5459 43.0749 67.0491 42.7411 65.7192 42.0079C64.3893 41.2746 63.2565 40.0838 62.938 38.6047C62.7129 37.5149 62.9557 36.3898 63.1908 35.3026L64.1895 30.8981C64.5106 29.4569 64.8747 27.9323 65.9139 26.8855C67.7672 25.017 70.8367 25.4418 73.4081 25.9981L79.9642 27.4215C83.9237 28.2888 87.2991 30.1244 86.983 34.2103Z" fill="url(#paint14_linear)"/>
<path d="M78.1412 34.3342C78.6994 34.8543 78.9379 35.6327 78.7668 36.3762C78.5958 37.1198 78.0412 37.7157 77.3119 37.9397L75.3574 38.5389L73.4055 39.1356C72.6744 39.3602 71.879 39.1769 71.3199 38.6549C70.7609 38.133 70.5235 37.352 70.6976 36.6072L71.1552 34.6148L71.6128 32.625C71.785 31.8814 72.3403 31.2859 73.0701 31.0623C73.7998 30.8387 74.5934 31.0208 75.1526 31.5403L76.6469 32.9335L78.1412 34.3342Z" fill="white"/>
</g>
<g opacity="0.54">
<path d="M159.037 43.0344C159.006 43.4466 158.942 43.8557 158.848 44.2582L157.791 48.8497C157.467 50.253 157.103 51.7321 156.099 52.7612C154.228 54.6777 151.096 54.2378 148.484 53.6588L142.072 52.2328C140.6 51.9066 139.103 51.5703 137.774 50.8396C136.444 50.1089 135.311 48.913 134.992 47.4364C134.767 46.3466 135.01 45.2215 135.245 44.1343L136.246 39.7475C136.565 38.3038 136.929 36.7817 137.968 35.7324C139.822 33.8664 142.891 34.2887 145.462 34.8475L152.008 36.2608C155.978 37.118 159.353 38.9561 159.037 43.0344Z" fill="url(#paint15_linear)"/>
<path d="M150.195 43.1634C150.753 43.6841 150.992 44.4626 150.821 45.2064C150.65 45.9502 150.096 46.5466 149.366 46.7714L147.412 47.3681L145.46 47.9673C144.729 48.1919 143.933 48.0086 143.374 47.4866C142.815 46.9647 142.578 46.1837 142.752 45.4389L143.21 43.4491L143.667 41.4592C143.839 40.7156 144.395 40.1201 145.124 39.8965C145.854 39.6729 146.648 39.8551 147.207 40.3745L148.701 41.7677L150.195 43.1634Z" fill="white"/>
</g>
<g opacity="0.54">
<path d="M128.78 104.545C128.764 104.737 128.734 104.927 128.689 105.114L128.198 107.256C128.047 107.908 127.877 108.596 127.41 109.076C126.54 109.969 125.081 109.764 123.87 109.493L120.884 108.831C120.19 108.71 119.518 108.492 118.886 108.181C118.249 107.862 117.78 107.285 117.597 106.596C117.528 106.081 117.568 105.557 117.716 105.059L118.171 103.011C118.32 102.341 118.489 101.63 118.975 101.142C119.837 100.272 121.266 100.47 122.461 100.73L125.516 101.392C127.354 101.787 128.927 102.641 128.78 104.545Z" fill="url(#paint16_linear)"/>
<path d="M124.661 104.603C124.922 104.845 125.033 105.208 124.953 105.555C124.874 105.901 124.615 106.179 124.274 106.282L123.367 106.56L122.456 106.839C122.116 106.945 121.745 106.861 121.484 106.618C121.223 106.376 121.112 106.012 121.192 105.665L121.415 104.727L121.627 103.799C121.706 103.452 121.964 103.173 122.305 103.069C122.645 102.964 123.016 103.05 123.276 103.294L123.971 103.941L124.661 104.603Z" fill="white"/>
</g>
<g opacity="0.54">
<path d="M97.304 15.7605C97.5113 15.8684 97.7107 15.9909 97.9007 16.1272L100.025 17.6796C100.677 18.1524 101.357 18.6657 101.665 19.409C102.239 20.7921 101.324 22.3066 100.452 23.5202L98.3103 26.5037C97.8518 27.214 97.2931 27.8544 96.6516 28.4051C95.9841 28.9108 95.1194 29.2496 94.2926 29.0802C93.6833 28.9588 93.1574 28.5745 92.6517 28.223L90.6037 26.754C89.9337 26.2736 89.2308 25.7427 88.9198 24.9842C88.3661 23.6188 89.2586 22.1346 90.1107 20.9387L92.2826 17.8793C93.5847 16.0336 95.2711 14.7011 97.304 15.7605Z" fill="url(#paint17_linear)"/>
<path d="M95.4228 20.3344C95.8111 20.1623 96.2616 20.2095 96.6058 20.4584C96.95 20.7073 97.1359 21.1203 97.0941 21.543L96.9727 22.6808L96.8513 23.8185C96.8062 24.2429 96.5378 24.6108 96.1476 24.7835C95.7573 24.9562 95.3045 24.9074 94.9601 24.6554L94.0372 23.9829L93.1144 23.3129C92.7685 23.0619 92.5832 22.6451 92.6286 22.2201C92.674 21.7952 92.9432 21.427 93.3343 21.2547L94.3786 20.792L95.4228 20.3344Z" fill="white"/>
</g>
<path d="M197.406 206.622C197.405 206.666 197.399 206.71 197.391 206.753C197.387 206.764 197.387 206.776 197.391 206.786C197.035 209.147 196.055 211.371 194.551 213.226C194.534 213.241 194.526 213.266 194.511 213.282C192.2 216.162 188.85 218.24 185.459 219.545C181.995 220.892 178.483 221.436 175.983 221.249H175.927C172.868 221.021 169.51 221.418 166.572 221.969C166.263 222.027 165.955 222.083 165.647 222.149C163.707 222.538 161.793 223.024 159.897 223.56L159.54 223.658L159.303 223.721C157.533 212.131 156.334 200.263 156.334 200.263L192.491 206.688C194.118 206.983 195.787 206.961 197.406 206.622Z" fill="url(#paint18_linear)"/>
<path d="M123.154 151.528C121.253 153.414 118.707 153.778 116.206 154.335C110.525 155.599 105.761 154.163 105.511 147.632C105.349 143.43 105.794 139.225 108.338 135.736C111.385 131.556 116.065 128.772 120.727 126.74C120.727 126.74 122.866 137.683 132.611 138.158C142.355 138.633 139.983 151.48 128.565 149.338" stroke="black" strokeWidth="1.5"/>
<path d="M130.479 154.81C130.732 154.81 130.965 154.81 131.2 154.792C131.257 154.788 131.314 154.788 131.372 154.792H131.394L131.842 154.752" stroke="black" strokeWidth="4.47"/>
<path d="M141.275 128.082C139.678 126.183 137.769 124.57 135.63 123.311C135.391 123.154 135.145 123.011 134.891 122.881C134.638 122.737 134.386 122.598 134.133 122.469C133.599 122.194 133.045 121.933 132.479 121.711C129.136 120.311 125.545 119.594 121.921 119.604C102.422 119.604 107.84 136.477 107.84 136.477" stroke="black" strokeWidth="1.5"/>
<path d="M144.512 169.313C143.839 165.728 144.681 160.147 145.614 155.685C146.451 151.71 147.366 148.628 147.366 148.628C148.747 140.517 148.689 136.168 148.049 133.93C146.952 129.978 144.049 132.54 144.049 132.54" stroke="black" strokeWidth="1.5"/>
<path d="M148.049 133.93C146.952 129.978 144.049 132.54 144.049 132.54C143.547 131.397 142.928 130.31 142.201 129.296C141.907 128.888 141.599 128.49 141.275 128.102C142.143 125.799 144.456 124.426 146.838 124.242C153.091 123.761 159.255 127.9 161.138 133.849C162.84 139.227 161.836 145.058 161.616 150.575C161.528 152.967 161.186 156.643 163.012 158.58C163.108 158.678 163.199 158.767 163.303 158.855C164.82 160.163 167.237 160.236 170.102 160.041C170.936 159.983 171.813 159.912 172.721 159.829C175.502 159.576 178.536 159.358 181.467 159.854L181.758 159.902C181.669 164.681 181.376 169.475 181.133 174.253C181.004 176.579 180.88 178.908 180.817 181.237C176.501 179.793 170.956 177.74 166.678 176.289L164.398 175.502C157.088 173.012 151.232 171.047 144.395 169.475C141.758 168.865 138.977 168.322 135.902 167.819L132.633 167.245C132.181 167.166 131.851 166.771 131.855 166.312V154.744C136.28 154.368 140.275 151.943 142.651 148.191C145.814 143.103 146.115 137.897 144.385 133.329C144.324 133.146 144.252 132.967 144.17 132.793C144.151 132.74 144.129 132.688 144.105 132.638C144.105 132.623 144.089 132.598 144.082 132.58" stroke="black" strokeWidth="1.5"/>
<path d="M63.656 175.502C64.6674 167.664 65.1326 159.692 66.1136 151.809" stroke="black" strokeWidth="1.5"/>
<path d="M66.2754 150.575C66.551 148.441 66.8772 146.307 67.2868 144.198C67.3019 144.095 67.3196 143.996 67.3424 143.9C67.5699 142.651 67.8228 141.409 68.1009 140.168C68.9454 136.454 71.8935 133.736 73.9895 130.709L74.1185 130.386C78.6406 123.807 81.1441 116.051 81.3219 108.07C81.3725 105.182 81.2587 99.4733 77.949 98.2951C76.0906 97.6301 74.1185 98.9297 73.0894 100.414C72.6668 101.027 72.3267 101.692 72.0781 102.394" stroke="black" strokeWidth="1.5"/>
<path d="M96.3305 242.778C88.2574 219.856 92.0854 194.814 92.0854 194.814L80.1791 195.188L48.7713 196.185C45.039 196.308 41.4366 194.807 38.8958 192.07C36.355 189.334 35.1254 185.63 35.525 181.917L44.8548 147.857" stroke="black" strokeWidth="1.5"/>
<path d="M45.3074 146.193L46.1266 143.21L47.0773 139.827" stroke="black" strokeWidth="4.47"/>
<path d="M47.8864 136.914L48.43 134.959C49.1501 132.364 48.9719 129.602 47.9243 127.121L46.8447 124.542C46.1393 122.393 45.9193 121.354 46.8042 119.253C47.2229 118.262 47.8107 117.35 48.5412 116.56C50.6727 114.209 53.6739 113.041 56.7661 112.641C59.8584 112.242 63.2717 112.553 65.7597 114.558C67.4486 115.918 69.0466 119.157 67.9417 121.273C67.1402 122.813 65.4436 123.261 63.9999 122.709C63.4946 122.52 63.0396 122.217 62.6699 121.824C60.9658 120.039 57.3603 119.65 56.0961 121.387" stroke="black" strokeWidth="1.5"/>
<path d="M180.746 184.076C180.746 183.441 180.769 182.812 180.794 182.17V182.119C180.794 181.828 180.809 181.527 180.827 181.237" stroke="black" strokeWidth="1.5"/>
<path d="M177.502 123.344C174.541 124.927 170.906 128.906 177.04 138.262C179.062 141.344 181.199 144.676 181.5 148.481C181.78 152.284 181.869 156.098 181.768 159.91" stroke="black" strokeWidth="1.5"/>
<path d="M148.787 198.936L155.826 200.185L156.332 200.273L159.561 200.85L192.483 206.698C194.113 206.994 195.785 206.972 197.406 206.632V206.632C203.198 205.412 207.42 200.411 207.648 194.496L202.784 154.671L201.707 146.17C201.365 143.497 201.939 140.787 203.335 138.481L204.779 136.079C204.779 136.079 207.292 132.413 202.895 132.145C200.526 132.006 198.061 132.651 195.919 133.622C194.695 134.165 192.976 135.139 192.286 136.476C192.005 136.983 191.91 137.571 192.018 138.14C192.523 140.752 195.81 141.854 197.98 140.752" stroke="black" strokeWidth="1.5"/>
<path d="M204.346 132.335C204.346 132.335 206.832 130.856 205.15 127.217C204.554 125.923 202.746 125.025 198.855 125.273C188.488 125.933 184.428 136.593 192.299 136.476" stroke="black" strokeWidth="1.5"/>
<path d="M201.985 125.255C204.286 122.085 200.215 119.051 197.249 119.154C194.453 119.253 191.623 120.287 189.173 121.582C185.765 123.382 181.366 126.869 182.625 131.281C182.997 132.58 185.937 134.186 187.859 133.258" stroke="black" strokeWidth="1.5"/>
<path d="M182.407 129.713C182.407 129.713 182.407 129.713 182.407 129.728C180.802 132.795 173.201 129.728 177.492 123.344C178.494 121.932 179.696 120.672 181.06 119.604C191.76 110.861 194.152 119.751 194.137 119.223" stroke="black" strokeWidth="1.5"/>
<path d="M187.065 133.329C187.065 133.329 190.979 136.11 189.778 140.744" stroke="black" strokeWidth="1.5"/>
<path d="M49.2669 111.081C49.0141 110.085 49.047 108.828 49.6386 107.22C50.4907 104.909 52.9736 103.392 55.3907 102.394C56.2731 102.03 57.1606 101.729 57.9191 101.494C60.5562 100.684 63.4513 100.255 66.2628 100.538C67.2104 100.63 68.1474 100.809 69.0618 101.074C70.1165 101.378 71.1259 101.822 72.063 102.394C74.374 103.815 75.939 105.971 76.8796 108.803C77.6988 111.246 78.0149 114.148 75.9871 115.673" stroke="black" strokeWidth="1.5"/>
<path d="M76.1715 148.173L75.4256 151.783C75.3756 152.029 75.2281 152.243 75.0169 152.378C74.8057 152.512 74.5489 152.555 74.3055 152.496C71.4358 151.816 68.92 151.184 66.2753 150.575C64.9631 150.266 63.6079 149.976 62.1717 149.675C56.5587 148.514 50.9532 147.204 45.3098 146.193C42.9508 145.771 40.5893 145.404 38.2126 145.129C36.8827 144.974 35.5351 144.911 34.1975 144.813C33.9052 144.806 33.6219 144.71 33.3859 144.537C32.1217 143.612 33.3859 140.603 33.6615 139.354C33.6615 139.339 33.6615 139.321 33.6615 139.306C33.8562 138.347 39.363 138.623 47.062 139.824C49.7472 140.246 52.6978 140.772 55.7901 141.407C60.1364 142.299 64.0554 143.263 67.2589 144.188C67.8101 144.35 68.3385 144.504 68.8417 144.658H68.8568C69.4965 144.861 70.0983 145.055 70.6646 145.25C74.2423 146.471 76.303 147.533 76.1715 148.173Z" fill="url(#paint19_linear)"/>
<path fill-rule="evenodd" clip-rule="evenodd" d="M76.1715 148.173L75.4256 151.783C75.3756 152.029 75.2281 152.243 75.0169 152.378C74.8057 152.512 74.549 152.555 74.3055 152.496C71.4358 151.816 68.92 151.184 66.2753 150.575C64.9631 150.266 63.6079 149.976 62.1717 149.675C56.5587 148.514 50.9532 147.204 45.3098 146.193C42.9509 145.771 40.5893 145.404 38.2126 145.129C36.8827 144.974 35.5351 144.911 34.1975 144.813C33.9052 144.806 33.6219 144.71 33.3859 144.537C32.1217 143.612 33.3859 140.603 33.6615 139.354C33.6615 139.339 33.6615 139.321 33.6615 139.306C33.8562 138.347 39.3631 138.623 47.062 139.824C49.7472 140.246 52.6978 140.772 55.7901 141.407C60.1364 142.299 64.0554 143.263 67.2589 144.188C67.8101 144.35 68.3385 144.504 68.8417 144.658H68.8568C69.4965 144.861 70.0983 145.055 70.6646 145.25C74.2423 146.471 76.303 147.533 76.1715 148.173V148.173Z" stroke="black" strokeWidth="1.5"/>
<path d="M68.298 119.329L69.0161 120.768C69.9188 121.756 71.1678 122.381 72.8795 121.951C76.2372 121.116 76.5684 118.333 75.9844 115.673C75.884 115.19 75.754 114.714 75.595 114.247C74.8087 111.9 73.5925 110.012 71.8884 108.634C70.6775 107.653 69.2782 106.932 67.7772 106.515C66.5541 106.162 65.2922 105.961 64.02 105.916C61.5202 105.83 59.0241 106.172 56.6396 106.927C54.2553 107.658 50.9937 108.914 49.2592 111.071C48.8707 111.545 48.5631 112.08 48.349 112.654C47.8155 114.105 47.7245 115.281 47.9116 116.232L48.0911 117.117" stroke="black" strokeWidth="1.5"/>
<path d="M69.2285 101.129L70.0629 97.6731L71.054 93.6024C71.3368 92.4159 71.1137 91.1651 70.4381 90.1496C69.7625 89.134 68.6951 88.4449 67.4915 88.2472C67.2584 88.2086 67.0224 88.19 66.7861 88.1916C64.7243 88.1866 62.9394 89.6228 62.5029 91.6378C62.2501 92.8161 61.9341 94.2497 61.5851 95.8653C61.2539 97.3975 60.8873 99.0764 60.4979 100.846" stroke="black" strokeWidth="1.5"/>
<path d="M59.3248 106.28V106.272" stroke="black" strokeWidth="2.98"/>
<path d="M56.1036 121.384C55.8507 122.626 55.7066 123.407 55.7142 123.541V123.559C54.6194 130.916 51.3982 134.851 47.8939 136.901C45.7504 138.121 43.3566 138.834 40.8953 138.987" stroke="black" strokeWidth="1.5"/>
<path d="M64.0201 122.707C64.0201 122.707 58.1492 138.355 67.3298 143.902C67.8152 144.194 68.3224 144.447 68.8468 144.661C69.4751 144.922 70.1237 145.131 70.7861 145.285" stroke="black" strokeWidth="1.5"/>
<path d="M74.9402 152.423C74.9402 152.423 74.9807 153.146 66.1136 151.809C63.0795 151.354 59.0012 150.656 53.5171 149.601C50.0785 148.944 47.2214 148.36 44.8548 147.857C32.4201 145.197 33.3834 144.54 33.3834 144.54" stroke="black" strokeWidth="1.5"/>
<path d="M99.9234 64.4626C98.0322 74.4877 91.8022 85.0412 84.2474 91.8148C81.1577 94.5961 77.5648 96.5353 73.6862 97.2989C72.4961 97.5409 71.2851 97.6654 70.0706 97.6706L71.0542 93.6024C71.5525 91.5346 70.5011 89.4063 68.5561 88.5456C68.2156 88.3994 67.8592 88.2933 67.4942 88.2295C67.2602 88.1908 67.0234 88.1722 66.7862 88.1739C64.7199 88.1705 62.9334 89.6143 62.5031 91.6353C62.3489 92.3736 62.1618 93.2105 61.9595 94.1258C52.3516 87.7744 48.1848 74.1894 48.6475 63.1579C48.7941 59.4918 48.9964 54.6651 50.602 50.9331C51.1437 49.6031 51.9526 48.3983 52.9786 47.3934C57.5298 43.1103 63.7597 41.1558 70.1844 40.8625C75.1156 41.0951 79.9685 42.1851 84.5255 44.0837C93.0209 47.6715 101.885 54.0329 99.9234 64.4626Z" fill="url(#paint20_linear)"/>
<path d="M99.9234 64.4626C98.0322 74.4877 91.8022 85.0412 84.2474 91.8148C81.1577 94.5961 77.5648 96.5353 73.6862 97.2989L74.5838 93.6024C74.8666 92.4159 74.6435 91.1651 73.9679 90.1496C73.2923 89.134 72.225 88.4449 71.0213 88.2472C70.7882 88.2086 70.5522 88.19 70.3159 88.1916C69.7063 88.1891 69.1031 88.3158 68.546 88.5633C68.2055 88.4171 67.8491 88.311 67.4841 88.2472C67.2501 88.2085 67.0133 88.1899 66.7761 88.1916C64.719 88.1912 62.9398 89.625 62.5031 91.6353C62.3489 92.3736 62.1618 93.2105 61.9595 94.1258C52.3516 87.7744 48.1848 74.1894 48.6475 63.1579C48.7941 59.4918 48.9964 54.6651 50.602 50.9331C51.1437 49.6031 51.9526 48.3983 52.9786 47.3934C57.5298 43.1103 63.7597 41.1558 70.1844 40.8625C75.1156 41.0951 79.9685 42.1851 84.5255 44.0837C93.0209 47.6715 101.885 54.0329 99.9234 64.4626Z" fill="url(#paint21_linear)"/>
<path fill-rule="evenodd" clip-rule="evenodd" d="M99.9234 64.4652C98.0346 74.4903 91.8047 85.0438 84.2473 91.8174C80.2018 95.4431 75.3195 97.6479 70.063 97.6732L71.0541 93.6024C71.3369 92.4159 71.1138 91.1652 70.4382 90.1496C69.7626 89.134 68.6952 88.4449 67.4916 88.2473C67.2584 88.2087 67.0224 88.1901 66.7861 88.1917C64.7244 88.1867 62.9395 89.6229 62.503 91.6379C62.2502 92.8161 61.9342 94.2497 61.5852 95.8654C49.727 90.6088 44.607 75.3347 45.1203 63.1605C45.2644 59.4943 45.4667 54.6676 47.0747 50.9357C47.6156 49.6051 48.4246 48.4002 49.4514 47.3959C58.4045 38.9764 73.81 39.5579 84.5254 44.0863C93.0183 47.6741 101.885 54.033 99.9234 64.4652V64.4652Z" stroke="black" strokeWidth="1.5"/>
<path d="M99.8727 64.8267C101.918 67.2742 103.837 71.3753 102.148 77.4687C101.889 78.4301 101.517 79.3576 101.041 80.2323C98.3557 85.0362 93.1725 85.8782 89.6782 85.8276" stroke="black" strokeWidth="1.5"/>
<path d="M98.3152 69.9517C100.085 72.0705 101.721 75.4257 101.038 80.2373C100.93 81.0097 100.77 81.7741 100.56 82.5255C98.032 91.6075 88.7502 91.16 85.5645 90.7175" stroke="black" strokeWidth="1.5"/>
<path d="M48.7459 82.4775C46.7687 82.8846 35.5806 80.5888 35.444 71.2615C35.4039 69.9972 35.6422 68.7396 36.1419 67.5776C37.8941 63.6283 42.516 62.3792 45.1784 61.9722" stroke="black" strokeWidth="1.5"/>
<path d="M46.7334 77.8024C44.7107 77.9263 33.9624 74.0908 35.128 64.8343C35.267 63.5805 35.6787 62.3724 36.3341 61.2945C38.6096 57.6258 43.3731 57.0367 46.0634 56.9962" stroke="black" strokeWidth="1.5"/>
<path d="M92.0852 194.817C92.0852 194.817 92.3153 193.06 93.5795 189.09" stroke="black" strokeWidth="1.5"/>
<path d="M133.667 167.414V167.432C133.576 173.477 129.369 174.848 125.913 175.505C117.395 177.133 111.481 170.921 111.741 165.51" stroke="black" strokeWidth="1.5"/>
<path d="M113.357 134.15C113.357 134.15 113.61 136.932 111.19 140.519C110.543 141.485 112.783 141.882 113.316 142.062" stroke="black" strokeWidth="1.5"/>
<ellipse cx="119.449" cy="138.054" rx="5.20345" ry="4.23002" transform="rotate(-60 119.449 138.054)" stroke="black" strokeWidth="1.5"/>
<ellipse rx="5.22137" ry="4.24459" transform="matrix(0.498285 -0.867013 0.867014 0.498283 109.395 134.835)" stroke="black" strokeWidth="1.5"/>
<path fill-rule="evenodd" clip-rule="evenodd" d="M105.648 133.41C106.563 131.812 108.113 130.881 109.574 130.881V130.884C109.574 130.884 109.574 130.884 109.574 130.884C110.128 130.88 110.674 131.023 111.155 131.298C112.935 132.31 113.354 134.927 112.09 137.114C111.172 138.709 109.622 139.642 108.161 139.642C107.606 139.646 107.061 139.502 106.581 139.225C104.801 138.213 104.383 135.599 105.648 133.41ZM110.778 131.956C110.412 131.745 109.996 131.636 109.574 131.64C108.323 131.64 107.059 132.482 106.3 133.781C105.785 134.637 105.579 135.644 105.716 136.633C105.812 137.436 106.269 138.151 106.957 138.575C107.323 138.785 107.739 138.893 108.161 138.889C109.412 138.889 110.677 138.049 111.435 136.747C111.95 135.892 112.157 134.886 112.019 133.897C111.924 133.094 111.467 132.379 110.778 131.956Z" fill="white"/>
<path d="M113.324 135.068C113.324 135.068 114.082 133.938 115.794 135.938" stroke="black" strokeWidth="1.5"/>
<ellipse rx="1.2288" ry="1.0417" transform="matrix(0.606824 -0.794837 0.79484 0.606818 119.939 137.199)" fill="#353642"/>
<ellipse rx="1.2288" ry="1.0417" transform="matrix(0.606822 -0.794838 0.794839 0.60682 111.409 134.743)" fill="#353642"/>
<path d="M118.515 146.57C113.337 150.969 110.619 147.05 110.619 147.05" stroke="black" strokeWidth="1.5"/>
<path d="M63.656 171.859C68.1338 171.057 72.6521 170.43 77.0894 169.611C79.2537 169.213 81.4163 168.827 83.5773 168.453C93.2054 166.815 102.818 165.54 112.553 165.5C113.525 165.5 114.348 164.784 114.482 163.821L114.661 162.473L115.797 154.072" stroke="black" strokeWidth="1.5"/>
<path d="M131.842 154.744V154.704V154.501" stroke="black" strokeWidth="4.47"/>
<path d="M33.3657 242.778H88.8262H95.0991H148.835H158.903H226.017" stroke="#CCDDE2" strokeWidth="1.5"/>
<path d="M156.329 200.273C156.329 200.273 157.523 212.141 159.298 223.732C160.466 231.357 161.894 238.859 163.386 242.778" stroke="black" strokeWidth="1.5"/>
<path d="M159.298 223.732L159.533 223.668L159.892 223.57C161.788 223.034 163.702 222.558 165.641 222.159C165.95 222.093 166.258 222.037 166.567 221.979C168.729 221.581 170.922 221.367 173.12 221.34C174.094 221.34 175.027 221.307 175.919 221.259H175.975C179.714 221.046 182.84 220.447 185.451 219.555C189.717 218.103 192.597 215.873 194.503 213.292C194.518 213.277 194.526 213.251 194.544 213.236C195.93 211.312 196.898 209.118 197.383 206.796C197.379 206.786 197.379 206.774 197.383 206.763L197.408 206.642" stroke="black" strokeWidth="1.5"/>
<defs>
<linearGradient id="paint0_linear" x1="109.725" y1="123.542" x2="144.138" y2="155.813" gradientUnits="userSpaceOnUse">
<stop stop-color="#5F7DF1"/>
<stop offset="1" stop-color="#3055EC"/>
</linearGradient>
<linearGradient id="paint1_linear" x1="109.725" y1="123.498" x2="143.838" y2="155.787" gradientUnits="userSpaceOnUse">
<stop stop-color="#5F7DF1"/>
<stop offset="1" stop-color="#3055EC"/>
</linearGradient>
<linearGradient id="paint2_linear" x1="77.6202" y1="35.0346" x2="101.832" y2="57.0847" gradientUnits="userSpaceOnUse">
<stop stop-color="#5F7DF1"/>
<stop offset="1" stop-color="#3055EC"/>
</linearGradient>
<linearGradient id="paint3_linear" x1="49.2791" y1="31.9063" x2="64.9382" y2="50.0816" gradientUnits="userSpaceOnUse">
<stop stop-color="#5F7DF1"/>
<stop offset="1" stop-color="#3055EC"/>
</linearGradient>
<linearGradient id="paint4_linear" x1="40.6415" y1="45.4163" x2="56.3272" y2="56.1304" gradientUnits="userSpaceOnUse">
<stop stop-color="#5F7DF1"/>
<stop offset="1" stop-color="#3055EC"/>
</linearGradient>
<linearGradient id="paint5_linear" x1="97.0562" y1="31.3146" x2="110.386" y2="43.4541" gradientUnits="userSpaceOnUse">
<stop stop-color="#5F7DF1"/>
<stop offset="1" stop-color="#3055EC"/>
</linearGradient>
<linearGradient id="paint6_linear" x1="95.9917" y1="102.743" x2="105.509" y2="111.41" gradientUnits="userSpaceOnUse">
<stop stop-color="#5F7DF1"/>
<stop offset="1" stop-color="#3055EC"/>
</linearGradient>
<linearGradient id="paint7_linear" x1="86.3011" y1="61.2806" x2="107.743" y2="52.4579" gradientUnits="userSpaceOnUse">
<stop stop-color="#5F7DF1"/>
<stop offset="1" stop-color="#3055EC"/>
</linearGradient>
<linearGradient id="paint8_linear" x1="107.176" y1="86.8943" x2="135.408" y2="75.2778" gradientUnits="userSpaceOnUse">
<stop stop-color="#5F7DF1"/>
<stop offset="1" stop-color="#3055EC"/>
</linearGradient>
<linearGradient id="paint9_linear" x1="109.562" y1="43.821" x2="127.969" y2="62.7971" gradientUnits="userSpaceOnUse">
<stop stop-color="#5F7DF1"/>
<stop offset="1" stop-color="#3055EC"/>
</linearGradient>
<linearGradient id="paint10_linear" x1="142.087" y1="130.842" x2="193.503" y2="163.839" gradientUnits="userSpaceOnUse">
<stop stop-color="#5F7DF1"/>
<stop offset="1" stop-color="#3055EC"/>
</linearGradient>
<linearGradient id="paint11_linear" x1="72.2832" y1="16.6318" x2="87.5584" y2="28.3892" gradientUnits="userSpaceOnUse">
<stop stop-color="#5F7DF1"/>
<stop offset="1" stop-color="#3055EC"/>
</linearGradient>
<linearGradient id="paint12_linear" x1="145.647" y1="58.7748" x2="164.519" y2="75.9618" gradientUnits="userSpaceOnUse">
<stop stop-color="#5F7DF1"/>
<stop offset="1" stop-color="#3055EC"/>
</linearGradient>
<linearGradient id="paint13_linear" x1="132.567" y1="85.2726" x2="159.498" y2="111.668" gradientUnits="userSpaceOnUse">
<stop stop-color="#5F7DF1"/>
<stop offset="1" stop-color="#3055EC"/>
</linearGradient>
<linearGradient id="paint14_linear" x1="62.8485" y1="27.2918" x2="82.6249" y2="49.2645" gradientUnits="userSpaceOnUse">
<stop stop-color="#5F7DF1"/>
<stop offset="1" stop-color="#3055EC"/>
</linearGradient>
<linearGradient id="paint15_linear" x1="134.903" y1="36.1384" x2="154.66" y2="58.109" gradientUnits="userSpaceOnUse">
<stop stop-color="#5F7DF1"/>
<stop offset="1" stop-color="#3055EC"/>
</linearGradient>
<linearGradient id="paint16_linear" x1="117.564" y1="101.331" x2="126.771" y2="111.544" gradientUnits="userSpaceOnUse">
<stop stop-color="#5F7DF1"/>
<stop offset="1" stop-color="#3055EC"/>
</linearGradient>
<linearGradient id="paint17_linear" x1="88.7484" y1="16.6117" x2="102.411" y2="28.4717" gradientUnits="userSpaceOnUse">
<stop stop-color="#5F7DF1"/>
<stop offset="1" stop-color="#3055EC"/>
</linearGradient>
<linearGradient id="paint18_linear" x1="156.334" y1="202.357" x2="177.545" y2="236.177" gradientUnits="userSpaceOnUse">
<stop stop-color="#5F7DF1"/>
<stop offset="1" stop-color="#3055EC"/>
</linearGradient>
<linearGradient id="paint19_linear" x1="32.8337" y1="139.96" x2="41.4627" y2="164.653" gradientUnits="userSpaceOnUse">
<stop stop-color="#5F7DF1"/>
<stop offset="1" stop-color="#3055EC"/>
</linearGradient>
<linearGradient id="paint20_linear" x1="48.6129" y1="45.9347" x2="104.656" y2="92.2819" gradientUnits="userSpaceOnUse">
<stop stop-color="#5F7DF1"/>
<stop offset="1" stop-color="#3055EC"/>
</linearGradient>
<linearGradient id="paint21_linear" x1="48.6129" y1="45.9015" x2="104.356" y2="92.3049" gradientUnits="userSpaceOnUse">
<stop stop-color="#5F7DF1"/>
<stop offset="1" stop-color="#3055EC"/>
</linearGradient>
</defs>
</svg>
