<svg width="178" height="225" viewBox="0 0 178 225" fill="none" xmlns="http://www.w3.org/2000/svg">
<path d="M124.879 107.668C108.268 117.56 88.0038 105.905 88.9559 105.702C120.359 98.8739 123.133 79.0625 123.133 79.0625C116.864 63.7445 99.7754 68.6757 99.7754 68.6757C99.2808 90.4137 73.408 91.6378 73.408 91.6378C71.7461 84.5847 71.8376 68.1168 71.8376 68.1168C63.9956 62.6341 62.4079 64.9612 62.4079 64.9612C64.8809 43.1985 74.8398 36.1825 74.8398 36.1825C76.4992 34.6369 83.9159 31.1623 87.7243 30.7122L87.8604 31.3156C87.8604 31.3156 84.0099 40.9308 91.3894 41.5639C97.5992 42.1079 101.128 34.4638 102.09 32.0377C110.165 34.5404 117.871 40.1419 122.997 49.5641C135.125 71.856 124.879 107.668 124.879 107.668Z" fill="#2E2E2E"/>
<path d="M126.675 98.2878L167.037 124.997C174.864 130.175 173.858 141.962 165.274 145.738L118.039 166.526C109.105 170.457 98.7686 169.446 90.7662 163.858L72.6265 151.176" stroke="black" strokeWidth="1.5"/>
<path d="M126.675 106.901L125.317 106.001L167.045 133.605C174.872 138.784 173.865 150.57 165.281 154.347L118.046 175.135C109.113 179.066 98.776 178.054 90.7737 172.466L67.7102 156.041" stroke="black" strokeWidth="1.5"/>
<path d="M161.799 144.264L118.385 163.373C110.174 166.985 100.675 166.055 93.3208 160.92L76.6847 149.232C78.9753 147.477 81.5419 146.115 84.2794 145.201C91.1371 142.872 97.8295 140.082 104.311 136.85C114.273 131.922 121.516 122.806 124.066 111.989C124.936 108.291 125.7 104.552 126.326 100.793L164.534 126.05C171.726 130.808 169.686 140.797 161.799 144.264Z" fill="url(#paint0_linear)"/>
<path d="M49.9314 199.645C49.9314 199.645 57.5434 196.49 59.0025 194.111C59.0025 194.111 59.277 199.512 57.8525 201.357C56.428 203.201 47.9159 208.078 47.4583 207.467C47.0008 206.857 49.9314 199.645 49.9314 199.645Z" fill="url(#paint1_linear)"/>
<path d="M26.4994 212.515C26.4994 212.515 27.8843 214.394 32.7982 212.515C37.7121 210.635 48.4031 203.713 48.4031 203.713C48.4031 203.713 45.4206 211.721 44.3399 212.601C43.2592 213.482 22.8418 223.483 22.8418 223.483C22.8418 223.483 13.7138 224.781 17.1538 218.289L26.4994 212.515Z" fill="url(#paint2_linear)"/>
<path d="M55.884 107.886C44.6317 112.266 32.7241 122.556 36.1492 151.053L37.1014 158.457" stroke="black" strokeWidth="1.5"/>
<path d="M55.8668 89.2762C57.7068 86.6498 59.3686 83.8108 60.3875 80.7541C61.4064 77.6974 61.4583 74.3861 61.7427 71.1711C62.4995 62.5501 63.6717 55.4204 66.9979 47.3904C69.879 40.4412 78.5816 31.4888 87.2397 30.6406L88.0187 30.5738" stroke="black" strokeWidth="1.5"/>
<path d="M77.6295 107.255C77.5875 107.134 77.5455 107.02 77.5009 106.901" stroke="black" strokeWidth="1.5"/>
<path d="M73.4078 91.1037C72.9825 88.6035 72.6659 86.1799 72.4186 83.88C72.4193 83.8366 72.4143 83.7934 72.4038 83.7514C71.1079 70.9089 72.4186 61.5658 72.4186 61.5658" stroke="black" strokeWidth="1.5"/>
<path d="M103.656 13.1586L101.677 13.9302C101.677 13.992 101.677 14.7636 101.593 15.8443C101.501 17.1351 101.296 18.4153 100.98 19.6701C101.155 18.8144 101.41 16.7816 100.292 15.367C100.275 15.3381 100.255 15.3108 100.233 15.2854C99.4911 14.3926 98.5761 14.7463 97.8416 15.3596C97.3344 15.7888 96.8913 16.2885 96.5259 16.8434C96.654 15.1913 96.3577 13.5339 95.6653 12.0284C95.2137 11.0015 94.6147 10.0459 93.8872 9.19185C95.0075 13.0498 93.5706 15.5747 93.5706 15.5747C89.7745 16.4675 87.1407 16.2771 85.1772 15.9383C83.5227 14.3951 84.0964 8.8382 84.0964 8.8382C82.4321 10.1984 82.8327 15.461 82.8327 15.461C82.6202 14.0877 82.6461 12.6881 82.9094 11.3236C82.0827 12.4928 81.605 13.8727 81.5319 15.3027L81.5022 15.2879C81.3875 15.2584 81.2744 15.2229 81.1634 15.1815C80.9597 15.0744 80.7623 14.9555 80.5724 14.8254L79.4768 14.0835C81.1313 5.64304 86.9157 0.335914 95.8532 1.89393C96.4367 1.99447 97.0108 2.14337 97.5695 2.33907C103.458 5.40811 103.656 13.1586 103.656 13.1586Z" fill="url(#paint3_linear)"/>
<path d="M52.6519 95.3623L50.399 88.5812C50.2975 88.2602 50.0376 88.0143 49.7115 87.9308C49.6917 87.9308 49.6694 87.9308 49.6472 87.916C49.6249 87.9011 49.62 87.916 49.6051 87.916C49.5532 87.9126 49.5012 87.9126 49.4493 87.916C49.1994 87.9168 48.9591 88.0122 48.7767 88.183C48.4068 88.5247 48.1962 89.0051 48.1955 89.5086C48.1957 89.7035 48.2265 89.8971 48.287 90.0823C48.7816 91.5142 49.662 94.0985 50.0799 95.2757" fill="url(#paint4_linear)"/>
<path d="M52.1425 95.3623L49.7139 87.9308C49.6941 87.9308 49.6719 87.9308 49.6496 87.916C49.6274 87.9012 49.6224 87.916 49.6076 87.916L48.334 87.6687C47.6539 87.5426 46.9738 87.4065 46.2937 87.2804C45.4776 87.1172 44.6566 86.9812 43.8429 86.7858C43.6509 86.7315 43.4536 86.6983 43.2544 86.6869C43.0037 86.6862 42.7625 86.7828 42.5817 86.9565C42.2085 87.2978 41.9974 87.7812 42.0005 88.2869C41.9993 88.4795 42.0302 88.6709 42.092 88.8533C42.6386 90.4558 43.6797 93.4877 44.0111 94.4077L52.1425 95.3623Z" fill="url(#paint5_linear)"/>
<path d="M100.159 61.5633C99.9115 64.3158 99.7829 67.647 99.6963 71.8338C99.6963 80.7367 89.8536 88.1088 81.1065 89.7954L65.0664 93.4184C62.947 93.829 61.07 92.5059 59.5961 91.628C58.0801 90.7253 56.527 89.6495 55.4339 88.8507C53.8611 87.7008 50.8316 88.6257 51.4524 91.3683C51.7235 92.4253 52.4727 93.2952 53.4778 93.7201C53.757 93.8454 54.0446 93.9512 54.3384 94.0367C54.5634 94.093 54.7224 94.2937 54.7259 94.5256C54.7294 94.7575 54.5765 94.9628 54.3532 95.0259C52.9634 95.5057 50.4186 95.7901 46.3134 94.284C41.0533 92.3476 40.6452 104.352 47.8368 106.441H47.864C54.4892 108.445 61.619 108.187 68.4668 107.901C76.2429 107.606 83.9807 106.662 91.5996 105.079C95.4748 104.258 99.4564 103.405 103.003 101.651C109.111 98.6316 113.513 95.1693 117.7 89.7806C122.399 83.739 124.404 75.8129 125.537 68.3814C126.833 59.8792 125.042 52.6999 120.485 45.3822L120.316 45.1151" stroke="black" strokeWidth="1.5"/>
<path d="M52.6518 95.3623L50.3989 88.5812C50.2975 88.2602 50.0375 88.0143 49.7114 87.9308C49.6916 87.9308 49.6694 87.9308 49.6471 87.916C49.6248 87.9011 49.6199 87.916 49.6051 87.916C49.5532 87.9126 49.5011 87.9126 49.4493 87.916C49.1994 87.9168 48.959 88.0122 48.7766 88.183C48.4067 88.5247 48.1961 89.0051 48.1954 89.5086C48.1956 89.7035 48.2265 89.8971 48.2869 90.0823C48.7815 91.5142 49.6619 94.0985 50.0799 95.2757" stroke="black" strokeWidth="1.5"/>
<path d="M49.7138 87.9308C49.6941 87.9308 49.6718 87.9308 49.6495 87.916C49.6273 87.9012 49.6223 87.916 49.6075 87.916L48.3339 87.6687C47.6538 87.5426 46.9737 87.4065 46.2936 87.2804C45.4775 87.1172 44.6565 86.9812 43.8429 86.7858C43.6509 86.7315 43.4535 86.6983 43.2543 86.6869C43.0036 86.6862 42.7624 86.7828 42.5816 86.9565C42.2085 87.2978 41.9973 87.7812 42.0005 88.2869C41.9993 88.4795 42.0302 88.6709 42.092 88.8533C42.6385 90.4558 43.6797 93.4877 44.011 94.4077" stroke="black" strokeWidth="1.5"/>
<path d="M80.7628 15.0604C80.7628 18.2754 81.3885 21.3493 82.9317 24.1884C84.1682 26.4685 85.9834 28.766 88.5801 29.5203C89.1556 29.6863 89.7518 29.7695 90.3508 29.7676C94.7577 29.7478 95.4452 24.5272 95.4452 24.5272" stroke="black" strokeWidth="1.5"/>
<path d="M101.445 16.9251V16.9399C101.24 18.5351 100.889 20.108 100.396 21.6387C99.8067 23.4645 99.6676 25.4058 99.9905 27.297L100.675 31.2811C100.739 31.6433 101.004 31.9372 101.358 32.0378C110.053 34.5628 117.772 40.1345 122.263 48.1793C127.864 58.2248 128.885 70.3229 128.433 81.5999C128.035 91.3758 126.454 101.095 124.211 110.609C121.435 122.381 113.552 132.302 102.711 137.666C95.6646 141.184 88.3879 144.221 80.9308 146.754C72.9364 149.402 66.5592 155.509 63.5676 163.381L46.0437 209.978C45.3997 211.698 44.1295 213.111 42.4875 213.934L25.6956 222.37C23.5751 223.431 21.1563 223.738 18.8379 223.24C17.6078 222.975 16.6654 221.984 16.4622 220.742C16.2591 219.5 16.8365 218.26 17.9179 217.617L26.4944 212.515L38.2883 152.39C39.9679 141.535 46.3116 131.958 55.6515 126.176C56.2667 125.801 56.9081 125.471 57.5705 125.187L83.1367 114.086" stroke="black" strokeWidth="1.5"/>
<path d="M94.4164 1.31281C93.0497 0.987049 91.6347 0.914961 90.2419 1.10013C90.1848 1.10139 90.1278 1.10634 90.0713 1.11496" stroke="black" strokeWidth="1.5"/>
<path d="M88.224 30.7196C88.224 30.7196 83.7008 41.089 91.7901 41.6009C99.0484 42.0658 101.712 32.2034 101.712 32.2034" stroke="black" strokeWidth="1.5"/>
<path fill-rule="evenodd" clip-rule="evenodd" d="M100.876 20.0485C100.928 19.8581 101.707 17.0462 100.218 15.2756C98.7294 13.5049 96.7114 16.5417 96.5086 16.8459C96.9043 12.486 93.8748 9.17953 93.8748 9.17953C94.9926 13.0399 93.5533 15.5624 93.5533 15.5624C88.0211 16.8583 84.9768 15.8716 82.8179 15.4462C82.6056 14.0736 82.6323 12.6747 82.897 11.3113C82.0681 12.4775 81.5901 13.8564 81.5195 15.2854H81.4849C80.663 15.067 79.8838 14.7117 79.18 14.2344L78.0845 13.4925C79.7414 5.05451 85.5234 -0.257561 94.4609 1.30045C103.398 2.85846 103.648 13.1364 103.648 13.1364L101.657 13.9104C101.657 13.9104 101.675 17.3034 100.876 20.0485V20.0485Z" stroke="black" strokeWidth="1.5"/>
<path d="M84.23 19.6083V23.711C84.2307 23.8123 84.2796 23.9073 84.3615 23.9668C84.4435 24.0263 84.5489 24.0434 84.6454 24.0127C84.9682 23.9059 85.2648 23.7323 85.516 23.5033" stroke="black" strokeWidth="1.5"/>
<ellipse rx="2.51508" ry="3.49687" transform="matrix(0.931692 -0.36325 0.363252 0.931691 80.5063 19.465)" stroke="black" strokeWidth="1.5"/>
<ellipse rx="2.51508" ry="3.49687" transform="matrix(0.931691 -0.363251 0.363252 0.931691 88.2939 20.6381)" stroke="black" strokeWidth="1.5"/>
<path d="M83.1418 19.821C83.1418 19.821 83.9084 18.9456 85.5159 19.9719" stroke="black" strokeWidth="1.5"/>
<path d="M87.8604 29.2606C87.8604 29.2606 88.4168 31.145 90.054 37.2534" stroke="black" strokeWidth="1.5"/>
<path d="M46.8723 207.776L56.5171 202.571C57.6394 201.962 58.3883 200.838 58.5178 199.568C60.1203 183.828 59.6306 173.876 59.6306 173.876" stroke="black" strokeWidth="1.5"/>
<path d="M38.1178 127.052L1 101.112" stroke="black" strokeWidth="1.5"/>
<path d="M36.0157 134.199L1 109.726" stroke="black" strokeWidth="1.5"/>
<path d="M178 84.8939V106.13C178 108.119 176.827 109.922 175.008 110.727L148.67 122.39L140.618 134.627C140.192 135.249 139.413 135.525 138.691 135.309C137.969 135.092 137.47 134.433 137.457 133.679V127.358L134.757 128.553C133.536 129.086 132.13 128.97 131.013 128.244C129.897 127.518 129.221 126.279 129.214 124.947V107.213C129.215 102.693 131.9 98.6041 136.047 96.8065L172.243 81.1151C173.516 80.5625 174.982 80.6884 176.142 81.4499C177.302 82.2114 178.001 83.5061 178 84.8939Z" fill="#D7E8F0"/>
<ellipse cx="142.558" cy="111.026" rx="5.10433" ry="3.52901" transform="rotate(-62.6 142.558 111.026)" fill="white"/>
<ellipse rx="5.10434" ry="3.52902" transform="matrix(0.460201 -0.887815 0.887816 0.460199 153.807 106.212)" fill="white"/>
<ellipse cx="164.677" cy="101.013" rx="5.10435" ry="3.52902" transform="rotate(-62.6 164.677 101.013)" fill="white"/>
<defs>
<linearGradient id="paint0_linear" x1="76.6847" y1="106.575" x2="139.575" y2="188.192" gradientUnits="userSpaceOnUse">
<stop stop-color="#5F7DF1"/>
<stop offset="1" stop-color="#3055EC"/>
</linearGradient>
<linearGradient id="paint1_linear" x1="47.4099" y1="195.308" x2="60.5075" y2="205.639" gradientUnits="userSpaceOnUse">
<stop stop-color="#5F7DF1"/>
<stop offset="1" stop-color="#3055EC"/>
</linearGradient>
<linearGradient id="paint2_linear" x1="16.3789" y1="205.488" x2="34.9584" y2="232.751" gradientUnits="userSpaceOnUse">
<stop stop-color="#5F7DF1"/>
<stop offset="1" stop-color="#3055EC"/>
</linearGradient>
<linearGradient id="paint3_linear" x1="79.4768" y1="3.23436" x2="97.2499" y2="24.9201" gradientUnits="userSpaceOnUse">
<stop stop-color="#5F7DF1"/>
<stop offset="1" stop-color="#3055EC"/>
</linearGradient>
<linearGradient id="paint4_linear" x1="48.1955" y1="88.5748" x2="54.4834" y2="91.9989" gradientUnits="userSpaceOnUse">
<stop stop-color="#5F7DF1"/>
<stop offset="1" stop-color="#3055EC"/>
</linearGradient>
<linearGradient id="paint5_linear" x1="42.0005" y1="87.4615" x2="50.6968" y2="96.7202" gradientUnits="userSpaceOnUse">
<stop stop-color="#5F7DF1"/>
<stop offset="1" stop-color="#3055EC"/>
</linearGradient>
</defs>
</svg>
