<svg width="253" height="159" viewBox="0 0 253 159" fill="none" xmlns="http://www.w3.org/2000/svg">
<path d="M123.85 8.32595C123.85 8.32595 137.056 -6.73258 164.278 6.3293C188.188 17.7989 194.524 40.7297 194.524 40.7297" stroke="#CCDDE2" strokeWidth="1.5"/>
<path d="M208.037 114.48L208.769 114.643L208.919 113.966L208.257 113.763L208.037 114.48ZM225.576 127.116L225.939 127.772L225.953 127.764L225.966 127.756L225.576 127.116ZM228.087 125.094L228.36 124.395L227.891 124.212L227.544 124.576L228.087 125.094ZM231.136 125.685L231.146 124.935L231.144 124.935L231.136 125.685ZM239.982 117.082L240.732 117.092L240.732 117.088L239.982 117.082ZM239.817 115.283L239.721 114.54L238.93 114.642L239.081 115.425L239.817 115.283ZM239.46 87.3303H238.71V88.0071L239.383 88.0764L239.46 87.3303ZM239.46 87.2746L238.711 87.2384L238.71 87.2565V87.2746H239.46ZM215.486 86.9539H216.236V86.9458L216.235 86.9378L215.486 86.9539ZM215.486 87.361L215.31 88.0901L216.236 88.3132V87.361H215.486ZM212.358 86.965L212.37 86.2151L212.369 86.2151L212.358 86.965ZM201.647 111.479C203.367 113.206 205.486 114.483 207.817 115.197L208.257 113.763C206.161 113.121 204.256 111.973 202.71 110.421L201.647 111.479ZM207.305 114.318C206.524 117.837 207.297 121.522 209.425 124.431L210.636 123.545C208.762 120.984 208.082 117.74 208.769 114.643L207.305 114.318ZM209.425 124.431C211.553 127.34 214.832 129.193 218.423 129.516L218.557 128.022C215.396 127.738 212.509 126.107 210.636 123.545L209.425 124.431ZM225.783 127.858L225.939 127.772L225.213 126.459L225.057 126.546L225.783 127.858ZM225.966 127.756C226.944 127.161 227.84 126.44 228.63 125.611L227.544 124.576C226.845 125.31 226.052 125.948 225.186 126.475L225.966 127.756ZM227.814 125.792C228.87 126.205 229.993 126.423 231.128 126.435L231.144 124.935C230.191 124.925 229.247 124.742 228.36 124.395L227.814 125.792ZM231.125 126.435C233.639 126.47 236.063 125.505 237.864 123.753L236.819 122.678C235.302 124.152 233.262 124.964 231.146 124.935L231.125 126.435ZM237.864 123.753C239.666 122.001 240.697 119.605 240.732 117.092L239.232 117.072C239.203 119.186 238.335 121.203 236.819 122.678L237.864 123.753ZM240.732 117.088C240.737 116.435 240.677 115.783 240.554 115.142L239.081 115.425C239.186 115.969 239.236 116.522 239.232 117.076L240.732 117.088ZM239.913 116.027C247.379 115.065 252.939 108.663 252.843 101.138L251.343 101.158C251.429 107.92 246.432 113.675 239.721 114.54L239.913 116.027ZM252.843 101.138C252.747 93.6136 247.025 87.3556 239.537 86.5843L239.383 88.0764C246.114 88.7697 251.257 94.3948 251.343 101.158L252.843 101.138ZM240.21 87.3303V87.2746H238.71V87.3303H240.21ZM240.209 87.3108C240.434 82.6581 238.101 78.2538 234.125 75.8247L233.343 77.1047C236.851 79.2479 238.909 83.1337 238.711 87.2384L240.209 87.3108ZM234.125 75.8247C230.149 73.3957 225.165 73.329 221.125 75.6508L221.873 76.9513C225.437 74.9027 229.835 74.9615 233.343 77.1047L234.125 75.8247ZM221.125 75.6508C217.086 77.9726 214.636 82.313 214.736 86.97L216.235 86.9378C216.147 82.8293 218.309 78.9999 221.873 76.9513L221.125 75.6508ZM214.736 86.9539V87.361H216.236V86.9539H214.736ZM215.661 86.6319C214.583 86.372 213.479 86.2322 212.37 86.2151L212.347 87.7149C213.345 87.7303 214.339 87.8562 215.31 88.0901L215.661 86.6319ZM212.369 86.2151C206.785 86.1374 201.631 89.2027 199.035 94.1456L200.363 94.843C202.696 90.4005 207.329 87.6451 212.348 87.715L212.369 86.2151Z" fill="#CCDDE2"/>
<path d="M228.541 105.877C229.345 109.848 231.214 112.155 233.197 113.488" stroke="#CCDDE2" strokeWidth="1.5"/>
<path d="M239.798 115.278C239.293 115.313 238.786 115.304 238.283 115.253" stroke="#CCDDE2" strokeWidth="1.5"/>
<path d="M215.472 87.3498C215.472 87.3498 215.296 93.6576 221.283 96.173" stroke="#CCDDE2" strokeWidth="1.5"/>
<path d="M232.545 118.669C232.545 118.669 217.592 116.248 230.91 157.475" stroke="#CCDDE2" strokeWidth="1.5"/>
<path d="M213.703 115.863C213.703 115.863 226.047 122.353 211.039 157.21" stroke="#CCDDE2" strokeWidth="1.5"/>
<path d="M121.506 10.7939L121.518 10.7855" stroke="#CCDDE2" strokeWidth="1.5"/>
<path d="M82.3865 33.5017C87.4777 33.7443 92.4126 33.1921 97.0017 30.5597C100.051 28.8196 103.8 26.7197 106.752 24.0315" stroke="#CCDDE2" strokeWidth="1.5"/>
<path d="M32.3478 78.2394C34.719 84.1402 37.7877 89.8568 40.4017 95.3337C41.8132 98.3147 43.1774 101.469 43.1913 104.854C43.222 110.088 39.9023 114.77 35.8544 117.383C29.9626 121.184 22.9437 120.836 17.1189 124.862C11.6539 128.624 8.81116 133.482 7.93799 138.928" stroke="#CCDDE2" strokeWidth="1.5"/>
<path d="M58.7802 31.5858C59.0033 31.5663 59.2153 31.5468 59.4385 31.5384" stroke="#CCDDE2" strokeWidth="1.5"/>
<path d="M201.978 157.679C201.978 157.679 204.927 154.285 204.927 146.641C204.927 138.998 200.354 135.607 200.354 135.607C205.312 146.508 195.087 157.679 195.087 157.679C192.928 155.096 191.68 151.873 191.536 148.51C191.536 148.51 188.746 153.315 191.07 157.679" stroke="#CCDDE2" strokeWidth="1.5" strokeLinejoin="round"/>
<path d="M6.1693 157.679C6.1693 157.679 1 151.719 1 138.315C1 124.91 9.02595 118.934 9.02595 118.934C0.319314 138.075 18.2738 157.695 18.2738 157.695C18.8317 156.959 23.9871 151.427 24.5311 141.594C24.5311 141.594 29.4298 150.032 25.3484 157.695" stroke="#CCDDE2" strokeWidth="1.5" strokeLinejoin="round"/>
<path d="M209.948 48.1697L209.976 48.2283" stroke="#CCDDE2" strokeWidth="1.5"/>
<path d="M175.546 157.689H153.043V157.316C153.933 156.888 154.558 156.058 154.72 155.09C154.881 154.122 154.559 153.136 153.856 152.447C153.62 152.21 153.345 152.015 153.043 151.869V151.543H173.971C179.947 151.526 178.806 152.599 179.889 154.66C180.971 156.721 175.546 157.689 175.546 157.689Z" fill="url(#paint0_linear)"/>
<path d="M48.3005 156.548C47.347 157.323 45.8691 157.689 45.8691 157.689H33.5997V134.217L40.0331 131.399C40.0905 131.383 40.146 131.361 40.1985 131.332L40.4117 131.235V151.484H45.081C45.6346 151.486 46.1873 151.525 46.7356 151.601C47.9808 151.805 48.3201 152.26 48.5248 152.965C48.5248 152.965 48.5445 152.965 48.5248 152.985C48.6623 153.44 48.7492 153.984 48.9848 154.631C49.3045 155.434 48.9062 156.073 48.3005 156.548Z" fill="url(#paint1_linear)"/>
<path d="M1.59851 157.861H232.138" stroke="#CCDDE2" strokeWidth="1.5"/>
<path d="M124.741 116.019L117.873 136.881C116.105 141.721 111.503 144.941 106.352 144.941H40.2183L40.2574 148.308V148.648L40.2964 151.655V151.674L44.5711 151.655H45.6864C45.9777 151.653 46.2678 151.693 46.548 151.772C47.2911 151.987 47.9261 152.474 48.3271 153.136C48.3271 153.136 48.3466 153.136 48.3271 153.155C48.6269 153.634 48.7854 154.188 48.7844 154.754V154.801C48.7799 155.62 48.45 156.404 47.8673 156.979C47.2846 157.555 46.497 157.875 45.6781 157.869H33.4843V134.393C35.6741 133.387 37.8063 132.448 39.8809 131.576C39.938 131.56 39.9932 131.537 40.0454 131.509L40.2574 131.423C71.524 118.409 90.9705 120.013 90.9705 120.013L102.386 83.0961" stroke="black" strokeWidth="1.5"/>
<path d="M211.233 51.1526L199.003 60.4738" stroke="black" strokeWidth="1.5"/>
<path d="M170.446 117.123L177.429 114.906" stroke="black" strokeWidth="1.5"/>
<path d="M167.541 53.4397C167.541 53.4397 120.999 106.234 129.317 152.517C129.875 155.498 132.356 157.83 135.385 157.858H151.51C152.042 157.858 152.567 157.729 153.038 157.481C153.93 157.05 154.556 156.212 154.718 155.235C154.88 154.258 154.557 153.263 153.852 152.567C153.616 152.328 153.341 152.131 153.038 151.984C152.606 151.765 152.128 151.652 151.644 151.655H146.625" stroke="black" strokeWidth="1.5"/>
<path d="M160.257 118.099L178.522 92.2025L195.422 68.2442C200.336 61.2882 200.104 51.7272 194.424 45.3737C180.724 30.0336 148.805 40.1971 133.592 48.2604C121.601 54.6167 110.679 64.0801 104.929 76.592C93.4968 101.499 107.037 111.977 124.727 116.08C127.042 116.613 129.431 117.039 131.829 117.377" stroke="black" strokeWidth="1.5"/>
<path d="M170.444 117.12C170.444 117.12 166.4 117.678 160.257 118.099C154.229 126.983 147.431 136.262 139.815 145.753C139.365 146.308 139.3 147.083 139.651 147.705C141.098 150.148 143.727 151.645 146.566 151.644H146.644L170.444 117.109" stroke="black" strokeWidth="1.5"/>
<path d="M178.522 92.2025H192.402C202.639 92.2025 208.096 104.271 201.342 111.963L166.409 151.752H176.528C177.64 151.719 178.683 152.293 179.249 153.252C179.815 154.21 179.815 155.4 179.249 156.359C178.683 157.317 177.64 157.891 176.528 157.858H142.37" stroke="black" strokeWidth="1.5"/>
<path d="M128.525 146.749C126.735 148.637 125.341 150.785 123.969 152.982C123.146 154.307 122.43 155.866 123.737 157.183C124.819 158.257 125.968 157.877 126.88 157.239C127.602 156.717 128.189 156.03 128.592 155.236L129.551 153.418" stroke="black" strokeWidth="1.5"/>
<path d="M235.879 32.4418C235.6 34.3038 234.122 36.202 232.578 36.8106C230.963 37.436 229.121 36.8106 227.671 36.0769C225.809 35.1598 224.08 33.9648 222.341 32.8475L221.211 32.3556C221.213 32.3493 221.213 32.3425 221.211 32.3362C220.841 32.1842 220.428 32.1773 220.053 32.3167C219.965 32.3387 219.88 32.3714 219.8 32.414C219.639 32.492 219.492 32.5962 219.366 32.7225C219.166 32.9121 219.009 33.1412 218.904 33.395C217.932 35.8576 217.232 38.4184 216.816 41.0322L214.161 41.3796C214.17 41.137 214.212 40.8967 214.286 40.6654C214.289 40.6592 214.289 40.6521 214.286 40.6459C214.478 39.99 214.748 39.3814 214.286 39.1424C214.253 38.7439 214.117 38.3607 213.891 38.0307C213.613 37.675 213.176 37.4915 212.499 37.6083C212.258 37.648 212.021 37.7151 211.795 37.8084C211.202 38.0433 210.668 38.4058 210.231 38.87C210.048 39.0556 209.881 39.2554 209.73 39.4675C209.504 39.7778 209.317 40.1147 209.173 40.4708C209.122 40.5857 209.08 40.7047 209.048 40.8266C208.8 41.5674 208.814 42.3707 209.087 43.1027C209.135 43.2293 209.193 43.352 209.26 43.4696L207.164 45.2733C207.091 45.3371 207.014 45.3956 206.933 45.4484C205.92 46.1154 204.297 46.1154 202.858 45.7485C201.99 45.5262 202.343 45.0704 201.776 44.6368C200.974 44.887 200.941 43.3751 200.993 43.1917C201.38 42.1328 199.933 41.2462 199.788 41.1378C199.248 41.0322 198.912 40.8599 198.736 40.5987H199.123C199.925 40.5987 201.055 40.7738 201.787 40.532C201.352 38.7366 200.715 37.7834 202.146 36.2409C203.334 34.9403 203.757 33.7396 203.515 31.9415C203.515 31.8359 204.097 31.9026 204.097 31.7887C204.481 30.677 205.235 29.6376 205.97 29.2874C207.281 28.651 209.212 29.179 209.407 27.5226C209.676 24.8171 211.661 22.5933 214.322 22.017C216.254 21.5918 217.623 23.1732 219.277 23.7707C221.283 24.5128 223.36 23.365 225.464 24.1459C226.507 24.5322 227.192 25.2576 227.888 26.0913C228.467 26.8056 229.037 27.5393 229.558 28.2897C230.078 29.04 230.563 29.7182 231.414 30.0461C232.528 30.4797 233.855 30.1906 234.852 30.941C235.356 31.3092 235.718 31.8389 235.879 32.4418Z" fill="url(#paint2_linear)"/>
<path d="M199.474 40.8283L200.837 43.1469C201.298 43.9291 201.954 45.5602 202.792 45.9026H202.809H202.831C204.292 46.4815 205.878 46.3424 206.916 45.6242C207.003 45.5699 207.085 45.5075 207.159 45.4377L209.257 43.6285C207.961 41.321 210.061 38.1701 212.496 37.7526C213.741 37.5438 214.171 38.3093 214.308 39.2835C214.358 39.7926 214.358 40.3053 214.308 40.8144C214.308 40.9758 214.289 41.1206 214.275 41.2737" stroke="black" strokeWidth="1.5" strokeLinecap="round" strokeLinejoin="round"/>
<path d="M226.849 38.8326C226.849 38.8326 223.247 36.9927 220.896 39.495" stroke="black" strokeWidth="1.5"/>
<path d="M223.872 48.9783C224.76 49.624 225.997 50.37 227.089 49.8133L226.765 45.691C226.69 44.6822 226.962 43.6779 227.536 42.8435C228.491 41.4351 230.301 39.431 230.114 37.0233" stroke="black" strokeWidth="1.5"/>
<ellipse rx="1.22972" ry="1.04591" transform="matrix(0.49394 -0.869496 0.869494 0.493944 224.556 42.287)" fill="black"/>
<path d="M214.21 41.4429C214.24 41.3593 214.268 41.2702 214.299 41.1866C214.33 41.1031 214.357 41 214.394 40.9081" stroke="black" strokeWidth="1.5" strokeLinecap="round" strokeLinejoin="round"/>
<path d="M214.207 41.4457L215.12 41.3287L216.872 41.0948" stroke="black" strokeWidth="1.5" strokeLinecap="round" strokeLinejoin="round"/>
<path d="M218.929 47.2639C218.929 47.2639 218.067 49.7315 220.478 51.8065" stroke="black" strokeWidth="1.5"/>
<path d="M188.051 40.6575C188.855 40.6575 201.059 40.8329 201.793 40.5906C201.358 38.7914 200.719 37.8361 202.153 36.2903C203.345 34.9869 203.769 33.7837 203.526 31.9817C203.509 31.8702 203.499 31.7575 203.498 31.6447C203.401 30.0794 204.118 28.8428 205.502 28.0769C206.819 27.3444 208.321 27.4892 208.525 25.7791C208.607 25.0356 208.813 24.3109 209.133 23.6345C210.043 21.8567 211.683 20.5617 213.626 20.0862C215.622 19.6434 217.034 21.2839 218.759 21.9022C220.821 22.6681 222.981 21.4872 225.15 22.2809C226.233 22.6848 226.939 23.4312 227.662 24.3002C228.273 25.0438 228.853 25.7986 229.386 26.5812C229.908 27.3137 230.43 28.049 231.312 28.386C232.456 28.8317 233.841 28.5309 234.856 29.3135C235.872 30.0961 236.193 31.2854 235.998 32.4746C235.719 34.3407 234.237 36.243 232.688 36.8529C231.069 37.4796 229.222 36.8529 227.768 36.1176C225.901 35.1985 224.167 34.0009 222.423 32.8813L221.29 32.3883C220.918 32.2316 220.502 32.2177 220.121 32.3493C220.032 32.3713 219.947 32.4041 219.867 32.4468C219.707 32.5278 219.56 32.6319 219.431 32.7559C219.231 32.9454 219.073 33.1751 218.968 33.43C217.994 35.8978 217.292 38.4641 216.875 41.0836" stroke="black" strokeWidth="1.5"/>
<path d="M209.836 47.9379C209.836 47.9379 213.012 56.2934 217.394 56.4828C221.776 56.6722 224.728 49.5728 224.728 49.5728" stroke="black" strokeWidth="1.5" strokeLinecap="round" strokeLinejoin="round"/>
<path d="M197.487 64.5096L186.114 92.0242" stroke="black" strokeWidth="1.5"/>
<path d="M198.884 56.4706L199.003 56.5849C198.962 56.3063 198.911 56.0667 198.861 55.8103C198.798 54.4814 198.546 53.1682 198.114 51.9098C197.595 50.3524 196.802 48.8996 195.774 47.6193C184.994 30.4682 154.237 40.186 154.237 40.186C135.55 42.9721 105.987 62.2991 101.162 87.9171C96.3367 113.535 128.558 116.767 130.137 117.032C131.005 117.22 131.881 116.746 132.198 115.917C141.639 83.0415 164.489 57.0808 164.492 57.078C167.002 54.2195 167.624 50.9821 171.083 48.8006C174.864 46.4129 179.472 45.9588 183.725 47.2264C194.667 50.4861 196.407 61.6667 193.25 71.2786C193.25 71.2786 198.959 64.2856 198.884 56.4706Z" fill="#2E2E2E"/>
<path d="M38.7155 15.3512L38.7072 15.3625" stroke="#CCDDE2" strokeWidth="1.5"/>
<path d="M71.6235 15.225L71.6151 15.2166" stroke="#CCDDE2" strokeWidth="1.5"/>
<path fill-rule="evenodd" clip-rule="evenodd" d="M35.3878 30.7904C30.4606 35.6751 25.4718 38.6222 24.2498 37.3772C23.0278 36.1322 26.0367 31.1802 30.9612 26.2955C35.8856 21.4108 40.866 18.475 42.088 19.7116C42.1155 19.7342 42.1359 19.7644 42.1467 19.7985C43.187 21.1669 40.2116 26.0235 35.3878 30.7904V30.7904Z" stroke="black" strokeWidth="1.5"/>
<path d="M54.7093 34.8686C54.6728 39.5576 52.4859 43.9692 48.7792 46.8314C45.0724 49.6936 40.2579 50.6883 35.7237 49.5287C29.9096 48.0263 25.5205 43.239 24.5184 37.3068C24.5132 37.2905 24.5132 37.273 24.5184 37.2567C25.7322 38.4925 30.6877 35.5672 35.582 30.7185C40.3708 25.9868 43.329 21.1688 42.2985 19.8077H42.2957C48.1806 20.92 52.8681 25.3862 54.2732 31.2196C54.567 32.4134 54.7135 33.6389 54.7093 34.8686Z" fill="url(#paint3_linear)"/>
<path d="M42.334 19.8406C41.1402 16.719 43.1688 13.8534 46.2856 13.1635C50.2399 12.2815 53.0839 15.3029 54.7675 18.5358C56.8741 22.5838 56.209 27.9338 53.8715 31.84" stroke="black" strokeWidth="1.5"/>
<path d="M24.5797 37.3736C21.463 36.1411 18.5801 38.1359 17.8454 41.238C16.9132 45.1775 19.8991 48.0598 23.1132 49.7848C27.1344 51.9409 32.3994 51.4151 36.337 49.1282" stroke="black" strokeWidth="1.5"/>
<path fill-rule="evenodd" clip-rule="evenodd" d="M51.7064 43.9228L63.7615 56.1308C64.6396 57.0437 64.6208 58.4926 63.7193 59.3825C62.8179 60.2723 61.3685 60.2726 60.4666 59.3831L48.4088 47.1723L51.7064 43.9228Z" stroke="black" strokeWidth="1.5"/>
<path d="M72.9392 52.3618C74.497 53.9333 72.1002 58.8148 67.5556 63.268C63.011 67.7211 58.0804 70.0548 56.5226 68.486C55.155 67.1092 56.8247 63.2012 60.2898 59.271L60.5079 59.4935C61.4216 60.3358 62.8402 60.313 63.726 59.4417C64.6118 58.5705 64.6504 57.1599 63.8136 56.2419L63.5927 56.0222C67.6087 52.6065 71.5716 50.9877 72.9392 52.3618Z" fill="url(#paint4_linear)"/>
<path fill-rule="evenodd" clip-rule="evenodd" d="M54.8826 34.9563C54.8458 39.6613 52.647 44.0879 48.92 46.9599C45.193 49.8319 40.3522 50.83 35.7932 49.6664C29.9474 48.1589 25.5343 43.3552 24.5267 37.4029C24.5215 37.3865 24.5215 37.3689 24.5267 37.3526C25.7472 38.5926 30.7297 35.6573 35.6507 30.7921C40.4657 26.0442 43.4401 21.2097 42.4039 19.844H42.4011C48.3182 20.9602 53.0313 25.4415 54.4441 31.2948C54.7395 32.4928 54.8867 33.7225 54.8826 34.9563V34.9563Z" stroke="black" strokeWidth="1.5"/>
<path fill-rule="evenodd" clip-rule="evenodd" d="M73.0195 52.3671C74.5751 53.9451 72.1816 58.8466 67.6432 63.318C63.1047 67.7894 58.1809 70.1327 56.6252 68.5575C55.2595 67.175 56.9269 63.251 60.3873 59.3046L60.6051 59.5281C61.5175 60.3739 62.9342 60.351 63.8188 59.4761C64.7034 58.6013 64.742 57.1849 63.9063 56.2632L63.6857 56.0425C67.6962 52.6129 71.6538 50.9874 73.0195 52.3671Z" stroke="black" strokeWidth="1.5"/>
<path d="M39.343 38.2351L38.5442 34.7943L44.5768 40.7403L46.6296 38.5842L42.5883 42.7763" stroke="white" strokeWidth="1.5" strokeLinecap="round" strokeLinejoin="round"/>
<path opacity="0.5" d="M82.2187 31.0753C82.5851 32.3837 82.6129 33.8487 82.055 35.1011C81.5915 36.1467 80.6977 36.9044 79.6652 37.4383C79.2239 40.4353 76.9784 41.9115 74.4083 42.3057C74.3222 42.5405 74.1973 42.8396 74.1002 43.0353C73.051 44.8777 70.6529 45.7416 68.6989 46.2169C67.572 46.3427 66.348 46.2364 65.482 45.4676C64.9224 44.9753 64.548 44.304 64.4217 43.5665C64.3079 42.8313 64.4911 42.0932 64.5078 41.3663C64.5272 39.7644 64.1053 38.2323 63.0256 37.0302C60.1473 33.8095 61.6683 27.8938 68.9293 27.7876C76.1902 27.6813 81.4582 29.2889 84.0284 25.9536C84.0442 25.9879 84.0572 26.0234 84.0673 26.0598C84.2199 27.6226 83.9285 29.5433 82.2187 31.0753Z" fill="url(#paint5_linear)"/>
<path d="M68.9929 37.5009C69.6516 38.2091 70.8516 38.5395 71.714 38.685C74.3803 39.1075 77.1115 38.6867 79.5285 37.4813C80.5667 36.9466 81.4653 36.188 81.9314 35.1411C82.4896 33.8869 82.4645 32.4201 82.0961 31.11" stroke="black" strokeWidth="1.5"/>
<path d="M67.8905 40.9301C68.2561 41.4648 68.9538 41.7699 69.565 41.9603C69.589 41.964 69.6124 41.9706 69.6348 41.9799C71.1306 42.4472 72.7117 42.5725 74.2621 42.3466C76.8464 41.9603 79.1042 40.4738 79.548 37.4729" stroke="black" strokeWidth="1.5"/>
<path d="M74.2789 42.2487C74.2789 42.2794 74.2593 42.3186 74.251 42.355C74.1644 42.5902 74.0388 42.8897 73.9412 43.0857C72.8862 44.9304 70.4749 45.7954 68.5101 46.2713L68.3929 46.2993C67.0561 46.6184 65.4876 46.708 64.3266 45.8318C63.6773 45.3406 63.2209 44.6361 63.0372 43.8415C62.8558 43.0549 63.0093 42.2403 62.9619 41.4424C62.8642 39.6956 62.3032 38.0636 61.025 36.8291C57.6369 33.5483 58.8649 26.9922 66.7854 26.3399C74.7059 25.6877 80.5918 27.0398 83.1594 23.213C83.5921 24.1191 83.8641 25.0939 83.9632 26.0936C84.1167 27.6584 83.8264 29.5816 82.1045 31.1156C81.213 31.8829 80.1751 32.4601 79.054 32.812C71.3457 35.4546 69.9809 33.092 69.9809 33.092" stroke="black" strokeWidth="1.5"/>
<path opacity="0.5" d="M33.957 76.8761C35.2426 77.2951 36.6978 77.3812 37.9666 76.8761C39.0268 76.4543 39.8142 75.5884 40.3846 74.581C43.3842 74.2563 44.9479 72.0834 45.4377 69.5191C45.6714 69.4442 45.9747 69.3304 46.1723 69.2416C48.0477 68.2647 49.0021 65.9114 49.553 63.9688C49.7227 62.8587 49.6643 61.6238 48.9381 60.7274C48.4687 60.1501 47.816 59.7497 47.0877 59.5923C46.3587 59.448 45.6185 59.5923 44.8951 59.5923C43.3035 59.5507 41.7954 59.0651 40.6434 57.9272C37.5548 54.9245 31.6114 56.2094 31.2163 63.4609C30.8211 70.7124 32.2068 76.0463 28.7899 78.4718C28.8238 78.4897 28.8592 78.5046 28.8957 78.5162C30.4427 78.7493 32.3627 78.5301 33.957 76.8761Z" fill="url(#paint6_linear)"/>
<path d="M40.9387 64.1241C41.621 64.811 41.9035 66.0256 42.0125 66.8912C42.33 69.5804 41.7971 72.3014 40.4885 74.6731C39.9292 75.6866 39.1238 76.5578 38.0584 76.9822C36.7833 77.4932 35.3207 77.4066 34.0288 76.9822" stroke="black" strokeWidth="1.5"/>
<path d="M44.4035 63.158C44.9236 63.5461 45.1949 64.2553 45.3654 64.864C45.3654 64.8919 45.3654 64.9115 45.3822 64.931C45.7887 66.4449 45.8517 68.0303 45.5668 69.5717C45.0746 72.1433 43.503 74.338 40.4885 74.6646" stroke="black" strokeWidth="1.5"/>
<path d="M45.4577 69.5969L45.5667 69.5717C45.8016 69.4963 46.1064 69.3819 46.305 69.2925C48.1897 68.3097 49.1489 65.9419 49.7026 63.9873L49.7362 63.8728C50.1081 62.5493 50.2591 60.9857 49.4313 59.7878C48.966 59.1208 48.2813 58.6377 47.4962 58.4224C46.7188 58.2074 45.8967 58.3303 45.1053 58.2493C43.3632 58.0846 41.7496 57.4591 40.5752 56.1328C37.4348 52.6146 30.8409 53.5835 29.8762 61.4743C28.9114 69.3651 30.0328 75.3069 26.1178 77.7194C27.0033 78.1878 27.9638 78.4986 28.9561 78.638C30.5109 78.853 32.4404 78.638 34.0428 76.9627C34.8449 76.1031 35.4633 75.0894 35.8604 73.9834C38.8022 66.383 36.512 64.9227 36.512 64.9227" stroke="black" strokeWidth="1.5"/>
<g opacity="0.71">
<path d="M122.585 11.3827C119.335 10.0186 116.979 8.24997 117.325 7.43541C117.671 6.62086 120.578 7.06719 123.831 8.43129C127.084 9.79539 129.429 11.5612 129.089 12.3757C129.084 12.3928 129.074 12.4082 129.061 12.4204C128.62 13.1736 125.763 12.7189 122.585 11.3827Z" fill="url(#paint7_linear)"/>
<path d="M132.127 18.0413C130.731 19.7151 128.299 20.4711 126.109 20.273C128.536 18.4558 129.692 15.4006 129.075 12.4343C130.326 11.2655 132.068 11.6616 133.009 12.9922C134.19 14.6827 133.327 16.6187 132.127 18.0413Z" fill="url(#paint8_linear)"/>
<path d="M117.305 7.45215C114.715 9.06946 113.315 12.0553 113.731 15.0788C112.056 13.6562 110.939 11.4105 111.154 9.23468C111.338 7.37404 112.114 5.40181 114.158 5.07264C115.753 4.80205 117.255 5.75888 117.305 7.45215Z" fill="url(#paint9_linear)"/>
<path d="M119.539 21.5813L116.135 29.671C115.882 30.2734 115.187 30.5563 114.584 30.3029C113.981 30.0494 113.698 29.3557 113.952 28.7533L117.355 20.6635L119.539 21.5813Z" fill="url(#paint10_linear)"/>
<path d="M119.74 33.1775C119.304 34.218 116.526 34.0451 113.536 32.7898C110.545 31.5345 108.479 29.6711 108.928 28.6306C109.311 27.7184 111.48 27.7379 114.016 28.5943L113.954 28.7393C113.79 29.129 113.847 29.5766 114.103 29.9134C114.358 30.2502 114.774 30.4251 115.194 30.3723C115.614 30.3194 115.974 30.0468 116.138 29.6571L116.199 29.5093C118.584 30.7227 120.125 32.2653 119.74 33.1775Z" fill="url(#paint11_linear)"/>
<path opacity="0.5" d="M131.501 33.4119C130.96 33.8636 130.28 34.114 129.575 34.1204C128.989 34.082 128.435 33.8436 128.005 33.4453C126.509 33.8219 125.372 33.0492 124.682 31.9083C124.557 31.9083 124.389 31.9083 124.28 31.9083C123.208 31.7688 122.326 30.7925 121.723 29.9723C121.443 29.4646 121.251 28.8565 121.443 28.2986C121.566 27.9394 121.807 27.6325 122.127 27.4282C122.465 27.2653 122.818 27.1345 123.18 27.0377C123.941 26.7655 124.567 26.211 124.928 25.4895C125.875 23.5005 128.957 23.0653 130.435 26.4798C131.912 29.8942 132.191 32.7005 134.266 33.2668C134.253 33.2811 134.239 33.2941 134.224 33.3059C133.391 33.7926 132.37 33.8324 131.501 33.4119Z" fill="url(#paint12_linear)"/>
<path opacity="0.5" d="M101.668 18.4235C101.53 19.114 101.637 19.8309 101.97 20.4515C102.284 20.9447 102.758 21.3158 103.313 21.5032C103.704 22.9956 104.927 23.6233 106.259 23.679C106.317 23.7906 106.396 23.9357 106.457 24.0277C107.091 24.9037 108.361 25.2105 109.383 25.3416C109.964 25.3416 110.581 25.2245 110.983 24.7837C111.241 24.5043 111.395 24.1448 111.419 23.7655C111.399 23.3894 111.345 23.0159 111.257 22.6497C111.131 21.8533 111.317 21.039 111.776 20.3762C113.069 18.5909 111.972 15.6813 108.264 16.0245C104.556 16.3676 101.959 17.4695 100.465 15.924L100.451 15.9798C100.421 16.9467 100.878 17.8641 101.668 18.4235Z" fill="url(#paint13_linear)"/>
<path fill-rule="evenodd" clip-rule="evenodd" d="M122.594 11.3938C125.763 12.716 128.6 13.1847 129.075 12.4371C129.692 15.4034 128.536 18.4585 126.109 20.2758C126.097 20.2841 126.087 20.2925 126.077 20.3009C126.063 20.312 126.049 20.3232 126.031 20.3343C125.521 20.7045 124.969 21.0135 124.386 21.2549C122.165 22.1563 119.652 21.9858 117.572 20.7928C115.493 19.5998 114.08 17.5169 113.739 15.1457V15.0788C113.324 12.0552 114.723 9.06943 117.314 7.45211C117.314 7.43259 117.333 7.43259 117.333 7.43259C117.314 7.48526 117.304 7.54106 117.305 7.59717C117.305 8.47031 119.539 10.105 122.594 11.3938ZM120.433 17.4416L121.963 13.9462C122.044 13.7495 121.988 13.5231 121.826 13.3855C121.662 13.2417 121.421 13.229 121.242 13.3549L119.751 14.3619C119.609 14.4586 119.529 14.6236 119.542 14.795C119.555 14.9663 119.658 15.1178 119.813 15.1925C119.968 15.2671 120.151 15.2536 120.293 15.1569L120.402 15.09L119.539 17.0622L118.659 16.6744C118.54 16.6229 118.405 16.6217 118.284 16.671C118.164 16.7204 118.069 16.8161 118.02 16.9366C117.969 17.0541 117.968 17.187 118.017 17.3052C118.066 17.4233 118.161 17.5168 118.28 17.5643L119.519 18.0971C119.533 18.1007 119.545 18.1083 119.558 18.1158C119.574 18.126 119.591 18.1362 119.609 18.1362L121.005 18.7248C121.061 18.7444 121.119 18.7547 121.178 18.7554C121.373 18.7654 121.554 18.6545 121.633 18.4765C121.74 18.2307 121.628 17.9448 121.382 17.8377L120.433 17.4416Z" fill="url(#paint14_linear)"/>
</g>
<g opacity="0.5">
<path d="M67.0939 100.105C68.3253 101.873 68.962 103.558 68.5152 103.865C68.0684 104.172 66.7142 102.992 65.4828 101.223C64.2514 99.4549 63.6147 97.7727 64.0587 97.4631H64.0894C64.5641 97.2037 65.8905 98.3753 67.0939 100.105Z" fill="url(#paint15_linear)"/>
<path d="M64.3463 93.5521C65.6224 93.1476 67.1191 93.5521 68.1885 94.3666C66.3406 94.5064 64.741 95.703 64.0866 97.4352C63.0563 97.6304 62.2856 96.8549 62.2381 95.8563C62.1795 94.6037 63.2601 93.8868 64.3463 93.5521Z" fill="url(#paint16_linear)"/>
<path d="M68.5347 103.873C69.5132 103.884 70.471 103.591 71.2768 103.037C71.9791 102.544 72.5334 101.869 72.8796 101.084C73.2789 102.367 73.1253 103.896 72.296 104.947C71.5923 105.848 70.5424 106.621 69.3808 106.116C68.4649 105.74 68.0042 104.755 68.5347 103.873Z" fill="url(#paint17_linear)"/>
<path d="M72.0112 95.8395L76.4203 92.771C76.7488 92.5399 77.2026 92.6186 77.4339 92.9468C77.6652 93.2749 77.5864 93.7283 77.258 93.9594L72.8517 97.0279L72.0112 95.8395Z" fill="url(#paint18_linear)"/>
<path d="M75.6999 89.7751C76.2584 89.3817 77.6545 90.3804 78.7715 92.0067C79.8884 93.6331 80.3631 95.2733 79.7962 95.6667C79.2992 96.0126 78.1823 95.2929 77.1547 94.0208L77.2329 93.965C77.5614 93.7339 77.6401 93.2806 77.4088 92.9524C77.1775 92.6242 76.7237 92.5456 76.3952 92.7767L76.3142 92.8324C75.5017 91.4237 75.2113 90.121 75.6999 89.7751Z" fill="url(#paint19_linear)"/>
<path opacity="0.5" d="M69.7104 85.8083C70.137 85.7516 70.5702 85.8442 70.9362 86.0705C71.2246 86.2829 71.4323 86.5868 71.5254 86.9325C72.4217 87.2282 72.7568 88.0009 72.7372 88.8154C72.8087 88.8559 72.8778 88.9006 72.9439 88.9493C73.4548 89.3706 73.5917 90.1572 73.6336 90.7849C73.6385 91.145 73.4928 91.4908 73.2315 91.7389C73.0507 91.8856 72.8249 91.9654 72.592 91.9649C72.3638 91.9384 72.1385 91.8908 71.9191 91.8226C71.4419 91.7178 70.9426 91.7986 70.5229 92.0486C69.3809 92.7683 67.6468 91.9844 68.0098 89.736C68.3728 87.4876 69.1407 85.9478 68.2556 84.977H68.2891C68.8713 85.0022 69.4034 85.3134 69.7104 85.8083Z" fill="url(#paint20_linear)"/>
<path opacity="0.5" d="M81.2453 103.037C81.4578 102.662 81.5338 102.225 81.4603 101.801C81.3716 101.454 81.1666 101.148 80.8795 100.933C80.9382 99.9904 80.3462 99.3935 79.5839 99.1061C79.5839 99.0308 79.5532 98.9304 79.5364 98.8634C79.3354 98.2358 78.6569 97.8146 78.0872 97.5412C77.7546 97.4026 77.3792 97.4087 77.0513 97.5579C76.8487 97.6712 76.691 97.8504 76.6045 98.0656C76.5447 98.2875 76.5054 98.5144 76.4872 98.7435C76.4057 99.2302 76.141 99.6673 75.7473 99.9653C74.6555 100.755 74.7365 102.654 76.9563 103.162C79.1762 103.67 80.8963 103.528 81.4687 104.713C81.4754 104.704 81.481 104.693 81.4855 104.682C81.6873 104.128 81.5971 103.51 81.2453 103.037Z" fill="url(#paint21_linear)"/>
<path fill-rule="evenodd" clip-rule="evenodd" d="M67.0912 100.096C65.8905 98.3753 64.5753 97.2065 64.0867 97.438V97.4129C64.7411 95.6808 66.3406 94.4842 68.1886 94.3444H68.2472C68.6328 94.3198 69.02 94.3413 69.4004 94.4085C70.8427 94.671 72.084 95.5816 72.7665 96.8777C73.449 98.1739 73.4969 99.7116 72.8964 101.048C72.8797 101.056 72.8797 101.084 72.8797 101.084C72.5305 101.864 71.9755 102.534 71.2741 103.023C70.4683 103.577 69.5105 103.87 68.532 103.86H68.5153C68.542 103.839 68.5647 103.813 68.5823 103.784C68.8699 103.332 68.2388 101.751 67.0912 100.096ZM70.1907 97.6807L68.2556 98.9835C68.1489 99.065 68.1091 99.2072 68.1579 99.3322C68.1916 99.4575 68.3073 99.543 68.4371 99.5386L69.5373 99.5051C69.642 99.5016 69.7369 99.4426 69.7863 99.3502C69.8356 99.2578 69.8319 99.1462 69.7765 99.0573C69.7211 98.9684 69.6225 98.9158 69.5177 98.9193H69.4423L70.5341 98.1801L70.8692 98.6655C70.9138 98.7312 70.9831 98.7763 71.0614 98.7904C71.1396 98.8046 71.2203 98.7867 71.2852 98.7408C71.353 98.699 71.3996 98.6303 71.4135 98.552C71.4274 98.4737 71.4071 98.3932 71.3578 98.3307L70.8915 97.6501C70.8864 97.6437 70.8819 97.6361 70.8771 97.6282C70.8715 97.6188 70.8656 97.6089 70.858 97.5998L70.3275 96.8355C70.3047 96.8078 70.2773 96.7842 70.2465 96.7658C70.1484 96.6941 70.0151 96.6941 69.917 96.7658C69.781 96.8578 69.7449 97.0422 69.836 97.1786L70.1907 97.6807Z" fill="url(#paint22_linear)"/>
</g>
<path fill-rule="evenodd" clip-rule="evenodd" d="M91.6893 50.5463C92.7803 47.9179 95.3492 46.2054 98.1974 46.2076C100.063 46.2076 101.852 46.9479 103.171 48.2658C104.49 49.5836 105.231 51.3709 105.231 53.2345C105.234 56.0799 103.519 58.6463 100.888 59.7362C98.2573 60.8262 95.2282 60.2248 93.2142 58.2128C91.2002 56.2008 90.5983 53.1747 91.6893 50.5463ZM98.0997 54.646L99.6299 51.1507C99.7188 50.9532 99.6677 50.7209 99.5042 50.5788C99.3415 50.4344 99.1005 50.4217 98.9234 50.5481L97.4295 51.5552C97.2751 51.6471 97.1846 51.8172 97.1946 51.9965C97.2046 52.1758 97.3134 52.3348 97.4771 52.4091C97.6408 52.4833 97.8323 52.4607 97.974 52.3502L98.0801 52.2832L97.2173 54.2555L96.3266 53.8789C96.2071 53.8273 96.0719 53.8261 95.9516 53.8754C95.8312 53.9248 95.7359 54.0206 95.6871 54.1411C95.6366 54.2585 95.6356 54.3914 95.6845 54.5096C95.7334 54.6278 95.828 54.7212 95.9468 54.7687L97.1894 55.3015C97.2008 55.305 97.2122 55.3121 97.2237 55.3193C97.2405 55.3298 97.2578 55.3406 97.276 55.3406L98.6721 55.9292C98.7277 55.9488 98.7862 55.9592 98.8452 55.9599C99.0401 55.9698 99.221 55.859 99.3004 55.6809C99.4075 55.4352 99.295 55.1492 99.0491 55.0421L98.0997 54.646Z" fill="url(#paint23_linear)"/>
<path fill-rule="evenodd" clip-rule="evenodd" d="M55.916 86.3764C54.6169 85.7957 53.7959 84.4902 53.836 83.0689C53.8908 81.1296 55.508 79.6014 57.4492 79.6545C58.872 79.6934 60.1311 80.5849 60.6393 81.9131C61.1475 83.2412 60.8046 84.7444 59.7706 85.7215C58.7366 86.6986 57.2152 86.9571 55.916 86.3764ZM58.0775 83.2335L56.3491 82.4217H56.3351C56.2416 82.3894 56.1378 82.417 56.0727 82.4915C56.0034 82.5689 55.9943 82.683 56.0503 82.7704L56.5334 83.5292C56.5798 83.6015 56.6612 83.6435 56.7471 83.6395C56.8329 83.6355 56.9101 83.586 56.9495 83.5098C56.9889 83.4335 56.9847 83.342 56.9383 83.2698L56.9048 83.2168L57.8821 83.6743L57.681 84.1122C57.6528 84.1709 57.6497 84.2385 57.6723 84.2995C57.695 84.3605 57.7414 84.4097 57.8011 84.4358C57.8595 84.4628 57.9263 84.465 57.9863 84.4419C58.0463 84.4187 58.0944 84.3722 58.1194 84.3131L58.3987 83.7022L58.4182 83.6603L58.7337 82.9657C58.7447 82.9382 58.7504 82.9089 58.7505 82.8792C58.7577 82.7803 58.7018 82.6876 58.6109 82.6477C58.4898 82.5922 58.3465 82.6444 58.2898 82.7649L58.0775 83.2335Z" fill="url(#paint24_linear)"/>
<defs>
<linearGradient id="paint0_linear" x1="153.043" y1="152.092" x2="155.949" y2="163.711" gradientUnits="userSpaceOnUse">
<stop stop-color="#5F7DF1"/>
<stop offset="1" stop-color="#3055EC"/>
</linearGradient>
<linearGradient id="paint1_linear" x1="33.5997" y1="133.597" x2="55.6695" y2="145.372" gradientUnits="userSpaceOnUse">
<stop stop-color="#5F7DF1"/>
<stop offset="1" stop-color="#3055EC"/>
</linearGradient>
<linearGradient id="paint2_linear" x1="198.736" y1="24.0926" x2="221.55" y2="56.1814" gradientUnits="userSpaceOnUse">
<stop stop-color="#5F7DF1"/>
<stop offset="1" stop-color="#3055EC"/>
</linearGradient>
<linearGradient id="paint3_linear" x1="24.5145" y1="22.5036" x2="54.7094" y2="50.0025" gradientUnits="userSpaceOnUse">
<stop stop-color="#5F7DF1"/>
<stop offset="1" stop-color="#3055EC"/>
</linearGradient>
<linearGradient id="paint4_linear" x1="56.0455" y1="53.4" x2="73.1698" y2="69.2389" gradientUnits="userSpaceOnUse">
<stop stop-color="#5F7DF1"/>
<stop offset="1" stop-color="#3055EC"/>
</linearGradient>
<linearGradient id="paint5_linear" x1="61.657" y1="27.7668" x2="82.0535" y2="48.2975" gradientUnits="userSpaceOnUse">
<stop stop-color="#5F7DF1"/>
<stop offset="1" stop-color="#3055EC"/>
</linearGradient>
<linearGradient id="paint6_linear" x1="28.7899" y1="58.3958" x2="50.7983" y2="77.2318" gradientUnits="userSpaceOnUse">
<stop stop-color="#5F7DF1"/>
<stop offset="1" stop-color="#3055EC"/>
</linearGradient>
<linearGradient id="paint7_linear" x1="117.291" y1="7.54218" x2="122.095" y2="16.5363" gradientUnits="userSpaceOnUse">
<stop stop-color="#5F7DF1"/>
<stop offset="1" stop-color="#3055EC"/>
</linearGradient>
<linearGradient id="paint8_linear" x1="126.109" y1="12.5068" x2="134.484" y2="19.155" gradientUnits="userSpaceOnUse">
<stop stop-color="#5F7DF1"/>
<stop offset="1" stop-color="#3055EC"/>
</linearGradient>
<linearGradient id="paint9_linear" x1="111.127" y1="5.92469" x2="119.733" y2="10.7416" gradientUnits="userSpaceOnUse">
<stop stop-color="#5F7DF1"/>
<stop offset="1" stop-color="#3055EC"/>
</linearGradient>
<linearGradient id="paint10_linear" x1="113.859" y1="21.5325" x2="121.961" y2="25.8394" gradientUnits="userSpaceOnUse">
<stop stop-color="#5F7DF1"/>
<stop offset="1" stop-color="#3055EC"/>
</linearGradient>
<linearGradient id="paint11_linear" x1="108.867" y1="28.4767" x2="114.075" y2="37.2539" gradientUnits="userSpaceOnUse">
<stop stop-color="#5F7DF1"/>
<stop offset="1" stop-color="#3055EC"/>
</linearGradient>
<linearGradient id="paint12_linear" x1="121.366" y1="24.8608" x2="131.472" y2="36.5383" gradientUnits="userSpaceOnUse">
<stop stop-color="#5F7DF1"/>
<stop offset="1" stop-color="#3055EC"/>
</linearGradient>
<linearGradient id="paint13_linear" x1="100.449" y1="16.7649" x2="109.821" y2="27.502" gradientUnits="userSpaceOnUse">
<stop stop-color="#5F7DF1"/>
<stop offset="1" stop-color="#3055EC"/>
</linearGradient>
<linearGradient id="paint14_linear" x1="113.667" y1="8.71781" x2="128.123" y2="22.9595" gradientUnits="userSpaceOnUse">
<stop stop-color="#5F7DF1"/>
<stop offset="1" stop-color="#3055EC"/>
</linearGradient>
<linearGradient id="paint15_linear" x1="63.9174" y1="98.0063" x2="69.9274" y2="102.007" gradientUnits="userSpaceOnUse">
<stop stop-color="#5F7DF1"/>
<stop offset="1" stop-color="#3055EC"/>
</linearGradient>
<linearGradient id="paint16_linear" x1="62.2358" y1="93.7571" x2="66.1636" y2="98.9863" gradientUnits="userSpaceOnUse">
<stop stop-color="#5F7DF1"/>
<stop offset="1" stop-color="#3055EC"/>
</linearGradient>
<linearGradient id="paint17_linear" x1="68.3102" y1="101.547" x2="73.4453" y2="105.853" gradientUnits="userSpaceOnUse">
<stop stop-color="#5F7DF1"/>
<stop offset="1" stop-color="#3055EC"/>
</linearGradient>
<linearGradient id="paint18_linear" x1="72.0112" y1="93.0303" x2="76.3758" y2="98.061" gradientUnits="userSpaceOnUse">
<stop stop-color="#5F7DF1"/>
<stop offset="1" stop-color="#3055EC"/>
</linearGradient>
<linearGradient id="paint19_linear" x1="75.4614" y1="90.2308" x2="81.1467" y2="94.1372" gradientUnits="userSpaceOnUse">
<stop stop-color="#5F7DF1"/>
<stop offset="1" stop-color="#3055EC"/>
</linearGradient>
<linearGradient id="paint20_linear" x1="67.9608" y1="85.6315" x2="74.8946" y2="90.5183" gradientUnits="userSpaceOnUse">
<stop stop-color="#5F7DF1"/>
<stop offset="1" stop-color="#3055EC"/>
</linearGradient>
<linearGradient id="paint21_linear" x1="75.0619" y1="98.0907" x2="82.2201" y2="103.944" gradientUnits="userSpaceOnUse">
<stop stop-color="#5F7DF1"/>
<stop offset="1" stop-color="#3055EC"/>
</linearGradient>
<linearGradient id="paint22_linear" x1="64.0867" y1="95.185" x2="73.5792" y2="103.56" gradientUnits="userSpaceOnUse">
<stop stop-color="#5F7DF1"/>
<stop offset="1" stop-color="#3055EC"/>
</linearGradient>
<linearGradient id="paint23_linear" x1="91.1522" y1="47.4634" x2="105.219" y2="60.2866" gradientUnits="userSpaceOnUse">
<stop stop-color="#5F7DF1"/>
<stop offset="1" stop-color="#3055EC"/>
</linearGradient>
<linearGradient id="paint24_linear" x1="53.8346" y1="80.2808" x2="60.865" y2="86.6899" gradientUnits="userSpaceOnUse">
<stop stop-color="#5F7DF1"/>
<stop offset="1" stop-color="#3055EC"/>
</linearGradient>
</defs>
</svg>
