<svg width="93" height="70" viewBox="0 0 93 70" fill="none" xmlns="http://www.w3.org/2000/svg">
<g clip-path="url(#clip0_4166_2073)">
<path d="M92.3899 54.2158V32.5595C92.3561 31.1561 91.7724 29.8231 90.766 28.8506C89.7597 27.8782 88.4121 27.345 87.0168 27.3674H42.1375C40.7427 27.3451 39.3957 27.8783 38.3901 28.851C37.3846 29.8236 36.802 31.1566 36.7695 32.5595V54.2158C36.802 55.6186 37.3846 56.9517 38.3901 57.9243C39.3957 58.8969 40.7427 59.4302 42.1375 59.4079H63.0984L77.8706 68.6446L77.6848 59.4079H87.0116C88.4078 59.4316 89.7567 58.8991 90.7642 57.9265C91.7717 56.9539 92.3561 55.62 92.3899 54.2158Z" fill="#A6B6FA"/>
<path d="M74.2477 22.7881H39.1805C37.7581 22.7922 36.3951 23.3624 35.3893 24.3742C34.3834 25.386 33.8166 26.757 33.8125 28.1879V54.3769C33.8166 55.8077 34.3834 57.1788 35.3893 58.1906C36.3951 59.2023 37.7581 59.7725 39.1805 59.7767H63.0989L77.8711 69.3821L77.6853 59.7767H87.0121C88.4359 59.7739 89.8008 59.2045 90.8085 58.1927C91.8163 57.1809 92.385 55.8091 92.3904 54.3769V37.8192" stroke="black" stroke-width="1.5" stroke-linecap="round" stroke-linejoin="round"/>
<path d="M92.3915 28.1879C92.3861 26.7565 91.8181 25.3855 90.8114 24.3739C89.8048 23.3622 88.4413 22.7922 87.0184 22.7881H80.0039" stroke="black" stroke-width="1.5" stroke-linecap="round" stroke-linejoin="round"/>
<path d="M47.0703 34.73H79.1181" stroke="white" stroke-width="1.5" stroke-linecap="round" stroke-linejoin="round"/>
<path d="M47.0703 41.9209H79.1181" stroke="white" stroke-width="1.5" stroke-linecap="round" stroke-linejoin="round"/>
<path d="M47.0703 49.1069H60.8051" stroke="white" stroke-width="1.5" stroke-linecap="round" stroke-linejoin="round"/>
<path d="M53.8129 0.617676C55.2358 0.621778 56.5993 1.19184 57.606 2.20346C58.6126 3.21508 59.1806 4.58614 59.186 6.01747V32.1909C59.1806 33.6222 58.6126 34.9933 57.606 36.0049C56.5993 37.0165 55.2358 37.5866 53.8129 37.5907H29.8997L15.1274 47.2117L15.3081 37.6063H5.98125C4.55615 37.6021 3.19082 37.0298 2.18458 36.0146C1.17833 34.9995 0.613275 33.6244 0.613281 32.1909V6.01747C0.617367 4.58662 1.18423 3.21555 2.19004 2.20378C3.19584 1.19201 4.55883 0.621785 5.98125 0.617676" fill="white"/>
<path d="M4.64453 32.7414V11.0384C4.67973 9.63551 5.26381 8.30326 6.26988 7.33108C7.27596 6.3589 8.62275 5.82533 10.0177 5.8463H53.8027C55.1976 5.82533 56.5444 6.3589 57.5505 7.33108C58.5566 8.30326 59.1406 9.63551 59.1758 11.0384V32.7414C59.1406 34.1443 58.5566 35.4766 57.5505 36.4487C56.5444 37.4209 55.1976 37.9545 53.8027 37.9335H29.8998L15.1275 47.2118L15.3082 37.9491H10.028C8.62868 37.9728 7.27695 37.4383 6.2682 36.4625C5.25945 35.4867 4.67571 34.1489 4.64453 32.7414Z" fill="#F2F5F8"/>
<path d="M23.4891 0.617676H53.8129C55.2358 0.621778 56.5993 1.19184 57.606 2.20346C58.6126 3.21508 59.1806 4.58614 59.186 6.01747V32.1909C59.1806 33.6222 58.6126 34.9933 57.606 36.0049C56.5993 37.0165 55.2358 37.5866 53.8129 37.5907H29.8997L15.1274 47.2117L15.3081 37.6063H5.98125C4.55615 37.6021 3.19082 37.0298 2.18458 36.0146C1.17833 34.9995 0.613275 33.6244 0.613281 32.1909V6.01747C0.617367 4.58662 1.18423 3.21555 2.19004 2.20378C3.19584 1.19201 4.55883 0.621785 5.98125 0.617676H15.0603" stroke="black" stroke-width="1.5" stroke-linecap="round" stroke-linejoin="round"/>
<path d="M14.0938 11.9678H46.1364" stroke="black" stroke-width="1.5" stroke-linecap="round" stroke-linejoin="round"/>
<path d="M14.0938 19.1533H46.1364" stroke="black" stroke-width="1.5" stroke-linecap="round" stroke-linejoin="round"/>
<path d="M14.0938 26.3447H27.8285" stroke="black" stroke-width="1.5" stroke-linecap="round" stroke-linejoin="round"/>
</g>
<defs>
<clipPath id="clip0_4166_2073">
<rect width="93" height="70" fill="white"/>
</clipPath>
</defs>
</svg>
