<svg width="164" height="110" viewBox="0 0 164 110" fill="none" xmlns="http://www.w3.org/2000/svg">
<g clip-path="url(#clip0)">
<path d="M106.75 9.66602H110.662" stroke="black" strokeWidth="1.5" strokeLinecap="round" strokeLinejoin="round"/>
<path d="M149.572 110H23.4401C21.6201 110.011 19.8617 109.341 18.5105 108.122C17.1593 106.902 16.3129 105.221 16.1378 103.41L10.6158 42.746C10.5304 41.7381 10.6561 40.7235 10.9851 39.767C11.314 38.8105 11.8388 37.9332 12.5261 37.191C13.2134 36.4489 14.0479 35.8583 14.9763 35.457C15.9048 35.0557 16.9068 34.8525 17.9182 34.8605H155.337C156.35 34.8529 157.354 35.0573 158.284 35.4605C159.214 35.8636 160.049 36.4567 160.736 37.2016C161.423 37.9465 161.947 38.8269 162.274 39.7861C162.601 40.7453 162.723 41.7623 162.634 42.7718L156.885 103.441C156.7 105.248 155.849 106.921 154.497 108.134C153.144 109.347 151.389 110.012 149.572 110Z" fill="#F2F5F8"/>
<path d="M158.181 25.437H7.60742V16.1013C7.60742 12.5456 11.0909 9.66596 15.3897 9.66596H42.0137C43.2263 9.63926 44.4301 9.87704 45.5415 10.3628C46.6528 10.8485 47.645 11.5705 48.4491 12.4785L51.8293 16.6071H150.398C154.697 16.6071 158.181 19.4867 158.181 23.0373V25.437Z" fill="#A6B6FA"/>
<path d="M148.773 106.202H14.9305C12.9897 106.199 11.1198 105.472 9.68763 104.162C8.2555 102.852 7.36452 101.054 7.18948 99.1213L1.32178 33.916C1.22591 32.8406 1.35469 31.7571 1.69994 30.7341C2.0452 29.7112 2.59939 28.7712 3.32733 27.9739C4.05526 27.1765 4.94104 26.5393 5.92841 26.1026C6.91578 25.6658 7.98317 25.4392 9.06281 25.437H154.893C155.976 25.438 157.047 25.6649 158.037 26.1033C159.027 26.5416 159.915 27.1817 160.643 27.9826C161.372 28.7836 161.925 29.7277 162.268 30.7547C162.611 31.7817 162.736 32.869 162.634 33.947L156.519 99.1522C156.337 101.08 155.442 102.871 154.009 104.175C152.577 105.479 150.71 106.201 148.773 106.202V106.202Z" stroke="black" strokeWidth="1.5" strokeLinecap="round" strokeLinejoin="round"/>
<path d="M122.623 9.66595H149.505C151.568 9.66595 153.547 10.4852 155.006 11.9435C156.466 13.4019 157.286 15.38 157.287 17.4431V25.5454H6.70898V9.07248C6.70898 7.00848 7.5289 5.02902 8.98837 3.56955C10.4478 2.11008 12.4273 1.29016 14.4913 1.29016H43.3498C44.6185 1.28957 45.868 1.59913 46.9896 2.19188C48.1113 2.78462 49.071 3.64259 49.7852 4.69105L53.1552 9.66595H97.0674" stroke="black" strokeWidth="1.5" strokeLinecap="round" strokeLinejoin="round"/>
<path d="M82.8908 89.6307C94.9128 89.6307 104.659 79.885 104.659 67.863C104.659 55.841 94.9128 46.0952 82.8908 46.0952C70.8688 46.0952 61.123 55.841 61.123 67.863C61.123 79.885 70.8688 89.6307 82.8908 89.6307Z" fill="white" stroke="black" strokeWidth="1.5" strokeMiterlimit="10" strokeLinecap="round"/>
<path d="M91.2781 68.8797V77.8025C91.2994 78.1688 91.1753 78.5288 90.9328 78.8041C90.6903 79.0795 90.3489 79.2481 89.9828 79.2733H78.1648C77.7997 79.2507 77.4583 79.0843 77.2155 78.8106C76.9728 78.5369 76.8483 78.1781 76.8695 77.8128V68.8849C76.851 68.5184 76.9768 68.1592 77.2198 67.8843C77.4629 67.6094 77.804 67.4406 78.17 67.4141H89.9828C90.3484 67.438 90.6898 67.6055 90.9324 67.88C91.1751 68.1546 91.2994 68.5139 91.2781 68.8797Z" fill="#D7E9F1"/>
<path d="M74.5478 72.7916V66.542C74.5146 66.1046 74.6535 65.6715 74.935 65.3351C75.2165 64.9986 75.6183 64.7854 76.0547 64.7409L89.7667 64.71C90.2017 64.7544 90.6022 64.9671 90.8827 65.3026C91.1632 65.638 91.3016 66.0698 91.2684 66.5059V77.4672C91.3016 77.9046 91.1627 78.3377 90.8812 78.6741C90.5997 79.0106 90.1979 79.2238 89.7615 79.2683L76.0496 79.2941C75.2239 79.2941 74.5478 78.489 74.5478 77.4981" stroke="black" strokeWidth="1.5" strokeLinecap="round" strokeLinejoin="round"/>
<path d="M82.9117 55.5291C84.3612 55.5291 85.7513 56.1048 86.7762 57.1298C87.8011 58.1547 88.3769 59.5448 88.3769 60.9942V64.7047H77.4414V60.9994C77.4414 59.5499 78.0172 58.1598 79.0421 57.1349C80.067 56.11 81.4571 55.5342 82.9066 55.5342L82.9117 55.5291Z" stroke="black" strokeWidth="1.5" strokeLinecap="round" strokeLinejoin="round"/>
<path d="M82.9121 73.0237C83.6133 73.0237 84.1816 72.4553 84.1816 71.7541C84.1816 71.053 83.6133 70.4846 82.9121 70.4846C82.211 70.4846 81.6426 71.053 81.6426 71.7541C81.6426 72.4553 82.211 73.0237 82.9121 73.0237Z" fill="black"/>
<path d="M83.403 72.7915H82.4121V74.7216H83.403V72.7915Z" fill="black"/>
</g>
<defs>
<clipPath id="clip0">
<rect width="163.965" height="110" fill="white"/>
</clipPath>
</defs>
</svg>
