<svg width="164" height="110" viewBox="0 0 164 110" fill="none" xmlns="http://www.w3.org/2000/svg">
<g clip-path="url(#clip0)">
<path d="M162.615 56.077V18.1647C162.615 13.1608 158.36 9.0824 153.161 9.0824H74.175C68.9851 9.0824 64.7207 13.1738 64.7207 18.1647V56.0597C64.7207 61.0636 68.9764 65.142 74.175 65.142H111.071L137.072 81.3086L136.752 65.142H153.165C158.364 65.1723 162.615 61.0809 162.615 56.077Z" fill="#A6B6FA"/>
<path d="M130.701 1.0813H68.9719C66.4669 1.08928 64.0668 2.08792 62.2955 3.85921C60.5242 5.6305 59.5256 8.0306 59.5176 10.5356V56.3797C59.5256 58.8847 60.5242 61.2848 62.2955 63.0561C64.0668 64.8274 66.4669 65.826 68.9719 65.834H111.071L137.072 82.606L136.752 65.8037H153.165C155.668 65.7946 158.065 64.7967 159.836 63.0274C161.606 61.258 162.605 58.8608 162.615 56.3581V27.3811" stroke="black" strokeWidth="1.5" strokeLinecap="round" strokeLinejoin="round"/>
<path d="M162.616 10.5356C162.608 8.03135 161.61 5.6319 159.84 3.86073C158.069 2.08956 155.67 1.09042 153.166 1.0813H140.857" stroke="black" strokeWidth="1.5" strokeLinecap="round" strokeLinejoin="round"/>
<path d="M94.7146 27.3855C97.2196 27.3935 99.6197 28.3921 101.391 30.1634C103.162 31.9347 104.161 34.3348 104.169 36.8398V82.6839C104.156 85.1859 103.156 87.5816 101.385 89.3491C99.6141 91.1167 97.2166 92.1129 94.7146 92.1209H52.6288L26.6274 108.919L26.9474 92.1209H10.5344C8.02863 92.1129 5.62789 91.1137 3.85647 89.3414C2.08505 87.5692 1.08692 85.168 1.08008 82.6623V36.8398C1.08806 34.3348 2.0867 31.9347 3.85799 30.1634C5.62928 28.3921 8.02938 27.3935 10.5344 27.3855" fill="white"/>
<path d="M8.2168 83.6008V45.6194C8.2168 40.6068 12.4509 36.5024 17.6538 36.5024H94.7152C99.9051 36.5024 104.169 40.6068 104.169 45.6194V83.6008C104.169 88.6134 99.9137 92.7178 94.7152 92.7178H52.6294L26.628 108.919L26.948 92.7178H17.6538C12.4509 92.7178 8.2168 88.6134 8.2168 83.6008Z" fill="#F2F5F8"/>
<path d="M41.3451 27.3855H94.7146C97.2196 27.3935 99.6197 28.3921 101.391 30.1634C103.162 31.9347 104.161 34.3348 104.169 36.8398V82.6839C104.156 85.1859 103.156 87.5816 101.385 89.3491C99.6141 91.1167 97.2166 92.1129 94.7146 92.1209H52.6288L26.6274 108.919L26.9474 92.1209H10.5344C8.02863 92.1129 5.62789 91.1137 3.85647 89.3414C2.08505 87.5692 1.08692 85.168 1.08008 82.6623V36.8398C1.08806 34.3348 2.0867 31.9347 3.85799 30.1634C5.62928 28.3921 8.02938 27.3935 10.5344 27.3855H26.5063" stroke="black" strokeWidth="1.5" strokeLinecap="round" strokeLinejoin="round"/>
<path d="M52.7197 48.5474L52.6289 65.8038" stroke="black" strokeWidth="1.5" strokeMiterlimit="10" strokeLinecap="round"/>
<path d="M52.6287 76.4776C53.6749 76.4776 54.523 75.6295 54.523 74.5833C54.523 73.5371 53.6749 72.689 52.6287 72.689C51.5825 72.689 50.7344 73.5371 50.7344 74.5833C50.7344 75.6295 51.5825 76.4776 52.6287 76.4776Z" fill="black"/>
</g>
<defs>
<clipPath id="clip0">
<rect width="163.703" height="110" fill="white"/>
</clipPath>
</defs>
</svg>
