<svg width="220" height="189" viewBox="0 0 220 189" fill="none" xmlns="http://www.w3.org/2000/svg">
<path d="M165.733 15.3772L159.73 13.6298" stroke="#D7E9F1" strokeWidth="1.5" strokeMiterlimit="10" strokeLinecap="round"/>
<path d="M183.008 0.873703L181.263 6.8848" stroke="#D7E9F1" strokeWidth="1.5" strokeMiterlimit="10" strokeLinecap="round"/>
<path d="M174.282 30.9292L172.537 36.9403" stroke="#D7E9F1" strokeWidth="1.5" strokeMiterlimit="10" strokeLinecap="round"/>
<path d="M166.78 24.9181L161.301 27.9236" stroke="#D7E9F1" strokeWidth="1.5" strokeMiterlimit="10" strokeLinecap="round"/>
<path d="M186.776 35.3326L183.74 29.8458" stroke="#D7E9F1" strokeWidth="1.5" strokeMiterlimit="10" strokeLinecap="round"/>
<path d="M171.7 7.93325L168.698 2.44638" stroke="#D7E9F1" strokeWidth="1.5" strokeMiterlimit="10" strokeLinecap="round"/>
<path d="M189.219 22.2271L195.221 23.9745" stroke="#D7E9F1" strokeWidth="1.5" strokeMiterlimit="10" strokeLinecap="round"/>
<path d="M188.172 12.7212L193.651 9.71561" stroke="#D7E9F1" strokeWidth="1.5" strokeMiterlimit="10" strokeLinecap="round"/>
<path d="M73.1813 61.6487L70.4941 61.3691" stroke="#D7E9F1" strokeWidth="1.5" strokeMiterlimit="10" strokeLinecap="round"/>
<path d="M79.5328 54.1697L79.2188 56.8608" stroke="#D7E9F1" strokeWidth="1.5" strokeMiterlimit="10" strokeLinecap="round"/>
<path d="M74.3329 65.6677L72.2041 67.3802" stroke="#D7E9F1" strokeWidth="1.5" strokeMiterlimit="10" strokeLinecap="round"/>
<path d="M75.2054 58.014L73.5303 55.8822" stroke="#D7E9F1" strokeWidth="1.5" strokeMiterlimit="10" strokeLinecap="round"/>
<path d="M82.6387 58.8878L84.7675 57.1753" stroke="#D7E9F1" strokeWidth="1.5" strokeMiterlimit="10" strokeLinecap="round"/>
<path d="M4.25722 54.7988L0.87207 55.9521" stroke="#D7E9F1" strokeWidth="1.5" strokeMiterlimit="10" strokeLinecap="round"/>
<path d="M7.53809 42.2874L8.68974 45.6424" stroke="#D7E9F1" strokeWidth="1.5" strokeMiterlimit="10" strokeLinecap="round"/>
<path d="M13.3652 59.2023L14.5518 62.5923" stroke="#D7E9F1" strokeWidth="1.5" strokeMiterlimit="10" strokeLinecap="round"/>
<path d="M7.88684 58.8878L6.31641 62.103" stroke="#D7E9F1" strokeWidth="1.5" strokeMiterlimit="10" strokeLinecap="round"/>
<path d="M4.57101 49.312L1.36035 47.7393" stroke="#D7E9F1" strokeWidth="1.5" strokeMiterlimit="10" strokeLinecap="round"/>
<path d="M17.4844 50.1857L20.8695 49.0324" stroke="#D7E9F1" strokeWidth="1.5" strokeMiterlimit="10" strokeLinecap="round"/>
<path d="M13.8545 46.0967L15.4249 42.8815" stroke="#D7E9F1" strokeWidth="1.5" strokeMiterlimit="10" strokeLinecap="round"/>
<path d="M192.953 111.555V188.021H51.7188V111.555C51.7188 104.915 57.0931 99.4976 63.7587 99.4976H180.913C187.544 99.4976 192.953 104.915 192.953 111.555Z" fill="#F2F5F8" stroke="white" strokeWidth="1.5" strokeMiterlimit="10"/>
<path d="M43.0648 135.809V188.021H31.8274C30.1523 188.021 28.8262 186.658 28.8262 185.016V135.809C28.8262 134.131 30.1872 132.803 31.8623 132.803H40.0635C41.7037 132.803 43.0648 134.131 43.0648 135.809Z" fill="#F2F5F8"/>
<path d="M215.358 135.914V184.876C215.358 186.589 213.962 187.987 212.252 187.987H200.143V135.914C200.143 134.201 201.539 132.803 203.249 132.803H212.217C213.962 132.768 215.358 134.201 215.358 135.914Z" fill="#F2F5F8"/>
<path d="M72.8682 93.4515H99.042" stroke="black" strokeWidth="1.5" strokeMiterlimit="10" strokeLinecap="round"/>
<path d="M44.041 166.913V106.243C44.041 99.183 49.7644 93.4515 56.8139 93.4515" stroke="black" strokeWidth="1.5" strokeMiterlimit="10" strokeLinecap="round"/>
<path d="M192.953 118.195V188.021H44.041" stroke="black" strokeWidth="1.5" strokeMiterlimit="10" strokeLinecap="round"/>
<path d="M163.324 93.4515H170.444" stroke="black" strokeWidth="1.5" strokeMiterlimit="10" strokeLinecap="round"/>
<path d="M44.0421 175.475V187.952H25.7553C23.5916 187.952 21.8467 186.204 21.8467 184.037V132.419C21.8467 130.252 23.5916 128.505 25.7553 128.505H40.1335C42.2972 128.505 44.0421 130.252 44.0421 132.419" stroke="black" strokeWidth="1.5" strokeMiterlimit="10" strokeLinecap="round"/>
<path d="M192.918 188.126H211.205C213.368 188.126 215.113 186.379 215.113 184.212V156.603" stroke="black" strokeWidth="1.5" strokeMiterlimit="10" strokeLinecap="round"/>
<path d="M215.113 146.258V132.559C215.113 130.392 213.368 128.644 211.205 128.644H196.827C194.663 128.644 192.918 130.392 192.918 132.559" stroke="black" strokeWidth="1.5" strokeMiterlimit="10" strokeLinecap="round"/>
<path d="M55.2094 152.269H45.752" stroke="black" strokeWidth="1.5" strokeMiterlimit="10" strokeLinecap="round"/>
<path d="M192.953 152.269H60.793" stroke="black" strokeWidth="1.5" strokeMiterlimit="10" strokeLinecap="round"/>
<path d="M120.714 50.4652C123.505 57.7345 119.876 60.3905 121.9 64.7591C122.807 66.7511 126.193 66.4715 127.938 65.5978C128.461 68.3238 131.113 78.2491 131.113 78.2491L143.328 75.5581C143.328 75.5581 138.547 68.149 137.43 65.458C136.313 62.767 138.372 62.103 138.791 60.1459C139.698 55.8473 140.326 51.4787 140.641 47.0753L131.148 44.559C131.148 44.5939 118.655 45.1182 120.714 50.4652Z" fill="white"/>
<path d="M172.677 36.2763C177.318 30.8942 177.179 28.2382 180.18 26.3859C183.077 24.5686 183.53 22.3319 183.879 19.3963C184.228 16.4606 181.506 13.1056 178.714 14.0492C175.922 14.9928 176.132 17.4392 175.748 17.5091C174.491 17.7887 173.898 15.4471 172.886 17.579C171.874 19.7108 172.502 20.5496 172.886 22.7164C173.165 24.4638 172.188 25.4423 171.804 27.1548C171.63 28.0634 169.501 32.0475 168.978 32.8164L172.677 36.2763Z" fill="white"/>
<path d="M117.503 115.818C119.457 115.923 124.308 110.996 118.899 112.568C113.489 114.141 113.489 117.077 113.489 119.069C113.489 121.061 114.362 121.305 115.653 121.69C115.653 121.69 124.517 122.633 124.098 120.187C123.68 117.741 117.503 115.818 117.503 115.818Z" fill="white"/>
<path d="M171.77 27.1548C171.596 28.0634 169.467 32.0475 168.943 32.8164L172.643 36.2763C177.284 30.8942 177.144 28.2382 180.146 26.3859C183.042 24.5686 183.496 22.3319 183.845 19.3963C184.194 16.4606 181.472 13.1056 178.68 14.0492" stroke="black" strokeWidth="1.5" strokeMiterlimit="10" strokeLinecap="round"/>
<path d="M142.176 145.944C142.176 145.944 141.688 143.288 138.337 144.336C134.987 145.385 131.916 155.205 131.916 155.205L138.617 153.597L142.176 145.944Z" fill="#D6E8EF"/>
<path d="M142.176 145.944C142.176 145.944 141.094 143.323 137.744 144.336C134.394 145.35 131.916 155.205 131.916 155.205L138.617 153.597L142.176 145.944Z" stroke="black" strokeWidth="1.5" strokeMiterlimit="10" strokeLinecap="round"/>
<path d="M127.275 119.872C127.275 119.872 111.884 145.35 109.825 149.788C107.732 154.331 106.056 163.418 112.059 164.466C118.061 165.515 143.782 158.805 143.782 158.805L143.258 154.192L128.671 150.312C128.671 150.312 134.708 130.497 143.782 130.497C152.855 130.497 157.985 144.126 159.8 147.586C157.322 147.097 146.713 146.678 142.874 146.188C141.025 148.914 141.339 149.229 140.257 151.396C166.047 161.321 172.678 165.934 177.877 163.348C183.077 160.762 164.023 118.09 164.023 118.09L127.275 119.872Z" fill="#7794F8"/>
<path d="M129.159 72.203C129.159 72.203 130.101 76.5366 136.453 75.9774C142.002 75.4882 141.059 71.0497 141.059 71.0497C141.059 71.0497 144.235 67.8694 146.643 67.1006C148.109 66.5764 149.365 65.5279 150.168 64.1649L170.269 29.5662L177.109 32.1174L156.589 76.0124C156.589 76.0124 154.809 96.9813 157.985 104.076C161.161 111.17 163.988 119.208 163.988 119.208C163.988 119.208 159.73 126.932 143.467 126.932C127.205 126.932 121.272 121.165 121.272 121.165L127.205 103.132L124.029 92.6477L121.9 103.132V111.17C121.9 111.17 115.514 114.106 114.397 114.735C112.198 112.988 110.942 110.891 109.895 107.186C108.848 103.482 114.641 102.957 114.99 100.197C115.339 97.4356 115.863 83.037 115.863 83.037C115.863 83.037 116.526 77.2356 120.748 75.3833C124.971 73.5311 129.159 72.203 129.159 72.203Z" fill="#474747"/>
<path d="M150.447 59.5867L169.013 29.007L176.447 32.0825L155.961 76.0124C155.961 76.0124 155.647 79.7169 155.542 84.5397" stroke="black" strokeWidth="1.5" strokeMiterlimit="10" strokeLinecap="round"/>
<path d="M113.141 82.1633C113.141 82.1633 113.141 75.9774 117.398 74.1252C121.656 72.2729 128.007 71.0497 128.007 71.0497C128.007 71.0497 129.403 76.6065 135.79 75.9774C142.176 75.3484 141.094 71.0497 141.094 71.0497C141.094 71.0497 141.373 66.9258 143.816 66.2269" stroke="black" strokeWidth="1.5" strokeMiterlimit="10" strokeLinecap="round"/>
<path d="M113.001 96.1076C113.001 95.5135 113.036 94.9194 113.036 94.2554" stroke="black" strokeWidth="1.5" strokeMiterlimit="10" strokeLinecap="round"/>
<path d="M155.437 88.5588C155.437 94.3951 155.856 100.756 157.356 104.076C160.532 111.17 163.359 119.208 163.359 119.208C163.359 119.208 159.136 126.932 142.874 126.932C126.611 126.932 121.376 121.165 121.376 121.165L126.611 103.132L123.435 92.6477L121.306 103.132V111.17C121.306 111.17 115.06 113.547 114.257 115.015C112.233 112.778 110.767 110.052 109.999 107.151C108.952 103.447 112.477 102.503 112.826 99.7422" stroke="black" strokeWidth="1.5" strokeMiterlimit="10" strokeLinecap="round"/>
<path d="M121.341 121.165C121.341 121.165 117.677 129.308 114.327 137.102C113.908 138.115 113.454 139.094 113.036 140.072C111.116 144.616 109.476 148.635 108.987 150.277C107.557 155.24 106.056 163.348 112.058 164.431C118.061 165.515 143.781 158.77 143.781 158.77V154.296L128.67 150.277C126.855 153.318 124.587 156.044 121.97 158.42" stroke="black" strokeWidth="1.5" strokeMiterlimit="10" strokeLinecap="round"/>
<path d="M134.568 137.696C137.116 133.642 140.327 130.252 143.782 130.462C152.122 130.951 159.8 147.551 159.8 147.551C159.8 147.551 160.603 151.396 162.278 154.331" stroke="black" strokeWidth="1.5" strokeMiterlimit="10" strokeLinecap="round"/>
<path d="M128.705 150.312C129.892 146.852 131.357 143.497 133.102 140.247" stroke="black" strokeWidth="1.5" strokeMiterlimit="10" strokeLinecap="round"/>
<path d="M142.874 146.153L159.8 147.551" stroke="black" strokeWidth="1.5" strokeMiterlimit="10" strokeLinecap="round"/>
<path d="M174.422 144.546C176.341 149.194 177.912 153.283 178.505 155.415C180.18 161.531 178.645 163.942 175.19 164.571" stroke="black" strokeWidth="1.5" strokeMiterlimit="10" strokeLinecap="round"/>
<path d="M171.281 137.102C171.875 138.5 172.503 139.933 173.061 141.331" stroke="black" strokeWidth="1.5" strokeMiterlimit="10" strokeLinecap="round"/>
<path d="M163.359 119.208C163.359 119.208 166.326 125.709 169.641 133.327" stroke="black" strokeWidth="1.5" strokeMiterlimit="10" strokeLinecap="round"/>
<path d="M118.131 119.523L122.039 119.278C122.039 119.278 122.737 119.698 121.202 120.781C119.073 122.284 117.468 123.192 115.723 122.668" stroke="black" strokeWidth="1.5" strokeMiterlimit="10" strokeLinecap="round"/>
<path d="M115.723 122.633C114.257 122.179 113.245 121.934 113.245 119.628C113.245 117.321 113.28 114.001 119.457 112.219C125.634 110.436 120.085 116.063 117.852 115.923" stroke="black" strokeWidth="1.5" strokeMiterlimit="10" strokeLinecap="round"/>
<path d="M115.13 47.9839C116.875 50.7448 120.05 52.2826 123.331 51.8981C129.054 51.3739 133.242 47.5645 134.708 48.8227C136.174 50.0808 136.627 52.3525 136.627 52.3525C136.627 52.3525 137.43 51.1992 138.407 51.7583C139.245 52.2127 139.035 53.6455 138.686 54.4144C138.477 54.9037 137.988 56.057 137.569 56.7909C137.918 58.0141 138.233 61.439 138.233 61.439C138.233 61.439 138.965 60.0061 141.059 57.7694C142.839 55.8822 144.584 52.9815 144.584 48.2286C144.584 30.8942 132.3 41.0292 124.936 37.15C120.05 34.5987 122.075 44.8386 119.073 44.3843C116.421 43.9649 113.734 45.258 115.13 47.9839Z" fill="#416AE4"/>
<path d="M128.566 123.018H119.143C118.969 123.018 118.794 122.913 118.724 122.773L115.723 118.649C115.304 118.09 115.584 117.077 116.142 117.077H125.111C125.285 117.077 125.46 117.181 125.53 117.321L128.531 121.445C128.95 122.004 129.124 123.018 128.566 123.018Z" fill="#D6E8EF"/>
<path d="M118.829 123.158L115.688 118.474" stroke="black" strokeWidth="1.5" strokeLinecap="round" strokeLinejoin="round"/>
<path d="M127.554 119.243L126.018 117.007C125.913 116.832 125.739 116.727 125.564 116.727H121.865" stroke="black" strokeWidth="1.5" strokeLinecap="round" strokeLinejoin="round"/>
<path d="M121.133 123.437H128.741C129.334 123.437 129.613 122.319 129.194 121.655" stroke="black" strokeWidth="1.5" strokeLinecap="round" strokeLinejoin="round"/>
<path d="M121.726 121.76H126.088" stroke="black" strokeWidth="1.5" strokeLinecap="round" strokeLinejoin="round"/>
<path d="M142.874 152.444L168.14 162.544" stroke="black" strokeWidth="1.5" strokeMiterlimit="10" strokeLinecap="round"/>
<path d="M121.446 55.9521C121.272 58.4334 119.632 62.6272 122.074 65.1086C122.633 65.6677 123.331 66.0172 124.099 66.192" stroke="black" strokeWidth="1.5" strokeMiterlimit="10" strokeLinecap="round"/>
<path d="M143.781 154.331C143.781 154.331 145.282 154.786 146.154 153.737C147.027 152.689 146.713 151.78 148.423 152.269C151.773 153.283 158.718 158.77 158.718 158.77L149.225 158.315L143.816 158.805V154.331H143.781Z" fill="#D6E8EF"/>
<path d="M149.295 158.246L143.886 158.735V154.261" stroke="black" strokeWidth="1.5" strokeMiterlimit="10" strokeLinecap="round"/>
<path d="M148.493 152.2C151.843 153.213 158.788 158.7 158.788 158.7L152.751 158.35" stroke="black" strokeWidth="1.5" strokeMiterlimit="10" strokeLinecap="round"/>
<path d="M173.654 22.1921C173.654 22.1921 171.595 17.6838 172.118 16.9499C173.724 14.5734 175.678 17.5091 175.678 17.5091" stroke="black" strokeWidth="1.5" strokeMiterlimit="10" strokeLinecap="round"/>
<path d="M25.8595 60.6701C25.5803 60.4954 25.5105 60.1459 25.6501 59.8663C25.7548 59.6217 26.034 59.5168 26.2782 59.6217L38.5974 64.4096L42.5409 60.5303C43.0295 60.0061 43.0295 59.1674 42.5409 58.6431C42.3315 58.3985 42.0524 58.2587 41.7383 58.1888L17.2395 53.9251C16.6812 53.8552 16.1926 54.2397 16.0879 54.7639C16.0879 54.7988 16.0879 54.8338 16.0879 54.8687C16.0879 55.0784 16.1228 55.3231 16.2275 55.5327L25.7897 74.5795C26.0689 75.2435 26.8715 75.5581 27.5346 75.2435C27.5346 75.2435 27.5346 75.2435 27.5695 75.2435C27.6742 75.1736 27.7789 75.1037 27.8487 75.0338L32.6647 70.2459L37.7598 72.5176C38.2484 72.7273 38.8068 72.5176 39.0162 72.0632C39.0162 72.0283 39.0511 71.9933 39.0511 71.9584C39.1209 71.6788 39.1209 71.3992 39.0162 71.1546L37.8645 68.2189L25.8595 60.6701Z" fill="#A6B6FA"/>
<path d="M206.947 79.5771C205.447 76.9909 203.841 74.4747 202.062 72.0982" stroke="#E2E9EB" strokeWidth="1.5" strokeMiterlimit="10" strokeLinecap="round"/>
<path d="M149.47 117.146C160.777 119.488 172.293 121.061 183.635 121.445C218.394 122.598 217.068 101.21 209.425 84.365" stroke="#E2E9EB" strokeWidth="1.5" strokeMiterlimit="10" strokeLinecap="round"/>
<path d="M42.4707 74.8591C42.4707 74.8591 67.8419 90.0616 102.356 103.132" stroke="#E2E9EB" strokeWidth="1.5" strokeMiterlimit="10" strokeLinecap="round"/>
<path fill-rule="evenodd" clip-rule="evenodd" d="M197.978 64.6193L180.25 60.8099L182.937 50.3604L200.631 52.3525L197.978 64.6193Z" fill="#D6E8EF"/>
<path d="M201.155 50.9895L198.154 64.9687L178.087 60.6352L179.413 54.1348M180.251 50.3254L181.088 46.6908L180.251 50.3254Z" stroke="#030303" strokeWidth="1.5" strokeLinecap="round" strokeLinejoin="round"/>
<path d="M188.207 54.2396L178.087 60.6352L198.154 64.9687L191.767 55.0085" stroke="#030303" strokeWidth="1.5" strokeLinecap="round" strokeLinejoin="round"/>
<path d="M185.311 51.0594L189.673 55.6026L201.154 50.9895L193.163 49.277" stroke="#030303" strokeWidth="1.5" strokeLinecap="round" strokeLinejoin="round"/>
<path d="M181.088 46.6908L183.984 49.6964" stroke="#030303" strokeWidth="1.5" strokeLinecap="round" strokeLinejoin="round"/>
<path d="M106.579 77.3754V64.8639C106.579 63.431 105.428 62.2777 103.997 62.2777H81.0337C79.6028 62.2777 78.4512 63.431 78.4512 64.8639V77.3754C78.4512 78.8082 79.6028 79.9615 81.0337 79.9615H92.5153L99.5996 84.5397L99.5299 79.9615H103.997C105.428 79.9615 106.579 78.8082 106.579 77.3754Z" stroke="black" strokeWidth="1.5" strokeLinecap="round" strokeLinejoin="round"/>
<path d="M98.483 72.7622C99.3904 72.7622 100.123 72.0283 100.123 71.1196C100.123 70.211 99.3904 69.4771 98.483 69.4771C97.5756 69.4771 96.8428 70.211 96.8428 71.1196C96.8777 72.0283 97.6105 72.7622 98.483 72.7622Z" fill="#4567EC"/>
<path d="M92.5152 72.7622C93.4226 72.7622 94.1555 72.0283 94.1555 71.1196C94.1555 70.211 93.4226 69.4771 92.5152 69.4771C91.6079 69.4771 90.875 70.211 90.875 71.1196C90.9099 72.0283 91.6428 72.7622 92.5152 72.7622Z" fill="#4567EC"/>
<path d="M86.5826 72.7622C87.49 72.7622 88.2228 72.0283 88.2228 71.1196C88.2228 70.211 87.49 69.4771 86.5826 69.4771C85.6753 69.4771 84.9424 70.211 84.9424 71.1196C84.9424 72.0283 85.6753 72.7622 86.5826 72.7622C86.5477 72.7622 86.5477 72.7622 86.5826 72.7622Z" fill="#4567EC"/>
<path d="M63.9331 38.443C70.1008 38.443 75.1007 33.436 75.1007 27.2596C75.1007 21.0832 70.1008 16.0762 63.9331 16.0762C57.7655 16.0762 52.7656 21.0832 52.7656 27.2596C52.7656 33.436 57.7655 38.443 63.9331 38.443Z" fill="white"/>
<path d="M72.9029 33.8299C72.5539 34.2143 72.17 34.5988 71.7861 34.9482" stroke="#466BF0" strokeWidth="1.5" strokeLinecap="round" strokeLinejoin="round"/>
<path d="M68.7843 36.8005C62.9213 39.3517 56.0812 36.6257 53.5685 30.7544C51.0209 24.8831 53.743 18.0333 59.606 15.517C65.4689 13.0007 72.309 15.6918 74.8217 21.5631C75.8687 23.9745 76.0432 26.6655 75.3801 29.2167" stroke="#466BF0" strokeWidth="1.5" strokeLinecap="round" strokeLinejoin="round"/>
<path d="M59.8154 21.6679L66.1321 20.0603C66.1321 20.0603 66.4112 24.1842 63.9683 24.8132C61.5255 25.4423 59.8154 21.6679 59.8154 21.6679Z" fill="white"/>
<path d="M68.8195 30.7195L62.5028 32.3271C62.5028 32.3271 62.2236 28.2032 64.6665 27.5741C67.1094 26.9451 68.8195 30.7195 68.8195 30.7195Z" fill="white"/>
<path d="M68.8891 30.8243L68.7146 30.1254C68.4703 29.1818 67.877 28.378 67.0744 27.8887L64.3174 26.2461L65.9576 23.4852C66.4462 22.6464 66.5858 21.6679 66.3764 20.7592L66.2019 20.0603" stroke="#466BF0" strokeWidth="1.5" strokeLinecap="round" strokeLinejoin="round"/>
<path d="M59.7812 21.6679L59.9557 22.3669C60.2 23.3105 60.7933 24.1143 61.6309 24.6035L64.3529 26.2461L62.7127 28.9721C62.2241 29.8108 62.0496 30.7894 62.2939 31.733L62.4684 32.4319" stroke="#466BF0" strokeWidth="1.5" strokeLinecap="round" strokeLinejoin="round"/>
<path d="M67.1447 19.4312L58.3154 21.6679" stroke="#466BF0" strokeWidth="1.5" strokeLinecap="round" strokeLinejoin="round"/>
<path d="M70.0754 30.8593L61.2461 33.096" stroke="#466BF0" strokeWidth="1.5" strokeLinecap="round" strokeLinejoin="round"/>
<path d="M63.4795 22.7862L65.015 28.9721" stroke="#466BF0" strokeWidth="1.5" strokeLinecap="round" strokeLinejoin="round"/>
<g opacity="0.5">
<path opacity="0.5" d="M61.7354 89.782L80.0222 99.5675" stroke="#E2E9EB" strokeWidth="1.5" strokeMiterlimit="10" strokeLinecap="round"/>
<path opacity="0.5" d="M45.752 72.0982L67.8427 83.9456" stroke="#E2E9EB" strokeWidth="1.5" strokeMiterlimit="10" strokeLinecap="round"/>
</g>
<path d="M107.871 28.343C107.103 29.9856 107.033 31.8728 107.661 33.5852C108.01 34.3541 108.394 35.088 108.848 35.787C109.581 37.2199 109.965 38.7925 109.965 40.4001C109.93 42.0777 109.371 43.7202 108.429 44.6289" stroke="#ABB8EA" strokeWidth="1.5" strokeMiterlimit="10" strokeLinecap="round"/>
<path d="M54.4764 90.2363C53.7435 91.2149 53.6388 92.5429 54.267 93.5913C54.6159 94.0806 55.0347 94.5699 55.4535 95.0242C56.1515 95.828 56.5703 96.8765 56.5703 97.9948C56.5354 99.1132 55.977 100.127 55.0347 100.721" stroke="#ABB8EA" strokeWidth="1.5" strokeMiterlimit="10" strokeLinecap="round"/>
<path d="M218.394 85.6231C219.197 84.4699 219.301 83.002 218.743 81.7439C218.394 81.1498 218.045 80.5906 217.626 80.0664C216.928 79.0529 216.614 77.8297 216.649 76.6065C216.684 75.3833 217.312 74.265 218.324 73.5311" stroke="#ABB8EA" strokeWidth="1.5" strokeMiterlimit="10" strokeLinecap="round"/>
<path d="M37.9344 48.3683C38.5277 47.7393 38.7022 46.8306 38.4579 45.9919C38.2834 45.6074 38.1089 45.223 37.8996 44.8735C37.5506 44.1746 37.411 43.4057 37.5506 42.6718C37.6902 41.9029 38.1438 41.2739 38.8069 40.8894" stroke="#ABB8EA" strokeWidth="1.5" strokeMiterlimit="10" strokeLinecap="round"/>
<path d="M207.89 125.779C208.623 126.757 208.727 128.085 208.099 129.134C207.75 129.623 207.331 130.112 206.913 130.567C206.215 131.37 205.796 132.419 205.796 133.537C205.831 134.655 206.389 135.669 207.331 136.263" stroke="#ABB8EA" strokeWidth="1.5" strokeMiterlimit="10" strokeLinecap="round"/>
<path d="M171.665 65.1435L172.887 67.6248L175.609 68.0092L173.62 69.9314L174.108 72.6573L171.665 71.3643L169.222 72.6573L169.676 69.9314L167.722 68.0092L170.444 67.6248L171.665 65.1435Z" fill="#A8B8F9"/>
<path d="M155.507 23.8347L156.275 25.4074L158.02 25.6869L156.763 26.9101L157.077 28.6226L155.507 27.8188L153.936 28.6226L154.25 26.9101L152.994 25.6869L154.739 25.4074L155.507 23.8347Z" fill="#7691F4"/>
<path d="M62.991 65.7376L63.3749 66.5065L64.2124 66.6463L63.5842 67.2404L63.7238 68.0792L62.991 67.6947L62.2232 68.0792L62.3628 67.2404L61.7695 66.6463L62.6071 66.5065L62.991 65.7376Z" fill="#A8B8F9"/>
<path d="M12.5627 75.3833L13.5399 77.3404L15.7036 77.6549L14.1332 79.1927L14.4822 81.3595L12.5627 80.346L10.6084 81.3595L10.9923 79.1927L9.42188 77.6549L11.5856 77.3404L12.5627 75.3833Z" fill="#7691F4"/>
<path d="M88.0487 37.779L88.7467 39.2119L90.2822 39.4216L89.1654 40.505L89.4446 42.0777L88.0487 41.3438L86.6527 42.0777L86.897 40.505L85.7803 39.4216L87.3507 39.2119L88.0487 37.779Z" fill="#7691F4"/>
<path d="M114.082 14.3637L114.78 15.8315L116.386 16.0762L115.234 17.1945L115.513 18.8021L114.082 18.0682L112.617 18.8021L112.896 17.1945L111.744 16.0762L113.349 15.8315L114.082 14.3637Z" fill="#7691F4"/>
<path d="M48.9268 45.4327H54.4756L53.0099 50.9545L48.9268 45.4327Z" fill="#466BF0"/>
<path d="M104.066 88.5588L105.672 85.3436L108.603 90.9702L105.846 92.0187L104.066 88.5588Z" fill="#D7E9F1"/>
<path d="M190.091 113.687C198.803 113.687 205.866 106.317 205.866 97.226C205.866 88.135 198.803 80.7654 190.091 80.7654C181.38 80.7654 174.317 88.135 174.317 97.226C174.317 106.317 181.38 113.687 190.091 113.687Z" fill="#47B26B"/>
<path d="M190.65 113.722C189.428 113.896 188.242 113.931 187.02 113.861C185.485 113.756 183.949 113.477 182.483 112.988" stroke="black" strokeWidth="1.5" strokeMiterlimit="10" strokeLinecap="round"/>
<path d="M179.553 111.66C170.968 106.907 167.862 96.1076 172.608 87.5453C177.354 78.948 188.138 75.8376 196.688 80.5906C205.238 85.3436 208.379 96.1426 203.633 104.705C201.678 108.235 198.607 110.996 194.908 112.533" stroke="black" strokeWidth="1.5" strokeMiterlimit="10" strokeLinecap="round"/>
<path d="M196.722 89.747L183.984 102.503L179.482 97.9948" stroke="white" strokeWidth="1.5" strokeMiterlimit="10" strokeLinecap="round"/>
<path d="M65.9575 121.235L62.8516 116.657L72.8674 111.625L65.9575 121.235Z" fill="#466BF0"/>
<path d="M132.265 87.6851C132.265 88.8384 133.312 89.8169 133.381 89.8519L136.383 92.7526C136.452 92.8225 136.522 92.8574 136.592 92.8225C136.662 92.8225 136.732 92.7875 136.801 92.7526L139.803 89.8519C139.838 89.8169 140.885 88.8384 140.885 87.6851C140.885 86.2872 140.012 85.4484 138.581 85.4484C137.744 85.4484 136.941 86.1124 136.557 86.4969C136.173 86.1124 135.371 85.4484 134.533 85.4484C133.102 85.4135 132.265 86.2522 132.265 87.6851Z" fill="#ABB8EA"/>
<path d="M212.95 40.3303L216.684 42.4621L215.358 48.1936L212.811 48.8576L212.95 40.3303Z" fill="#A8B8F9"/>
<path d="M88.5371 14.6783L91.4337 15.4471L89.4794 19.7807L88.5371 14.6783Z" fill="#A8B8F9"/>
</svg>
