<svg width="226" height="157" viewBox="0 0 226 157" fill="none" xmlns="http://www.w3.org/2000/svg">
<rect x="156.645" y="16.9062" width="53.099" height="72.3759" rx="16.64" stroke="#CCDDE2"/>
<rect x="161.191" y="24.3626" width="44.5523" height="12.7296" rx="6.36478" stroke="#CCDDE2"/>
<circle cx="183.195" cy="28.4088" r="1.31642" fill="#D7E8F0"/>
<path d="M179.52 34.365C179.52 32.3334 181.166 30.6864 183.198 30.6864C185.23 30.6864 186.877 32.3334 186.877 34.365H179.52Z" fill="#D7E8F0"/>
<path fill-rule="evenodd" clip-rule="evenodd" d="M183.464 50.7358C179.548 50.7372 176.374 53.9126 176.375 57.8287C176.376 61.7448 179.551 64.9189 183.467 64.9184C187.383 64.9179 190.558 61.7432 190.558 57.8271C190.558 55.9459 189.81 54.1418 188.48 52.8119C187.149 51.4819 185.345 50.7351 183.464 50.7358ZM183.464 63.207C182.911 63.18 182.476 62.7237 182.476 62.17C182.476 61.6164 182.911 61.1601 183.464 61.133C184.017 61.1601 184.451 61.6164 184.451 62.17C184.451 62.7237 184.017 63.18 183.464 63.207ZM184.687 55.8557C184.715 55.6466 184.744 55.4383 184.774 55.2315C184.789 55.1169 184.809 54.9969 184.829 54.8742C184.945 54.1778 185.076 53.3927 184.369 52.9936C183.691 52.6111 182.523 52.6856 182.109 53.4307C181.741 54.0709 181.963 55.0463 182.144 55.8437C182.195 56.0642 182.242 56.2711 182.272 56.4535C182.445 57.6104 182.694 58.7547 183.018 59.8787C183.127 60.2389 183.803 60.2389 183.912 59.8787C184.309 58.5846 184.501 57.2012 184.687 55.8557Z" fill="#D7E8F0"/>
<path fill-rule="evenodd" clip-rule="evenodd" d="M105.869 31.2751C100.785 29.759 95.288 31.4551 91.9418 35.5724C88.5956 39.6896 88.0592 45.4172 90.5828 50.0842C93.1063 54.7512 98.1928 57.4384 103.47 56.8927C108.748 56.347 113.177 52.6759 114.692 47.5913C115.686 44.2577 115.315 40.6657 113.66 37.6057C112.006 34.5457 109.203 32.2685 105.869 31.2751ZM99.2802 53.3811C98.2952 53.0559 97.7473 52.0064 98.0437 51.0123C98.3401 50.0182 99.3733 49.4401 100.376 49.7075C101.05 49.8875 101.574 50.4201 101.742 51.0979C101.911 51.7756 101.697 52.4913 101.185 52.9662C100.673 53.4411 99.9434 53.6 99.2802 53.3811ZM105.333 40.9784C105.492 40.6283 105.651 40.2796 105.81 39.9337C105.897 39.7394 105.995 39.5383 106.096 39.3326C106.67 38.1601 107.318 36.8368 106.289 35.7634C105.283 34.7301 103.177 34.2681 102.054 35.3436C101.064 36.2852 100.942 38.1318 100.843 39.6388C100.816 40.0559 100.79 40.447 100.748 40.7856C100.438 42.9247 100.272 45.0822 100.251 47.2436C100.254 47.9391 101.453 48.2967 101.836 47.7155C103.217 45.6276 104.29 43.2706 105.333 40.9784Z" fill="white"/>
<path fill-rule="evenodd" clip-rule="evenodd" d="M69.237 60.3184C66.6971 62.9032 66.7332 67.0575 69.3177 69.5978C71.9022 72.138 76.0566 72.1025 78.5972 69.5183C81.1378 66.9342 81.1028 62.7799 78.519 60.2389C75.9337 57.6983 71.7785 57.7339 69.237 60.3184ZM77.4673 68.4082C77.2272 68.6526 76.875 68.7505 76.5433 68.6649C76.2115 68.5792 75.9507 68.3231 75.859 67.993C75.7673 67.6629 75.8586 67.3089 76.0987 67.0644C76.4697 66.6865 77.0769 66.6809 77.4549 67.052C77.8328 67.4231 77.8383 68.0302 77.4673 68.4082ZM73.4178 62.8466C73.2963 62.6888 73.1754 62.5316 73.0559 62.375C72.989 62.2897 72.922 62.1975 72.8535 62.1033C72.4689 61.5744 72.0376 60.9811 71.3271 61.1877C70.6466 61.3839 69.9362 62.2135 70.1498 62.9587C70.3357 63.622 71.1304 64.1111 71.7763 64.5086C71.9503 64.6157 72.1135 64.7162 72.2511 64.8116C73.122 65.4516 74.0347 66.0325 74.9833 66.5503C75.2913 66.7043 75.7285 66.2646 75.5621 65.9591C74.9684 64.8618 74.1823 63.8402 73.4178 62.8466Z" fill="white"/>
<path d="M165.648 42.7752H200.29" stroke="#CCDDE2"/>
<path d="M165.648 46.1854H200.29" stroke="#CCDDE2"/>
<path d="M165.648 68.1424H200.29" stroke="#CCDDE2"/>
<path d="M173.695 71.3689H192.244" stroke="#CCDDE2"/>
<path d="M209.742 63.6666C212.797 67.5065 215.703 72.2655 218.331 78.1298C234.332 113.862 214.332 131.996 214.332 131.996" stroke="#9F9F9F"/>
<path d="M42.6213 91.9994C42.6213 91.9994 18.8785 65.0674 48.4856 51.7318C78.0927 38.3962 83.9545 36.5433 81.8184 22.6712C79.6823 8.79905 96.4729 -5.32642 122.878 4.00777C149.284 13.3419 149.813 30.9323 147.94 44.5312C146.877 52.2832 151.276 54.1461 156.633 53.7561" stroke="#9F9F9F"/>
<path fill-rule="evenodd" clip-rule="evenodd" d="M206.948 147.883C207.631 146.561 208.016 145.105 208.076 143.618C208.078 143.559 208.077 143.5 208.071 143.442C208.247 140.151 207.351 136.025 205.222 131.209V131.194C203.255 126.763 200.23 121.756 196.032 116.291L196.007 116.266C192.343 111.5 189.023 107.677 186.216 104.677C186.123 104.579 186.03 104.48 185.937 104.381C185.614 104.037 185.289 103.691 184.959 103.355C184.904 103.297 184.849 103.24 184.795 103.184C184.739 103.126 184.684 103.069 184.631 103.013C180.632 98.892 177.912 96.6864 177.048 96.0207C176.857 95.8617 176.753 95.7897 176.753 95.7897C154.594 89.4063 152.163 115.347 152.163 115.347H152.18L168.325 127.891L168.38 127.93C168.383 127.929 168.387 127.929 168.391 127.929C168.393 127.929 168.395 127.93 168.397 127.93C168.596 128.027 171.308 129.371 172.475 130.938C172.742 131.272 172.918 131.669 172.987 132.091C173.004 132.241 172.982 132.393 172.925 132.533C172.622 133.196 171.455 133.596 170.175 133.844C168.839 134.067 167.489 134.198 166.134 134.237C166.111 134.237 165.899 134.258 165.534 134.294C165.395 134.307 165.235 134.323 165.054 134.341L164.309 134.413C164.117 134.429 163.915 134.449 163.698 134.471C163.605 134.481 163.51 134.49 163.412 134.5L162.741 134.565C162.702 134.567 162.659 134.573 162.614 134.578C162.541 134.587 162.463 134.597 162.389 134.597L161.643 134.669C161.61 134.673 161.576 134.678 161.541 134.682C161.445 134.695 161.346 134.709 161.251 134.709C155.566 135.275 146.78 136.172 145.494 136.42C144.872 136.565 144.225 136.559 143.606 136.403C143.287 136.326 142.991 136.175 142.742 135.963L131.679 127.868C129.852 126.535 128.207 125.229 126.743 123.949C126.453 123.57 126.143 123.207 125.814 122.861C116.12 112.382 115.328 105.695 115.328 105.695C115.157 105.656 114.983 105.632 114.809 105.623C116.192 104.878 119.19 103.254 119.687 102.799C119.705 102.782 119.722 102.766 119.74 102.749C120.35 102.173 120.765 101.782 122.352 104.086C123.984 106.455 130.159 106.607 130.159 106.607C137.036 104.6 136.321 93.9442 135.978 90.1117C135.635 86.2792 133.579 85.2087 133.579 85.2087C133.644 83.7028 133.419 82.1984 132.916 80.7775C134.54 80.1119 160.146 70.1617 187.495 90.8072C215.756 112.143 218.831 155.995 218.831 155.995H195.846C198.005 155.586 200.06 154.746 201.886 153.524L201.958 153.474C203.982 152.072 205.657 150.225 206.854 148.074C206.89 148.013 206.921 147.949 206.948 147.883ZM144.472 88.5842C144.266 88.7357 140.588 91.4729 141.243 99.0311C141.899 106.587 149.005 112.881 149.283 113.114C149.27 113.093 149.244 113.051 149.205 112.99C148.223 111.451 139.441 97.6856 144.472 88.5842Z" fill="black"/>
<path d="M127.347 97.5483C127.074 97.7485 126.791 97.9326 126.497 98.0997L124.793 95.1191C128.723 93.1097 129.825 89.5678 128.097 87.6229C127.613 87.0909 126.99 86.7054 126.298 86.5102C124.56 85.9836 123.355 86.7586 122.538 87.7993C121.871 88.704 121.382 89.7273 121.097 90.8146L120.268 81.247L120.203 80.5018C120.203 80.5018 118.395 79.6052 113.497 80.405C108.599 81.2048 107.697 83.9096 105.593 82.71C103.489 81.5103 102.297 81.6071 102.297 81.6071C101.699 83.8053 100.097 83.8053 100.097 83.8053C99.7171 83.7595 99.3444 83.6686 98.9863 83.5346C96.7136 81.4457 96.0977 77.8218 96.0977 77.8218C98.4821 77.5262 98.6659 75.2312 98.3927 73.3509C99.7141 74.1358 101.577 74.1905 104.192 72.5114C111.696 67.7127 119.391 70.3107 122.096 70.7106C123.303 70.887 124.624 70.4622 125.72 69.9655C125.861 70.219 126.058 70.4372 126.296 70.6038C128.122 71.8758 129.628 73.5542 130.695 75.5069C137.736 88.6686 130.017 95.6581 127.347 97.5483Z" fill="white"/>
<path d="M99.2382 156H102.07C104.591 155.997 106.635 153.954 106.638 151.432V148.263C106.638 147.679 106.406 147.12 105.993 146.708C105.58 146.295 105.02 146.064 104.437 146.065H87.5022C87.5035 147.427 86.9627 148.734 85.999 149.697C85.0354 150.661 83.7281 151.201 82.3657 151.199H21.1719C21.1732 153.85 23.322 155.999 25.9731 156H108.933C109.151 156.001 109.362 155.914 109.516 155.759C109.671 155.604 109.758 155.394 109.757 155.175V150.031C109.757 147.95 111.444 146.263 113.525 146.263C115.606 146.263 117.293 147.95 117.293 150.031V155.175C117.292 155.394 117.379 155.604 117.533 155.758C117.687 155.913 117.897 156 118.115 156H218.829C218.829 156 215.754 112.138 187.493 90.8047C160.144 70.1592 134.538 80.1094 132.914 80.7751L132.834 80.8049" stroke="black"/>
<path d="M104.593 91.5101C104.59 92.2801 103.964 92.9024 103.194 92.9011C102.424 92.8997 101.801 92.2751 101.801 91.5052C101.801 90.7352 102.424 90.1106 103.194 90.1093C103.302 90.1098 103.41 90.1231 103.515 90.149C103.218 90.2426 103.016 90.5184 103.018 90.8296C103.017 91.0217 103.092 91.2064 103.227 91.343C103.362 91.4795 103.546 91.5567 103.738 91.5573C104.097 91.5502 104.4 91.2881 104.458 90.9339C104.544 91.1141 104.59 91.3106 104.593 91.5101Z" fill="black"/>
<path d="M114.286 91.9001C114.287 92.4669 113.946 92.9785 113.423 93.1961C112.9 93.4137 112.297 93.2945 111.896 92.894C111.494 92.4935 111.374 91.8908 111.591 91.367C111.807 90.8433 112.318 90.5017 112.885 90.5017C112.952 90.5012 113.019 90.5087 113.084 90.524C112.831 90.6405 112.669 90.8937 112.669 91.1723C112.658 91.4296 112.784 91.6736 113.001 91.8123C113.218 91.9509 113.493 91.9632 113.722 91.8445C113.95 91.7259 114.098 91.4942 114.11 91.2369C114.224 91.4392 114.285 91.6675 114.286 91.9001Z" fill="black"/>
<path fill-rule="evenodd" clip-rule="evenodd" d="M125.46 67.9983C125.299 69.0863 125.5 70.04 126.3 70.6064C128.126 71.8783 129.632 73.5567 130.699 75.5094C139.099 91.2047 126.499 98.1121 126.499 98.1121L124.795 95.1316C129.7 92.6279 130.202 87.7248 126.3 86.5227C122.398 85.3205 121.099 90.8271 121.099 90.8271L120.205 80.5068C120.205 80.5068 118.396 79.6102 113.498 80.41C108.6 81.2098 107.699 83.9146 105.595 82.715C103.491 81.5153 102.299 81.6121 102.299 81.6121C101.7 83.8103 100.098 83.8103 100.098 83.8103C95.4036 83.2117 94.3008 76.7165 94.3008 76.7165C96.6828 76.4185 96.8666 74.1234 96.5958 72.2457C97.9147 73.0306 99.7801 73.0877 102.396 71.4061C109.899 66.6074 117.594 69.208 120.296 69.6079C122.164 69.8786 124.308 68.736 125.46 67.9983V67.9983Z" stroke="black" strokeLinecap="round" strokeLinejoin="round"/>
<path d="M129.789 145.831L131.645 145.086L133.036 148.839L132.817 155.65L130.937 155.99L123.801 155.682C123.801 155.682 124.298 151.529 125.815 149.554C127.333 147.58 129.789 145.831 129.789 145.831Z" fill="white"/>
<path d="M97.2969 86.1053C97.2969 86.1053 99.197 82.6951 103.196 83.0503" stroke="black"/>
<path d="M111.027 83.0503C111.027 83.0503 115.598 82.0244 117.197 84.5654" stroke="black"/>
<path d="M118.111 98.4897C118.111 98.4897 115.378 96.9075 113.379 99.5677" stroke="black"/>
<path d="M100.845 83.5967C100.845 83.5967 98.9 106.475 113.403 106.053C115.887 105.981 118.356 104.349 120.715 101.724" stroke="black"/>
<path d="M126.495 103.805L120.715 101.724C120.715 101.724 122.148 106.304 129.247 106.654C136.346 107.004 138.727 90.7128 133.511 84.158" stroke="black" strokeLinejoin="round"/>
<path d="M149.093 149.701C149.093 149.701 143.795 154 147.394 156" stroke="black"/>
<path d="M144.991 145.7C144.991 145.7 135.801 150.901 143.692 156" stroke="black"/>
<path d="M141.892 141.701C141.892 141.701 129.694 147.413 139.093 156" stroke="black"/>
<path d="M193.189 156C193.189 156 207.988 156 208.186 141.701C208.385 127.401 179.491 91.4952 160.793 86.5003C142.095 81.5053 141.292 95.1936 141.292 95.755C141.292 96.3163 140.194 102.213 144.993 108.504C148.699 113.368 165.067 125.509 172.33 130.784C172.876 131.182 173.12 131.875 172.941 132.527C172.763 133.178 172.2 133.651 171.528 133.715L139.407 136.8H139.387C139.084 136.855 127.748 138.946 124.296 142.498C124.296 142.498 122.361 143.931 123.362 146.132C124.363 148.332 127.438 147.607 127.522 147.525" stroke="black"/>
<ellipse opacity="0.26" cx="112.886" cy="90.4992" rx="3.99896" ry="3.99895" fill="white"/>
<ellipse opacity="0.26" cx="102.737" cy="90.1043" rx="3.99894" ry="3.99894" fill="white"/>
<path d="M137.305 145.2C135.899 144.808 133.601 144.455 131.234 145.215C130.077 145.588 129.009 146.196 128.097 147.001C127.898 147.175 127.707 147.351 127.523 147.528C127.127 147.916 126.753 148.327 126.403 148.757C126.357 148.814 126.292 148.852 126.219 148.864C125.337 148.986 119.533 149.905 119.563 152.838C119.59 155.473 122.476 155.906 123.47 155.975C123.552 155.983 123.635 155.955 123.696 155.9C123.758 155.844 123.794 155.765 123.795 155.682C123.795 154.743 124.009 151.8 126.331 148.839" stroke="black"/>
<path d="M85.008 124.498C85.6885 129.984 81.4238 132.466 76.7617 132.833" stroke="black"/>
<path d="M69.9835 131.688C66.342 129.721 64.3163 125.69 64.9115 121.594C65.6567 116.316 70.1275 112.267 74.504 109.699C83.6941 104.307 104.404 108.209 107.884 109.004C110.552 109.615 112.782 107.528 113.686 106.52C113.765 106.433 113.887 106.399 113.999 106.434C114.111 106.468 114.192 106.565 114.208 106.681C116.118 117.858 138.301 133.03 143.432 136.425" stroke="black"/>
<path d="M90.6025 120.702L83.2578 125.26C82.3728 125.811 81.2958 125.962 80.2933 125.675C79.2909 125.389 78.4567 124.691 77.9971 123.755C77.1476 122.031 77.7662 119.944 79.4179 118.961L90.595 112.302" stroke="black"/>
<ellipse cx="112.886" cy="90.4992" rx="3.99894" ry="3.99894" stroke="black"/>
<circle cx="102.736" cy="90.1043" r="3.40035" stroke="white"/>
<ellipse cx="102.741" cy="90.1043" rx="3.99894" ry="3.99894" stroke="black"/>
<path d="M108.909 90.1043H106.738" stroke="black"/>
<path d="M108.91 95.755H107.479C107.297 95.7553 107.124 95.6742 107.008 95.5339C106.891 95.3936 106.844 95.2087 106.878 95.0298L107.824 90.1043" stroke="black"/>
<path d="M80.2031 109.404C80.2031 109.404 75.1039 110.504 73.3056 118.204C72.2127 122.878 70.7125 128.842 69.7041 132.806C69.4419 133.837 69.6702 134.93 70.3228 135.77C70.9754 136.609 71.979 137.1 73.0423 137.101C74.6562 137.101 76.054 135.981 76.4054 134.406L78.539 124.833" stroke="black"/>
<path d="M84.8672 127.401C84.8672 127.401 90.2198 124.202 100.764 127.401C111.307 130.6 123.428 132.771 127.427 124.287" stroke="black"/>
<path d="M131.238 145.215C131.238 145.215 134.964 149.468 132.699 156" stroke="black"/>
<path d="M8.12003 92.3372H66.9865C70.8892 92.3321 74.2871 95.002 75.2054 98.7952L84.5769 137.607C85.0893 139.729 84.6002 141.969 83.2499 143.684C81.8996 145.399 79.8373 146.4 77.6545 146.4H18.9395C15.0447 146.404 11.6525 143.743 10.728 139.959L1.20509 101.155C0.68406 99.0307 1.16801 96.7849 2.51766 95.0639C3.86731 93.3429 5.93294 92.3376 8.12003 92.3372Z" fill="white"/>
<path d="M10.2648 94.0064H65.495C69.1565 94.0112 72.341 96.5167 73.2072 100.074L82.0049 136.485C82.4862 138.475 82.0278 140.576 80.7613 142.185C79.4947 143.794 77.56 144.734 75.5122 144.733H20.4162C16.7666 144.726 13.5911 142.233 12.7164 138.69L3.77463 102.277C3.2854 100.284 3.73969 98.1769 5.00664 96.5623C6.27359 94.9477 8.21251 94.0052 10.2648 94.0064V94.0064Z" fill="white"/>
<path fill-rule="evenodd" clip-rule="evenodd" d="M8.12003 92.3372H66.9865C70.8892 92.3321 74.2871 95.002 75.2054 98.7952L84.5769 137.607C85.0893 139.729 84.6002 141.969 83.2499 143.684C81.8996 145.399 79.8373 146.4 77.6545 146.4H18.9395C15.0447 146.404 11.6525 143.743 10.728 139.959L1.20509 101.155C0.68406 99.0307 1.16801 96.7849 2.51766 95.0639C3.86731 93.3429 5.93294 92.3376 8.12003 92.3372V92.3372Z" stroke="black"/>
<path fill-rule="evenodd" clip-rule="evenodd" d="M32.1801 101.828L35.6897 118.189C35.7848 118.646 35.6699 119.122 35.3768 119.485C35.089 119.844 34.6564 120.055 34.197 120.062L17.389 120.26H17.3567C16.9011 120.259 16.471 120.05 16.1893 119.692C16.0343 119.513 15.9267 119.299 15.8763 119.068L11.8153 102.516C11.7008 102.057 11.8038 101.57 12.0948 101.197C12.3857 100.823 12.8322 100.605 13.3056 100.603H30.6724C31.4012 100.604 32.0299 101.115 32.1801 101.828ZM13.0353 101.937C12.9721 102.018 12.9501 102.124 12.9756 102.223L16.828 117.943C17.2503 116.053 18.7058 113.181 23.743 115.804C23.743 115.804 24.7539 105.919 33.6783 114.535L31.0057 102.074C30.9736 101.916 30.8342 101.802 30.6728 101.803H13.306C13.1998 101.803 13.0999 101.853 13.0353 101.937Z" fill="#D7E8F0"/>
<path d="M17.9899 108.162C18.9586 107.861 19.4181 106.577 19.0207 105.293C18.6233 104.009 17.5131 103.214 16.5369 103.514C15.5608 103.815 15.1087 105.099 15.5086 106.381C15.9085 107.662 17.0237 108.462 17.9899 108.162Z" fill="#D7E8F0"/>
<path d="M22.2403 107.869H27.9381H30.0643H30.1661C30.3654 107.874 30.5636 107.837 30.7473 107.759C31.0058 107.631 31.1752 107.374 31.1906 107.086C31.206 106.797 31.0651 106.523 30.8219 106.368C30.688 106.307 30.5661 106.223 30.4617 106.12C30.3925 106.011 30.3453 105.889 30.3226 105.762C30.191 105.403 29.9369 105.101 29.6048 104.91C29.1166 104.582 28.5158 104.466 27.9406 104.59C27.6597 104.661 27.4026 104.805 27.1955 105.007C27.0191 105.181 26.9844 105.415 26.8477 105.608C26.7583 105.735 26.7012 105.695 26.5795 105.626C26.4578 105.556 26.3907 105.504 26.2914 105.454C26.0953 105.349 25.892 105.259 25.6828 105.184C25.2568 105.026 24.8024 104.959 24.349 104.987C23.5517 105.049 22.7569 105.524 22.4787 106.274C21.9609 106.281 21.5249 106.663 21.4504 107.176C21.417 107.37 21.4778 107.568 21.6143 107.71C21.7955 107.84 22.019 107.896 22.2403 107.869Z" fill="#D7E8F0"/>
<path fill-rule="evenodd" clip-rule="evenodd" d="M62.6371 105.636L63.0941 107.516C63.4324 108.903 63.1153 110.369 62.2338 111.492C61.3523 112.615 60.0039 113.272 58.576 113.273H52.3367C49.7198 113.275 47.4274 111.52 46.7456 108.994L46.2265 107.084C45.8446 105.683 46.138 104.185 47.0197 103.032C47.9014 101.879 49.2706 101.203 50.7222 101.204H56.9988C59.6759 101.202 62.0062 103.034 62.6371 105.636ZM54.0493 109.299L56.1928 107.98H56.2028C56.4075 107.86 56.5278 107.635 56.5147 107.398C56.5017 107.16 56.3574 106.95 56.1407 106.853L53.1675 105.539C52.939 105.441 52.6743 105.483 52.4878 105.648C52.3013 105.812 52.2265 106.07 52.2957 106.309L53.103 108.946C53.1599 109.136 53.3026 109.289 53.4885 109.358C53.6743 109.427 53.8819 109.406 54.0493 109.299Z" fill="white"/>
<path d="M61.6921 124.406H50.7111C49.684 124.404 48.7547 123.796 48.3415 122.856C48.2789 122.714 48.2451 122.561 48.2422 122.406C48.2476 121.783 48.7538 121.28 49.3773 121.279H61.0512C60.5023 122.208 60.7805 123.492 61.6921 124.406Z" fill="#D7E8F0"/>
<path d="M68.8048 123.278C68.8034 123.9 68.2993 124.404 67.6771 124.406H61.6911C60.7795 123.492 60.5014 122.208 61.0503 121.279H66.3209C67.3463 121.279 68.2751 121.884 68.6905 122.821C68.7592 122.964 68.7981 123.12 68.8048 123.278Z" fill="white"/>
<path d="M66.0453 124.406C66.0142 124.466 65.9785 124.523 65.9384 124.577C65.1536 125.648 63.4546 125.747 62.1357 124.783C61.9781 124.669 61.8295 124.543 61.6911 124.406C60.7795 123.492 60.5014 122.208 61.0503 121.279C61.0811 121.219 61.1168 121.163 61.1571 121.11C61.9345 120.032 63.6409 119.937 64.9524 120.894C65.1114 121.011 65.2617 121.14 65.4019 121.279C66.321 122.193 66.5867 123.477 66.0453 124.406Z" fill="white"/>
<path d="M71.558 130.183C71.5526 130.807 71.0464 131.309 70.4229 131.311H26.9015C27.4579 130.377 27.1797 129.098 26.2656 128.186H69.0891C70.1155 128.186 71.0446 128.793 71.4562 129.734C71.5205 129.875 71.5552 130.028 71.558 130.183Z" fill="white"/>
<path d="M26.8989 131.298H21.4767C20.4512 131.299 19.5221 130.694 19.1072 129.756C19.0433 129.612 19.0095 129.456 19.0078 129.299C19.0072 129 19.1258 128.713 19.3375 128.502C19.5492 128.29 19.8364 128.172 20.1355 128.174H26.263C27.1771 129.085 27.4553 130.364 26.8989 131.298Z" fill="#D7E8F0"/>
<path d="M26.8998 131.298C26.8743 131.36 26.8409 131.417 26.8005 131.47C26.023 132.548 24.3166 132.64 23.0027 131.683C22.8445 131.566 22.695 131.437 22.5556 131.298C21.649 130.384 21.3708 129.108 21.9123 128.174C21.9425 128.113 21.9782 128.056 22.0191 128.002C22.804 126.932 24.5029 126.832 25.8218 127.794C25.9792 127.908 26.1271 128.035 26.264 128.174C27.178 129.085 27.4562 130.364 26.8998 131.298Z" fill="white"/>
<path d="M30.7372 138.131H23.8471C22.8219 138.13 21.8935 137.526 21.4775 136.589C21.4092 136.45 21.3703 136.299 21.3633 136.144C21.3646 135.519 21.8709 135.013 22.4959 135.012H30.0889C29.5599 135.951 29.8306 137.227 30.7372 138.131Z" fill="white"/>
<path d="M73.914 137.021C73.9058 137.642 73.3969 138.138 72.7764 138.131H30.7353C29.8287 137.217 29.5505 135.941 30.092 135.007H71.4451C72.4714 135.006 73.4006 135.614 73.8121 136.554C73.8779 136.701 73.9125 136.86 73.914 137.021Z" fill="#D7E8F0"/>
<path d="M35.087 138.131C35.0568 138.192 35.0211 138.249 34.9802 138.303C34.2027 139.381 32.4963 139.473 31.1849 138.516C31.0259 138.399 30.8756 138.27 30.7353 138.131C29.8287 137.217 29.5505 135.941 30.092 135.007C30.1231 134.947 30.1588 134.89 30.1988 134.835C30.9837 133.765 32.6826 133.67 34.0015 134.627C34.1594 134.741 34.3074 134.868 34.4437 135.007C35.3577 135.928 35.6359 137.212 35.087 138.131Z" fill="white"/>
<g opacity="0.21">
<path fill-rule="evenodd" clip-rule="evenodd" d="M32.7972 102.426L36.2994 118.787C36.3949 119.242 36.2829 119.715 35.9939 120.079C35.707 120.437 35.2751 120.647 34.8166 120.653L18.0111 120.854H17.9713C17.5152 120.854 17.0842 120.645 16.8014 120.288C16.6473 120.109 16.5405 119.895 16.491 119.664L12.4299 103.11C12.3139 102.655 12.4148 102.173 12.7031 101.803C12.9939 101.425 13.4436 101.204 13.9202 101.204H31.2895C32.0182 101.203 32.6477 101.713 32.7972 102.426ZM13.6459 102.538C13.5812 102.618 13.5582 102.724 13.5838 102.824L17.4412 118.541C17.8609 116.651 19.3189 113.78 24.3536 116.403C24.3536 116.403 25.3621 106.515 34.2889 115.134L31.6163 102.672C31.5822 102.515 31.4422 102.403 31.281 102.404H13.9141C13.8085 102.404 13.709 102.453 13.6459 102.538Z" fill="#D7E8F0"/>
<path d="M18.5993 108.76C19.5655 108.46 20.0275 107.176 19.6276 105.894C19.2277 104.612 18.1224 103.812 17.1438 104.113C16.1652 104.414 15.7156 105.698 16.113 106.982C16.5104 108.266 17.6455 109.071 18.5993 108.76Z" fill="#D7E8F0"/>
<path d="M22.8564 108.47H28.5518H30.6805H30.7798C30.9791 108.475 31.1773 108.438 31.361 108.36C31.6208 108.233 31.7914 107.976 31.8069 107.687C31.8224 107.398 31.6803 107.123 31.4355 106.969C31.3029 106.906 31.1813 106.823 31.0754 106.721C31.0083 106.61 30.9613 106.488 30.9363 106.361C30.8047 106.003 30.5515 105.702 30.2209 105.511C29.7323 105.182 29.1303 105.066 28.5543 105.191C28.278 105.262 28.0259 105.407 27.8241 105.608C27.6452 105.782 27.6129 106.013 27.4763 106.209C27.3869 106.336 27.3298 106.296 27.2081 106.224C27.0864 106.152 27.0193 106.105 26.92 106.053C26.7239 105.949 26.5205 105.859 26.3114 105.785C25.8855 105.626 25.4312 105.558 24.9776 105.586C24.1803 105.648 23.3855 106.125 23.1048 106.873C22.5871 106.881 22.1522 107.264 22.079 107.777C22.0465 107.97 22.1062 108.168 22.2404 108.311C22.4198 108.436 22.6386 108.493 22.8564 108.47Z" fill="#D7E8F0"/>
<path fill-rule="evenodd" clip-rule="evenodd" d="M63.249 106.237L63.706 108.114C64.042 109.503 63.7224 110.968 62.839 112.09C61.9557 113.213 60.6062 113.867 59.178 113.867H52.9387C50.3211 113.869 48.0279 112.114 47.3452 109.587L46.826 107.675C46.4469 106.275 46.7416 104.779 47.623 103.628C48.5044 102.477 49.8719 101.802 51.3217 101.803H57.6083C60.2864 101.802 62.6173 103.634 63.249 106.237ZM54.6485 109.9L56.7995 108.574C56.9996 108.451 57.1157 108.227 57.1017 107.993C57.0876 107.758 56.9458 107.55 56.7325 107.451L53.7817 106.14C53.5536 106.042 53.2897 106.084 53.1035 106.248C52.9173 106.412 52.842 106.669 52.9099 106.907L53.7047 109.548C53.761 109.737 53.9032 109.89 54.0887 109.959C54.2742 110.028 54.4815 110.007 54.6485 109.9Z" fill="#D7E8F0"/>
<path d="M62.2971 125.004H51.3161C50.2898 125.002 49.361 124.396 48.9465 123.457C48.7893 123.108 48.8212 122.703 49.0311 122.384C49.241 122.064 49.5999 121.874 49.9823 121.88H61.6562C61.1098 122.806 61.383 124.093 62.2971 125.004Z" fill="#D7E8F0"/>
<path d="M69.3977 123.877C69.3977 124.499 68.8944 125.003 68.2725 125.004H62.299C61.3849 124.093 61.1067 122.806 61.6556 121.88H66.9288C67.9545 121.879 68.8839 122.484 69.2984 123.422C69.362 123.565 69.3958 123.72 69.3977 123.877Z" fill="white"/>
<path d="M66.6506 125.004C66.6214 125.065 66.5856 125.123 66.5438 125.176C65.7589 126.246 64.06 126.346 62.7411 125.384C62.5842 125.269 62.4364 125.142 62.299 125.004C61.3849 124.093 61.1067 122.806 61.6556 121.88C61.6867 121.819 61.7233 121.762 61.7649 121.708C62.5424 120.63 64.2488 120.538 65.5602 121.495C65.7193 121.612 65.8696 121.741 66.0098 121.88C66.9164 122.794 67.1946 124.07 66.6506 125.004Z" fill="white"/>
<path d="M72.1571 130.772C72.1517 131.395 71.645 131.897 71.022 131.897H27.503C28.0594 130.963 27.7812 129.686 26.8672 128.772H69.6882C70.7159 128.772 71.6461 129.381 72.0578 130.322C72.1216 130.464 72.1554 130.617 72.1571 130.772Z" fill="white"/>
<path d="M27.5029 131.897H22.0783C21.0537 131.896 20.1254 131.293 19.7087 130.357C19.6463 130.213 19.6125 130.057 19.6094 129.9C19.6094 129.277 20.1142 128.772 20.737 128.772H26.8671C27.7811 129.686 28.0593 130.963 27.5029 131.897Z" fill="#D7E8F0"/>
<path d="M27.5032 131.897C27.4777 131.959 27.4434 132.016 27.4013 132.068C26.6239 133.146 24.9175 133.241 23.6061 132.284C23.4469 132.166 23.2966 132.037 23.1565 131.897C22.2499 130.985 21.9717 129.706 22.5157 128.772C22.5449 128.711 22.5807 128.654 22.6225 128.601C23.4074 127.53 25.1063 127.431 26.4252 128.395C26.5815 128.51 26.7292 128.636 26.8673 128.772C27.7814 129.686 28.0595 130.963 27.5032 131.897Z" fill="white"/>
<path d="M31.3416 138.74H24.4416C23.4174 138.738 22.4897 138.135 22.072 137.2C22.0096 137.058 21.9759 136.905 21.9727 136.75C21.9754 136.125 22.482 135.618 23.1078 135.615H30.7008C30.1568 136.549 30.435 137.828 31.3416 138.74Z" fill="white"/>
<path d="M74.5212 137.62C74.5206 137.918 74.4013 138.203 74.1898 138.414C73.9782 138.624 73.6918 138.741 73.3936 138.74H31.3401C30.4335 137.828 30.1553 136.549 30.6993 135.615H72.0498C73.0775 135.615 74.0077 136.223 74.4194 137.165C74.4839 137.308 74.5185 137.463 74.5212 137.62Z" fill="#D7E8F0"/>
<path d="M35.6942 138.74C35.6632 138.8 35.6266 138.858 35.5849 138.911C34.8075 139.989 33.1011 140.084 31.7897 139.127C31.6305 139.009 31.4802 138.88 31.3401 138.74C30.4335 137.828 30.1553 136.549 30.6993 135.615C30.7285 135.554 30.7643 135.497 30.8061 135.444C31.5909 134.373 33.2899 134.281 34.6088 135.238C34.7651 135.353 34.9128 135.479 35.0509 135.615C35.9649 136.529 36.2431 137.813 35.6942 138.74Z" fill="white"/>
</g>
</svg>
