<svg width="184" height="163" viewBox="0 0 184 163" fill="none" xmlns="http://www.w3.org/2000/svg">
<path d="M60.6925 0.00440069C60.0873 0.150861 59.5172 0.416108 59.0154 0.784734C58.5137 1.15336 58.0901 1.61802 57.7694 2.15172C56.7816 1.46726 55.139 1.57999 54.178 2.11414C54.1469 2.13413 54.1233 2.16393 54.111 2.19881C54.0987 2.2337 54.0984 2.27169 54.1101 2.30678C54.1218 2.34187 54.1449 2.37206 54.1756 2.39259C54.2064 2.41312 54.2431 2.42281 54.28 2.42013C54.9105 2.20077 55.5951 2.19136 56.2314 2.39329C56.7682 2.58118 57.1467 2.9838 57.6325 3.25222C57.7073 3.28595 57.7898 3.29854 57.8712 3.2886C57.9526 3.27866 58.0298 3.24658 58.0942 3.19585C58.1266 3.17234 58.1556 3.14432 58.1801 3.11264C58.2059 3.07529 58.2267 3.03467 58.2418 2.99186C58.2645 2.98261 58.2861 2.97091 58.3062 2.95696C58.5232 2.36737 58.8574 1.82789 59.2888 1.37116C59.7202 0.91442 60.2397 0.549907 60.8159 0.299657C60.9904 0.21108 60.8723 -0.0358615 60.6925 0.00440069Z" fill="black"/>
<path d="M68.7491 14.1124C67.7664 13.9711 66.7655 14.0276 65.8049 14.2783C64.8444 14.529 63.9435 14.9691 63.1553 15.5726C62.0816 13.9809 59.5988 13.1783 57.8622 13.4091C57.791 13.4091 57.7227 13.4374 57.6724 13.4878C57.622 13.5381 57.5938 13.6064 57.5938 13.6776C57.5938 13.7487 57.622 13.817 57.6724 13.8673C57.7227 13.9177 57.791 13.946 57.8622 13.946C58.9208 13.9866 59.9378 14.3689 60.761 15.0357C61.4428 15.6289 61.7703 16.4449 62.3286 17.1267C62.4202 17.2203 62.5354 17.2874 62.662 17.3209C62.7887 17.3545 62.922 17.3532 63.0479 17.3173C63.1092 17.3001 63.1679 17.2748 63.2224 17.2421C63.2829 17.203 63.3379 17.156 63.3861 17.1025C63.4193 17.0829 63.4507 17.0604 63.4801 17.0354C64.8973 15.5672 66.6742 14.6197 68.7491 14.5794C69.0604 14.5821 69.0443 14.15 68.7491 14.1124Z" fill="black"/>
<path d="M83.8936 145.921C117.47 145.921 144.689 118.702 144.689 85.125C144.689 51.5484 117.47 24.3291 83.8936 24.3291C50.3169 24.3291 23.0977 51.5484 23.0977 85.125C23.0977 118.702 50.3169 145.921 83.8936 145.921Z" fill="#F2F5F8" stroke="white" strokeWidth="1.5" strokeMiterlimit="10"/>
<path d="M123.153 99.8868C113.831 91.4237 97.9491 78.9693 83.9647 76.8032C74.0871 75.2732 66.4184 83.025 57.1232 82.7083C53.1319 81.0307 49.7955 78.1452 52.0234 74.6558C53.6983 72.0415 58.1969 71.6684 62.76 69.0191C66.7566 66.6973 70.6674 62.0404 74.5702 60.4299C80.5424 57.9604 85.449 60.6849 91.2119 59.0878C95.222 57.9766 107.569 63.2992 109.464 62.3088C110.269 61.8874 113.289 56.1003 106.78 54.5247C99.9193 52.8659 83.2078 52.7398 82.8911 52.6458C77.5228 51.0354 67.0546 55.1716 65.1757 55.5984C58.8411 57.0452 53.8486 63.9193 46.3867 65.7982C36.0312 68.3857 28.6713 65.7982 20.6188 67.9455C15.162 69.4003 13.8682 89.0429 12.5664 94.5185C23.0346 95.0554 43.1657 97.7395 51.4865 100.155C51.7549 100.053 55.1236 96.6793 57.6601 98.2763C59.1229 99.1997 59.8074 102.034 60.6126 104.718C62.2231 103.645 64.9287 102.762 66.5178 104.718C67.9484 106.482 68.1282 106.329 69.4703 108.745C69.7978 109.335 71.0808 107.134 73.765 108.208C78.6743 110.172 76.1189 114.883 77.7912 116.437C79.9385 117.871 84.2331 117.334 83.9647 123.507C86.9173 125.961 91.3139 127.888 91.7487 128.07C96.8486 130.218 101.68 128.07 99.8012 125.655C95.7481 121.926 88.5788 118.407 86.3804 115.992C84.9364 114.411 86.2274 113.788 87.1857 113.576C89.6014 113.039 104.364 129.144 108.517 125.974C113.198 122.401 105.545 113.863 94.1645 106.329C96.3681 102.866 102.665 109.375 108.39 114.381C112.417 117.908 115.928 121.153 118.59 117.602C123.867 110.564 102.238 100.993 101.143 97.0363C100.07 93.1765 115.734 105.169 119.664 107.939C128.328 116.724 129.308 104.292 123.153 99.8868Z" fill="white"/>
<path d="M82.8724 129.381C82.8724 129.381 83.9675 124.308 82.2228 122.563C80.6741 121.092 77.7591 119.407 76.2935 120.953C76.5029 119.764 77.0773 118.078 76.3177 115.047C75.5124 111.827 71.2903 111.102 69.661 112.218C69.1942 112.583 68.8215 113.054 68.5739 113.593C68.6786 113.324 68.7833 113.056 68.8853 112.82C68.8853 112.82 68.7242 109.204 65.5408 108.098C62.3574 106.992 61.5925 108.184 60.6476 109.473C60.3126 109.97 60.0036 110.484 59.7216 111.013C60.4086 109.384 60.524 107.571 60.0491 105.868C59.021 101.922 56.7234 101.358 54.0446 102.778C51.3659 104.198 50.8237 105.921 50.0184 107.5C49.2132 109.078 47.8711 109.948 47.8711 112.363C47.8711 114.154 48.4079 116.39 50.8747 117.538C54.211 119.09 56.5114 116.733 57.8024 114.511C57.9286 114.293 58.0709 114.073 58.1943 113.85C57.3059 115.515 56.4255 117.141 55.9343 117.796C55.7732 118.011 54.5627 122.689 58.0816 124.402C61.6005 126.114 64.2551 125 65.4603 124.316C65.4603 124.316 65.5891 123.779 65.8012 122.942C65.6772 124.202 65.7369 125.475 65.9783 126.718C66.8749 131.713 74.1301 130.836 74.1301 130.836C74.1301 130.836 74.1301 130.76 74.1301 130.624C74.4844 132.379 75.8855 132.452 77.7349 133.41C79.8822 134.526 82.2792 134.698 85.0251 132.038L82.8724 129.381Z" fill="#A6B6FA"/>
<path d="M167.979 107.185L168.038 78.4191C154.129 81.283 130.24 75.9228 120.969 73.0749C111.698 70.227 98.8299 65.4144 89.4622 65.8277C80.0945 66.2411 74.1357 65.4009 68.389 69.4459C62.6422 73.491 64.3332 72.9514 60.0681 75.7188C55.803 78.4862 52.0345 79.8229 53.6262 81.3555C55.2179 82.8882 56.5787 84.3617 60.3365 85.1133C63.0207 85.6501 69.0547 84.3886 71.61 81.6239C74.1653 78.8592 76.0442 78.2607 78.5887 78.4754C81.1333 78.6902 87.7417 79.9651 90.7238 81.2428C93.7058 82.5204 106.262 85.9212 112.012 91.0345C117.761 96.1478 130.672 111.504 130.672 111.504L167.979 107.185Z" fill="#A6B6FA"/>
<path d="M84.5677 141.564L80.3711 139.508L70.0976 160.479L74.2942 162.535L84.5677 141.564Z" fill="#A8B8F9"/>
<path d="M54.3152 159.145C40.6905 155.508 27.8898 148.352 21.3431 135.694C19.1019 131.359 23.8636 125.521 28.1099 129.62C33.3654 134.615 28.9956 144.356 22.1484 146.739C15.3011 149.123 10.0187 149.692 1 144.17" stroke="#E2E9EB" strokeWidth="1.5" strokeMiterlimit="10" strokeLinecap="round"/>
<path d="M154.159 78.2793C156.306 94.6526 150.291 116.735 141.007 131.157C131.722 145.579 112.286 156.925 99.4023 159.877" stroke="#E2E9EB" strokeWidth="1.5" strokeMiterlimit="10" strokeLinecap="round"/>
<path d="M160.597 35.8701C153.302 44.446 151.739 52.9842 152.322 61.8714" stroke="#E2E9EB" strokeWidth="1.5" strokeMiterlimit="10" strokeLinecap="round"/>
<path d="M175.784 17.6073C175.888 17.5014 175.95 17.3613 175.958 17.2132C175.966 17.0651 175.921 16.919 175.829 16.802C175.752 16.7052 175.641 16.6413 175.518 16.6234C175.396 16.6054 175.271 16.6347 175.169 16.7054L164.387 23.7862L159.824 20.8739C159.543 20.6778 159.346 20.3834 159.271 20.049C159.197 19.7145 159.25 19.3643 159.421 19.0674C159.567 18.7988 159.803 18.5898 160.087 18.4769L182.634 9.42866C182.762 9.38073 182.9 9.36045 183.037 9.36915C183.174 9.37785 183.307 9.41534 183.429 9.47916C183.551 9.54298 183.657 9.6317 183.742 9.73955C183.827 9.8474 183.889 9.97194 183.922 10.1051C183.98 10.313 183.981 10.5328 183.925 10.7412L178.677 30.8723C178.641 31.04 178.573 31.1989 178.475 31.3397C178.377 31.4806 178.252 31.6005 178.108 31.6927C177.963 31.7849 177.801 31.8474 177.632 31.8766C177.463 31.9057 177.29 31.9011 177.123 31.8628C177.007 31.8299 176.896 31.7792 176.796 31.7124L171.234 28.1667L166.824 31.3877C166.72 31.4677 166.599 31.5246 166.471 31.5546C166.343 31.5846 166.21 31.587 166.081 31.5616C165.951 31.5362 165.829 31.4836 165.722 31.4074C165.614 31.3311 165.524 31.2329 165.458 31.1192C165.321 30.8842 165.273 30.6083 165.321 30.3408L165.834 27.3185L175.784 17.6073Z" fill="#466BF0"/>
<path d="M60.6432 25.4506C56.9955 27.1497 54.1288 29.9922 52.7813 33.7231C49.3403 32.1583 44.3263 33.4171 41.6556 35.602C41.5595 35.6846 41.4958 35.7985 41.4756 35.9236C41.4554 36.0487 41.4801 36.1769 41.5454 36.2855C41.6106 36.3941 41.7121 36.4761 41.832 36.5171C41.9519 36.558 42.0824 36.5553 42.2004 36.5093C44.0498 35.5457 46.1193 35.0035 48.2102 35.3417C49.971 35.6262 51.3695 36.6515 53.0202 37.2206C53.2708 37.2826 53.5335 37.2754 53.7802 37.1997C54.027 37.1241 54.2486 36.9829 54.4214 36.7911C54.5084 36.6993 54.5816 36.5953 54.6388 36.4824C54.6981 36.3533 54.7405 36.2171 54.7649 36.0771C54.8011 36.01 54.8317 35.94 54.8562 35.8678C55.699 31.9301 57.6772 28.4622 61.129 26.2612C61.6525 25.9096 61.172 25.201 60.6432 25.4506Z" fill="black"/>
<path d="M75.7969 72.0791C75.7969 72.0791 78.1106 74.1244 80.0915 74.5244" stroke="black" strokeWidth="1.5" strokeLinecap="round" strokeLinejoin="round"/>
<path d="M47.0312 62.6641L35.6933 63.3029C27.3242 63.3405 19.7227 62.6641 19.7227 62.6641" stroke="black" strokeWidth="1.5" strokeLinecap="round" strokeLinejoin="round"/>
<path d="M109.924 61.4071C112.796 57.9821 109.843 54.5222 105.616 54.2243C100.881 53.8861 89.1295 53.4325 84.2792 52.7131C79.429 51.9938 72.5576 52.2487 65.9062 55.4805" stroke="black" strokeWidth="1.5" strokeLinecap="round" strokeLinejoin="round"/>
<path d="M114.955 91.1455C116.566 92.5815 124.741 100.698 126.094 104.617C127.219 107.881 127.501 110.689 125.251 112.938C122.377 115.813 120.076 114.86 118.729 113.421C117.382 111.983 115.495 108.571 112.794 106.236C110.094 103.901 101.301 96.6346 101.301 96.6346" stroke="black" strokeWidth="1.5" strokeLinecap="round" strokeLinejoin="round"/>
<path d="M108.308 85.1243C103.458 80.8108 92.8557 77.9388 90.3406 76.8598C87.8256 75.7807 82.256 74.7125 80.1006 74.5246C77.9452 74.3367 73.9915 76.8598 71.8361 79.195C69.6807 81.5302 63.7515 82.416 60.5171 82.6092C57.2827 82.8025 54.9394 82.475 53.5946 81.1812C52.2499 79.8875 50.9588 78.2985 51.6272 75.8425C52.47 72.7503 58.3617 71.6472 61.9531 69.3119C65.5445 66.9767 66.6262 65.5541 71.4764 62.1265C76.3267 58.6988 81.3568 59.4423 89.2643 59.0719C97.1718 58.7015 102.022 60.8703 115.856 65.1811C115.856 65.1811 126.891 67.5511 131.88 68.0799" stroke="black" strokeWidth="1.5" strokeLinecap="round" strokeLinejoin="round"/>
<path d="M156.459 67.876C156.459 67.876 150.106 68.0988 144.762 68.1444" stroke="black" strokeWidth="1.5" strokeLinecap="round" strokeLinejoin="round"/>
<path d="M100.019 110.994C104.287 114.712 109.62 119.758 110.103 122.133C110.909 126.146 106.882 127.166 105.299 127.271C103.715 127.375 102.376 127.614 99.3239 125.37C96.272 123.126 86.4883 115.847 86.4883 115.847" stroke="black" strokeWidth="1.5" strokeLinecap="round" strokeLinejoin="round"/>
<path d="M94.6523 106.504C94.6523 106.504 95.9944 107.578 97.8894 109.167" stroke="black" strokeWidth="1.5" strokeLinecap="round" strokeLinejoin="round"/>
<path d="M110.109 122.134C110.378 122.587 114.801 122.671 116.941 120.338C119.08 118.006 119.088 116.03 119.088 114.052" stroke="black" strokeWidth="1.5" strokeLinecap="round" strokeLinejoin="round"/>
<path d="M101.032 126.538C101.032 126.538 100.806 131.767 95.014 131.206C90.7918 131.029 85.6705 128.154 83.7835 126.538C83.7835 126.538 84.9296 121.229 83.1017 119.401C81.2228 117.605 77.3764 115.501 76.2706 118.821C75.0976 122.335 74.5312 123.921 74.5312 126.807C74.5312 129.692 76.1417 129.593 78.3937 130.758C80.6457 131.923 83.1554 132.1 86.0301 129.319" stroke="black" strokeWidth="1.5" strokeLinecap="round" strokeLinejoin="round"/>
<path d="M67.5234 114.14C67.5234 114.14 68.2428 109.738 69.9391 108.57C71.6355 107.403 76.0644 108.16 76.9179 111.523C77.7715 114.886 77.036 116.674 76.8589 117.93C76.2006 119.353 75.6453 120.821 75.1974 122.324C74.5424 124.568 74.623 128.052 74.623 128.052C74.623 128.052 67.0242 128.981 66.0901 123.744C65.2338 119.014 66.7155 116.923 67.5234 114.14Z" stroke="black" strokeWidth="1.5" strokeLinecap="round" strokeLinejoin="round"/>
<path d="M55.5739 114.409C55.4048 114.637 54.1352 119.533 57.8179 121.326C61.5005 123.119 64.2893 121.954 65.5455 121.235C65.5455 121.235 67.5237 112.973 69.1369 109.199C69.1369 109.199 68.9678 105.414 65.6475 104.258C62.3272 103.101 61.5113 104.349 60.5235 105.696C59.5357 107.044 56.6529 112.973 55.5739 114.409Z" stroke="black" strokeWidth="1.5" strokeLinecap="round" strokeLinejoin="round"/>
<path d="M49.3753 103.629C50.2208 101.978 50.7952 100.175 53.5975 98.6877C56.3997 97.2007 58.8074 97.7912 59.8864 101.922C60.9655 106.053 58.8745 108.632 57.5271 110.97C56.1796 113.308 53.7693 115.767 50.2799 114.14C47.6977 112.938 47.1368 110.597 47.1368 108.724C47.1287 106.193 48.5298 105.28 49.3753 103.629Z" stroke="black" strokeWidth="1.5" strokeLinecap="round" strokeLinejoin="round"/>
<path d="M37.5352 99.9893C41.9049 100.639 46.2076 101.64 49.1924 103.181" stroke="black" strokeWidth="1.5" strokeLinecap="round" strokeLinejoin="round"/>
<path d="M20.5391 98.7804C20.5391 98.7804 24.721 98.7616 30.0919 99.1723" stroke="black" strokeWidth="1.5" strokeLinecap="round" strokeLinejoin="round"/>
<path d="M125.242 101.833C125.242 101.833 141.194 97.0688 160.6 97.6057" stroke="black" strokeWidth="1.5" strokeLinecap="round" strokeLinejoin="round"/>
<path d="M115.504 45.6665C120.915 45.6665 125.301 41.2802 125.301 35.8694C125.301 30.4586 120.915 26.0723 115.504 26.0723C110.093 26.0723 105.707 30.4586 105.707 35.8694C105.707 41.2802 110.093 45.6665 115.504 45.6665Z" fill="white"/>
<path d="M115.358 24.7384V23.4366H116.985C117.129 23.4373 117.267 23.3815 117.371 23.2811C117.474 23.1807 117.534 23.0438 117.538 22.8997V20.3068C117.537 20.1604 117.478 20.0202 117.375 19.9166C117.271 19.8131 117.131 19.7546 116.985 19.7539H112.615C112.471 19.7581 112.335 19.8182 112.234 19.9214C112.134 20.0247 112.078 20.1629 112.078 20.3068V22.8863C112.078 22.9582 112.092 23.0293 112.12 23.0955C112.148 23.1617 112.189 23.2216 112.241 23.2717C112.293 23.3218 112.354 23.361 112.421 23.387C112.488 23.413 112.559 23.4253 112.631 23.4231H114.242V24.7384H115.358ZM123.427 29.3927L125.378 27.4413C125.479 27.338 125.536 27.1993 125.536 27.0548C125.536 26.9103 125.479 26.7716 125.378 26.6683L123.145 24.4297C123.041 24.3263 122.901 24.2682 122.754 24.2682C122.608 24.2682 122.467 24.3263 122.364 24.4297L120.412 26.3811L123.427 29.3927ZM113.176 20.8571H116.432V22.3226H113.176V20.8571ZM122.766 28.4962C122.55 28.2301 122.32 27.9757 122.077 27.7339C121.832 27.4896 121.577 27.2615 121.314 27.044L122.756 25.6053L124.205 27.0548L122.766 28.4962Z" fill="#7691F4"/>
<path d="M119.087 43.1377C116.982 44.2156 114.555 44.4854 112.265 43.896C109.975 43.3066 107.979 41.8989 106.656 39.9387C105.333 37.9786 104.774 35.6017 105.083 33.2572C105.393 30.9126 106.551 28.7627 108.338 27.2136C110.125 25.6645 112.417 24.8234 114.782 24.8492C117.147 24.875 119.42 25.766 121.173 27.3538C122.926 28.9416 124.036 31.1163 124.295 33.467C124.553 35.8178 123.942 38.1818 122.576 40.1126" stroke="#7691F4" strokeWidth="1.5" strokeMiterlimit="10" strokeLinecap="round"/>
<path d="M115.505 28.6445V35.6072H108.816" stroke="#7691F4" strokeWidth="1.5" strokeMiterlimit="10" strokeLinecap="round"/>
</svg>
