<svg width="264" height="207" viewBox="0 0 264 207" fill="none" xmlns="http://www.w3.org/2000/svg">
<g clip-path="url(#clip0)">
<path d="M13.2715 202.724C13.2715 137.159 66.4299 84.0079 132.003 84.0079C197.576 84.0079 250.735 137.156 250.735 202.724" fill="#F2F5F8"/>
<path d="M60.4964 113.605L60.6256 115.548L56.9125 117L56.7046 113.86L60.4964 113.605Z" fill="#A6B6FA"/>
<path d="M73.7236 129.019L74.7188 127.385L77.4871 127.69L75.881 130.332L73.7236 129.019Z" fill="white"/>
<path d="M201.523 106.646L201.627 108.592L196.298 110.075L196.131 106.932L201.523 106.646Z" fill="#A6B6FA"/>
<path d="M198.152 136.907L198.88 137.839L196.751 140.421L195.576 138.923L198.152 136.907Z" fill="#3E61EE"/>
<path d="M40.3435 153.282L39.3955 155.738L40.9639 158.081L42.4945 154.11L40.3435 153.282Z" fill="#A6B6FA"/>
<path d="M195.246 89.273L194.439 88.555L195.926 85.8784L197.23 87.0341L195.246 89.273Z" fill="white"/>
<path d="M145.778 138.579L148.276 139.42L150.547 137.751L146.512 136.394L145.778 138.579Z" fill="white"/>
<path d="M163.588 114.219H162.463L161.771 109.401H163.588V114.219Z" fill="#A6B6FA"/>
<path d="M138.38 156.856L139.835 154.589L138.355 151.67L136.006 155.329L138.38 156.856Z" fill="#A6B6FA"/>
<path d="M108.188 144.059L110.726 144.962L113.233 142.856L109.132 141.398L108.188 144.059Z" fill="#3E61EE"/>
<path d="M173.27 123.675L174.608 124.151L176.381 121.783L174.214 121.014L173.27 123.675Z" fill="white"/>
<path d="M173.669 42.1268C182.887 42.1268 190.36 34.3501 190.36 24.7571C190.36 15.1641 182.887 7.38745 173.669 7.38745C164.45 7.38745 156.977 15.1641 156.977 24.7571C156.977 34.3501 164.45 42.1268 173.669 42.1268Z" fill="#47B28B"/>
<path d="M174.261 42.1519C171.353 42.5658 168.389 42.2963 165.604 41.3647" stroke="black" strokeWidth="1.5" strokeMiterlimit="10" strokeLinecap="round"/>
<path d="M162.527 40.0107C158.809 37.9585 155.899 34.705 154.272 30.7831C152.646 26.8612 152.399 22.5032 153.572 18.4227C154.746 14.3423 157.271 10.7812 160.733 8.32251C164.195 5.86386 168.389 4.65337 172.629 4.88925C176.869 5.12513 180.903 6.7934 184.071 9.6209C187.238 12.4484 189.352 16.2675 190.066 20.453C190.78 24.6385 190.051 28.9422 187.999 32.6594C185.947 36.3767 182.694 39.2872 178.771 40.9144" stroke="black" strokeWidth="1.5" strokeMiterlimit="10" strokeLinecap="round"/>
<path d="M36.2179 114.307C34.9581 116.162 35.4306 118.842 36.895 120.555C38.3595 122.268 40.5798 123.156 42.7875 123.606C44.4189 123.937 46.1259 124.075 47.625 124.809C49.9901 125.968 51.483 128.553 51.6751 131.179C51.8672 133.806 50.8688 136.432 49.2752 138.532" stroke="#D6E8EF" strokeWidth="1.5" strokeMiterlimit="10" strokeLinecap="round"/>
<path d="M34.9808 112.461C39.5449 111.013 41.6719 104.884 39.7318 98.7726C37.7916 92.661 32.5189 88.8807 27.9549 90.3292C23.3908 91.7777 21.2637 97.9064 23.2039 104.018C25.1441 110.13 30.4168 113.91 34.9808 112.461Z" fill="#466BF0"/>
<path d="M35.0429 111.75L34.0288 115.302L37.6065 114.235L35.0429 111.75Z" fill="#466BF0"/>
<path d="M33.481 93.3099C33.481 93.3099 37.0964 94.8686 38.3342 100.373" stroke="white" strokeWidth="1.5" strokeMiterlimit="10" strokeLinecap="round"/>
<path d="M33.3829 105.125L30.0352 106.406L31.0367 102.483C31.0655 102.369 31.1382 102.272 31.2389 102.212C31.3396 102.152 31.46 102.134 31.5736 102.163C31.6872 102.192 31.7847 102.265 31.8447 102.365C31.9046 102.466 31.9221 102.586 31.8933 102.7L31.3138 104.974L33.068 104.3C33.1774 104.258 33.299 104.261 33.4059 104.309C33.5128 104.357 33.5963 104.445 33.638 104.555C33.6798 104.664 33.6764 104.786 33.6285 104.893C33.5807 104.999 33.4924 105.083 33.3829 105.125Z" fill="white"/>
<path d="M34.7658 104.634C34.6563 104.675 34.5351 104.671 34.4284 104.623C34.3216 104.575 34.2381 104.488 34.1958 104.379L32.7061 100.49L28.9741 101.916C28.8634 101.958 28.7407 101.954 28.6329 101.905C28.5251 101.856 28.4411 101.767 28.3993 101.656C28.3576 101.546 28.3615 101.423 28.4102 101.315C28.4589 101.207 28.5485 101.123 28.6592 101.082L33.2132 99.337L35.0178 104.06C35.0391 104.115 35.0495 104.172 35.0484 104.231C35.0473 104.289 35.0346 104.346 35.0112 104.4C34.9878 104.453 34.954 104.501 34.9119 104.541C34.8698 104.581 34.8201 104.613 34.7658 104.634Z" fill="white"/>
<path d="M227.835 127.095C227.041 128.838 226.964 130.823 227.621 132.621C227.958 133.481 228.455 134.174 228.881 134.958C229.668 136.454 230.069 138.123 230.049 139.814C230.018 141.568 229.419 143.328 228.427 144.269" stroke="#D6E8EF" strokeWidth="1.5" strokeMiterlimit="10" strokeLinecap="round"/>
<path d="M227.53 125.502C231.53 125.502 234.773 121.159 234.773 115.803C234.773 110.446 231.53 106.104 227.53 106.104C223.529 106.104 220.286 110.446 220.286 115.803C220.286 121.159 223.529 125.502 227.53 125.502Z" fill="#466BF0"/>
<path d="M227.763 124.948L226.059 127.52L229.177 127.574L227.763 124.948Z" fill="#466BF0"/>
<path d="M229.432 108.359C230.242 108.719 230.928 109.31 231.404 110.058C231.88 110.805 232.125 111.676 232.109 112.563" stroke="white" strokeWidth="1.5" strokeMiterlimit="10" strokeLinecap="round"/>
<path d="M228.346 118.25H225.722L227.435 116.045C227.489 115.981 227.564 115.938 227.647 115.925C227.73 115.911 227.815 115.928 227.886 115.973C227.92 115.993 227.949 116.02 227.971 116.053C227.994 116.085 228.009 116.122 228.016 116.161C228.023 116.199 228.022 116.239 228.013 116.277C228.003 116.316 227.986 116.351 227.961 116.382L226.969 117.661H228.346C228.387 117.657 228.429 117.661 228.468 117.674C228.507 117.687 228.544 117.708 228.574 117.735C228.605 117.763 228.63 117.797 228.647 117.835C228.663 117.873 228.672 117.914 228.672 117.955C228.672 117.997 228.663 118.038 228.647 118.076C228.63 118.113 228.605 118.147 228.574 118.175C228.544 118.203 228.507 118.224 228.468 118.237C228.429 118.25 228.387 118.254 228.346 118.25Z" fill="white"/>
<path d="M229.41 118.269C229.33 118.269 229.252 118.238 229.194 118.183C229.135 118.128 229.1 118.053 229.095 117.973V115.198H226.169C226.128 115.203 226.086 115.198 226.047 115.185C226.008 115.172 225.971 115.151 225.941 115.124C225.91 115.096 225.885 115.062 225.868 115.024C225.851 114.986 225.843 114.945 225.843 114.904C225.843 114.862 225.851 114.821 225.868 114.784C225.885 114.746 225.91 114.712 225.941 114.684C225.971 114.656 226.008 114.635 226.047 114.622C226.086 114.61 226.128 114.605 226.169 114.609H229.741V117.973C229.736 118.056 229.698 118.133 229.636 118.189C229.574 118.244 229.493 118.273 229.41 118.269Z" fill="white"/>
<path d="M92.4973 28.5515C93.3728 30.7086 93.3854 33.7725 92.5287 36.0397C92.0941 37.1923 91.4737 38.1118 90.9541 39.1572C89.9438 41.1899 89.3984 43.4218 89.3573 45.6913C89.3227 48.0625 89.9463 50.4683 91.1084 51.7782" stroke="#D6E8EF" strokeWidth="1.5" strokeMiterlimit="10" strokeLinecap="round"/>
<path d="M102.886 13.4242C103.101 6.17356 98.8864 0.165476 93.4724 0.00481436C88.0584 -0.155847 83.4951 5.59175 83.2798 12.8424C83.0646 20.0931 87.279 26.1012 92.693 26.2619C98.107 26.4225 102.67 20.6749 102.886 13.4242Z" fill="#466BF0"/>
<path d="M93.0355 25.5223L90.623 28.9358L94.8432 29.1341L93.0355 25.5223Z" fill="#466BF0"/>
<path d="M95.9614 3.14896C97.0391 3.67252 97.9393 4.50105 98.5501 5.53167C99.1609 6.56229 99.4556 7.7496 99.3974 8.94619" stroke="white" strokeWidth="1.5" strokeMiterlimit="10" strokeLinecap="round"/>
<path d="M93.5651 16.0219H89.5527L92.1699 12.3218C92.2484 12.2228 92.3619 12.1576 92.4871 12.1397C92.6122 12.1217 92.7395 12.1524 92.8427 12.2254C92.946 12.2983 93.0173 12.4081 93.0421 12.532C93.0669 12.656 93.0433 12.7847 92.9761 12.8918L91.4613 15.0362H93.5651C93.689 15.0461 93.8046 15.1024 93.8889 15.1937C93.9733 15.285 94.0201 15.4047 94.0201 15.529C94.0201 15.6533 93.9733 15.7731 93.8889 15.8644C93.8046 15.9557 93.689 16.0119 93.5651 16.0219Z" fill="white"/>
<path d="M95.1899 16.0596C95.0596 16.0596 94.9347 16.0079 94.8425 15.9157C94.7504 15.8236 94.6986 15.6987 94.6986 15.5684V10.9016H90.2297C90.1616 10.9071 90.0932 10.8984 90.0287 10.8761C89.9642 10.8538 89.905 10.8184 89.8548 10.7721C89.8047 10.7258 89.7647 10.6696 89.7373 10.6071C89.7099 10.5446 89.6958 10.4771 89.6958 10.4088C89.6958 10.3406 89.7099 10.2731 89.7373 10.2105C89.7647 10.148 89.8047 10.0919 89.8548 10.0456C89.905 9.99927 89.9642 9.96386 90.0287 9.94156C90.0932 9.91926 90.1616 9.91056 90.2297 9.916H95.6844V15.5621C95.6852 15.6274 95.673 15.6922 95.6485 15.7527C95.624 15.8133 95.5877 15.8683 95.5416 15.9146C95.4956 15.961 95.4408 15.9977 95.3804 16.0226C95.32 16.0474 95.2552 16.06 95.1899 16.0596Z" fill="white"/>
<path d="M120.758 184.406C120.449 183.865 120.261 183.263 120.207 182.643C120.152 182.022 120.233 181.397 120.443 180.81C121.117 178.936 121.957 175.97 121.491 173.823C120.358 168.602 121.806 163.069 122.288 161.926C123.595 158.89 119.454 160.597 117.832 163.185C116.553 165.22 116.846 166.611 116.808 169.647C116.808 169.647 115.548 165.059 114.248 156.941C113.782 154.019 111.98 149.916 110.024 150.234C109.036 150.394 108.998 151.827 109.873 155.058C110.349 156.821 110.503 165.289 110.503 165.289L107.089 155.395C107.089 155.395 105.096 149.815 102.995 150.986C101.238 151.981 102.286 154.945 103.367 157.284C104.267 159.237 106.333 168.047 106.333 168.047C105.306 165 103.985 162.06 102.39 159.268C100.743 156.399 98.0663 152.91 96.4066 153.994C94.8319 155.014 96.0916 157.668 97.5813 159.507C100.479 163.094 102.34 169.464 102.34 169.464C102.34 169.464 100.189 166.249 98.0852 163.771C95.5657 160.795 93.5532 160.147 92.7312 161C91.1314 162.65 98.4725 169.143 100.324 174.487C101.225 177.088 100.705 177.693 102.29 181.235C103.234 183.317 104.878 184.932 106.585 186.677C110.487 190.663 114.245 203.851 114.245 203.851L129.292 201.603L120.758 184.406Z" fill="#CFDBF9"/>
<path d="M215.638 184.003C215.361 183.445 215.209 182.833 215.19 182.21C215.172 181.588 215.288 180.968 215.531 180.394C216.309 178.562 217.32 175.649 216.98 173.467C216.145 168.189 217.902 162.76 218.457 161.639C219.937 158.679 215.71 160.15 213.937 162.64C212.542 164.596 212.756 166 212.542 169.033C212.542 169.033 211.541 164.376 210.716 156.198C210.419 153.253 208.857 149.056 206.886 149.27C205.888 149.374 205.768 150.8 206.458 154.078C206.832 155.864 206.508 164.328 206.508 164.328L203.674 154.252C203.674 154.252 202.004 148.568 199.853 149.629C198.039 150.52 198.908 153.54 199.853 155.927C200.637 157.926 202.193 166.841 202.193 166.841C201.345 163.74 200.196 160.729 198.764 157.851C197.283 154.894 194.811 151.254 193.095 152.239C191.466 153.184 192.572 155.889 193.951 157.813C196.638 161.56 198.127 168.025 198.127 168.025C198.127 168.025 196.169 164.694 194.21 162.099C191.857 158.985 189.895 158.219 189.019 159.022C187.328 160.597 194.285 167.484 195.825 172.925C196.575 175.573 196.02 176.146 197.4 179.774C198.212 181.906 199.771 183.616 201.374 185.442C205.043 189.646 208.032 203.029 208.032 203.029L223.187 201.647L215.638 184.003Z" fill="#CFDBF9"/>
<path d="M149.394 185.067C149.672 184.51 149.826 183.898 149.845 183.275C149.864 182.652 149.748 182.033 149.504 181.459C148.723 179.626 147.712 176.713 148.056 174.531C148.887 169.25 147.133 163.825 146.575 162.7C145.098 159.744 149.322 161.211 151.098 163.702C152.493 165.657 152.279 167.065 152.493 170.094C152.493 170.094 153.491 165.44 154.317 157.259C154.613 154.315 156.175 150.117 158.146 150.331C159.145 150.435 159.264 151.865 158.575 155.14C158.2 156.925 158.524 165.39 158.524 165.39L161.359 155.313C161.359 155.313 163.028 149.626 165.182 150.687C166.993 151.578 166.127 154.598 165.182 156.985C164.395 158.985 162.839 167.899 162.839 167.899C163.69 164.799 164.838 161.788 166.269 158.909C167.749 155.952 170.224 152.312 171.953 153.301C173.585 154.23 172.476 156.95 171.097 158.871C168.407 162.637 166.917 169.099 166.917 169.099C166.917 169.099 168.879 165.767 170.838 163.173C173.191 160.058 175.153 159.296 176.025 160.099C177.72 161.655 170.763 168.557 169.219 174.002C168.473 176.647 169.024 177.22 167.645 180.848C166.832 182.98 165.276 184.69 163.67 186.516C160.001 190.72 157.012 204.103 157.012 204.103L141.861 202.721L149.394 185.067Z" fill="#AEBFF8"/>
<path d="M54.4845 185.067C54.7625 184.51 54.9163 183.898 54.9354 183.275C54.9544 182.652 54.8382 182.033 54.5948 181.459C53.8137 179.626 52.8028 176.713 53.1461 174.531C53.9775 169.25 52.2233 163.825 51.6658 162.7C50.1888 159.744 54.4121 161.211 56.1884 163.702C57.5835 165.657 57.3694 167.065 57.5835 170.094C57.5835 170.094 58.5819 165.44 59.407 157.259C59.7031 154.315 61.2652 150.117 63.2367 150.331C64.235 150.435 64.3547 151.865 63.6681 155.14C63.2902 156.925 63.6146 165.39 63.6146 165.39L66.449 155.313C66.449 155.313 68.1182 149.626 70.2724 150.687C72.0833 151.578 71.2172 154.598 70.2724 156.985C69.485 158.985 67.9292 167.899 67.9292 167.899C68.78 164.799 69.9286 161.788 71.3589 158.909C72.8391 155.952 75.3145 152.312 77.0467 153.301C78.6749 154.23 77.5663 156.95 76.1869 158.871C73.5005 162.619 72.0108 169.083 72.0108 169.083C72.0108 169.083 73.9729 165.752 75.9318 163.157C78.2844 160.043 80.2465 159.281 81.1189 160.084C82.8132 161.639 75.8562 168.542 74.3162 173.986C73.5666 176.631 74.1178 177.205 72.7415 180.832C71.9321 182.964 70.3732 184.674 68.767 186.5C65.098 190.704 62.1092 204.087 62.1092 204.087L46.9575 202.705L54.4845 185.067Z" fill="#AEBFF8"/>
<path d="M73.598 80.7802V82.7294L69.8691 83.926V80.7802H73.598Z" fill="#A6B6FA"/>
<path d="M156.981 101.116L156.02 100.266L158.247 96.5627L159.799 97.9388L156.981 101.116Z" fill="white"/>
<path d="M112.754 70.2124L115.135 71.5633L115.531 74.2745L111.686 72.0891L112.754 70.2124Z" fill="white"/>
<path d="M116.451 113.296L114.605 113.917L112.269 110.733L115.251 109.729L116.451 113.296Z" fill="white"/>
<path d="M139.149 118.417C144.352 125.829 155.438 125.247 162.943 115.349C168.668 107.792 174.529 88.5014 174.951 76.9321C188.323 88.936 202.036 99.252 202.036 99.252L201.985 96.0809C201.985 96.0809 178.535 56.6812 165.512 65.6903C158.902 70.2689 131.886 108.063 139.149 118.417Z" fill="#ABB8EA"/>
<path d="M192.059 79.7505C187.571 74.602 182.664 69.7242 177.94 66.8587" stroke="black" strokeWidth="1.5" strokeMiterlimit="10" strokeLinecap="round"/>
<path d="M203.765 94.5317C203.765 94.5317 203.465 92.7903 197.22 85.4406" stroke="black" strokeWidth="1.5" strokeMiterlimit="10" strokeLinecap="round"/>
<path d="M172.293 96.1629C172.567 95.3599 173.616 92.7777 174.668 83.6741L174.951 76.9353C187.864 88.3849 196.682 94.8498 196.682 94.8498" stroke="black" strokeWidth="1.5" strokeMiterlimit="10" strokeLinecap="round"/>
<path d="M206.785 93.9082C209.342 90.8285 211.377 89.6036 214.917 90.9954C211.137 94.39 204.839 100.911 203.774 101.053C202.71 101.195 202.042 100.222 201.614 99.5952C204.921 91.2127 204.94 95.8322 206.785 93.9082Z" fill="#D6E8EF"/>
<path d="M215.985 71.2137C218.58 66.9941 220.781 65.5455 224.535 65.5833C221.225 71.0499 216.589 79.9048 215.348 80.4684C214.108 81.0321 212.961 80.1032 212.218 79.5049C212.089 76.9668 214.262 74.1012 215.985 71.2137Z" fill="#D6E8EF"/>
<path d="M204.136 100.628C203.059 100.773 202.404 99.7968 201.976 99.167C202.467 97.2052 203.456 95.0009 205.578 92.4471C206.177 91.7306 206.884 91.1113 207.673 90.6113" stroke="black" strokeWidth="1.5" strokeMiterlimit="10" strokeLinecap="round"/>
<path d="M209.525 96.1628C208.807 96.8304 208.111 97.4665 207.472 98.0522" stroke="black" strokeWidth="1.5" strokeMiterlimit="10" strokeLinecap="round"/>
<path d="M212.064 89.1155C213.56 88.9572 215.073 89.1635 216.473 89.717C214.992 91.0458 212.949 92.9856 210.942 94.8624" stroke="black" strokeWidth="1.5" strokeMiterlimit="10" strokeLinecap="round"/>
<path d="M219.329 64.3646C217.017 65.6588 215.461 67.7214 214.082 70.1146C214.082 70.1146 212.822 72.5173 212.643 74.5232" stroke="black" strokeWidth="1.5" strokeMiterlimit="10" strokeLinecap="round"/>
<path d="M217.405 77.7603C216.271 79.5835 215.736 80.2795 215.348 80.4684C214.104 81.0352 212.961 80.1031 212.218 79.5048" stroke="black" strokeWidth="1.5" strokeMiterlimit="10" strokeLinecap="round"/>
<path d="M223.653 62.8972C224.488 62.7814 225.333 62.7592 226.173 62.8311C224.163 66.1501 221.064 71.7332 218.665 75.7418" stroke="black" strokeWidth="1.5" strokeMiterlimit="10" strokeLinecap="round"/>
<path d="M166.98 67.0349C162.274 68.7165 150.546 79.2025 141.438 96.0054L135.061 95.8542L124.882 114.871C124.882 114.871 134.298 118.234 138.349 122.113C142.399 125.993 151.667 126.919 156.968 122.491C161.449 118.75 163.994 118.083 164.526 110.881C165.471 98.2569 170.693 85.6894 174.154 74.5578C192.556 80.4873 211.899 78.5507 211.899 78.5507L212.324 73.5722C212.324 73.5722 182.771 61.4046 166.98 67.0349Z" fill="white"/>
<path d="M167.62 69.444C162.915 71.1255 151.822 85.6076 143.307 99.2772H132.766L125.207 115.822C125.207 115.822 133.691 120.489 138.674 123.064C144.837 126.273 152.61 123.754 157.91 119.314C162.392 115.57 168.07 109.615 168.618 102.417C169.563 89.7925 171.024 86.6436 174.485 75.512C192.887 81.4415 212.231 79.5049 212.231 79.5049L212.656 74.5264C212.656 74.5264 183.411 63.8042 167.62 69.444Z" fill="#7794F8"/>
<path d="M189.17 78.7868C193.019 79.3105 196.893 79.6322 200.776 79.7504L212.218 79.5048L212.643 74.5263C212.643 74.5263 212.996 74.2681 208.498 72.6369" stroke="black" strokeWidth="1.5" strokeMiterlimit="10" strokeLinecap="round"/>
<path d="M151.618 82.1877C149.539 84.6502 147.467 87.2796 145.511 89.9814C144.075 91.9684 142.702 93.9963 141.439 96.0242L133.068 95.0166L125.194 115.834C125.194 115.834 130.107 119.572 135.058 121.868C143.385 125.735 149.136 124.481 155.117 121.024C160.556 117.875 166.423 109.414 168.602 102.429C172.356 90.3907 171.569 86.253 174.492 74.69C178.803 75.9496 181.575 77.5241 185.036 78.1539" stroke="black" strokeWidth="1.5" strokeMiterlimit="10" strokeLinecap="round"/>
<path d="M176.878 65.5865C173.729 65.6338 170.772 66.0526 168.155 66.9878C165.635 67.8884 162.281 69.7967 157.084 75.3766" stroke="black" strokeWidth="1.5" strokeMiterlimit="10" strokeLinecap="round"/>
<path d="M203.333 70.8515C198.292 69.063 193.124 67.6525 187.873 66.6319" stroke="black" strokeWidth="1.5" strokeMiterlimit="10" strokeLinecap="round"/>
<path d="M74.3503 112.295C74.1235 111.687 72.8354 107.137 72.8449 106.488C72.8449 105.251 72.3284 104.413 72.8008 103.267C73.3929 101.825 73.966 101.355 73.5944 99.7369C73.2228 98.1183 72.4543 99.6298 71.6386 99.2488C71.3867 99.1291 71.9158 97.4885 70.1269 96.399C68.3381 95.3095 65.9383 97.2429 65.7178 99.2771C65.4974 101.311 65.4627 102.958 67.1886 104.656C68.9144 106.353 70.3191 109.861 71.1316 114.184" fill="white"/>
<path d="M118.772 39.9004C116.82 35.2746 115.109 34.5472 114.876 32.0627C114.653 29.6537 113.377 28.6555 111.636 27.525C109.894 26.3945 106.912 27.0401 106.625 29.0995C106.338 31.1589 107.948 31.8013 107.885 32.0721C107.664 32.9475 105.995 32.5885 107.028 33.8985C108.061 35.2085 108.773 35.0605 110.269 35.5108C111.453 35.8698 111.768 36.8113 112.738 37.5796C113.245 37.9859 115.103 40.5775 115.431 41.138L118.772 39.9004Z" fill="white"/>
<path d="M70.127 96.399C68.3381 95.3095 65.9383 97.2429 65.7178 99.2771C65.4974 101.311 65.4627 102.958 67.1886 104.656C68.9144 106.353 70.3191 109.861 71.1316 114.184" stroke="black" strokeWidth="1.5" strokeMiterlimit="10" strokeLinecap="round"/>
<path d="M72.8013 103.267C73.3934 101.825 73.9666 101.356 73.5949 99.737C73.2233 98.1184 72.4549 99.6299 71.6392 99.2489" stroke="black" strokeWidth="1.5" strokeMiterlimit="10" strokeLinecap="round"/>
<path d="M74.3502 112.295C74.1234 111.687 72.8353 107.137 72.8448 106.488" stroke="black" strokeWidth="1.5" strokeMiterlimit="10" strokeLinecap="round"/>
<path d="M112.748 37.5954C113.255 38.0016 115.113 40.5932 115.441 41.1537L118.788 39.8941C116.836 35.2683 115.126 34.5409 114.893 32.0564C114.653 29.6537 113.378 28.6555 111.636 27.525C109.895 26.3945 106.912 27.0401 106.625 29.0995" stroke="black" strokeWidth="1.5" strokeMiterlimit="10" strokeLinecap="round"/>
<path d="M107.022 33.9142C108.042 35.221 108.767 35.0761 110.263 35.5264" stroke="black" strokeWidth="1.5" strokeMiterlimit="10" strokeLinecap="round"/>
<path d="M75.3452 78.1539C75.3452 78.1539 81.3731 85.7555 88.4372 86.2908C92.0936 89.783 93.1613 92.3305 93.1613 92.3305L99.9073 86.9773L94.5533 81.4792C94.5533 81.4792 99.3026 76.6424 95.117 74.0036C91.9476 72.0038 89.0027 69.6685 86.3334 67.0381L75.3452 78.1539Z" fill="white"/>
<path d="M88.4092 69.444C88.4092 69.444 91.9144 73.8714 94.7678 74.2744C94.7678 74.2744 98.3612 75.1404 96.4086 78.9506" stroke="black" strokeWidth="1.5" strokeMiterlimit="10" strokeLinecap="round"/>
<path d="M135.82 93.4863C135.82 93.4863 126.75 91.704 119.531 88.3346C122.741 77.4896 121.982 62.7902 121.982 62.7902L115.935 38.6629L113.611 39.6769C113.611 39.6769 121.723 61.4519 115.935 71.7049C110.146 81.958 102.764 84.5842 97.9519 84.5842C93.1396 84.5842 90.7083 92.8093 89.5462 99.2646C88.3841 105.72 85.5906 124.208 85.5906 124.208L74.3788 109.452L72.5679 111.823L86.274 133.831L97.596 99.696H134.204L135.82 93.4863Z" fill="white"/>
<path d="M73.7613 110.324C73.7613 110.324 72.9708 111.612 70.4639 114.002C75.6383 121.096 83.4866 137.055 86.8564 137.342C92.0466 137.783 96.0683 115.053 99.0603 106.365C113.403 108.255 117.034 116.291 124.063 117.585C130.677 107.883 134.119 101.973 135.061 95.8574C127.395 95.5425 124.523 93.2752 118.772 90.0066C124.299 82.5593 126.526 73.462 126.545 66.7768C126.564 58.8823 118.259 36.8617 118.259 36.8617C118.259 36.8617 117.909 37.9103 114.961 39.0659C117.516 46.1605 120.423 56.7568 120.076 62.7713C119.314 73.7076 110.329 82.9971 104.735 86.0295C100.512 88.3156 98.7138 84.814 96.6226 83.5103L90.8908 89.1785L92.2765 91.5024C89.399 93.8899 87.3073 97.0885 86.2738 100.682C84.5511 106.684 85.3289 128.392 85.3289 128.392L73.7613 110.324Z" fill="#353642"/>
<path d="M119.531 88.3346C125.058 80.8873 126.526 73.4652 126.545 66.7799C126.564 58.8855 118.259 36.8648 118.259 36.8648C116.892 38.0812 115.318 39.0412 113.61 39.6989C115.692 45.4898 117.582 53.4 118.019 59.383C118.118 60.617 118.138 61.856 118.079 63.0925" stroke="black" strokeWidth="1.5" strokeMiterlimit="10" strokeLinecap="round"/>
<path d="M129.707 108.611C133.055 102.735 135.187 97.6145 135.82 93.4957" stroke="black" strokeWidth="1.5" strokeMiterlimit="10" strokeLinecap="round"/>
<path d="M85.3478 125.357L74.3754 109.464C73.2311 111.104 71.9203 112.622 70.4639 113.992C75.6383 121.087 83.4866 137.046 86.8564 137.332C92.0466 137.773 96.0683 115.044 99.0603 106.356C113.403 108.245 117.034 116.282 124.063 117.576C125.245 115.84 126.348 114.151 127.37 112.509" stroke="black" strokeWidth="1.5" strokeMiterlimit="10" strokeLinecap="round"/>
<path d="M85.5907 104.766C85.3576 107.071 85.2411 109.804 85.1938 112.518" stroke="black" strokeWidth="1.5" strokeMiterlimit="10" strokeLinecap="round"/>
<path d="M116.974 68.4867C114.281 76.2584 107.472 81.218 102.959 83.8757C101.406 84.7952 98.7135 84.8204 96.6223 83.5419L90.8904 89.21L92.2762 91.5339C89.3987 93.9215 87.3069 97.1201 86.2734 100.713" stroke="black" strokeWidth="1.5" strokeMiterlimit="10" strokeLinecap="round"/>
<path d="M85.5841 55.5413C86.5796 57.1812 87.0938 59.0679 87.0682 60.9861C87.0426 62.9043 86.4781 64.7766 85.4392 66.3894C81.8458 72.2087 75.5659 74.7279 76.1328 76.9479C76.6997 79.1679 78.8791 80.8494 78.8791 80.8494C78.8791 80.8494 76.8036 81.1832 77.2792 82.446C77.6949 83.5449 78.9043 83.6205 79.9499 83.6426C80.6423 83.6398 81.3333 83.5798 82.0159 83.4631C83.1339 84.4865 85.266 86.316 85.266 86.316C85.266 86.316 77.1375 89.3957 70.2624 85.8437C57.2523 79.1269 69.0436 70.2437 68.8105 60.3371C68.6562 53.7747 78.5484 61.3196 79.6444 57.9061C80.6238 54.8107 83.4079 52.619 85.5841 55.5413Z" fill="#416AE4"/>
<path d="M189.17 53.0537L190.345 55.4374L192.978 55.8185L191.073 57.6763L191.523 60.2963L189.17 59.0587L186.818 60.2963L187.265 57.6763L185.363 55.8185L187.993 55.4374L189.17 53.0537Z" fill="#D6E8EF"/>
<path d="M107.369 53.4976L108.402 55.5885L110.71 55.9254L109.038 57.5534L109.435 59.8522L107.369 58.7658L105.303 59.8522L105.697 57.5534L104.027 55.9254L106.336 55.5885L107.369 53.4976Z" fill="#D6E8EF"/>
<path d="M92.522 202.821H263.212" stroke="black" strokeWidth="1.5" strokeLinecap="round" strokeLinejoin="round"/>
<path d="M0.787109 202.821H9.90457" stroke="black" strokeWidth="1.5" strokeLinecap="round" strokeLinejoin="round"/>
<path d="M30.9868 202.821H83.0839" stroke="black" strokeWidth="1.5" strokeLinecap="round" strokeLinejoin="round"/>
<path d="M163.556 19.4322C162.838 21.6554 164.274 24.1745 164.331 24.2847L168.308 31.7068C168.343 31.7801 168.393 31.8457 168.453 31.8998C168.514 31.9539 168.584 31.9953 168.661 32.0217C168.814 32.0695 168.98 32.0572 169.124 31.9871L176.705 28.2745C176.799 28.2335 179.438 27.0306 180.169 24.8106C181.048 22.0962 179.911 19.9392 177.142 19.0449C175.521 18.5221 173.587 19.3094 172.623 19.7975C172.122 18.837 171.017 17.0673 169.395 16.5446C166.602 15.6314 164.432 16.7178 163.556 19.4322Z" fill="white"/>
<path d="M51.5773 88.9485L52.5977 91.0205L54.8873 91.3543L53.2307 92.9666L53.6213 95.2464L51.5773 94.1695L49.5302 95.2464L49.9207 92.9666L48.2642 91.3543L50.5538 91.0205L51.5773 88.9485Z" fill="#D6E8EF"/>
<path d="M137.259 29.0018L138.012 30.5259L139.693 30.7684L138.475 31.9556L138.764 33.6276L137.259 32.8373L135.757 33.6276L136.043 31.9556L134.828 30.7684L136.509 30.5259L137.259 29.0018Z" fill="#D6E8EF"/>
<path d="M89.3418 78.3239C90.127 78.0581 90.8308 77.5951 91.3857 76.9793C92.4408 75.8331 92.3494 75.6536 92.5888 75.471C93.0549 76.5416 93.2628 77.2911 92.4628 78.1161C91.181 79.4387 89.3418 78.3239 89.3418 78.3239Z" fill="#AEBFF8"/>
</g>
<defs>
<clipPath id="clip0">
<rect width="264" height="207" fill="white"/>
</clipPath>
</defs>
</svg>
