<svg width="82" height="18" viewBox="0 0 82 18" fill="none" xmlns="http://www.w3.org/2000/svg">
<path d="M11.888 18V14.832H4.304V0.983999H0.992V18H11.888ZM18.2176 18V0.983999H14.8576V18H18.2176ZM33.4496 18V14.88H26.1056V10.944H32.7536V7.992H26.1056V4.104H33.4496V0.983999H22.7936V18H33.4496ZM43.628 13.632L39.188 0.983999H35.564L41.852 18H45.26L51.572 0.983999H48.068L43.628 13.632ZM65.0949 18V14.88H57.7509V10.944H64.3989V7.992H57.7509V4.104H65.0949V0.983999H54.4389V18H65.0949ZM77.3373 18H81.0333L77.3853 11.04C79.6173 10.392 81.0093 8.592 81.0093 6.216C81.0093 3.264 78.8973 0.983999 75.5853 0.983999H68.9373V18H72.2733V11.448H74.0013L77.3373 18ZM72.2733 8.592V3.864H74.9613C76.6413 3.864 77.6253 4.8 77.6253 6.24C77.6253 7.632 76.6413 8.592 74.9613 8.592H72.2733Z" fill="url(#paint0_linear)"/>
<defs>
<linearGradient id="paint0_linear" x1="-1" y1="-0.678571" x2="14.9125" y2="46.1409" gradientUnits="userSpaceOnUse">
<stop stop-color="#5F7DF1"/>
<stop offset="1" stop-color="#3055EC"/>
</linearGradient>
</defs>
</svg>
