<svg xmlns="http://www.w3.org/2000/svg" fill="none" viewBox="0 0 239 206"><path fill="url(#paint0_linear)" d="M43.146 55.369c-.738 1.234-2.283 1.756-3.612 2.022-1.697.348-3.453.44-5.172.593l-1 .245a1.503 1.503 0 0 0-.99 1.885 30.188 30.188 0 0 0 2.536 6.121l-1.582 1.582c-.448-.606-.47-1.669-1.07-1.566-.578-.577-1.263-.86-1.972-.087-1.387 1.516-1.163 4.666.875 5.536l-.456 2.27a3.498 3.498 0 0 1-3.427 2.818l.35-2.686c-2.372 1.2-5.064-1.395-4.877-3.533.122-1.465-.21-2.478-1.294-3.54-.071-.071.364-.335.298-.406-.306-.925-.348-2.006-.045-2.618.527-1.091 2.08-1.73 1.366-2.92a5.7 5.7 0 0 1-.678-1.677 5.579 5.579 0 0 1 1.126-4.482c1.054-1.265 2.768-.925 4.168-1.373 1.705-.528 2.494-2.354 4.278-2.919.889-.282 1.711-.153 2.6.05.75.174 1.494.37 2.233.602.738.231 1.386.424 2.108.208.955-.264 1.69-1.155 2.732-1.163.52-.012 1.028.15 1.444.461.77 1.384.775 3.393.06 4.577z"/><path stroke="#CCDDE2" strokeWidth="1.5" d="M10.52 91.063s-28.7-31.655 13.566-47.452a31.07 31.07 0 0 1 7.602-1.745c6.746-.717 21.66-3.266 23.378-11.876M130.999 46.749v-.008"/><path stroke="#000" strokeWidth="1.5" d="M55.694 103.746v-.008"/><path stroke="#000" strokeLinecap="round" strokeLinejoin="round" strokeWidth="1.5" d="M33.254 67.606a7.542 7.542 0 0 0-.997-1.35c-.577-.577-1.263-.859-1.972-.087-1.386 1.516-1.162 4.666.875 5.536l-.456 2.27a3.498 3.498 0 0 1-3.427 2.818"/><path stroke="#000" strokeLinecap="round" strokeLinejoin="round" strokeWidth="1.5" d="M26.002 86.837c.116-.88.403-3.192.68-5.396.264-2.043.498-4.01.59-4.658l.354-2.681"/><path stroke="#000" strokeWidth="1.5" d="M42.277 60.42s-3.366.166-4.017 2.952M43.501 67.783c.917-.024 2.109-.158 2.541-1.089l-2.32-2.56a3.709 3.709 0 0 1-.949-2.272c-.092-1.416.074-3.662-1.28-5.157"/><ellipse cx="40.872" cy="63.656" fill="#000" rx="1.025" ry=".87" transform="rotate(-47.89 40.872 63.656)"/><path stroke="#000" strokeWidth="1.5" d="M41.289 84.597l-1.748-8.473"/><path fill="#353642" d="M85.596 122.729L74.33 131.94c13.553 20.668 3.296 24.461 3.296 24.461a54.92 54.92 0 0 1-6.019.81c-9.796.706-19.845-1.822-27.92-7.485-16.344-11.467-30.58-34.418-22.988-54.4a32.079 32.079 0 0 1 2.334-4.882 14.452 14.452 0 0 1 2.968-3.607 14.236 14.236 0 0 1 15.29-2.238c.954.436 1.857.977 2.691 1.614 4.268 3.266 8.149 7.908 11.494 12.78a119.308 119.308 0 0 1 8.001 13.766c.651 1.3 1.242 2.528 1.764 3.654 4.732-1.914 8.7-5.165 12.39-8.676-4.463 8.33 7.964 14.992 7.964 14.992z"/><path stroke="#000" strokeWidth="1.5" d="M77.713 129.467c-.216.166-.44.34-.664.506M44.41 94.45c2.988 5.721 5.976 11.452 8.963 17.194 2.254 4.334 6.064 7.01 11.428 4.956 5.837-2.235 10.545-6.509 14.9-10.864s8.768-8.52 15.055-9.643c8.128-1.453 15.817 2.976 21.354 8.573a2.679 2.679 0 0 1-1.482 4.538 2.688 2.688 0 0 1-2.154-.602c-2.623-2.238-6.891-5.476-9.859-5.518M94.516 110.763c.912.609 2.177 1.284 3.232 1.284"/><path stroke="#000" strokeWidth="1.5" d="M106.206 104.194c1.945.962 2.655 3.778 1.281 5.46a19.512 19.512 0 0 1-6.401 5.177c-2.71 1.353-4.45.527-7.117-1.123"/><path stroke="#000" strokeWidth="1.5" d="M101.703 106.717s3.854.954 3.751 4.695a1.785 1.785 0 0 1-.084.469M98.978 109.074s5.17 3.34 2.711 5.441"/><path fill="url(#paint1_linear)" d="M198.841 122.165c-6.09 16.737-23.138 17.209-25.089 17.209.817-1.721 1.039-4.745-.751-10.044a10.342 10.342 0 0 0-.124-11.863c.024-.021.037-.05.058-.071a14.4 14.4 0 0 0 2.528-.382c2.942-.701 8.742-2.241 13.345-4.408 3.121-1.473 6.761.889 6.495 4.334 0 .045 0 .087-.016.137a3.785 3.785 0 0 1 3.554 5.088z"/><path fill="#D7E8F0" d="M120.696 161.421c-2.051 3.519-5.243 6.516-8.328 9.131-10.858 9.19-25.044 13.856-39.28 14.038-14.282-.182-28.52-4.864-39.429-13.972-34.468-28.782-28.239-62.765-22.663-78.5a6.72 6.72 0 0 1 .79-1.537 5.476 5.476 0 0 1 3.823-2.341c2.926.403 5.584 2.831 5.114 6.59 0 .145-.058.346-.07.49-7.588 19.983 6.653 42.934 22.987 54.401 7.41 5.201 16.484 7.759 25.5 7.592h.103a42.68 42.68 0 0 0 2.317-.108c5.064-.369 9.986-1.581 14.86-3.05 5.72-1.711 11.378-3.785 17.093-5.238a251.209 251.209 0 0 1 6.048-1.466 13.407 13.407 0 0 1 3.553-.245c7.02.475 11.953 6.717 7.582 14.215z"/><path fill="#D7E8F0" d="M122.431 161.421c-2.051 3.519-5.246 6.516-8.33 9.131-11.291 9.565-26.188 14.236-41.02 14.038-14.283-.182-28.52-4.864-39.43-13.972-34.46-28.782-28.23-62.765-22.655-78.5.197-.545.463-1.061.791-1.537a5.476 5.476 0 0 1 3.823-2.341c2.926.403 5.583 2.831 5.114 6.59 0 .145-.058.346-.071.49-7.587 19.983 6.653 42.934 22.987 54.401 7.41 5.201 16.484 7.758 25.5 7.592h.103c1.359.022 2.71-.015 4.052-.108 5.064-.369 9.983-1.581 14.86-3.05 5.72-1.711 11.378-3.785 17.093-5.238a250.971 250.971 0 0 1 6.045-1.466c.601-.123 1.21-.204 1.822-.245 7.893-.53 14.04 6.111 9.316 14.215z"/><path fill="#353642" d="M75.462 184.543l3.47 4.908s20.991.818 32.48 10.461c2.125 1.784.854 5.251-1.919 5.251a2.932 2.932 0 0 1-1.901-.691c-2.713-2.277-13.076-9.437-36.517-9.653-22.84-.214-31.6 6.854-34.022 9.429a2.94 2.94 0 0 1-2.146.915h-.451c-2.847 0-4.052-3.596-1.803-5.341 9.59-7.458 31.089-9.836 31.089-9.836l3.67-5.536M168.365 157.324s6.43 6.108 4.424 25.044a8.452 8.452 0 0 1-1.371 3.78l-.699 1.055a8.549 8.549 0 0 1-4.864 3.501c-4.199 1.146-11.818 3.804-16.523 8.839-1.988 2.132-.509 5.607 2.407 5.607a3.293 3.293 0 0 0 2.749-1.466c1.917-2.884 7.719-9.008 21.715-8.879 15.785.145 22.144 6.422 24.181 9.127a3.032 3.032 0 0 0 2.423 1.218 3.032 3.032 0 0 0 2.212-5.098c-6.156-6.689-13.685-9.182-17.839-10.108a8.558 8.558 0 0 1-5.17-3.403 8.516 8.516 0 0 1-1.553-4.571c-.232-5.871-.353-20.122 3.625-24.641"/><path stroke="#000" strokeWidth="1.5" d="M86.473 154.163c11.306-5.488 23.578-9.089 35.644-12.479 12.142-3.412 24.403-6.388 36.701-9.185 4.914-1.115 9.872-2.109 14.763-3.366M97.082 111.971H97.095M95.814 111.256c-.709.702-3.24 4.448-3.875 5.12a130.255 130.255 0 0 1-11.104 10.576c-.983.818-2.024 1.661-3.12 2.515-.217.166-.441.34-.665.506-7.434 5.642-17.136 11.073-26.099 7.593a10.69 10.69 0 0 1-.698-.29c-13.748-6.156-23.357-21.572-24.195-36.454a29.735 29.735 0 0 1-.05-1.444c-.074-4.068.527-8.136 4.428-10.281"/><path stroke="#000" strokeWidth="1.5" d="M20.721 95.268l.056-.432c.875-7.018-9.09-9.385-11.455-2.718-5.573 15.733-11.805 49.708 22.672 78.495 22.252 18.588 58.278 18.717 80.446-.06 3.084-2.613 6.277-5.616 8.33-9.135 5.196-8.9-2.739-16.036-11.689-13.845"/><path stroke="#000" strokeWidth="1.5" d="M75.462 184.543l3.47 4.908s20.991.818 32.48 10.461c2.125 1.785.854 5.251-1.919 5.251a2.936 2.936 0 0 1-1.901-.69c-2.713-2.278-13.076-9.438-36.517-9.654-22.84-.214-31.6 6.854-34.022 9.429a2.94 2.94 0 0 1-2.146.915h-.451c-2.847 0-4.052-3.596-1.803-5.341 9.59-7.458 31.089-9.835 31.089-9.835l3.67-5.536M63.742 112.337c8.8-2.372 12.425-14.786 13.885-23.132M55.469 99a14.415 14.415 0 0 0 11.29-8.414 3.163 3.163 0 0 0-.079-2.847c-.96-1.777-2.39-3.836-2.05-5.966.245-1.502 1.481-2.56 2.9-2.9a4.057 4.057 0 0 1 2.187.037 2.992 2.992 0 0 1 1.93 1.69c.345.81-.066 1.61-.701 2.138-.635.527-1.379.715-2.154.925-.1.03-.374.087-.677.145M173.57 129.127s17.347-3.632 20.605-8.865a7.312 7.312 0 0 0 1.112-3.164"/><path stroke="#000" strokeWidth="1.5" d="M88.216 120.191c30.255-3.214 64.405-2.739 64.405-2.739h19.165a15.704 15.704 0 0 0 3.677-.433c2.942-.701 8.742-2.238 13.345-4.408 3.121-1.473 6.762.889 6.495 4.337 0 .042 0 .087-.016.137a3.783 3.783 0 0 1 3.554 5.077c-6.464 17.766-25.271 17.21-25.271 17.21-2.404.071-4.803.166-7.21.289-21.203 1.031-42.218 4.008-62.791 9.261-5.716 1.453-11.373 3.525-17.093 5.239-4.877 1.473-9.804 2.678-14.868 3.047-9.797.709-19.846-1.822-27.92-7.484C26 137.313 10.78 111.436 23.032 90.431c4.326-7.413 14.122-9.443 20.95-4.218 9.63 7.368 17.322 21.722 21.269 30.189M198.441 157.324h-42.105"/><path stroke="#000" strokeWidth="1.5" d="M147.836 148.82a8.53 8.53 0 0 1 8.504-8.507h42.111a8.53 8.53 0 0 1 8.507 8.507"/><path fill="#D7E8F0" d="M207.786 151.835a5.472 5.472 0 0 1-5.491 5.489H152.47a4.781 4.781 0 0 1-4.317-5.122 4.781 4.781 0 0 1 5.04-4.413h49.824a5.474 5.474 0 0 1 4.503 2.349c.176.548.266 1.121.266 1.697z"/><path stroke="#000" strokeWidth="1.5" d="M207.786 151.835a5.472 5.472 0 0 1-5.491 5.489h-49.824a5.49 5.49 0 1 1 0-10.98h49.824a5.492 5.492 0 0 1 5.225 3.794c.176.548.266 1.121.266 1.697v0z" clip-rule="evenodd"/><path stroke="#000" strokeWidth="1.5" d="M77.532 89.01l-.1.846a1.582 1.582 0 0 1-1.57 1.394h-5.474c-.8 0-1.474-.6-1.569-1.394l-.707-6.063c.304-.059.578-.117.678-.146.775-.21 1.526-.39 2.154-.925.627-.535 1.054-1.318.701-2.138a2.992 2.992 0 0 0-1.93-1.69 4.057 4.057 0 0 0-2.188-.036l-.166-1.445a1.582 1.582 0 0 1 1.569-1.756h8.401a1.582 1.582 0 0 1 1.566 1.756l-.195 1.648M78.263 82.828l-.008.058M77.85 86.31v-.024"/><path stroke="#000" strokeWidth="1.5" d="M77.93 86.31a.218.218 0 0 0-.07 0 .44.44 0 0 0-.1 0 1.363 1.363 0 0 0-.22 2.707c.146.03.295.03.44 0a2.855 2.855 0 0 0 1.698-.938 9.344 9.344 0 0 0 1.2-3.13.056.056 0 0 0 0-.034c.16-.815.222-1.647.182-2.478 0-.355-.045-.709-.087-1.054a2.72 2.72 0 0 0-2.27-2.312c-.03 0-.063 0-.092-.016-1.108-.137-2.66.282-2.948 1.532-.263 1.128.96 2.096 1.964 2.183 0 0 .264.034.636.058.743.05 1.98.042 2.797-.39.12-.063.233-.138.337-.225"/><path stroke="#000" strokeWidth="1.5" d="M79.085 82.888h-2.207a1.64 1.64 0 0 0-.24 3.261c1.82.293 3.896.353 4.252-1.276M168.365 157.324s6.43 6.108 4.424 25.044a8.452 8.452 0 0 1-1.371 3.78l-.699 1.055a8.549 8.549 0 0 1-4.864 3.501c-4.199 1.146-11.818 3.804-16.523 8.839-1.988 2.132-.509 5.607 2.407 5.607a3.293 3.293 0 0 0 2.749-1.466c1.917-2.884 7.719-9.008 21.715-8.879 15.785.145 22.144 6.422 24.181 9.127a3.032 3.032 0 0 0 2.423 1.218 3.032 3.032 0 0 0 2.212-5.098c-6.156-6.689-13.685-9.182-17.839-10.108a8.556 8.556 0 0 1-5.17-3.403 8.516 8.516 0 0 1-1.553-4.571c-.232-5.871-.353-20.122 3.625-24.641"/><path stroke="#000" strokeWidth="1.5" d="M154.999 113.065v.427c0 2.923-2.356 3.427-4.391 3.477l-39.388.917c-1.727.043-3.179-1.465-3.216-3.353v-.079c0-1.845 1.36-3.387 3.063-3.427 0 0 22.036-.622 39.098-1.091.327 1.033 1.117 1.829 2.109 2.454a4.81 4.81 0 0 0 2.725.675v0zM175.935 71.386c.002.482-.108.956-.322 1.387l-17.615 36.111a3.205 3.205 0 0 1-2.109 1.695 3.167 3.167 0 0 1-2.172-.221 3.216 3.216 0 0 1-1.473-4.284l17.612-36.116a3.195 3.195 0 0 1 6.063 1.41l.016.019z" clip-rule="evenodd"/><path stroke="#000" strokeLinecap="round" strokeLinejoin="round" strokeWidth="1.5" d="M33.327 67.822c-.02-.073-.05-.145-.073-.216-.024-.07-.058-.153-.08-.232M33.328 67.825l.54-.543 1.034-1.047"/><path stroke="#000" strokeWidth="1.5" d="M39.41 69.254s.694 2.07 3.343 2.209M27.626 74.102c-2.373 1.2-5.064-1.395-4.877-3.533.121-1.465-.211-2.478-1.295-3.54a5.06 5.06 0 0 1-.2-.216 3.045 3.045 0 0 1-.5-3.383c.492-1.146 1.555-1.819.816-3.055a5.894 5.894 0 0 1-.7-1.727 5.747 5.747 0 0 1 1.162-4.616c1.086-1.318 2.855-.954 4.307-1.415 1.748-.556 2.565-2.436 4.4-3.013.918-.288 1.769-.158 2.686.05a32.06 32.06 0 0 1 2.3.622c.75.237 1.436.44 2.187.216.983-.287 1.74-1.191 2.81-1.2 1.07-.007 1.893.623 2.373 1.503.76 1.382.764 3.39.05 4.582-.738 1.234-2.283 1.756-3.612 2.022-1.697.348-3.453.44-5.172.593l-.999.245a1.503 1.503 0 0 0-.991 1.877 30.19 30.19 0 0 0 2.536 6.121"/><path stroke="#000" strokeLinecap="round" strokeLinejoin="round" strokeWidth="1.5" d="M34.902 74.405s5.23 3.83 8.212 1.719c2.982-2.112 1.297-8.302 1.297-8.302"/><path stroke="#000" strokeWidth="1.5" d="M71.858 73.013s-2.223-1.503-.81-3.037c1.413-1.534-.469-3.559-.469-3.559M73.908 73.274s1.471-.994.527-2.011c-.943-1.018.314-2.373.314-2.373"/><ellipse cx="84.046" cy="29.977" stroke="#CCDDE2" strokeWidth="1.5" rx="28.977" ry="28.977"/><ellipse cx="84.046" cy="29.977" stroke="#CCDDE2" strokeWidth="1.5" rx="15.915" ry="15.915"/><ellipse cx="84.045" cy="29.977" stroke="#CCDDE2" strokeWidth="1.5" rx="2.728" ry="2.728"/><path stroke="#CCDDE2" strokeWidth="1.5" d="M89.695 20.866l-4.213 6.791M84.046 14.062v2.832M99.961 29.977h-2.684M84.046 45.894v-2.752M68.129 29.977h2.42"/><circle cx="111.817" cy="67.374" r="10.782" fill="url(#paint2_linear)"/><path fill="#fff" d="M115.365 63.773a3.79 3.79 0 0 0-.606-.965 2.721 2.721 0 0 0-3.557-.527 2.807 2.807 0 0 0-1.265 2.149 2.786 2.786 0 0 0-3.163 4.32c.772 1.007 2.085 1.67 3.274 2.054.623.2 1.265.336 1.916.406.33.037 2.209.29 2.373 0 1.173-1.835 2.006-5.196 1.028-7.437z"/><g opacity=".72"><ellipse cx="138.693" cy="56.974" fill="url(#paint3_linear)" rx="5.937" ry="5.937"/><path fill="#fff" d="M141.267 58.026c.147-.15.27-.321.364-.509a1.497 1.497 0 0 0-.472-1.924 1.538 1.538 0 0 0-1.357-.195 1.534 1.534 0 0 0-2.863-.707 3.746 3.746 0 0 0-.361 2.11c.029.356.095.71.195 1.054.05.177.314 1.186.493 1.218 1.178.197 3.066-.08 4.001-1.047z"/></g><path fill="url(#paint4_linear)" d="M132.411 98.159a7.634 7.634 0 1 1 6.528-13.803 7.634 7.634 0 0 1-6.528 13.803z"/><path fill="#fff" d="M142.377 92.582l-2.043 4.32a3.776 3.776 0 0 1-5.009 1.796l-5.183-2.452a3.774 3.774 0 0 1-1.792-5.009l.137-.29c1.408-1.123 3.841-2.636 4.729-.577 1.279 2.974 2.942 2.014 5.067.77 1.774-1.05 3.904-1.4 4.094 1.442z"/><ellipse cx="134.351" cy="86.394" fill="#fff" rx="1.595" ry="1.595"/><path fill="url(#paint5_linear)" d="M161.561 65.437c.317.578.547 1.2.682 1.845a6.953 6.953 0 0 1-2.13 6.535c-.706.625-1.605 1.113-2.32 1.766a3.665 3.665 0 0 0-1.107 1.695 1.423 1.423 0 0 1-.263.62c-.417.448-.826-.264-1.187-.385a2.496 2.496 0 0 0-1.774.087 6.925 6.925 0 0 1-7.618-11.235c1.104-1.126 2.549-1.846 3.954-2.579 1.228-.65 2.451-1.344 3.785-1.734 3.127-.936 6.464.622 7.978 3.385z"/><ellipse cx="148.969" cy="72.077" fill="#fff" rx="1.503" ry="1.503"/><ellipse cx="153.016" cy="69.913" fill="#fff" rx="1.503" ry="1.503"/><ellipse cx="156.811" cy="67.883" fill="#fff" rx="1.503" ry="1.503"/><path stroke="#CCDDE2" strokeWidth="1.5" d="M110.998 19.324s9.894 30.601 47.979 28.948c12.654-1.581 27.714 0 41.125 17.663 20.385 26.868 12.2 56.799 2.936 75.799"/><g opacity=".54"><path fill="url(#paint6_linear)" d="M166.05 31.343c-.037.461-.108.92-.213 1.37l-1.187 5.146c-.363 1.582-.772 3.238-1.9 4.392-2.109 2.151-5.615 1.658-8.547 1.007l-7.197-1.597c-1.653-.367-3.332-.744-4.813-1.564-1.482-.82-2.768-2.161-3.111-3.82-.264-1.223.018-2.488.287-3.706l1.086-4.94c.362-1.619.768-3.327 1.935-4.505 2.08-2.096 5.536-1.619 8.41-.994l7.371 1.603c4.444.96 8.233 3.02 7.879 7.608z"/><path fill="#fff" d="M156.125 31.48a2.397 2.397 0 0 1-.931 4.046l-2.193.673-2.193.672a2.4 2.4 0 0 1-3.04-2.832l.527-2.235.514-2.233a2.398 2.398 0 0 1 3.97-1.218l1.68 1.563 1.666 1.564z"/></g><path stroke="#CCDDE2" strokeWidth="1.5" d="M10.617 205.15h227.641"/><defs><linearGradient id="paint0_linear" x1="21.447" x2="47.095" y1="52.693" y2="72.314" gradientUnits="userSpaceOnUse"><stop stop-color="#5F7DF1"/><stop offset="1" stop-color="#3055EC"/></linearGradient><linearGradient id="paint1_linear" x1="172.877" x2="199.975" y1="114.59" y2="138.345" gradientUnits="userSpaceOnUse"><stop stop-color="#5F7DF1"/><stop offset="1" stop-color="#3055EC"/></linearGradient><linearGradient id="paint2_linear" x1="101.035" x2="122.599" y1="58.517" y2="78.156" gradientUnits="userSpaceOnUse"><stop stop-color="#5F7DF1"/><stop offset="1" stop-color="#3055EC"/></linearGradient><linearGradient id="paint3_linear" x1="132.756" x2="144.629" y1="52.098" y2="62.911" gradientUnits="userSpaceOnUse"><stop stop-color="#5F7DF1"/><stop offset="1" stop-color="#3055EC"/></linearGradient><linearGradient id="paint4_linear" x1="126.742" x2="145.841" y1="95.478" y2="87.619" gradientUnits="userSpaceOnUse"><stop stop-color="#5F7DF1"/><stop offset="1" stop-color="#3055EC"/></linearGradient><linearGradient id="paint5_linear" x1="143.865" x2="160.287" y1="63.24" y2="80.171" gradientUnits="userSpaceOnUse"><stop stop-color="#5F7DF1"/><stop offset="1" stop-color="#3055EC"/></linearGradient><linearGradient id="paint6_linear" x1="138.977" x2="161.167" y1="23.582" y2="48.232" gradientUnits="userSpaceOnUse"><stop stop-color="#5F7DF1"/><stop offset="1" stop-color="#3055EC"/></linearGradient></defs></svg>