<svg width="134" height="139" viewBox="0 0 134 139" fill="none" xmlns="http://www.w3.org/2000/svg">
<path d="M6.31641 55.7631V51.6512C6.32073 50.9237 6.46842 50.2041 6.75105 49.5337C7.03368 48.8634 7.4457 48.2553 7.96353 47.7442C8.48137 47.2332 9.09487 46.8293 9.76894 46.5556C10.443 46.2818 11.1644 46.1437 11.892 46.149H80.926L83.3506 42.6349C83.8669 41.8904 84.5562 41.2825 85.3594 40.8633C86.1626 40.4442 87.0555 40.2264 87.9615 40.2286H108.642C109.37 40.2238 110.091 40.3623 110.765 40.6362C111.439 40.9101 112.052 41.314 112.57 41.825C113.087 42.3359 113.499 42.9438 113.782 43.614C114.065 44.2841 114.213 45.0034 114.218 45.7308V56.1703" fill="white"/>
<path d="M5.67188 56.2508H50.0341C50.0341 56.2508 54.0177 64.9112 59.9381 64.9112C65.8584 64.9112 69.842 56.2508 69.842 56.2508H113.566V49.6481C113.566 47.1355 111.072 45.096 107.99 45.096H88.9162C88.05 45.0757 87.1897 45.2433 86.3944 45.5871C85.5991 45.9309 84.8877 46.4429 84.3091 47.0878L81.8845 49.9966H11.2474C8.1662 49.9966 5.67188 52.0324 5.67188 54.5488V56.2508Z" fill="#F2F5F8"/>
<path d="M6.31641 54.7248V50.6165C6.32121 49.8891 6.46923 49.1698 6.75203 48.4996C7.03483 47.8295 7.44686 47.2216 7.9646 46.7106C8.48234 46.1997 9.09565 45.7957 9.76951 45.5219C10.4434 45.248 11.1646 45.1095 11.892 45.1143H80.926L83.3506 41.6002C83.8667 40.8553 84.5559 40.2468 85.3591 39.827C86.1622 39.4072 87.0552 39.1887 87.9615 39.1903H108.642C110.111 39.1815 111.523 39.756 112.569 40.7877C113.614 41.8193 114.207 43.2238 114.218 44.6925V55.1319" stroke="black" strokeWidth="1.5" strokeMiterlimit="10" strokeLinecap="round"/>
<path fill-rule="evenodd" clip-rule="evenodd" d="M23.1289 55.1687L23.1693 7.92324C23.1693 4.2111 25.7993 1.20691 29.0383 1.20691L91.0295 1.22892C94.2721 1.22892 96.8985 4.23678 96.8985 7.94525L96.8618 55.6565" fill="#F2F5F8"/>
<path d="M23.1289 55.1687L23.1693 7.92324C23.1693 4.2111 25.7993 1.20691 29.0383 1.20691L91.0295 1.22892C94.2721 1.22892 96.8985 4.23678 96.8985 7.94525L96.8618 55.6565" stroke="black" strokeWidth="1.5" strokeMiterlimit="10"/>
<path d="M61.5159 41.7906C68.2146 41.7906 73.645 36.1385 73.645 29.1661C73.645 22.1938 68.2146 16.5416 61.5159 16.5416C54.8171 16.5416 49.3867 22.1938 49.3867 29.1661C49.3867 36.1385 54.8171 41.7906 61.5159 41.7906Z" fill="#3055EC"/>
<path d="M61.9432 41.8088C59.8289 42.1103 57.6735 41.9141 55.6484 41.2358" stroke="black" strokeWidth="1.5" strokeMiterlimit="10" strokeLinecap="round"/>
<path d="M53.4153 40.2526C50.7134 38.7614 48.5978 36.397 47.4151 33.5466C46.2324 30.6961 46.0526 27.5285 46.9051 24.5625C47.7576 21.5965 49.592 19.0078 52.1078 17.2205C54.6236 15.4331 57.6717 14.5529 60.7531 14.724C63.8344 14.8951 66.7664 16.1074 69.0688 18.1623C71.3712 20.2173 72.9077 22.9931 73.4265 26.0353C73.9454 29.0775 73.416 32.2056 71.9249 34.9076C70.4339 37.6096 68.0696 39.7253 65.2192 40.9081" stroke="black" strokeWidth="1.5" strokeMiterlimit="10" strokeLinecap="round"/>
<path d="M66.6214 23.4241L56.844 33.2014L53.3789 29.7388" stroke="white" strokeWidth="1.5" strokeMiterlimit="10" strokeLinecap="round"/>
<path fill-rule="evenodd" clip-rule="evenodd" d="M112.255 55.7116L70.3537 55.5465H69.6787C69.6661 58.1732 68.6105 60.6873 66.7442 62.5357C64.8779 64.3841 62.3538 65.4154 59.7271 65.4028C57.1004 65.3901 54.5863 64.3345 52.7379 62.4683C50.8895 60.602 49.8582 58.0778 49.8709 55.4512H48.9245L7.75348 54.9926C4.41549 54.967 1.69741 57.3146 1.67541 60.2307L1.30859 115.982C1.30859 118.917 3.97532 121.283 7.31331 121.305L111.814 122.039C115.149 122.061 117.871 119.717 117.893 116.8L118.278 61.045C118.278 58.1179 115.589 55.7373 112.255 55.7116Z" fill="white"/>
<path fill-rule="evenodd" clip-rule="evenodd" d="M110.305 60.7041L72.4974 60.528C72.1709 66.0669 65.9461 70.465 59.9451 70.465C53.944 70.465 47.3304 66.0155 47.0589 60.429L15.216 59.9411C11.4341 59.9154 8.35293 62.4024 8.32725 65.4983L7.89074 115.616C7.86873 118.712 10.9133 121.239 14.6951 121.265L109.788 122.031C113.566 122.053 116.651 119.566 116.673 116.474L117.109 66.3493C117.131 63.2571 114.087 60.7298 110.305 60.7041Z" fill="#A8B8F9"/>
<path d="M81.4398 90.9403V95.9803L38.4531 95.8409V90.9403" stroke="black" strokeWidth="1.5" strokeMiterlimit="10" strokeLinecap="round"/>
<path d="M59.8448 64.9661C65.2862 64.9661 69.6973 60.555 69.6973 55.1136C69.6973 49.6721 65.2862 45.261 59.8448 45.261C54.4033 45.261 49.9922 49.6721 49.9922 55.1136C49.9922 60.555 54.4033 64.9661 59.8448 64.9661Z" fill="#F2F5F8"/>
<path fill-rule="evenodd" clip-rule="evenodd" d="M112.509 55.7116L70.6077 55.5465H69.9328C69.9201 58.1732 68.8645 60.6873 66.9983 62.5357C65.132 64.3841 62.6078 65.4154 59.9811 65.4028C57.3545 65.3901 54.8404 64.3345 52.992 62.4683C51.1436 60.602 50.1123 58.0778 50.1249 55.4512H49.1749L8.00386 54.9926C4.66953 54.967 1.94779 57.3146 1.92945 60.2307L1.56263 115.986C1.54063 118.921 4.22936 121.287 7.56368 121.309L112.068 122.042C115.403 122.064 118.121 119.72 118.143 116.804L118.528 61.0487C118.532 58.1179 115.843 55.7373 112.509 55.7116Z" stroke="black" strokeWidth="1.5" strokeMiterlimit="10" strokeLinecap="round"/>
</svg>
