<svg width="220" height="189" viewBox="0 0 220 189" fill="none" xmlns="http://www.w3.org/2000/svg">
<path d="M165.733 15.3773L159.73 13.6299" stroke="#D7E9F1" strokeWidth="1.5" strokeMiterlimit="10" strokeLinecap="round"/>
<path d="M183.008 0.873779L181.263 6.88487" stroke="#D7E9F1" strokeWidth="1.5" strokeMiterlimit="10" strokeLinecap="round"/>
<path d="M174.283 30.9292L172.538 36.9403" stroke="#D7E9F1" strokeWidth="1.5" strokeMiterlimit="10" strokeLinecap="round"/>
<path d="M166.78 24.9182L161.301 27.9238" stroke="#D7E9F1" strokeWidth="1.5" strokeMiterlimit="10" strokeLinecap="round"/>
<path d="M186.776 35.3328L183.74 29.8459" stroke="#D7E9F1" strokeWidth="1.5" strokeMiterlimit="10" strokeLinecap="round"/>
<path d="M171.701 7.93341L168.699 2.44653" stroke="#D7E9F1" strokeWidth="1.5" strokeMiterlimit="10" strokeLinecap="round"/>
<path d="M189.22 22.2271L195.222 23.9745" stroke="#D7E9F1" strokeWidth="1.5" strokeMiterlimit="10" strokeLinecap="round"/>
<path d="M188.173 12.7211L193.652 9.71558" stroke="#D7E9F1" strokeWidth="1.5" strokeMiterlimit="10" strokeLinecap="round"/>
<path d="M73.1823 61.6487L70.4951 61.3691" stroke="#D7E9F1" strokeWidth="1.5" strokeMiterlimit="10" strokeLinecap="round"/>
<path d="M79.5338 54.1699L79.2197 56.8609" stroke="#D7E9F1" strokeWidth="1.5" strokeMiterlimit="10" strokeLinecap="round"/>
<path d="M74.3334 65.6677L72.2046 67.3802" stroke="#D7E9F1" strokeWidth="1.5" strokeMiterlimit="10" strokeLinecap="round"/>
<path d="M75.2064 58.0142L73.5312 55.8823" stroke="#D7E9F1" strokeWidth="1.5" strokeMiterlimit="10" strokeLinecap="round"/>
<path d="M82.6396 58.8877L84.7684 57.1753" stroke="#D7E9F1" strokeWidth="1.5" strokeMiterlimit="10" strokeLinecap="round"/>
<path d="M4.25771 54.7988L0.872559 55.9521" stroke="#D7E9F1" strokeWidth="1.5" strokeMiterlimit="10" strokeLinecap="round"/>
<path d="M7.53809 42.2874L8.68974 45.6424" stroke="#D7E9F1" strokeWidth="1.5" strokeMiterlimit="10" strokeLinecap="round"/>
<path d="M13.3662 59.2024L14.5528 62.5924" stroke="#D7E9F1" strokeWidth="1.5" strokeMiterlimit="10" strokeLinecap="round"/>
<path d="M7.88733 58.8879L6.31689 62.1032" stroke="#D7E9F1" strokeWidth="1.5" strokeMiterlimit="10" strokeLinecap="round"/>
<path d="M4.5715 49.3119L1.36084 47.7393" stroke="#D7E9F1" strokeWidth="1.5" strokeMiterlimit="10" strokeLinecap="round"/>
<path d="M17.4844 50.1858L20.8695 49.0325" stroke="#D7E9F1" strokeWidth="1.5" strokeMiterlimit="10" strokeLinecap="round"/>
<path d="M13.855 46.0968L15.4254 42.8816" stroke="#D7E9F1" strokeWidth="1.5" strokeMiterlimit="10" strokeLinecap="round"/>
<path d="M192.954 111.555V188.021H51.7197V111.555C51.7197 104.915 57.0941 99.4976 63.7597 99.4976H180.914C187.545 99.4976 192.954 104.915 192.954 111.555Z" fill="#F2F5F8" stroke="white" strokeWidth="1.5" strokeMiterlimit="10"/>
<path d="M43.0652 135.809V188.021H31.8279C30.1528 188.021 28.8267 186.658 28.8267 185.016V135.809C28.8267 134.131 30.1877 132.803 31.8628 132.803H40.064C41.7042 132.803 43.0652 134.131 43.0652 135.809Z" fill="#F2F5F8"/>
<path d="M215.359 135.914V184.876C215.359 186.589 213.963 187.987 212.253 187.987H200.143V135.914C200.143 134.201 201.539 132.803 203.249 132.803H212.218C213.963 132.768 215.359 134.201 215.359 135.914Z" fill="#F2F5F8"/>
<path d="M72.8682 93.4517H99.042" stroke="black" strokeWidth="1.5" strokeMiterlimit="10" strokeLinecap="round"/>
<path d="M44.042 166.913V106.243C44.042 99.1832 49.7653 93.4517 56.8148 93.4517" stroke="black" strokeWidth="1.5" strokeMiterlimit="10" strokeLinecap="round"/>
<path d="M192.954 118.195V188.022H44.042" stroke="black" strokeWidth="1.5" strokeMiterlimit="10" strokeLinecap="round"/>
<path d="M163.325 93.4517H170.444" stroke="black" strokeWidth="1.5" strokeMiterlimit="10" strokeLinecap="round"/>
<path d="M44.0421 175.475V187.952H25.7553C23.5916 187.952 21.8467 186.204 21.8467 184.037V132.419C21.8467 130.252 23.5916 128.505 25.7553 128.505H40.1335C42.2972 128.505 44.0421 130.252 44.0421 132.419" stroke="black" strokeWidth="1.5" strokeMiterlimit="10" strokeLinecap="round"/>
<path d="M192.919 188.126H211.206C213.369 188.126 215.114 186.379 215.114 184.212V156.603" stroke="black" strokeWidth="1.5" strokeMiterlimit="10" strokeLinecap="round"/>
<path d="M215.114 146.258V132.559C215.114 130.392 213.369 128.645 211.206 128.645H196.828C194.664 128.645 192.919 130.392 192.919 132.559" stroke="black" strokeWidth="1.5" strokeMiterlimit="10" strokeLinecap="round"/>
<path d="M55.2094 152.27H45.752" stroke="black" strokeWidth="1.5" strokeMiterlimit="10" strokeLinecap="round"/>
<path d="M192.953 152.27H60.793" stroke="black" strokeWidth="1.5" strokeMiterlimit="10" strokeLinecap="round"/>
<path d="M120.714 50.4653C123.506 57.7346 119.876 60.3906 121.901 64.7592C122.808 66.7512 126.193 66.4716 127.938 65.5979C128.461 68.3239 131.114 78.2492 131.114 78.2492L143.328 75.5582C143.328 75.5582 138.547 68.1491 137.43 65.4581C136.314 62.7671 138.373 62.1031 138.791 60.146C139.699 55.8474 140.327 51.4788 140.641 47.0754L131.149 44.5591C131.149 44.594 118.655 45.1183 120.714 50.4653Z" fill="white"/>
<path d="M172.678 36.2763C177.319 30.8942 177.18 28.2382 180.181 26.3859C183.077 24.5686 183.531 22.3319 183.88 19.3963C184.229 16.4606 181.507 13.1056 178.715 14.0492C175.923 14.9928 176.133 17.4392 175.749 17.5091C174.492 17.7887 173.899 15.4471 172.887 17.579C171.875 19.7108 172.503 20.5496 172.887 22.7164C173.166 24.4638 172.189 25.4423 171.805 27.1548C171.631 28.0634 169.502 32.0475 168.979 32.8164L172.678 36.2763Z" fill="white"/>
<path d="M117.503 115.818C119.457 115.923 124.308 110.996 118.899 112.568C113.49 114.141 113.49 117.077 113.49 119.069C113.49 121.061 114.362 121.305 115.653 121.69C115.653 121.69 124.518 122.633 124.099 120.187C123.68 117.741 117.503 115.818 117.503 115.818Z" fill="white"/>
<path d="M171.771 27.1548C171.596 28.0634 169.467 32.0475 168.944 32.8164L172.643 36.2763C177.285 30.8942 177.145 28.2382 180.146 26.3859C183.043 24.5686 183.496 22.3319 183.845 19.3963C184.194 16.4606 181.472 13.1056 178.681 14.0492" stroke="black" strokeWidth="1.5" strokeMiterlimit="10" strokeLinecap="round"/>
<path d="M142.177 145.944C142.177 145.944 141.688 143.288 138.338 144.336C134.988 145.385 131.917 155.205 131.917 155.205L138.617 153.598L142.177 145.944Z" fill="#D6E8EF"/>
<path d="M142.177 145.944C142.177 145.944 141.095 143.323 137.745 144.336C134.394 145.35 131.917 155.205 131.917 155.205L138.617 153.598L142.177 145.944Z" stroke="black" strokeWidth="1.5" strokeMiterlimit="10" strokeLinecap="round"/>
<path d="M127.275 119.872C127.275 119.872 111.885 145.35 109.826 149.788C107.732 154.331 106.057 163.418 112.059 164.466C118.062 165.515 143.782 158.805 143.782 158.805L143.259 154.192L128.671 150.312C128.671 150.312 134.709 130.497 143.782 130.497C152.856 130.497 157.986 144.127 159.801 147.586C157.323 147.097 146.714 146.678 142.875 146.188C141.025 148.914 141.339 149.229 140.257 151.396C166.047 161.321 172.678 165.934 177.878 163.348C183.078 160.762 164.023 118.09 164.023 118.09L127.275 119.872Z" fill="#7794F8"/>
<path d="M129.159 72.203C129.159 72.203 130.102 76.5366 136.453 75.9774C142.002 75.4881 141.06 71.0497 141.06 71.0497C141.06 71.0497 144.235 67.8694 146.643 67.1006C148.109 66.5763 149.366 65.5279 150.168 64.1649L170.27 29.5662L177.11 32.1174L156.59 76.0123C156.59 76.0123 154.81 96.9813 157.985 104.076C161.161 111.17 163.988 119.208 163.988 119.208C163.988 119.208 159.73 126.932 143.468 126.932C127.205 126.932 121.272 121.165 121.272 121.165L127.205 103.132L124.029 92.6477L121.9 103.132V111.17C121.9 111.17 115.514 114.106 114.397 114.735C112.199 112.988 110.942 110.891 109.895 107.186C108.848 103.482 114.642 102.957 114.991 100.197C115.34 97.4356 115.863 83.0369 115.863 83.0369C115.863 83.0369 116.526 77.2355 120.749 75.3833C124.972 73.531 129.159 72.203 129.159 72.203Z" fill="#474747"/>
<path d="M150.447 59.5868L169.013 29.0071L176.447 32.0825L155.961 76.0124C155.961 76.0124 155.647 79.7169 155.542 84.5398" stroke="black" strokeWidth="1.5" strokeMiterlimit="10" strokeLinecap="round"/>
<path d="M113.141 82.1634C113.141 82.1634 113.141 75.9776 117.399 74.1254C121.656 72.2731 128.008 71.0499 128.008 71.0499C128.008 71.0499 129.404 76.6067 135.79 75.9776C142.177 75.3485 141.095 71.0499 141.095 71.0499C141.095 71.0499 141.374 66.926 143.817 66.2271" stroke="black" strokeWidth="1.5" strokeMiterlimit="10" strokeLinecap="round"/>
<path d="M113.001 96.1076C113.001 95.5135 113.036 94.9194 113.036 94.2554" stroke="black" strokeWidth="1.5" strokeMiterlimit="10" strokeLinecap="round"/>
<path d="M155.438 88.5588C155.438 94.3952 155.856 100.756 157.357 104.076C160.533 111.17 163.36 119.208 163.36 119.208C163.36 119.208 159.137 126.932 142.874 126.932C126.611 126.932 121.377 121.166 121.377 121.166L126.611 103.132L123.436 92.6478L121.307 103.132V111.17C121.307 111.17 115.06 113.547 114.257 115.015C112.233 112.778 110.767 110.052 110 107.151C108.953 103.447 112.478 102.503 112.826 99.7423" stroke="black" strokeWidth="1.5" strokeMiterlimit="10" strokeLinecap="round"/>
<path d="M121.342 121.166C121.342 121.166 117.678 129.308 114.327 137.102C113.909 138.115 113.455 139.094 113.036 140.073C111.117 144.616 109.476 148.635 108.988 150.277C107.557 155.24 106.056 163.348 112.059 164.431C118.062 165.515 143.782 158.77 143.782 158.77V154.296L128.671 150.277C126.856 153.318 124.588 156.044 121.97 158.42" stroke="black" strokeWidth="1.5" strokeMiterlimit="10" strokeLinecap="round"/>
<path d="M134.569 137.696C137.116 133.642 140.327 130.252 143.782 130.462C152.123 130.951 159.8 147.552 159.8 147.552C159.8 147.552 160.603 151.396 162.278 154.332" stroke="black" strokeWidth="1.5" strokeMiterlimit="10" strokeLinecap="round"/>
<path d="M128.706 150.312C129.892 146.853 131.358 143.497 133.103 140.247" stroke="black" strokeWidth="1.5" strokeMiterlimit="10" strokeLinecap="round"/>
<path d="M142.874 146.154L159.8 147.552" stroke="black" strokeWidth="1.5" strokeMiterlimit="10" strokeLinecap="round"/>
<path d="M174.423 144.546C176.342 149.194 177.913 153.283 178.506 155.415C180.181 161.531 178.646 163.942 175.191 164.571" stroke="black" strokeWidth="1.5" strokeMiterlimit="10" strokeLinecap="round"/>
<path d="M171.282 137.102C171.875 138.5 172.503 139.933 173.062 141.331" stroke="black" strokeWidth="1.5" strokeMiterlimit="10" strokeLinecap="round"/>
<path d="M163.36 119.208C163.36 119.208 166.326 125.709 169.642 133.328" stroke="black" strokeWidth="1.5" strokeMiterlimit="10" strokeLinecap="round"/>
<path d="M118.132 119.523L122.04 119.278C122.04 119.278 122.738 119.698 121.203 120.781C119.074 122.284 117.469 123.193 115.724 122.668" stroke="black" strokeWidth="1.5" strokeMiterlimit="10" strokeLinecap="round"/>
<path d="M115.723 122.633C114.258 122.179 113.246 121.934 113.246 119.628C113.246 117.321 113.28 114.001 119.458 112.219C125.635 110.437 120.086 116.063 117.852 115.923" stroke="black" strokeWidth="1.5" strokeMiterlimit="10" strokeLinecap="round"/>
<path d="M115.13 47.984C116.875 50.745 120.051 52.2827 123.331 51.8982C129.055 51.374 133.243 47.5647 134.708 48.8228C136.174 50.0809 136.628 52.3526 136.628 52.3526C136.628 52.3526 137.43 51.1993 138.408 51.7585C139.245 52.2128 139.036 53.6457 138.687 54.4145C138.477 54.9038 137.989 56.0571 137.57 56.791C137.919 58.0142 138.233 61.4391 138.233 61.4391C138.233 61.4391 138.966 60.0062 141.06 57.7696C142.84 55.8823 144.585 52.9816 144.585 48.2287C144.585 30.8944 132.3 41.0293 124.937 37.1501C120.051 34.5989 122.075 44.8387 119.074 44.3844C116.422 43.965 113.734 45.2581 115.13 47.984Z" fill="#416AE4"/>
<path d="M128.566 123.018H119.144C118.969 123.018 118.795 122.913 118.725 122.773L115.724 118.649C115.305 118.09 115.584 117.077 116.142 117.077H125.111C125.286 117.077 125.46 117.182 125.53 117.321L128.531 121.445C128.95 122.004 129.125 123.018 128.566 123.018Z" fill="#D6E8EF"/>
<path d="M118.829 123.158L115.688 118.475" stroke="black" strokeWidth="1.5" strokeLinecap="round" strokeLinejoin="round"/>
<path d="M127.554 119.243L126.018 117.007C125.913 116.832 125.739 116.727 125.564 116.727H121.865" stroke="black" strokeWidth="1.5" strokeLinecap="round" strokeLinejoin="round"/>
<path d="M121.133 123.437H128.741C129.334 123.437 129.613 122.319 129.194 121.655" stroke="black" strokeWidth="1.5" strokeLinecap="round" strokeLinejoin="round"/>
<path d="M121.726 121.76H126.088" stroke="black" strokeWidth="1.5" strokeLinecap="round" strokeLinejoin="round"/>
<path d="M142.874 152.444L168.14 162.544" stroke="black" strokeWidth="1.5" strokeMiterlimit="10" strokeLinecap="round"/>
<path d="M121.447 55.9521C121.272 58.4335 119.632 62.6273 122.075 65.1086C122.633 65.6678 123.331 66.0172 124.099 66.192" stroke="black" strokeWidth="1.5" strokeMiterlimit="10" strokeLinecap="round"/>
<path d="M143.782 154.331C143.782 154.331 145.282 154.786 146.155 153.737C147.027 152.689 146.713 151.78 148.423 152.269C151.773 153.283 158.718 158.77 158.718 158.77L149.226 158.315L143.817 158.805V154.331H143.782Z" fill="#D6E8EF"/>
<path d="M149.296 158.246L143.887 158.735V154.261" stroke="black" strokeWidth="1.5" strokeMiterlimit="10" strokeLinecap="round"/>
<path d="M148.493 152.2C151.843 153.213 158.788 158.7 158.788 158.7L152.751 158.351" stroke="black" strokeWidth="1.5" strokeMiterlimit="10" strokeLinecap="round"/>
<path d="M173.655 22.1922C173.655 22.1922 171.596 17.6839 172.119 16.95C173.725 14.5735 175.679 17.5091 175.679 17.5091" stroke="black" strokeWidth="1.5" strokeMiterlimit="10" strokeLinecap="round"/>
<path d="M25.86 60.6702C25.5808 60.4955 25.511 60.146 25.6506 59.8664C25.7553 59.6218 26.0344 59.5169 26.2787 59.6218L38.5979 64.4097L42.5414 60.5304C43.03 60.0062 43.03 59.1674 42.5414 58.6432C42.332 58.3986 42.0528 58.2588 41.7388 58.1889L17.24 53.9252C16.6817 53.8553 16.1931 54.2397 16.0884 54.764C16.0884 54.7989 16.0884 54.8339 16.0884 54.8688C16.0884 55.0785 16.1233 55.3231 16.228 55.5328L25.7902 74.5796C26.0693 75.2436 26.872 75.5581 27.5351 75.2436C27.5351 75.2436 27.5351 75.2436 27.57 75.2436C27.6747 75.1737 27.7794 75.1038 27.8492 75.0339L32.6652 70.246L37.7603 72.5177C38.2489 72.7273 38.8073 72.5176 39.0167 72.0633C39.0167 72.0284 39.0516 71.9934 39.0516 71.9585C39.1214 71.6789 39.1214 71.3993 39.0167 71.1547L37.865 68.219L25.86 60.6702Z" fill="#A6B6FA"/>
<path d="M206.948 79.5771C205.448 76.9909 203.842 74.4746 202.062 72.0981" stroke="#E2E9EB" strokeWidth="1.5" strokeMiterlimit="10" strokeLinecap="round"/>
<path d="M149.47 117.146C160.777 119.488 172.294 121.061 183.636 121.445C218.395 122.598 217.069 101.21 209.426 84.365" stroke="#E2E9EB" strokeWidth="1.5" strokeMiterlimit="10" strokeLinecap="round"/>
<path d="M42.4717 74.8591C42.4717 74.8591 67.8429 90.0616 102.357 103.132" stroke="#E2E9EB" strokeWidth="1.5" strokeMiterlimit="10" strokeLinecap="round"/>
<path fill-rule="evenodd" clip-rule="evenodd" d="M197.979 64.6194L180.25 60.8101L182.938 50.3606L200.631 52.3526L197.979 64.6194Z" fill="#D6E8EF"/>
<path d="M201.155 50.9895L198.154 64.9688L178.087 60.6353L179.413 54.1349M180.251 50.3255L181.088 46.6909L180.251 50.3255Z" stroke="#030303" strokeWidth="1.5" strokeLinecap="round" strokeLinejoin="round"/>
<path d="M188.207 54.2397L178.087 60.6353L198.154 64.9688L191.767 55.0086" stroke="#030303" strokeWidth="1.5" strokeLinecap="round" strokeLinejoin="round"/>
<path d="M185.311 51.0595L189.673 55.6027L201.155 50.9896L193.163 49.2771" stroke="#030303" strokeWidth="1.5" strokeLinecap="round" strokeLinejoin="round"/>
<path d="M181.088 46.6909L183.984 49.6965" stroke="#030303" strokeWidth="1.5" strokeLinecap="round" strokeLinejoin="round"/>
<path d="M106.58 77.3755V64.864C106.58 63.4311 105.429 62.2778 103.998 62.2778H81.0346C79.6038 62.2778 78.4521 63.4311 78.4521 64.864V77.3755C78.4521 78.8083 79.6038 79.9616 81.0346 79.9616H92.5162L99.6006 84.5399L99.5308 79.9616H103.998C105.429 79.9616 106.58 78.8083 106.58 77.3755Z" stroke="black" strokeWidth="1.5" strokeLinecap="round" strokeLinejoin="round"/>
<path d="M98.4835 72.7622C99.3908 72.7622 100.124 72.0283 100.124 71.1196C100.124 70.211 99.3908 69.4771 98.4835 69.4771C97.5761 69.4771 96.8433 70.211 96.8433 71.1196C96.8782 72.0283 97.611 72.7622 98.4835 72.7622Z" fill="#4567EC"/>
<path d="M92.5157 72.7622C93.4231 72.7622 94.156 72.0283 94.156 71.1196C94.156 70.211 93.4231 69.4771 92.5157 69.4771C91.6084 69.4771 90.8755 70.211 90.8755 71.1196C90.9104 72.0283 91.6433 72.7622 92.5157 72.7622Z" fill="#4567EC"/>
<path d="M86.5831 72.7622C87.4905 72.7622 88.2233 72.0283 88.2233 71.1196C88.2233 70.211 87.4905 69.4771 86.5831 69.4771C85.6757 69.4771 84.9429 70.211 84.9429 71.1196C84.9429 72.0283 85.6757 72.7622 86.5831 72.7622C86.5482 72.7622 86.5482 72.7622 86.5831 72.7622Z" fill="#4567EC"/>
<path d="M63.9341 38.443C70.1018 38.443 75.1016 33.436 75.1016 27.2596C75.1016 21.0832 70.1018 16.0762 63.9341 16.0762C57.7665 16.0762 52.7666 21.0832 52.7666 27.2596C52.7666 33.436 57.7665 38.443 63.9341 38.443Z" fill="white"/>
<path d="M72.9029 33.8301C72.5539 34.2145 72.17 34.5989 71.7861 34.9484" stroke="#466BF0" strokeWidth="1.5" strokeLinecap="round" strokeLinejoin="round"/>
<path d="M68.7852 36.8007C62.9223 39.3519 56.0822 36.6259 53.5695 30.7546C51.0219 24.8833 53.744 18.0335 59.6069 15.5172C65.4699 13.0009 72.31 15.692 74.8227 21.5633C75.8696 23.9747 76.0441 26.6657 75.3811 29.2169" stroke="#466BF0" strokeWidth="1.5" strokeLinecap="round" strokeLinejoin="round"/>
<path d="M59.8159 21.6679L66.1325 20.0603C66.1325 20.0603 66.4117 24.1842 63.9688 24.8133C61.5259 25.4423 59.8159 21.6679 59.8159 21.6679Z" fill="white"/>
<path d="M68.8199 30.7195L62.5033 32.3271C62.5033 32.3271 62.2241 28.2032 64.667 27.5741C67.1099 26.9451 68.8199 30.7195 68.8199 30.7195Z" fill="white"/>
<path d="M68.8896 30.8244L68.7151 30.1254C68.4708 29.1818 67.8775 28.378 67.0748 27.8887L64.3179 26.2461L65.9581 23.4852C66.4467 22.6465 66.5863 21.6679 66.3769 20.7593L66.2024 20.0603" stroke="#466BF0" strokeWidth="1.5" strokeLinecap="round" strokeLinejoin="round"/>
<path d="M59.7812 21.668L59.9557 22.3669C60.2 23.3105 60.7933 24.1143 61.6309 24.6036L64.3529 26.2462L62.7127 28.9721C62.2241 29.8109 62.0496 30.7895 62.2939 31.7331L62.4684 32.432" stroke="#466BF0" strokeWidth="1.5" strokeLinecap="round" strokeLinejoin="round"/>
<path d="M67.1447 19.4314L58.3154 21.6681" stroke="#466BF0" strokeWidth="1.5" strokeLinecap="round" strokeLinejoin="round"/>
<path d="M70.0764 30.8594L61.2471 33.0961" stroke="#466BF0" strokeWidth="1.5" strokeLinecap="round" strokeLinejoin="round"/>
<path d="M63.4805 22.7864L65.016 28.9722" stroke="#466BF0" strokeWidth="1.5" strokeLinecap="round" strokeLinejoin="round"/>
<g opacity="0.5">
<path opacity="0.5" d="M61.7354 89.782L80.0222 99.5675" stroke="#E2E9EB" strokeWidth="1.5" strokeMiterlimit="10" strokeLinecap="round"/>
<path opacity="0.5" d="M45.752 72.0981L67.8427 83.9456" stroke="#E2E9EB" strokeWidth="1.5" strokeMiterlimit="10" strokeLinecap="round"/>
</g>
<path d="M107.871 28.343C107.103 29.9856 107.034 31.8728 107.662 33.5853C108.011 34.3541 108.395 35.088 108.848 35.787C109.581 37.2199 109.965 38.7925 109.965 40.4002C109.93 42.0777 109.372 43.7202 108.43 44.6289" stroke="#ABB8EA" strokeWidth="1.5" strokeMiterlimit="10" strokeLinecap="round"/>
<path d="M54.4764 90.2363C53.7435 91.2149 53.6388 92.5429 54.267 93.5914C54.6159 94.0806 55.0347 94.5699 55.4535 95.0242C56.1515 95.828 56.5703 96.8765 56.5703 97.9948C56.5354 99.1132 55.977 100.127 55.0347 100.721" stroke="#ABB8EA" strokeWidth="1.5" strokeMiterlimit="10" strokeLinecap="round"/>
<path d="M218.395 85.6233C219.197 84.4701 219.302 83.0022 218.744 81.7441C218.395 81.15 218.046 80.5908 217.627 80.0666C216.929 79.0531 216.615 77.8299 216.65 76.6067C216.684 75.3835 217.313 74.2652 218.325 73.5312" stroke="#ABB8EA" strokeWidth="1.5" strokeMiterlimit="10" strokeLinecap="round"/>
<path d="M37.9349 48.3683C38.5282 47.7393 38.7027 46.8306 38.4584 45.9918C38.2839 45.6074 38.1094 45.223 37.9 44.8735C37.5511 44.1745 37.4115 43.4057 37.5511 42.6718C37.6906 41.9029 38.1443 41.2738 38.8074 40.8894" stroke="#ABB8EA" strokeWidth="1.5" strokeMiterlimit="10" strokeLinecap="round"/>
<path d="M207.89 125.779C208.623 126.757 208.728 128.085 208.1 129.134C207.751 129.623 207.332 130.112 206.913 130.567C206.215 131.371 205.796 132.419 205.796 133.537C205.831 134.656 206.39 135.669 207.332 136.263" stroke="#ABB8EA" strokeWidth="1.5" strokeMiterlimit="10" strokeLinecap="round"/>
<path d="M171.666 65.1436L172.887 67.6249L175.609 68.0093L173.62 69.9315L174.109 72.6574L171.666 71.3643L169.223 72.6574L169.676 69.9315L167.722 68.0093L170.444 67.6249L171.666 65.1436Z" fill="#A8B8F9"/>
<path d="M155.507 23.8347L156.275 25.4074L158.02 25.687L156.764 26.9102L157.078 28.6226L155.507 27.8188L153.937 28.6226L154.251 26.9102L152.995 25.687L154.74 25.4074L155.507 23.8347Z" fill="#7691F4"/>
<path d="M62.9919 65.7378L63.3758 66.5067L64.2134 66.6464L63.5852 67.2406L63.7248 68.0793L62.9919 67.6949L62.2242 68.0793L62.3638 67.2406L61.7705 66.6464L62.6081 66.5067L62.9919 65.7378Z" fill="#A8B8F9"/>
<path d="M12.5632 75.3833L13.5404 77.3404L15.7041 77.6549L14.1337 79.1927L14.4826 81.3595L12.5632 80.3459L10.6089 81.3595L10.9928 79.1927L9.42236 77.6549L11.5861 77.3404L12.5632 75.3833Z" fill="#7691F4"/>
<path d="M88.0492 37.7791L88.7471 39.2119L90.2827 39.4216L89.1659 40.505L89.4451 42.0777L88.0492 41.3438L86.6532 42.0777L86.8975 40.505L85.7808 39.4216L87.3512 39.2119L88.0492 37.7791Z" fill="#7691F4"/>
<path d="M114.083 14.3638L114.781 15.8316L116.387 16.0762L115.235 17.1946L115.514 18.8022L114.083 18.0683L112.618 18.8022L112.897 17.1946L111.745 16.0762L113.35 15.8316L114.083 14.3638Z" fill="#7691F4"/>
<path d="M48.9277 45.4329H54.4766L53.0109 50.9547L48.9277 45.4329Z" fill="#466BF0"/>
<path d="M104.067 88.559L105.673 85.3438L108.604 90.9704L105.847 92.0189L104.067 88.559Z" fill="#D7E9F1"/>
<path d="M190.092 113.687C198.804 113.687 205.866 106.317 205.866 97.226C205.866 88.1351 198.804 80.7654 190.092 80.7654C181.38 80.7654 174.318 88.1351 174.318 97.226C174.318 106.317 181.38 113.687 190.092 113.687Z" fill="#47B26B"/>
<path d="M190.65 113.721C189.429 113.896 188.242 113.931 187.021 113.861C185.485 113.756 183.95 113.477 182.484 112.988" stroke="black" strokeWidth="1.5" strokeMiterlimit="10" strokeLinecap="round"/>
<path d="M179.553 111.66C170.968 106.907 167.862 96.1077 172.608 87.5454C177.354 78.9481 188.138 75.8377 196.688 80.5907C205.238 85.3437 208.379 96.1427 203.633 104.705C201.678 108.235 198.607 110.996 194.908 112.533" stroke="black" strokeWidth="1.5" strokeMiterlimit="10" strokeLinecap="round"/>
<path d="M196.723 89.7471L183.985 102.503L179.483 97.9949" stroke="white" strokeWidth="1.5" strokeMiterlimit="10" strokeLinecap="round"/>
<path d="M65.9585 121.236L62.8525 116.657L72.8684 111.625L65.9585 121.236Z" fill="#466BF0"/>
<path d="M132.266 87.6852C132.266 88.8385 133.313 89.8171 133.382 89.852L136.384 92.7527C136.453 92.8226 136.523 92.8576 136.593 92.8226C136.663 92.8226 136.733 92.7877 136.802 92.7527L139.804 89.852C139.839 89.8171 140.886 88.8385 140.886 87.6852C140.886 86.2873 140.013 85.4486 138.582 85.4486C137.745 85.4486 136.942 86.1126 136.558 86.497C136.174 86.1126 135.372 85.4486 134.534 85.4486C133.103 85.4136 132.266 86.2524 132.266 87.6852Z" fill="#ABB8EA"/>
<path d="M212.951 40.3303L216.685 42.4622L215.359 48.1937L212.811 48.8577L212.951 40.3303Z" fill="#A8B8F9"/>
<path d="M88.5376 14.6782L91.4342 15.4471L89.4799 19.7807L88.5376 14.6782Z" fill="#A8B8F9"/>
</svg>
