<svg width="209" height="202" viewBox="0 0 209 202" fill="none" xmlns="http://www.w3.org/2000/svg">
<path d="M106.713 194.445C154.786 194.445 193.757 155.444 193.757 107.335C193.757 59.2256 154.786 20.2252 106.713 20.2252C58.64 20.2252 19.6692 59.2256 19.6692 107.335C19.6692 155.444 58.64 194.445 106.713 194.445Z" fill="#F2F5F8"/>
<path d="M145.158 189.837C145.158 189.837 139.709 163.317 145.158 150.45C152.188 133.852 148.751 121.935 139.918 118.155L126.438 121.434L128.243 193.839L145.158 189.837Z" fill="white"/>
<path d="M120.768 29.554C120.768 29.554 126.182 21.4393 130.995 26.2558C135.808 31.0724 130.544 49.3089 126.892 51.1286" fill="white"/>
<path d="M120.768 29.554C120.768 29.554 126.182 21.4393 130.995 26.2558C135.808 31.0724 130.544 49.3089 126.892 51.1286" stroke="black" strokeWidth="1.5" strokeLinecap="round" strokeLinejoin="round"/>
<path d="M118.913 32.5017C118.913 32.5017 124.327 24.3871 129.137 29.2036C133.947 34.0202 128.689 52.2566 125.037 54.0763" fill="#A6B6FA"/>
<path d="M114.574 7.54612L68.4318 20.0142C66.4437 20.5514 65.2672 22.5998 65.804 24.5894L92.8134 124.697C93.3502 126.687 95.397 127.864 97.3851 127.327L143.527 114.859C145.515 114.322 146.692 112.273 146.155 110.284L119.145 10.1759C118.609 8.18631 116.562 7.00891 114.574 7.54612Z" fill="#D7E9F1"/>
<path d="M86.7949 9.53159L90.8185 8.44348" stroke="black" strokeWidth="1.5" strokeLinecap="round" strokeLinejoin="round"/>
<path d="M83.1399 10.5183L60.6971 16.5859C59.8646 16.8133 59.156 17.3613 58.7261 18.11C58.2961 18.8588 58.1799 19.7475 58.4028 20.5817L87.0528 126.739C87.2801 127.573 87.8276 128.282 88.5758 128.712C89.324 129.142 90.212 129.259 91.0457 129.036L143.435 114.878C144.267 114.65 144.976 114.103 145.406 113.354C145.836 112.605 145.952 111.716 145.729 110.882L136.595 77.0094L128.093 45.3284" stroke="black" strokeWidth="1.5" strokeLinecap="round" strokeLinejoin="round"/>
<path d="M106.713 4.14646L113.092 2.42209C113.926 2.20002 114.814 2.31714 115.562 2.74789C116.31 3.17864 116.858 3.88804 117.085 4.72125L126.849 40.8869" stroke="black" strokeWidth="1.5" strokeLinecap="round" strokeLinejoin="round"/>
<path d="M105.07 119.329L126.438 113.553" stroke="black" strokeWidth="1.5" strokeLinecap="round" strokeLinejoin="round"/>
<path d="M65.0247 26.0561L118.912 11.4896" stroke="black" strokeWidth="1.5" strokeLinecap="round" strokeLinejoin="round"/>
<path d="M145.397 190.762C145.397 190.762 136.432 167.823 140.161 154.059C144.46 138.226 150.106 128.943 140.388 116.479" stroke="black" strokeWidth="1.5" strokeLinecap="round" strokeLinejoin="round"/>
<path d="M136.386 118.155L102.069 126.644L94.6545 183.567L98.3986 200.429L139.764 190.993C139.764 190.993 133.173 163.302 139.764 150.662C146.356 138.023 145.062 123.574 136.386 118.155Z" fill="white"/>
<path d="M143.539 75.8415C143.539 75.8415 133.403 82.6283 133.437 94.6682C133.471 106.708 140.114 105.168 143.109 102.645C145.849 100.336 146.18 95.1784 150.13 90.1528C154.891 84.0853 152.28 75.1807 147.707 74.1878C140.311 72.5864 135.747 73.8497 135.747 73.8497L137.393 79.9573" fill="white"/>
<path d="M141.939 76.9326C141.939 76.9326 132.891 83.8331 132.924 95.8853C132.958 107.937 140.824 105.171 143.109 102.647C145.201 100.339 143.96 96.2695 146.97 91.2439C150.603 85.1764 148.152 75.4049 144.66 74.4152C139.015 72.8138 135.753 73.8527 135.753 73.8527L137.246 81.0668" fill="#A6B6FA"/>
<path d="M143.539 75.8415C143.539 75.8415 133.403 82.6283 133.437 94.6682C133.471 106.708 140.114 105.168 143.109 102.645C145.849 100.336 146.18 95.1784 150.13 90.1528C154.891 84.0853 152.28 75.1807 147.707 74.1878C140.311 72.5864 135.747 73.8497 135.747 73.8497L137.393 79.9573" stroke="black" strokeWidth="1.5" strokeLinecap="round" strokeLinejoin="round"/>
<path d="M138.941 52.7546C138.941 52.7546 128.016 58.776 128.078 69.4542C128.139 80.1324 135.268 78.7646 138.493 76.5238C141.441 74.4767 141.807 69.903 146.052 65.4583C151.165 60.067 148.349 52.1736 143.435 51.2915C135.471 49.8683 130.556 50.9841 130.556 50.9841L132.325 56.4" fill="white"/>
<path d="M137.218 53.7105C137.218 53.7105 127.463 59.858 127.512 70.53C127.562 81.202 136.017 78.7646 138.48 76.5269C140.729 74.4798 139.402 70.8712 142.636 66.4143C146.549 61.0322 143.908 52.3673 140.148 51.4882C134.07 50.0681 130.553 50.9903 130.553 50.9903L132.166 57.3744" fill="#A6B6FA"/>
<path d="M138.941 52.7546C138.941 52.7546 128.016 58.776 128.078 69.4542C128.139 80.1324 135.268 78.7646 138.493 76.5238C141.441 74.4767 141.807 69.903 146.052 65.4583C151.165 60.067 148.349 52.1736 143.435 51.2915C135.471 49.8683 130.556 50.9841 130.556 50.9841L132.325 56.4" stroke="black" strokeWidth="1.5" strokeLinecap="round" strokeLinejoin="round"/>
<path d="M109.502 141.927C101.743 114.838 86.6414 114.349 86.6414 114.349C87.1445 109.093 87.9485 103.871 89.0493 98.707C93.8622 93.9027 99.2741 87.2604 98.6721 79.4346C98.0701 71.6089 86.6414 78.2297 79.4235 83.6487C72.2057 89.0677 70.4028 91.4745 68.5968 96.8904C66.7908 102.306 62.583 119.765 62.583 121.573C62.583 121.573 60.777 143.242 84.8384 156.487C98.0701 184.178 99.2741 200.442 99.2741 200.442" fill="white"/>
<path d="M102.364 199.833C102.364 199.833 102.692 181.75 89.4638 154.059C65.4024 140.817 66.3054 125.295 66.3054 125.295C66.3054 123.487 70.5163 106.032 72.3223 100.613C74.1283 95.1937 75.9312 92.787 83.149 87.368C90.3668 81.949 97.1731 74.3138 97.775 82.1426C98.377 89.9714 91.8995 95.9314 87.0866 100.736C85.2836 109.152 84.9765 113.553 84.9765 113.553C84.9765 113.553 99.105 120.669 103.565 126.119L136.392 118.158C136.392 118.158 147.627 126.61 136.555 154.594C131.269 167.946 143.057 199.375 143.057 199.375L102.364 199.833Z" fill="#A6B6FA"/>
<path d="M69.3584 92.9099C70.9617 89.8853 73.3512 87.5462 78.548 83.6487C85.7659 78.2297 97.1946 71.6089 97.7966 79.4346C98.3985 87.2604 92.9837 93.9027 88.1738 98.707C87.073 103.871 86.269 109.093 85.7658 114.349C85.7658 114.349 100.865 114.838 108.623 141.927" stroke="black" strokeWidth="1.5" strokeLinecap="round" strokeLinejoin="round"/>
<path d="M63.4031 113.24C64.7821 107.369 66.6649 100.066 67.7215 96.8904" stroke="black" strokeWidth="1.5" strokeLinecap="round" strokeLinejoin="round"/>
<path d="M94.2705 201.25C94.2705 201.25 97.1945 184.185 83.9629 156.493C59.8922 143.242 61.7044 121.573 61.7044 121.573" stroke="black" strokeWidth="1.5" strokeLinecap="round" strokeLinejoin="round"/>
<path d="M100.668 71.1601C110.38 71.1601 118.252 63.2816 118.252 53.563C118.252 43.8443 110.38 35.9658 100.668 35.9658C90.957 35.9658 83.0845 43.8443 83.0845 53.563C83.0845 63.2816 90.957 71.1601 100.668 71.1601Z" fill="#3E61EE"/>
<path d="M105.042 60.8538L94.5994 63.6725L98.8072 52.1951C98.9294 51.8637 99.1781 51.5945 99.4986 51.4466C99.8192 51.2988 100.185 51.2844 100.516 51.4067C100.848 51.529 101.117 51.7779 101.264 52.0987C101.412 52.4195 101.426 52.7859 101.304 53.1172L98.8686 59.7688L104.342 58.2873C104.511 58.2417 104.687 58.2298 104.86 58.2523C105.034 58.2748 105.201 58.3312 105.352 58.4184C105.504 58.5056 105.637 58.6219 105.744 58.7605C105.85 58.8991 105.929 59.0574 105.974 59.2263C106.02 59.3952 106.032 59.5715 106.009 59.745C105.987 59.9185 105.93 60.0859 105.843 60.2376C105.756 60.3893 105.64 60.5224 105.501 60.6291C105.363 60.7359 105.205 60.8144 105.036 60.86L105.042 60.8538Z" fill="white"/>
<path d="M109.284 59.7934C108.943 59.8846 108.58 59.8368 108.274 59.6604C107.968 59.4841 107.745 59.1937 107.653 58.8528L104.376 46.7147L92.7564 49.8591C92.5876 49.9045 92.4115 49.9162 92.2382 49.8935C92.0649 49.8708 91.8977 49.8142 91.7463 49.7268C91.5948 49.6395 91.4621 49.5232 91.3555 49.3845C91.249 49.2458 91.1708 49.0874 91.1255 48.9185C91.0801 48.7496 91.0684 48.5734 91.0911 48.3999C91.1138 48.2265 91.1703 48.0592 91.2576 47.9076C91.3449 47.7561 91.4611 47.6232 91.5997 47.5166C91.7383 47.41 91.8965 47.3318 92.0653 47.2864L106.264 43.4473L110.233 58.1612C110.278 58.3308 110.289 58.5076 110.266 58.6816C110.243 58.8556 110.186 59.0232 110.098 59.1749C110.009 59.3266 109.892 59.4594 109.752 59.5655C109.613 59.6717 109.453 59.7491 109.284 59.7934Z" fill="white"/>
<path d="M38.4418 169.403C47.5051 169.403 54.8523 161.75 54.8523 152.31C54.8523 142.87 47.5051 135.217 38.4418 135.217C29.3785 135.217 22.0312 142.87 22.0312 152.31C22.0312 161.75 29.3785 169.403 38.4418 169.403Z" fill="#47B26B"/>
<path d="M39.0221 169.428C36.1647 169.838 33.2511 169.578 30.5112 168.668" stroke="black" strokeWidth="1.5" strokeMiterlimit="10" strokeLinecap="round"/>
<path d="M27.4861 167.319C23.8315 165.3 20.9702 162.099 19.3708 158.24C17.7714 154.381 17.5286 150.092 18.6822 146.077C19.8358 142.062 22.3175 138.558 25.7208 136.139C29.1241 133.719 33.2475 132.528 37.4157 132.76C41.5839 132.992 45.5499 134.633 48.6644 137.415C51.7788 140.197 53.8572 143.954 54.5591 148.073C55.2611 152.191 54.545 156.426 52.5281 160.084C50.5112 163.742 47.3131 166.606 43.4574 168.207" stroke="black" strokeWidth="1.5" strokeMiterlimit="10" strokeLinecap="round"/>
<path d="M45.3524 144.549L32.1208 157.79L27.4338 153.1" stroke="white" strokeWidth="1.5" strokeMiterlimit="10" strokeLinecap="round"/>
<path d="M185.848 80.3137C197.098 80.3137 206.217 70.8154 206.217 59.0987C206.217 47.382 197.098 37.8838 185.848 37.8838C174.598 37.8838 165.478 47.382 165.478 59.0987C165.478 70.8154 174.598 80.3137 185.848 80.3137Z" fill="#A6B6FA"/>
<path d="M188.624 80.3352C185.076 80.8396 181.459 80.5113 178.059 79.3762" stroke="black" strokeWidth="1.5" strokeMiterlimit="10" strokeLinecap="round"/>
<path d="M174.302 77.7195C169.764 75.2139 166.211 71.2404 164.225 66.4498C162.238 61.6592 161.936 56.3355 163.367 51.3506C164.799 46.3657 167.88 42.0151 172.105 39.0113C176.33 36.0075 181.45 34.5286 186.624 34.8169C191.799 35.1051 196.723 37.1434 200.589 40.5979C204.455 44.0523 207.034 48.7182 207.904 53.8314C208.774 58.9445 207.884 64.2018 205.378 68.7421C202.873 73.2825 198.901 76.8368 194.113 78.823" stroke="black" strokeWidth="1.5" strokeMiterlimit="10" strokeLinecap="round"/>
<path d="M175.301 53.4278C174.438 56.1111 176.17 59.148 176.222 59.2679L181.013 68.2186C181.105 68.3881 181.259 68.5151 181.442 68.5725C181.626 68.6299 181.825 68.6132 181.996 68.526L191.134 64.0506C191.247 64.0014 194.426 62.5476 195.292 59.8673C196.349 56.5937 194.985 53.9933 191.644 52.9145C189.69 52.2813 187.362 53.2218 186.198 53.8181C185.584 52.6624 184.263 50.5292 182.31 49.8991C178.986 48.8448 176.357 50.1542 175.301 53.4278Z" fill="white"/>
<path d="M71.1584 162.939L71.315 165.312L66.7847 167.082L66.5298 163.246L71.1584 162.939Z" fill="#A6B6FA"/>
<path d="M198.944 102.331L203.192 105.082L203.637 110.12L196.779 105.681L198.944 102.331Z" fill="white"/>
<path d="M54.6312 66.3005L58.8758 69.0485L59.3243 74.0894L52.4658 69.6509L54.6312 66.3005Z" fill="#3E61EE"/>
<path d="M76.0971 90.4724L77.4455 92.1968L73.4926 96.998L71.3149 94.2101L76.0971 90.4724Z" fill="#A6B6FA"/>
<path d="M101.188 110.086L104.234 111.113L107.008 109.078L102.084 107.418L101.188 110.086Z" fill="#A6B6FA"/>
<path d="M199.122 146.242L197.633 144.921L200.379 139.972L202.787 142.108L199.122 146.242Z" fill="white"/>
<path d="M1.79677 126.73L0 125.138L5.69746 116.479L8.59687 119.052L1.79677 126.73Z" fill="white"/>
<path d="M154.378 52.4964H153.008L152.164 46.6133H154.378V52.4964Z" fill="#A6B6FA"/>
<path d="M166.63 110.584L168.405 107.818L166.599 104.252L163.73 108.721L166.63 110.584Z" fill="#3E61EE"/>
<path d="M178.655 125.627C179.464 125.627 180.12 124.97 180.12 124.161C180.12 123.351 179.464 122.694 178.655 122.694C177.845 122.694 177.189 123.351 177.189 124.161C177.189 124.97 177.845 125.627 178.655 125.627Z" fill="black"/>
<path d="M188.029 125.627C188.838 125.627 189.494 124.97 189.494 124.161C189.494 123.351 188.838 122.694 188.029 122.694C187.219 122.694 186.563 123.351 186.563 124.161C186.563 124.97 187.219 125.627 188.029 125.627Z" fill="black"/>
<path d="M178.655 135.011C179.464 135.011 180.12 134.355 180.12 133.545C180.12 132.735 179.464 132.079 178.655 132.079C177.845 132.079 177.189 132.735 177.189 133.545C177.189 134.355 177.845 135.011 178.655 135.011Z" fill="black"/>
<path d="M188.029 135.011C188.838 135.011 189.494 134.355 189.494 133.545C189.494 132.735 188.838 132.079 188.029 132.079C187.219 132.079 186.563 132.735 186.563 133.545C186.563 134.355 187.219 135.011 188.029 135.011Z" fill="black"/>
<path d="M178.655 144.395C179.464 144.395 180.12 143.739 180.12 142.929C180.12 142.119 179.464 141.463 178.655 141.463C177.845 141.463 177.189 142.119 177.189 142.929C177.189 143.739 177.845 144.395 178.655 144.395Z" fill="black"/>
<path d="M188.029 144.395C188.838 144.395 189.494 143.739 189.494 142.929C189.494 142.119 188.838 141.463 188.029 141.463C187.219 141.463 186.563 142.119 186.563 142.929C186.563 143.739 187.219 144.395 188.029 144.395Z" fill="black"/>
<path d="M178.655 153.776C179.464 153.776 180.12 153.12 180.12 152.31C180.12 151.5 179.464 150.844 178.655 150.844C177.845 150.844 177.189 151.5 177.189 152.31C177.189 153.12 177.845 153.776 178.655 153.776Z" fill="black"/>
<path d="M188.029 153.776C188.838 153.776 189.494 153.12 189.494 152.31C189.494 151.5 188.838 150.844 188.029 150.844C187.219 150.844 186.563 151.5 186.563 152.31C186.563 153.12 187.219 153.776 188.029 153.776Z" fill="black"/>
<path d="M178.655 163.16C179.464 163.16 180.12 162.504 180.12 161.694C180.12 160.884 179.464 160.228 178.655 160.228C177.845 160.228 177.189 160.884 177.189 161.694C177.189 162.504 177.845 163.16 178.655 163.16Z" fill="black"/>
<path d="M188.029 163.16C188.838 163.16 189.494 162.504 189.494 161.694C189.494 160.884 188.838 160.228 188.029 160.228C187.219 160.228 186.563 160.884 186.563 161.694C186.563 162.504 187.219 163.16 188.029 163.16Z" fill="black"/>
<path d="M178.655 172.544C179.464 172.544 180.12 171.888 180.12 171.078C180.12 170.268 179.464 169.612 178.655 169.612C177.845 169.612 177.189 170.268 177.189 171.078C177.189 171.888 177.845 172.544 178.655 172.544Z" fill="black"/>
<path d="M188.029 172.544C188.838 172.544 189.494 171.888 189.494 171.078C189.494 170.268 188.838 169.612 188.029 169.612C187.219 169.612 186.563 170.268 186.563 171.078C186.563 171.888 187.219 172.544 188.029 172.544Z" fill="black"/>
<path d="M178.655 181.928C179.464 181.928 180.12 181.272 180.12 180.462C180.12 179.653 179.464 178.996 178.655 178.996C177.845 178.996 177.189 179.653 177.189 180.462C177.189 181.272 177.845 181.928 178.655 181.928Z" fill="black"/>
<path d="M188.029 181.928C188.838 181.928 189.494 181.272 189.494 180.462C189.494 179.653 188.838 178.996 188.029 178.996C187.219 178.996 186.563 179.653 186.563 180.462C186.563 181.272 187.219 181.928 188.029 181.928Z" fill="black"/>
<path d="M39.1604 100.892C40.2384 102.174 42.3178 102.257 42.4038 102.266L48.4268 102.669C48.5383 102.675 48.648 102.639 48.734 102.568C48.779 102.529 48.8158 102.482 48.8422 102.43C48.8686 102.377 48.884 102.319 48.8875 102.26L49.5018 96.2357C49.5018 96.1619 49.7844 94.0994 48.7032 92.8177C47.3887 91.2501 45.6318 91.121 44.0501 92.4673C43.1133 93.2541 42.8584 94.7295 42.7877 95.501C42.0168 95.4396 40.521 95.4396 39.5842 96.2295C38.0117 97.585 37.8427 99.3248 39.1604 100.892Z" fill="#ED8ECD"/>
<path d="M152.219 141.647C151.869 143.491 153.266 145.357 153.321 145.44L157.231 150.973C157.304 151.078 157.414 151.15 157.539 151.176C157.601 151.188 157.665 151.188 157.727 151.176C157.789 151.163 157.848 151.138 157.901 151.102L163.571 147.386C163.641 147.343 165.622 146.119 165.973 144.275C166.4 142.022 165.278 140.418 162.984 139.972C161.639 139.717 160.18 140.538 159.458 141.023C158.967 140.307 157.907 139.01 156.565 138.755C154.274 138.312 152.649 139.397 152.219 141.647Z" fill="#EF48AF"/>
<path d="M120.832 89.04L118.51 89.5564L115.657 83.4336L119.404 82.6036L120.832 89.04Z" fill="#F2F5F8"/>
<path d="M25.631 77.2799L25.7569 79.6559L19.2547 81.4694L19.052 77.6334L25.631 77.2799Z" fill="#A6B6FA"/>
<path d="M28.9603 30.3624L30.3946 33.2733L33.6042 33.7405L31.2823 36.0058L31.829 39.2056L28.9603 37.6933L26.0885 39.2056L26.6352 36.0058L24.3132 33.7405L27.5229 33.2733L28.9603 30.3624Z" fill="#D1D9FF"/>
<path d="M133.281 9.13208L134.291 11.1823L136.549 11.5112L134.915 13.1034L135.299 15.3533L133.281 14.2929L131.26 15.3533L131.647 13.1034L130.013 11.5112L132.27 11.1823L133.281 9.13208Z" fill="#D1D9FF"/>
<path d="M49.8212 6.6178L50.6382 8.27454L52.4657 8.53888L51.1419 9.82986L51.4552 11.6495L49.8212 10.7889L48.1872 11.6495L48.5005 9.82986L47.1768 8.53888L49.0042 8.27454L49.8212 6.6178Z" fill="#D1D9FF"/>
<path d="M162.484 0L163.402 1.85961L165.451 2.15777L163.967 3.6055L164.317 5.64953L162.484 4.68438L160.65 5.64953L161 3.6055L159.517 2.15777L161.568 1.85961L162.484 0Z" fill="#D1D9FF"/>
</svg>
