<svg width="239" height="206" viewBox="0 0 239 206" fill="none" xmlns="http://www.w3.org/2000/svg">
<path d="M43.1458 55.369C42.4077 56.6027 40.8629 57.1247 39.5342 57.3909C37.8365 57.7389 36.0808 57.8312 34.362 57.9841L33.3629 58.2292C32.981 58.347 32.6617 58.6121 32.4757 58.9658C32.2897 59.3195 32.2523 59.7327 32.3717 60.1141C32.9899 62.2414 33.8403 64.2942 34.9077 66.2354L33.326 67.8171C32.8778 67.2108 32.8567 66.1484 32.2557 66.2512C31.6783 65.6739 30.9929 65.3918 30.2838 66.1642C28.8972 67.68 29.1212 70.8303 31.159 71.7002L30.703 73.97C30.3786 75.6063 28.944 76.786 27.2759 76.7881L27.6265 74.1018C25.2539 75.3013 22.5624 72.7072 22.7495 70.5693C22.8708 69.1036 22.5386 68.0913 21.4552 67.0289C21.384 66.9577 21.819 66.6941 21.7531 66.6229C21.4473 65.6976 21.4051 64.6168 21.7082 64.0052C22.2355 62.9138 23.7882 62.2758 23.0738 61.0842C22.7602 60.565 22.5315 59.999 22.3963 59.4076C22.1061 57.8213 22.5166 56.187 23.5219 54.9261C24.5764 53.6607 26.29 54.0008 27.6898 53.5526C29.3954 53.0254 30.1836 51.1985 31.9683 50.6343C32.8567 50.3523 33.6792 50.4814 34.5676 50.6844C35.3189 50.8584 36.0623 51.0535 36.8005 51.2855C37.5386 51.5175 38.1871 51.7099 38.9094 51.4938C39.8637 51.2301 40.5992 50.3391 41.6405 50.3312C42.1601 50.3192 42.6687 50.4816 43.0852 50.7925C43.855 52.1765 43.8602 54.1853 43.1458 55.369Z" fill="url(#paint0_linear)"/>
<path d="M10.5196 91.063C10.5196 91.063 -18.1807 59.4076 24.0855 43.6115C26.5364 42.7127 29.0908 42.1263 31.6883 41.8663C38.4343 41.1493 53.3473 38.6001 55.0661 29.9902" stroke="#CCDDE2" strokeWidth="1.5"/>
<path d="M130.999 46.7486V46.7407" stroke="#CCDDE2" strokeWidth="1.5"/>
<path d="M55.6933 103.746V103.738" stroke="black" strokeWidth="1.5"/>
<path d="M33.2536 67.6061C32.9727 67.1206 32.6384 66.6678 32.2571 66.2564C31.6798 65.6791 30.9944 65.397 30.2852 66.1694C28.8986 67.6852 29.1227 70.8355 31.1605 71.7054L30.7044 73.9752C30.3801 75.6115 28.9455 76.7912 27.2773 76.7933" stroke="black" strokeWidth="1.5" strokeLinecap="round" strokeLinejoin="round"/>
<path d="M26.002 86.8373C26.1179 85.9568 26.4053 83.6449 26.6821 81.441C26.9457 79.3979 27.1803 77.4313 27.2726 76.7828L27.6259 74.1018" stroke="black" strokeWidth="1.5" strokeLinecap="round" strokeLinejoin="round"/>
<path d="M42.2783 60.4198C42.2783 60.4198 38.9119 60.5859 38.2607 63.3724" stroke="black" strokeWidth="1.5"/>
<path d="M43.5019 67.7827C44.4193 67.759 45.6109 67.6246 46.0432 66.694L43.7234 64.1342C43.1575 63.507 42.8227 62.7053 42.7744 61.8618C42.6821 60.4462 42.8482 58.2002 41.4932 56.7054" stroke="black" strokeWidth="1.5"/>
<ellipse cx="40.8721" cy="63.6557" rx="1.02548" ry="0.869947" transform="rotate(-47.89 40.8721 63.6557)" fill="black"/>
<path d="M41.2888 84.5965L39.541 76.1238" stroke="black" strokeWidth="1.5"/>
<path d="M85.5958 122.729L74.3313 131.94C87.884 152.608 77.6266 156.401 77.6266 156.401C75.6369 156.782 73.6277 157.052 71.6081 157.211C61.812 157.917 51.7628 155.389 43.6881 149.726C27.3437 138.259 13.1082 115.308 20.7005 95.3258C21.3393 93.6356 22.1197 92.0024 23.0335 90.4436C23.8209 89.0885 24.8234 87.8705 26.0019 86.8373C30.2148 83.1492 36.1985 82.2733 41.2918 84.5991C42.2464 85.0347 43.1492 85.5759 43.9834 86.2125C48.2514 89.4787 52.1319 94.1211 55.4772 98.9928C58.4476 103.398 61.1205 107.997 63.4781 112.759C64.1292 114.059 64.7197 115.287 65.2417 116.413C69.9737 114.499 73.9412 111.248 77.6318 107.737C73.1687 116.067 85.5958 122.729 85.5958 122.729Z" fill="#353642"/>
<path d="M77.7132 129.467C77.497 129.633 77.2729 129.807 77.0488 129.973" stroke="black" strokeWidth="1.5"/>
<path d="M44.4102 94.4507C47.3978 100.171 50.3855 105.902 53.3732 111.644C55.6272 115.978 59.4365 118.654 64.8012 116.6C70.6377 114.365 75.346 110.091 79.701 105.736C84.056 101.381 88.469 97.2161 94.7563 96.093C102.884 94.6405 110.573 99.0693 116.11 104.666C116.986 105.545 117.145 106.911 116.492 107.966C116.08 108.63 115.4 109.082 114.628 109.204C113.857 109.326 113.071 109.106 112.474 108.602C109.851 106.364 105.583 103.126 102.615 103.084" stroke="black" strokeWidth="1.5"/>
<path d="M94.5166 110.763C95.4287 111.372 96.6941 112.047 97.7486 112.047" stroke="black" strokeWidth="1.5"/>
<path d="M106.205 104.194C108.151 105.156 108.86 107.972 107.486 109.654C105.745 111.815 103.563 113.58 101.086 114.831C98.3755 116.184 96.6356 115.358 93.9678 113.708" stroke="black" strokeWidth="1.5"/>
<path d="M101.702 106.717C101.702 106.717 105.556 107.671 105.453 111.412C105.446 111.571 105.418 111.729 105.369 111.881" stroke="black" strokeWidth="1.5"/>
<path d="M98.9795 109.074C98.9795 109.074 104.149 112.414 101.69 114.515" stroke="black" strokeWidth="1.5"/>
<path d="M198.842 122.165C192.752 138.902 175.704 139.374 173.753 139.374C174.57 137.653 174.792 134.629 173.002 129.33C175.458 125.743 175.409 121.002 172.878 117.467C172.902 117.446 172.915 117.417 172.936 117.396C173.788 117.344 174.634 117.216 175.464 117.014C178.406 116.313 184.206 114.773 188.808 112.606C191.93 111.133 195.57 113.495 195.304 116.94C195.304 116.985 195.304 117.027 195.288 117.077C196.525 117.076 197.684 117.68 198.392 118.694C199.101 119.708 199.269 121.004 198.842 122.165Z" fill="url(#paint1_linear)"/>
<path d="M120.697 161.421C118.646 164.94 115.454 167.937 112.369 170.552C101.511 179.742 87.3253 184.408 73.0899 184.59C58.8069 184.408 44.5688 179.726 33.6602 170.618C-0.808093 141.836 5.42125 107.853 10.9968 92.1176C11.1932 91.5734 11.459 91.0568 11.7877 90.5807C12.6694 89.2907 14.0603 88.4389 15.6102 88.2397C18.5363 88.6431 21.1936 91.071 20.7244 94.8302C20.7244 94.9752 20.6664 95.1756 20.6532 95.3206C13.0662 115.303 27.307 138.254 43.6409 149.721C51.0512 154.922 60.125 157.48 69.1408 157.313H69.2436C70.0169 157.298 70.7893 157.262 71.5609 157.205C76.625 156.836 81.5468 155.624 86.4211 154.155C92.1417 152.444 97.799 150.37 103.514 148.917C105.523 148.406 107.537 147.913 109.562 147.451C110.73 147.212 111.925 147.129 113.115 147.206C120.135 147.681 125.068 153.923 120.697 161.421Z" fill="#D7E8F0"/>
<path d="M122.432 161.421C120.381 164.94 117.186 167.937 114.102 170.552C102.811 180.117 87.9137 184.788 73.0824 184.59C58.7995 184.408 44.5614 179.726 33.6528 170.618C-0.807652 141.836 5.42169 107.853 10.9973 92.1176C11.1936 91.5734 11.4595 91.0568 11.7881 90.5807C12.6699 89.2907 14.0608 88.4389 15.6106 88.2397C18.5368 88.6431 21.1941 91.071 20.7248 94.8302C20.7248 94.9752 20.6668 95.1756 20.6537 95.3206C13.0667 115.303 27.3074 138.254 43.6413 149.721C51.0517 154.922 60.1255 157.479 69.1413 157.313H69.2441C70.6026 157.335 71.9532 157.298 73.2959 157.205C78.3601 156.836 83.2792 155.624 88.1562 154.155C93.8767 152.444 99.534 150.37 105.249 148.917C107.255 148.406 109.272 147.913 111.294 147.451C111.895 147.328 112.504 147.247 113.116 147.206C121.009 146.676 127.156 153.317 122.432 161.421Z" fill="#D7E8F0"/>
<path d="M75.463 184.543L78.9323 189.451C78.9323 189.451 99.9243 190.269 111.413 199.912C113.538 201.696 112.267 205.163 109.494 205.163C108.798 205.165 108.125 204.921 107.593 204.472C104.88 202.195 94.5175 195.035 71.0764 194.819C48.2364 194.605 39.4763 201.673 37.0536 204.248C36.4951 204.836 35.7186 205.167 34.9077 205.163H34.4569C31.6098 205.163 30.4051 201.567 32.6538 199.822C42.2443 192.364 63.7425 189.986 63.7425 189.986L67.4121 184.45" fill="#353642"/>
<path d="M168.365 157.324C168.365 157.324 174.795 163.432 172.789 182.368C172.643 183.72 172.172 185.017 171.418 186.148L170.719 187.203C169.574 188.918 167.846 190.162 165.855 190.704C161.656 191.85 154.037 194.508 149.332 199.543C147.344 201.675 148.823 205.15 151.739 205.15C152.843 205.153 153.875 204.603 154.488 203.684C156.405 200.8 162.207 194.676 176.203 194.805C191.988 194.95 198.347 201.227 200.384 203.932C200.955 204.697 201.853 205.148 202.807 205.15C204.013 205.147 205.102 204.431 205.582 203.325C206.062 202.219 205.841 200.934 205.019 200.052C198.863 193.363 191.334 190.87 187.18 189.944C185.092 189.494 183.249 188.281 182.01 186.541C181.062 185.199 180.523 183.611 180.457 181.97C180.225 176.099 180.104 161.848 184.082 157.329" fill="#353642"/>
<path d="M86.4736 154.163C97.7803 148.675 110.052 145.074 122.118 141.684C134.26 138.272 146.521 135.296 158.819 132.499C163.733 131.384 168.691 130.39 173.582 129.133" stroke="black" strokeWidth="1.5"/>
<path d="M97.0813 111.971H97.0892H97.0945" stroke="black" strokeWidth="1.5"/>
<path d="M95.8132 111.256C95.1041 111.958 92.5734 115.704 91.938 116.376C88.4478 120.116 84.7401 123.648 80.8344 126.952C79.851 127.77 78.8098 128.613 77.7131 129.467C77.4969 129.633 77.2728 129.807 77.0488 129.973C69.6147 135.615 59.9135 141.046 50.9504 137.566C50.7131 137.479 50.4811 137.379 50.2518 137.276C36.504 131.12 26.8951 115.704 26.0567 100.822C26.0277 100.337 26.0119 99.8549 26.0067 99.3777C25.9328 95.3101 26.5339 91.2424 30.4355 89.0966" stroke="black" strokeWidth="1.5"/>
<path d="M20.7213 95.2679L20.7766 94.8356C21.6519 87.818 11.687 85.4507 9.32236 92.1177C3.74943 107.851 -2.48254 141.826 31.9937 170.613C54.2458 189.201 90.2722 189.33 112.44 170.553C115.524 167.94 118.717 164.937 120.77 161.418C125.966 152.518 118.031 145.382 109.081 147.573" stroke="black" strokeWidth="1.5"/>
<path d="M75.4621 184.543L78.9313 189.451C78.9313 189.451 99.9234 190.269 111.412 199.912C113.537 201.697 112.266 205.163 109.493 205.163C108.797 205.165 108.124 204.921 107.592 204.473C104.879 202.195 94.5165 195.035 71.0754 194.819C48.2354 194.605 39.4753 201.673 37.0526 204.248C36.4941 204.836 35.7176 205.167 34.9068 205.163H34.456C31.6089 205.163 30.4041 201.567 32.6528 199.822C42.2433 192.364 63.7415 189.987 63.7415 189.987L67.4111 184.451" stroke="black" strokeWidth="1.5"/>
<path d="M63.7412 112.337C72.5408 109.965 76.1656 97.5509 77.6261 89.2047" stroke="black" strokeWidth="1.5"/>
<path d="M55.4688 99.0008C60.4396 98.3501 64.7153 95.1635 66.7596 90.586C67.1861 89.6781 67.1568 88.6218 66.6805 87.7389C65.7209 85.9621 64.2895 83.9033 64.6295 81.7732C64.8747 80.2706 66.1111 79.2135 67.5294 78.8734C68.2483 78.6851 69.0052 78.6978 69.7174 78.9103C70.5817 79.1553 71.2902 79.7757 71.6471 80.6001C71.9924 81.4094 71.5812 82.2108 70.9459 82.7381C70.3105 83.2653 69.5671 83.4525 68.7921 83.6634C68.6919 83.6924 68.4178 83.7504 68.1146 83.8084" stroke="black" strokeWidth="1.5"/>
<path d="M173.571 129.127C173.571 129.127 190.917 125.495 194.176 120.262C194.787 119.308 195.167 118.225 195.288 117.098" stroke="black" strokeWidth="1.5"/>
<path d="M88.2155 120.191C118.471 116.977 152.621 117.452 152.621 117.452H171.786C173.024 117.453 174.259 117.308 175.463 117.019C178.405 116.318 184.205 114.781 188.808 112.611C191.929 111.138 195.57 113.5 195.303 116.948C195.303 116.99 195.303 117.035 195.287 117.085C196.522 117.085 197.678 117.688 198.386 118.699C199.093 119.71 199.263 121.003 198.841 122.162C192.377 139.928 173.57 139.372 173.57 139.372C171.166 139.443 168.767 139.538 166.36 139.661C145.157 140.692 124.142 143.669 103.569 148.922C97.8535 150.375 92.1962 152.447 86.4756 154.161C81.5987 155.634 76.6716 156.839 71.6075 157.208C61.8113 157.917 51.7622 155.386 43.6875 149.724C26.0012 137.313 10.7798 111.436 23.0328 90.4305C27.3588 83.0175 37.155 80.9876 43.9827 86.2125C53.6128 93.5807 61.3052 107.935 65.2516 116.402" stroke="black" strokeWidth="1.5"/>
<path d="M198.44 157.324H156.335" stroke="black" strokeWidth="1.5"/>
<path d="M147.836 148.82C147.849 144.128 151.648 140.327 156.34 140.313H198.451C203.144 140.326 206.945 144.127 206.958 148.82" stroke="black" strokeWidth="1.5"/>
<path d="M207.787 151.835C207.791 153.293 207.214 154.692 206.183 155.722C205.152 156.752 203.753 157.329 202.296 157.324H152.471C149.877 157.079 147.957 154.801 148.154 152.202C148.35 149.603 150.592 147.641 153.194 147.789H203.018C204.813 147.786 206.496 148.664 207.521 150.138C207.697 150.686 207.787 151.259 207.787 151.835Z" fill="#D7E8F0"/>
<path fill-rule="evenodd" clip-rule="evenodd" d="M207.786 151.835C207.791 153.293 207.213 154.692 206.182 155.722C205.152 156.752 203.752 157.329 202.295 157.324H152.471C150.481 157.368 148.623 156.331 147.615 154.614C146.607 152.898 146.607 150.77 147.615 149.054C148.623 147.337 150.481 146.301 152.471 146.344H202.295C204.675 146.343 206.784 147.875 207.52 150.138C207.696 150.686 207.786 151.259 207.786 151.835V151.835Z" stroke="black" strokeWidth="1.5"/>
<path d="M77.5316 89.0096L77.4315 89.8558C77.3367 90.6506 76.6633 91.2493 75.8629 91.2504H70.3875C69.5872 91.2493 68.9137 90.6506 68.819 89.8558L68.1125 83.7925C68.4156 83.7345 68.6898 83.6765 68.79 83.6475C69.565 83.4367 70.3163 83.2574 70.9438 82.7222C71.5712 82.1871 71.9982 81.4041 71.645 80.5843C71.2881 79.7599 70.5796 79.1395 69.7153 78.8945C69.0031 78.682 68.2462 78.6692 67.5272 78.8576L67.3612 77.4129C67.3118 76.9665 67.4545 76.5201 67.7537 76.1851C68.053 75.8502 68.4805 75.6582 68.9297 75.6572H77.3313C77.78 75.659 78.2068 75.8512 78.5055 76.1861C78.8042 76.521 78.9465 76.967 78.8972 77.4129L78.7021 79.0606" stroke="black" strokeWidth="1.5"/>
<path d="M78.2617 82.8277L78.2538 82.8856" stroke="black" strokeWidth="1.5"/>
<path d="M77.8506 86.3101V86.2863" stroke="black" strokeWidth="1.5"/>
<path d="M77.9294 86.31C77.9059 86.3061 77.8818 86.3061 77.8583 86.31C77.825 86.3062 77.7914 86.3062 77.7581 86.31C77.0497 86.3125 76.4613 86.8571 76.4043 87.5632C76.3472 88.2692 76.8405 88.9013 77.5393 89.0174C77.6846 89.0465 77.8342 89.0465 77.9795 89.0174C78.6376 88.9123 79.2382 88.5803 79.6772 88.0789C80.2623 87.1167 80.6687 86.0566 80.8767 84.9498C80.8803 84.9386 80.8803 84.9266 80.8767 84.9155C81.0375 84.0999 81.0986 83.2678 81.0586 82.4375C81.0586 82.0816 81.0138 81.7283 80.9716 81.383C80.8064 80.1967 79.8849 79.2581 78.7019 79.0711C78.6729 79.0711 78.6386 79.0711 78.6096 79.0552C77.5024 78.9182 75.9497 79.3373 75.6623 80.5869C75.3987 81.7152 76.6219 82.6826 77.6263 82.7696C77.6263 82.7696 77.8899 82.8039 78.2616 82.8276C79.005 82.8777 80.2414 82.8698 81.0586 82.4375C81.1788 82.3752 81.292 82.3 81.396 82.2134" stroke="black" strokeWidth="1.5"/>
<path d="M79.0846 82.8883H78.9027H77.4976H76.8781C76.0084 82.8913 75.2924 83.5726 75.2462 84.441C75.2039 85.283 75.805 86.0207 76.6382 86.1493C78.4571 86.4419 80.5345 86.5025 80.8904 84.8734" stroke="black" strokeWidth="1.5"/>
<path d="M168.364 157.324C168.364 157.324 174.794 163.432 172.788 182.368C172.642 183.72 172.171 185.017 171.417 186.148L170.718 187.203C169.573 188.918 167.845 190.162 165.855 190.704C161.655 191.85 154.036 194.508 149.331 199.543C147.343 201.675 148.822 205.15 151.738 205.15C152.842 205.153 153.874 204.603 154.487 203.684C156.404 200.8 162.206 194.676 176.202 194.805C191.987 194.95 198.346 201.227 200.383 203.932C200.954 204.697 201.852 205.148 202.806 205.15C204.012 205.147 205.101 204.431 205.581 203.325C206.061 202.219 205.84 200.934 205.018 200.052C198.862 193.363 191.333 190.87 187.179 189.944C185.091 189.494 183.248 188.281 182.009 186.541C181.061 185.199 180.522 183.611 180.456 181.97C180.224 176.099 180.103 161.848 184.081 157.329" stroke="black" strokeWidth="1.5"/>
<path fill-rule="evenodd" clip-rule="evenodd" d="M154.999 113.065V113.492C154.999 116.415 152.643 116.919 150.608 116.969L111.22 117.886C109.493 117.929 108.041 116.421 108.004 114.533V114.454C108.004 112.609 109.364 111.067 111.067 111.027C111.067 111.027 133.103 110.405 150.165 109.936C150.492 110.969 151.282 111.765 152.274 112.39C153.095 112.881 154.044 113.116 154.999 113.065V113.065Z" stroke="black" strokeWidth="1.5"/>
<path fill-rule="evenodd" clip-rule="evenodd" d="M175.936 71.3865C175.938 71.8675 175.828 72.3422 175.614 72.7732L157.999 108.884C157.581 109.732 156.809 110.353 155.89 110.579C155.163 110.765 154.393 110.687 153.718 110.358C152.614 109.814 151.917 108.688 151.923 107.458C151.924 107.31 151.935 107.162 151.955 107.015C152.001 106.688 152.099 106.37 152.245 106.074L169.857 69.9577C170.512 68.6232 172.001 67.9167 173.449 68.2536C174.897 68.5904 175.921 69.8814 175.92 71.3681L175.936 71.3865Z" stroke="black" strokeWidth="1.5"/>
<path d="M33.3284 67.8224C33.3073 67.7486 33.2783 67.6774 33.2546 67.6063C33.2308 67.5351 33.1966 67.4534 33.1755 67.3743" stroke="black" strokeWidth="1.5" strokeLinecap="round" strokeLinejoin="round"/>
<path d="M33.3281 67.825L33.8685 67.2819L34.9019 66.2354" stroke="black" strokeWidth="1.5" strokeLinecap="round" strokeLinejoin="round"/>
<path d="M39.4092 69.2539C39.4092 69.2539 40.1025 71.3233 42.7519 71.463" stroke="black" strokeWidth="1.5"/>
<path d="M27.6258 74.1018C25.2532 75.3013 22.5616 72.7073 22.7488 70.5693C22.8701 69.1036 22.5379 68.0913 21.4544 67.0289C21.3833 66.9577 21.3174 66.8839 21.2541 66.8127C20.4101 65.8943 20.2116 64.5541 20.7532 63.4305C21.2462 62.2837 22.3086 61.6115 21.5704 60.3751C21.2466 59.8404 21.0099 59.2576 20.8692 58.6484C20.5713 57.0141 20.9953 55.3307 22.0318 54.0324C23.1179 52.7143 24.8868 53.0781 26.3393 52.6168C28.0871 52.0606 28.9043 50.181 30.7391 49.6036C31.6565 49.3163 32.508 49.4455 33.4254 49.6537C34.1978 49.8356 34.9729 50.0386 35.7242 50.2759C36.4755 50.5131 37.1609 50.7161 37.9122 50.492C38.8955 50.2047 39.6521 49.3005 40.7224 49.2926C41.7927 49.2846 42.6152 49.9147 43.095 50.7952C43.8542 52.1766 43.8595 54.1853 43.1451 55.3769C42.407 56.6106 40.8621 57.1326 39.5335 57.3989C37.8358 57.7468 36.0801 57.8391 34.3613 57.992L33.3622 58.2372C32.5708 58.4826 32.1274 59.3222 32.3709 60.1142C32.9891 62.2414 33.8396 64.2942 34.907 66.2354" stroke="black" strokeWidth="1.5"/>
<path d="M34.9014 74.405C34.9014 74.405 40.1316 78.2354 43.1131 76.1238C46.0947 74.0122 44.4101 67.8224 44.4101 67.8224" stroke="black" strokeWidth="1.5" strokeLinecap="round" strokeLinejoin="round"/>
<path d="M71.8586 73.0131C71.8586 73.0131 69.6363 71.5105 71.0493 69.9762C72.4622 68.442 70.58 66.4174 70.58 66.4174" stroke="black" strokeWidth="1.5"/>
<path d="M73.9102 73.2741C73.9102 73.2741 75.3811 72.2803 74.4374 71.2627C73.4936 70.2451 74.7511 68.8901 74.7511 68.8901" stroke="black" strokeWidth="1.5"/>
<ellipse cx="84.0455" cy="29.9771" rx="28.9771" ry="28.9771" stroke="#CCDDE2" strokeWidth="1.5"/>
<ellipse cx="84.0456" cy="29.9771" rx="15.9147" ry="15.9147" stroke="#CCDDE2" strokeWidth="1.5"/>
<ellipse cx="84.0459" cy="29.9771" rx="2.72847" ry="2.72846" stroke="#CCDDE2" strokeWidth="1.5"/>
<path d="M89.6951 20.8665L85.4824 27.6573" stroke="#CCDDE2" strokeWidth="1.5"/>
<path d="M84.0459 14.0624V16.8937" stroke="#CCDDE2" strokeWidth="1.5"/>
<path d="M99.96 29.9771H97.2764" stroke="#CCDDE2" strokeWidth="1.5"/>
<path d="M84.0459 45.8944V43.1422" stroke="#CCDDE2" strokeWidth="1.5"/>
<path d="M68.1279 29.9771H70.548" stroke="#CCDDE2" strokeWidth="1.5"/>
<circle cx="111.818" cy="67.3742" r="10.7821" fill="url(#paint2_linear)"/>
<path d="M115.364 63.7732C115.212 63.4228 115.007 63.0974 114.758 62.8084C113.874 61.7629 112.351 61.537 111.201 62.2811C110.467 62.7602 109.999 63.5551 109.936 64.4296C108.77 64.0022 107.462 64.3978 106.729 65.3997C105.995 66.4016 106.013 67.768 106.773 68.7504C107.545 69.7574 108.858 70.4191 110.047 70.804C110.67 71.0037 111.312 71.1397 111.963 71.2099C112.293 71.2468 114.172 71.4999 114.336 71.2099C115.509 69.3751 116.342 66.014 115.364 63.7732Z" fill="white"/>
<g opacity="0.72">
<ellipse cx="138.692" cy="56.9744" rx="5.93671" ry="5.93673" fill="url(#paint3_linear)"/>
<path d="M141.267 58.0262C141.414 57.8766 141.537 57.7049 141.631 57.5175C141.982 56.8487 141.779 56.0238 141.159 55.593C140.762 55.3189 140.26 55.2467 139.802 55.398C139.776 54.7146 139.3 54.131 138.636 53.9672C137.972 53.8033 137.28 54.0987 136.939 54.6915C136.616 55.3444 136.491 56.0773 136.578 56.8004C136.607 57.1575 136.673 57.5108 136.773 57.8549C136.823 58.0315 137.087 59.0412 137.266 59.0728C138.444 59.2705 140.332 58.9937 141.267 58.0262Z" fill="white"/>
</g>
<path d="M132.41 98.1587C128.599 96.3562 126.97 91.8049 128.773 87.9933C130.575 84.1816 135.126 82.553 138.938 84.3555C142.75 86.1581 144.378 90.7093 142.576 94.521C140.773 98.3326 136.222 99.9613 132.41 98.1587Z" fill="url(#paint4_linear)"/>
<path d="M142.377 92.5816L140.334 96.9023C139.441 98.7756 137.204 99.5774 135.325 98.6976L130.142 96.2459C128.27 95.3525 127.469 93.1157 128.35 91.2372L128.487 90.9472C129.895 89.8242 132.328 88.311 133.216 90.3698C134.495 93.3435 136.158 92.3839 138.283 91.1396C140.057 90.0904 142.187 89.7398 142.377 92.5816Z" fill="white"/>
<ellipse cx="134.35" cy="86.3945" rx="1.59489" ry="1.5949" fill="white"/>
<path d="M161.561 65.4367C161.878 66.0148 162.108 66.6366 162.243 67.282C162.735 69.6835 161.925 72.1664 160.113 73.8171C159.407 74.4419 158.508 74.9296 157.793 75.5834C157.272 76.033 156.889 76.6205 156.686 77.2785C156.649 77.5031 156.559 77.7156 156.423 77.898C156.006 78.3461 155.597 77.6343 155.236 77.5131C154.654 77.3236 154.023 77.3546 153.462 77.6001C150.422 78.8711 146.908 77.8244 145.059 75.0975C143.21 72.3705 143.538 68.7183 145.844 66.3646C146.948 65.2389 148.393 64.5193 149.798 63.7864C151.026 63.1352 152.249 62.4419 153.583 62.0518C156.71 61.1159 160.047 62.6739 161.561 65.4367Z" fill="url(#paint5_linear)"/>
<ellipse cx="148.97" cy="72.0772" rx="1.50263" ry="1.50264" fill="white"/>
<ellipse cx="153.017" cy="69.9129" rx="1.50262" ry="1.50263" fill="white"/>
<ellipse cx="156.813" cy="67.883" rx="1.50262" ry="1.50264" fill="white"/>
<path d="M110.998 19.3242C110.998 19.3242 120.892 49.9252 158.977 48.2723C171.631 46.6906 186.691 48.2723 200.102 65.9349C220.487 92.803 212.302 122.734 203.038 141.734" stroke="#CCDDE2" strokeWidth="1.5"/>
<g opacity="0.54">
<path d="M166.05 31.3426C166.013 31.8042 165.942 32.2624 165.837 32.7135L164.65 37.8593C164.287 39.4411 163.878 41.0966 162.75 42.2512C160.641 44.4024 157.135 43.9094 154.203 43.2583L147.006 41.6607C145.353 41.2943 143.674 40.9173 142.193 40.0975C140.711 39.2776 139.425 37.9358 139.082 36.2776C138.818 35.0544 139.1 33.789 139.369 32.5711L140.455 27.6309C140.817 26.0122 141.223 24.304 142.39 23.1256C144.47 21.0298 147.926 21.507 150.8 22.1318L158.171 23.7346C162.615 24.6941 166.404 26.7557 166.05 31.3426Z" fill="url(#paint6_linear)"/>
<path d="M156.125 31.4798C156.752 32.0631 157.021 32.937 156.829 33.7719C156.637 34.6068 156.013 35.2757 155.194 35.5263L153.001 36.1986L150.808 36.8708C149.988 37.1213 149.098 36.916 148.471 36.3321C147.844 35.7482 147.576 34.8744 147.768 34.0395L148.295 31.804L148.809 29.5712C149.001 28.7358 149.623 28.0662 150.442 27.8149C151.262 27.5636 152.153 27.7688 152.779 28.3532L154.459 29.9165L156.125 31.4798Z" fill="white"/>
</g>
<path d="M10.6172 205.15H238.258" stroke="#CCDDE2" strokeWidth="1.5"/>
<defs>
<linearGradient id="paint0_linear" x1="21.4473" y1="52.6928" x2="47.0951" y2="72.3141" gradientUnits="userSpaceOnUse">
<stop stop-color="#5F7DF1"/>
<stop offset="1" stop-color="#3055EC"/>
</linearGradient>
<linearGradient id="paint1_linear" x1="172.878" y1="114.59" x2="199.976" y2="138.345" gradientUnits="userSpaceOnUse">
<stop stop-color="#5F7DF1"/>
<stop offset="1" stop-color="#3055EC"/>
</linearGradient>
<linearGradient id="paint2_linear" x1="101.036" y1="58.5175" x2="122.6" y2="78.1563" gradientUnits="userSpaceOnUse">
<stop stop-color="#5F7DF1"/>
<stop offset="1" stop-color="#3055EC"/>
</linearGradient>
<linearGradient id="paint3_linear" x1="132.755" y1="52.0978" x2="144.628" y2="62.9111" gradientUnits="userSpaceOnUse">
<stop stop-color="#5F7DF1"/>
<stop offset="1" stop-color="#3055EC"/>
</linearGradient>
<linearGradient id="paint4_linear" x1="126.741" y1="95.4777" x2="145.84" y2="87.6194" gradientUnits="userSpaceOnUse">
<stop stop-color="#5F7DF1"/>
<stop offset="1" stop-color="#3055EC"/>
</linearGradient>
<linearGradient id="paint5_linear" x1="143.865" y1="63.2397" x2="160.287" y2="80.1715" gradientUnits="userSpaceOnUse">
<stop stop-color="#5F7DF1"/>
<stop offset="1" stop-color="#3055EC"/>
</linearGradient>
<linearGradient id="paint6_linear" x1="138.977" y1="23.5825" x2="161.167" y2="48.2316" gradientUnits="userSpaceOnUse">
<stop stop-color="#5F7DF1"/>
<stop offset="1" stop-color="#3055EC"/>
</linearGradient>
</defs>
</svg>
