<svg width="148" height="148" viewBox="0 0 148 148" fill="none" xmlns="http://www.w3.org/2000/svg">
<path d="M74.0007 147.192C114.424 147.192 147.193 114.423 147.193 74C147.193 33.5771 114.424 0.807861 74.0007 0.807861C33.5778 0.807861 0.808594 33.5771 0.808594 74C0.808594 114.423 33.5778 147.192 74.0007 147.192Z" fill="#F2F5F8" stroke="white" stroke-width="1.5" stroke-miterlimit="10"/>
<path d="M26.709 56.1723V52.5498C26.7128 51.9089 26.8429 51.275 27.0919 50.6845C27.3409 50.0939 27.7038 49.5582 28.16 49.108C28.6162 48.6578 29.1567 48.302 29.7505 48.0608C30.3443 47.8197 30.9799 47.698 31.6208 47.7027H92.4365L94.5725 44.6069C95.0273 43.9511 95.6346 43.4155 96.3421 43.0462C97.0497 42.677 97.8363 42.4851 98.6344 42.4871H116.853C117.494 42.4828 118.129 42.6049 118.723 42.8461C119.317 43.0874 119.857 43.4433 120.313 43.8934C120.769 44.3435 121.132 44.879 121.381 45.4694C121.63 46.0598 121.761 46.6935 121.765 47.3343V56.531" fill="white"/>
<path d="M26.1426 56.6019H65.2236C65.2236 56.6019 68.733 64.2313 73.9485 64.2313C79.1641 64.2313 82.6734 56.6019 82.6734 56.6019H121.192V50.7853C121.192 48.5718 118.995 46.7751 116.28 46.7751H99.4769C98.7138 46.7572 97.9559 46.9048 97.2553 47.2077C96.5547 47.5106 95.928 47.9616 95.4182 48.5297L93.2822 51.0923H31.0544C28.34 51.0923 26.1426 52.8857 26.1426 55.1025V56.6019Z" fill="#F2F5F8"/>
<path d="M26.709 55.2575V51.6383C26.7132 50.9975 26.8436 50.3638 27.0928 49.7734C27.3419 49.1831 27.7049 48.6475 28.161 48.1974C28.6171 47.7473 29.1574 47.3915 29.751 47.1502C30.3446 46.9089 30.98 46.7869 31.6208 46.7911H92.4365L94.5725 43.6954C95.0271 43.0392 95.6343 42.5031 96.3418 42.1333C97.0493 41.7635 97.8361 41.571 98.6344 41.5724H116.853C118.147 41.5646 119.391 42.0707 120.312 42.9796C121.233 43.8884 121.756 45.1257 121.765 46.4195V55.6162" stroke="black" stroke-width="1.5" stroke-miterlimit="10" stroke-linecap="round"/>
<path fill-rule="evenodd" clip-rule="evenodd" d="M41.5215 55.6486L41.557 14.0276C41.557 10.7574 43.874 8.11084 46.7273 8.11084L101.339 8.13023C104.195 8.13023 106.509 10.78 106.509 14.047L106.477 56.0784" fill="#F2F5F8"/>
<path d="M41.5215 55.6486L41.557 14.0276C41.557 10.7574 43.874 8.11084 46.7273 8.11084L101.339 8.13023C104.195 8.13023 106.509 10.78 106.509 14.047L106.477 56.0784" stroke="black" stroke-width="1.5" stroke-miterlimit="10"/>
<path fill-rule="evenodd" clip-rule="evenodd" d="M120.035 56.1268L83.1223 55.9814H82.5277C82.5166 58.2954 81.5866 60.5102 79.9425 62.1385C78.2984 63.7669 76.0748 64.6754 73.7608 64.6643C71.4468 64.6532 69.232 63.7232 67.6037 62.0791C65.9753 60.435 65.0668 58.2114 65.0779 55.8974H64.2442L27.9745 55.4935C25.0339 55.4708 22.6394 57.539 22.62 60.108L22.2969 109.223C22.2969 111.808 24.6461 113.892 27.5867 113.911L119.647 114.558C122.585 114.577 124.982 112.512 125.002 109.943L125.341 60.8253C125.341 58.2467 122.972 56.1495 120.035 56.1268Z" fill="white"/>
<path fill-rule="evenodd" clip-rule="evenodd" d="M118.318 60.525L85.0112 60.3699C84.7236 65.2494 79.2398 69.1239 73.9532 69.1239C68.6665 69.1239 62.8403 65.2042 62.6011 60.2827L34.549 59.8529C31.2174 59.8303 28.503 62.0212 28.4803 64.7485L28.0958 108.9C28.0764 111.627 30.7585 113.853 34.0901 113.876L117.862 114.551C121.19 114.571 123.908 112.38 123.927 109.656L124.312 65.4982C124.331 62.7741 121.649 60.5477 118.318 60.525Z" fill="#A8B8F9"/>
<path d="M92.8888 87.1617V91.6017L55.0195 91.4789V87.1617" stroke="black" stroke-width="1.5" stroke-miterlimit="10" stroke-linecap="round"/>
<path d="M73.8652 64.2797C78.6588 64.2797 82.5449 60.3937 82.5449 55.6001C82.5449 50.8064 78.6588 46.9204 73.8652 46.9204C69.0716 46.9204 65.1855 50.8064 65.1855 55.6001C65.1855 60.3937 69.0716 64.2797 73.8652 64.2797Z" fill="#F2F5F8"/>
<path fill-rule="evenodd" clip-rule="evenodd" d="M120.26 56.1268L83.347 55.9814H82.7524C82.7413 58.2954 81.8114 60.5102 80.1673 62.1385C78.5232 63.7669 76.2995 64.6754 73.9855 64.6643C71.6716 64.6532 69.4568 63.7232 67.8284 62.0791C66.2001 60.435 65.2915 58.2114 65.3027 55.8974H64.4657L28.196 55.4935C25.2586 55.4708 22.8609 57.539 22.8447 60.108L22.5216 109.226C22.5022 111.811 24.8709 113.895 27.8082 113.915L119.872 114.561C122.809 114.58 125.204 112.515 125.223 109.946L125.563 60.8286C125.566 58.2467 123.197 56.1495 120.26 56.1268Z" stroke="black" stroke-width="1.5" stroke-miterlimit="10" stroke-linecap="round"/>
<path d="M71.2516 25.0566L64.5238 36.9386C64.1595 37.5818 63.9702 38.3093 63.9747 39.0485C63.9792 39.7877 64.1773 40.5129 64.5493 41.1516C64.9214 41.7904 65.4543 42.3206 66.095 42.6892C66.7358 43.0579 67.4619 43.2522 68.2012 43.2528L81.631 43.269C82.3692 43.2673 83.0942 43.0727 83.7339 42.7044C84.3736 42.336 84.9059 41.8068 85.2779 41.1692C85.65 40.5316 85.8488 39.8079 85.8547 39.0697C85.8606 38.3315 85.6734 37.6046 85.3116 36.9612L78.6193 25.0662C78.2518 24.413 77.7173 23.8691 77.0705 23.4903C76.4237 23.1115 75.6879 22.9113 74.9383 22.9103C74.1888 22.9094 73.4524 23.1076 72.8046 23.4847C72.1568 23.8618 71.6209 24.4043 71.2516 25.0566Z" fill="#FC764C"/>
<path d="M70.0652 23.2663L62.5521 36.2502C62.1406 36.9597 61.9232 37.7651 61.9219 38.5853C61.9205 39.4054 62.1352 40.2115 62.5444 40.9224C62.9535 41.6332 63.5427 42.2238 64.2526 42.6346C64.9624 43.0454 65.768 43.2619 66.5882 43.2625L81.5918 43.2819C82.4131 43.2821 83.2199 43.0659 83.9311 42.655C84.6422 42.2441 85.2324 41.653 85.6424 40.9413C86.0523 40.2296 86.2673 39.4225 86.2659 38.6012C86.2645 37.7799 86.0467 36.9734 85.6343 36.2632L78.16 23.2663C77.75 22.5556 77.1601 21.9654 76.4496 21.5551C75.7391 21.1448 74.9331 20.9287 74.1126 20.9287C73.2921 20.9287 72.4861 21.1448 71.7756 21.5551C71.0652 21.9654 70.4753 22.5556 70.0652 23.2663V23.2663Z" stroke="black" stroke-width="1.5" stroke-miterlimit="10" stroke-linecap="round"/>
<path d="M74.0008 26.7208L73.9395 35.9175" stroke="black" stroke-width="1.5" stroke-miterlimit="10" stroke-linecap="round"/>
<path d="M73.938 40.7323C74.5359 40.7323 75.0205 40.2476 75.0205 39.6497C75.0205 39.0519 74.5359 38.5672 73.938 38.5672C73.3401 38.5672 72.8555 39.0519 72.8555 39.6497C72.8555 40.2476 73.3401 40.7323 73.938 40.7323Z" fill="black"/>
<path d="M128.02 127.29C131.701 125.762 134.754 123.03 136.68 119.541C138.605 116.052 139.289 112.012 138.619 108.084C137.949 104.155 135.965 100.57 132.992 97.9165C130.019 95.2628 126.232 93.6972 122.253 93.4762C118.274 93.2552 114.338 94.3918 111.089 96.7C107.84 99.0081 105.471 102.351 104.37 106.181C103.269 110.011 103.501 114.102 105.029 117.783C106.556 121.464 109.288 124.517 112.777 126.443L115.666 127.716C118.281 128.589 121.064 128.841 123.793 128.453L128.02 127.29Z" fill="white"/>
<path d="M123.17 128.456C131.822 128.456 138.836 121.156 138.836 112.15C138.836 103.145 131.822 95.8445 123.17 95.8445C114.518 95.8445 107.504 103.145 107.504 112.15C107.504 121.156 114.518 128.456 123.17 128.456Z" fill="#47B26B"/>
<path d="M123.727 128.479C120.997 128.864 118.215 128.61 115.6 127.739" stroke="black" stroke-width="1.5" stroke-miterlimit="10" stroke-linecap="round"/>
<path d="M112.71 126.466C109.223 124.538 106.494 121.483 104.969 117.801C103.445 114.12 103.215 110.03 104.318 106.201C105.421 102.372 107.792 99.0307 111.041 96.7245C114.29 94.4183 118.227 93.2835 122.205 93.506C126.184 93.7284 129.969 95.295 132.941 97.9491C135.913 100.603 137.896 104.188 138.565 108.116C139.234 112.044 138.55 116.083 136.625 119.571C134.699 123.06 131.646 125.791 127.966 127.319" stroke="black" stroke-width="1.5" stroke-miterlimit="10" stroke-linecap="round"/>
<path d="M121.219 100.058V120.739" stroke="white" stroke-width="1.5" stroke-linecap="round" stroke-linejoin="round"/>
<path d="M131.552 110.399H110.871" stroke="white" stroke-width="1.5" stroke-linecap="round" stroke-linejoin="round"/>
</svg>
