<svg width="110" height="148" viewBox="0 0 110 148" fill="none" xmlns="http://www.w3.org/2000/svg">
<path d="M18.1091 20.9017C13.5728 20.9017 10.3457 24.7338 10.3457 29.4188V139.486C10.3457 144.168 14.0576 148 18.5974 148H86.3378C90.8777 148 94.5896 144.168 94.5896 139.486V32.4088L78.0508 40.7773C73.4932 40.7773 65.1672 34.408 65.1672 29.7018L62.8424 20.9017H45.0404V53.7528L33.0096 40.7773L17.8685 53.7528L18.1091 20.9017Z" fill="white"/>
<path d="M22.21 12.0378H17.4473" stroke="black" strokeWidth="1.5" strokeLinecap="round" strokeLinejoin="round"/>
<path d="M89.8935 133.46C89.886 135.77 88.965 137.984 87.3315 139.617C85.6981 141.251 83.4848 142.172 81.1747 142.179H9.58793C7.27786 142.172 5.06453 141.251 3.43106 139.617C1.79759 137.984 0.876605 135.77 0.869141 133.46V20.7566C0.874739 18.4453 1.7949 16.2302 3.42857 14.5952C5.06225 12.9602 7.27663 12.0382 9.58793 12.0308" stroke="black" strokeWidth="1.5" strokeLinecap="round" strokeLinejoin="round"/>
<path d="M89.8945 43.2401V113.613" stroke="black" strokeWidth="1.5" strokeLinecap="round" strokeLinejoin="round"/>
<path d="M30.0254 12.0378H56.1817" stroke="black" strokeWidth="1.5" strokeLinecap="round" strokeLinejoin="round"/>
<path d="M21.9082 18.0745C21.9082 18.0745 21.9082 40.6287 21.9082 42.3448L28.6171 35.7385L38.2984 46.7431V18.0815L21.9082 18.0745Z" fill="#D7E9F1"/>
<path d="M20.7695 67.4927H70.3824" stroke="black" strokeWidth="1.5" strokeLinecap="round" strokeLinejoin="round"/>
<path d="M20.7695 82.1349H70.3824" stroke="black" strokeWidth="1.5" strokeLinecap="round" strokeLinejoin="round"/>
<path d="M17.4473 12.9119V46.7467L28.6182 35.7385L38.2995 46.7432V12.9119" stroke="black" strokeWidth="1.5" strokeLinecap="round" strokeLinejoin="round"/>
<path d="M82.4201 39.1991C91.8943 39.1991 99.5746 31.2051 99.5746 21.344C99.5746 11.4829 91.8943 3.48889 82.4201 3.48889C72.946 3.48889 65.2656 11.4829 65.2656 21.344C65.2656 31.2051 72.946 39.1991 82.4201 39.1991Z" fill="#47B26B"/>
<path d="M83.0301 39.2239C80.0409 39.645 76.9948 39.3677 74.1309 38.4136" stroke="black" strokeWidth="1.5" strokeMiterlimit="10" strokeLinecap="round"/>
<path d="M70.9663 37.0195C67.1468 34.9095 64.1567 31.5652 62.4858 27.5342C60.8149 23.5031 60.5621 19.0242 61.7688 14.8308C62.9755 10.6373 65.5702 6.97782 69.128 4.45141C72.6859 1.925 76.9961 0.681393 81.3529 0.924209C85.7098 1.16703 89.8551 2.88188 93.1102 5.78799C96.3653 8.6941 98.5373 12.6193 99.2705 16.9208C100.004 21.2224 99.2548 25.6455 97.1463 29.4659C95.0378 33.2863 91.6947 36.2776 87.6643 37.9501" stroke="black" strokeWidth="1.5" strokeMiterlimit="10" strokeLinecap="round"/>
<path d="M89.6467 13.2339L75.8148 27.0658L70.9141 22.165" stroke="white" strokeWidth="1.5" strokeMiterlimit="10" strokeLinecap="round"/>
<path d="M28.2544 130.354C25.4767 104.314 69.1767 82.5277 56.1835 112.665C54.7681 115.945 49.9876 121.96 53.0838 122.926C56.18 123.892 76.7703 103.129 80.4397 119.215C83.4474 132.388 111.019 104.912 108.394 132.388" stroke="black" strokeWidth="1.5" strokeLinecap="round" strokeLinejoin="round"/>
</svg>
