<svg width="137" height="148" viewBox="0 0 137 148" fill="none" xmlns="http://www.w3.org/2000/svg">
<path d="M116.653 101.703C127.382 101.703 136.081 92.6539 136.081 81.4918C136.081 70.3297 127.382 61.281 116.653 61.281C105.923 61.281 97.2246 70.3297 97.2246 81.4918C97.2246 92.6539 105.923 101.703 116.653 101.703Z" fill="#CE4242"/>
<path d="M117.338 101.733C113.955 102.214 110.507 101.9 107.266 100.817" stroke="black" strokeWidth="1.5" strokeMiterlimit="10" strokeLinecap="round"/>
<path d="M103.682 99.2377C99.3561 96.8496 95.9698 93.0641 94.0773 88.5011C92.1848 83.9381 91.8982 78.8679 93.2644 74.1208C94.6306 69.3737 97.5687 65.231 101.598 62.3709C105.627 59.5109 110.508 58.103 115.441 58.3778C120.375 58.6527 125.069 60.5939 128.755 63.8837C132.442 67.1735 134.901 71.6169 135.731 76.4864C136.561 81.3558 135.713 86.3627 133.325 90.6873C130.937 95.0119 127.151 98.3979 122.587 100.291" stroke="black" strokeWidth="1.5" strokeMiterlimit="10" strokeLinecap="round"/>
<path d="M122.602 72.3536L105.857 89.1037" stroke="white" strokeWidth="1.5" strokeMiterlimit="10" strokeLinecap="round"/>
<path d="M122.606 89.0999L105.854 72.3574" stroke="white" strokeWidth="1.5" strokeMiterlimit="10" strokeLinecap="round"/>
<path d="M71.1327 56.3055C71.1327 56.3055 76.5413 36.8922 74.0488 22.5115C72.5602 13.877 70.1899 10.9162 63.7432 10.9925C60.4683 11.0345 59.8958 19.192 59.4187 27.7121L56.7125 53.4973C54.2735 70.3848 50.8879 85.3111 45.5862 87.1235C39.0975 89.6455 24.8223 87.7721 24.8223 87.7721V141.723C29.5109 141.422 34.2141 141.422 38.9028 141.723C44.5556 142.059 49.613 141.765 54.1322 141.823C67.4914 142.002 74.8542 128.468 77.1825 117.377C79.0108 108.67 79.4727 89.2487 79.1673 77.9929C78.8619 66.7372 85.7476 60.8231 78.965 60.2012C74.2969 59.77 70.0373 67.3133 68.709 77.2832C66.7089 92.3087 56.0025 103.713 56.0025 103.713" fill="white"/>
<path d="M14.2027 76.44H5.88184C2.63339 76.44 0 79.0724 0 82.3197V142.124C0 145.371 2.63339 148.004 5.88184 148.004H14.2027C17.4511 148.004 20.0845 145.371 20.0845 142.124V82.3197C20.0845 79.0724 17.4511 76.44 14.2027 76.44Z" fill="#466BF0"/>
<path d="M56.0059 18.5281C56.5211 9.5693 57.1509 0.995843 60.6968 0.953872C67.6932 0.873746 71.1742 8.10796 72.7926 17.1813C75.4911 32.3021 73.0178 52.5358 73.0178 52.5358" stroke="black" strokeWidth="1.5" strokeMiterlimit="10" strokeLinecap="round"/>
<path d="M55.1953 30.8713C55.4587 28.6469 55.4663 28.0059 55.619 25.4724" stroke="black" strokeWidth="1.5" strokeMiterlimit="10" strokeLinecap="round"/>
<path d="M57.5508 98.528C61.8322 89.7322 64.7118 80.3215 66.0854 70.6366C67.5282 60.1554 72.2421 51.5209 77.2193 52.6808C84.3875 54.352 78.9217 70.1673 79.2499 81.9954C79.5782 93.8235 79.1698 108.223 77.185 117.377C74.6582 129.025 64.7648 138.66 50.2644 138.476C45.3597 138.412 39.871 138.724 33.7334 138.37C24.8591 137.855 23.5957 138.37 23.5957 138.37V81.652C23.5957 81.652 33.9357 83.6246 40.9855 80.969C46.7414 79.0613 50.4171 63.3757 53.066 45.6259" stroke="black" strokeWidth="1.5" strokeMiterlimit="10" strokeLinecap="round"/>
<path d="M17.7144 72.5329H9.39356C6.14511 72.5329 3.51172 75.1654 3.51172 78.4126V138.217C3.51172 141.464 6.14511 144.097 9.39356 144.097H17.7144C20.9629 144.097 23.5962 141.464 23.5962 138.217V78.4126C23.5962 75.1654 20.9629 72.5329 17.7144 72.5329Z" stroke="black" strokeWidth="1.5" strokeMiterlimit="10" strokeLinecap="round"/>
</svg>
