<svg width="84" height="68" viewBox="0 0 84 68" fill="none" xmlns="http://www.w3.org/2000/svg">
<path d="M35.7086 60.5783C51.9932 60.5783 65.1945 47.377 65.1945 31.0924C65.1945 14.8077 51.9932 1.60645 35.7086 1.60645C19.424 1.60645 6.22266 14.8077 6.22266 31.0924C6.22266 47.377 19.424 60.5783 35.7086 60.5783Z" fill="#F2F5F8"/>
<path d="M52.8806 7.64983C54.4748 6.05559 56.3684 5.36699 57.1132 6.11172C57.1951 6.19285 57.26 6.28955 57.304 6.39614C57.6783 7.26811 56.9934 8.92596 55.5751 10.3443C54.1567 11.7627 52.4988 12.4625 51.6456 12.077C51.5396 12.0302 51.4432 11.9643 51.3612 11.8824C50.5977 11.1377 51.2714 9.23284 52.8806 7.64983Z" fill="#D7E9F1"/>
<path d="M21.491 4.74135C23.4258 6.7959 24.2604 9.23216 23.3622 10.1939C23.2631 10.2978 23.1449 10.3816 23.0142 10.4409C21.9588 10.9424 19.9492 10.0405 18.2315 8.19553C16.5137 6.35056 15.6567 4.26233 16.1283 3.13963C16.1818 3.00161 16.2605 2.87472 16.3603 2.76539C17.2622 1.81483 19.56 2.70177 21.491 4.74135Z" fill="#D7E9F1"/>
<path d="M20.3659 5.88297C22.2969 7.93377 23.1314 10.3738 22.237 11.3318C22.1389 11.4361 22.0221 11.5212 21.8927 11.5826C20.8374 12.0803 18.8278 11.1784 17.1063 9.33715C15.3848 7.49592 14.5278 5.38898 14.9993 4.26628C15.0557 4.12883 15.1355 4.0022 15.2351 3.89204C16.137 2.94149 18.4348 3.82842 20.3659 5.88297Z" fill="#D7E9F1"/>
<path d="M15.9922 2.15588C16.058 2.00369 16.152 1.86529 16.2691 1.74796C17.3282 0.688877 20.0115 1.66937 22.2906 3.93723C24.5696 6.20509 25.5389 8.90333 24.4798 9.98112C24.3636 10.0979 24.2265 10.1918 24.0757 10.2581" stroke="#17141F" stroke-width="1.5" stroke-linecap="round" stroke-linejoin="round"/>
<path d="M24.0767 10.2389C22.8342 10.7928 20.4766 9.79356 18.4632 7.7727C16.4498 5.75183 15.4468 3.3979 15.997 2.15918" stroke="#17141F" stroke-width="1.5" stroke-linecap="round" stroke-linejoin="round"/>
<path d="M24.1968 10.2468L23.5194 10.9242C22.4603 11.9833 19.7771 11.0065 17.4943 8.73867C15.2114 6.47081 14.2496 3.77258 15.3087 2.7135L15.9861 2.03613" stroke="#17141F" stroke-width="1.5" stroke-linecap="round" stroke-linejoin="round"/>
<path d="M52.0183 7.03264C53.6126 5.4384 55.5062 4.74981 56.2509 5.49453C56.3328 5.57653 56.3988 5.67296 56.4455 5.77895C56.8198 6.65092 56.1312 8.30878 54.7128 9.72713C53.2945 11.1455 51.6441 11.8528 50.7796 11.4561C50.6735 11.4111 50.577 11.3464 50.4952 11.2652C49.7505 10.5205 50.4428 8.62313 52.0183 7.03264Z" stroke="#17141F" stroke-width="1.5" stroke-linecap="round" stroke-linejoin="round"/>
<path d="M73.0168 43.6396C70.6329 36.2896 69.5327 38.5912 69.5327 38.5912C69.5327 38.5912 67.2573 35.8705 66.3479 35.4364C65.4385 35.0022 65.0007 35.5374 65.0007 35.5374C64.5366 34.9648 63.0809 34.6991 62.5382 35.006C61.8373 35.4206 61.1601 35.8741 60.5099 36.3645C60.304 36.0988 60.072 35.8518 59.8475 35.5711C56.3222 31.1589 55.5288 30.4179 54.8252 30.8819C54.1217 31.346 54.4173 32.2479 55.1695 33.524C55.7047 34.4409 57.1006 36.3869 58.7547 39.2685C58.5227 39.6839 58.1634 40.017 58.2457 40.3912C58.4104 41.1734 59.331 41.7946 59.8475 41.1696L60.2554 42.4533C60.4126 42.8799 60.5623 43.3215 60.6932 43.778C62.0068 48.2988 61.5914 47.0825 62.0742 47.5653C61.2995 46.858 59.578 47.322 58.3842 45.7727C57.022 44.0101 55.5775 43.445 55.0573 44.3506C54.5371 45.2563 54.3874 47.4081 58.5751 50.8473C61.7897 53.467 61.2733 55.7124 64.1474 58.1898C67.0215 60.6672 75.9695 60.7907 75.9695 60.7907L83.4542 56.1802C83.4542 56.1802 79.6856 54.1818 78.0727 52.4753C75.221 49.4252 73.653 45.6043 73.0168 43.6396Z" fill="white"/>
<path d="M50.6016 43.4982V27.1254C50.6016 26.1209 49.7873 25.3066 48.7828 25.3066H25.3894C24.3849 25.3066 23.5706 26.1209 23.5706 27.1254V43.4982C23.5706 44.5027 24.3849 45.317 25.3894 45.317H48.7828C49.7873 45.317 50.6016 44.5027 50.6016 43.4982Z" fill="#A8B8F9"/>
<path d="M20.8203 23.9814L48.8355 24.1162" stroke="#17141F" stroke-width="1.5" stroke-linecap="round" stroke-linejoin="round"/>
<path d="M46.9307 19.8047H22.7252C21.6731 19.8047 20.8203 20.6575 20.8203 21.7095V41.5814C20.8203 42.6334 21.6731 43.4862 22.7252 43.4862H46.9307C47.9827 43.4862 48.8355 42.6334 48.8355 41.5814V21.7095C48.8355 20.6575 47.9827 19.8047 46.9307 19.8047Z" stroke="#17141F" stroke-width="1.5" stroke-linecap="round" stroke-linejoin="round"/>
<path d="M27.0306 16.8711H27.0269C26.4792 16.8711 26.0352 17.3151 26.0352 17.8628V21.7474C26.0352 22.2951 26.4792 22.7391 27.0269 22.7391H27.0306C27.5783 22.7391 28.0223 22.2951 28.0223 21.7474V17.8628C28.0223 17.3151 27.5783 16.8711 27.0306 16.8711Z" fill="white" stroke="#17141F" stroke-width="1.5" stroke-linecap="round" stroke-linejoin="round"/>
<path d="M42.1791 16.8711H42.1753C41.6276 16.8711 41.1836 17.3151 41.1836 17.8628V21.7474C41.1836 22.2951 41.6276 22.7391 42.1753 22.7391H42.1791C42.7268 22.7391 43.1708 22.2951 43.1708 21.7474V17.8628C43.1708 17.3151 42.7268 16.8711 42.1791 16.8711Z" fill="white" stroke="#17141F" stroke-width="1.5" stroke-linecap="round" stroke-linejoin="round"/>
<path d="M34.8314 16.8711H34.8277C34.2799 16.8711 33.8359 17.3151 33.8359 17.8628V21.7474C33.8359 22.2951 34.2799 22.7391 34.8277 22.7391H34.8314C35.3791 22.7391 35.8231 22.2951 35.8231 21.7474V17.8628C35.8231 17.3151 35.3791 16.8711 34.8314 16.8711Z" fill="white" stroke="#17141F" stroke-width="1.5" stroke-linecap="round" stroke-linejoin="round"/>
<path d="M35.2666 28.1016L35.8129 29.2018L37.0292 29.3814L36.1497 30.2384L36.3556 31.451L35.2666 30.8784L34.1775 31.451L34.3871 30.2384L33.5039 29.3814L34.7239 29.2018L35.2666 28.1016Z" fill="white"/>
<path d="M29.9441 28.7637H26.8828V31.6453H29.9441V28.7637Z" fill="white"/>
<path d="M29.9441 35.5078H26.8828V38.3894H29.9441V35.5078Z" fill="white"/>
<path d="M36.8972 35.5078H33.8359V38.3894H36.8972V35.5078Z" fill="white"/>
<path d="M43.6745 28.7305H40.6133V31.6121H43.6745V28.7305Z" fill="white"/>
<path d="M43.6745 35.5078H40.6133V38.3894H43.6745V35.5078Z" fill="white"/>
<path d="M29.9415 27.8174H26.1094V31.6495H29.9415V27.8174Z" stroke="#17141F" stroke-width="1.5" stroke-linecap="round" stroke-linejoin="round"/>
<path d="M43.7072 27.8174H39.875V31.6495H43.7072V27.8174Z" stroke="#17141F" stroke-width="1.5" stroke-linecap="round" stroke-linejoin="round"/>
<path d="M29.9415 34.5605H26.1094V38.3927H29.9415V34.5605Z" stroke="#17141F" stroke-width="1.5" stroke-linecap="round" stroke-linejoin="round"/>
<path d="M36.7462 34.5605H32.9141V38.3927H36.7462V34.5605Z" stroke="#17141F" stroke-width="1.5" stroke-linecap="round" stroke-linejoin="round"/>
<path d="M43.7072 34.5605H39.875V38.3927H43.7072V34.5605Z" stroke="#17141F" stroke-width="1.5" stroke-linecap="round" stroke-linejoin="round"/>
<path d="M34.8319 27.6943L35.4943 29.0378L36.9762 29.2511L35.9022 30.2953L36.1567 31.7697L34.8319 31.0737L33.5071 31.7697L33.7616 30.2953L32.6875 29.2511L34.1695 29.0378L34.8319 27.6943Z" stroke="#17141F" stroke-width="1.5" stroke-linecap="round" stroke-linejoin="round"/>
<path d="M64.7422 40.3574C64.9481 40.7493 65.1184 41.1589 65.2511 41.5812" stroke="#17141F" stroke-width="1.5" stroke-linecap="round" stroke-linejoin="round"/>
<path d="M69.742 59.5067C67.522 59.2947 65.426 58.3856 63.7543 56.9096C60.8801 54.4396 61.3966 52.2017 58.1819 49.5633C53.9942 46.1241 54.1439 43.976 54.6641 43.0704C55.1843 42.1647 56.9694 42.2321 58.3316 43.9947C59.6938 45.7574 63.7056 49.3725 63.7056 49.3725C63.7056 49.3725 61.9055 48.029 60.3001 42.4978C58.6946 36.9666 55.0608 33.6509 54.2674 32.3261C53.474 31.0013 53.7659 30.0358 54.4283 29.5979C55.0907 29.1601 56.6737 29.321 60.214 33.7145C61.6489 35.4596 62.9381 37.3195 64.0686 39.2756" stroke="#17141F" stroke-width="1.5" stroke-linecap="round" stroke-linejoin="round"/>
<path d="M58.1535 38.2656C57.9915 38.5208 57.8868 38.8081 57.8467 39.1077C57.3414 41.3531 59.3436 41.7984 59.8488 41.1734" stroke="#17141F" stroke-width="1.5" stroke-linecap="round" stroke-linejoin="round"/>
<path d="M67.2555 39.5006C67.2555 39.5006 64.7444 33.8272 63.1165 33.5578C61.9002 33.3557 61.5634 33.9956 60.8711 34.5233" stroke="#17141F" stroke-width="1.5" stroke-linecap="round" stroke-linejoin="round"/>
<path d="M69.7415 38.9653C69.7415 38.9653 67.6046 35.0883 66.8411 34.5382C66.5635 34.272 66.2043 34.107 65.8215 34.0696C65.4386 34.0323 65.0544 34.1248 64.7305 34.3323" stroke="#17141F" stroke-width="1.5" stroke-linecap="round" stroke-linejoin="round"/>
<path d="M75.9726 47.3565C75.0108 45.8221 74.5617 44.7967 73.3717 41.8028C70.157 33.7268 68.3906 36.1893 68.3906 36.1893" stroke="#17141F" stroke-width="1.5" stroke-linecap="round" stroke-linejoin="round"/>
<path d="M79.2298 51.0796C79.2298 51.0796 78.3616 50.7765 76.9844 49.0176" stroke="#17141F" stroke-width="1.5" stroke-linecap="round" stroke-linejoin="round"/>
<path d="M12.5117 33.0119V30.9648H2.27266V33.0119H12.5117Z" fill="#A8B8F9"/>
<path d="M37.1346 55.6112C33.9761 58.9793 32.6101 62.9574 34.0883 64.5255C34.2491 64.696 34.4409 64.8345 34.6534 64.9334C36.3786 65.7529 39.6644 64.2747 42.4787 61.2883C45.2929 58.3019 46.6813 54.8103 45.9104 52.9728C45.8216 52.7529 45.6949 52.5503 45.5362 52.3741C44.0505 50.806 40.2931 52.2693 37.1346 55.6112Z" fill="#D7E9F1"/>
<path d="M38.9798 57.4567C35.8212 60.8248 34.4553 64.8029 35.9298 66.371C36.0913 66.5407 36.2829 66.679 36.4949 66.7789C38.2238 67.5947 41.5096 66.1165 44.3201 63.1301C47.1306 60.1437 48.5228 56.6521 47.7518 54.8184C47.6646 54.5977 47.5378 54.3947 47.3776 54.2196C45.8956 52.6441 42.1383 54.0998 38.9798 57.4567Z" fill="#D7E9F1"/>
<path d="M46.1298 51.3678C46.0218 51.1214 45.8696 50.8969 45.6807 50.7054C43.948 48.9727 39.5396 50.5744 35.8309 54.283C32.1222 57.9917 30.5205 62.3964 32.2532 64.1291C32.4487 64.3211 32.6785 64.4747 32.9306 64.582" stroke="#17141F" stroke-width="1.5" stroke-linecap="round" stroke-linejoin="round"/>
<path d="M32.9336 64.5814C34.9619 65.4833 38.8166 63.8329 42.1211 60.5509C45.4255 57.2689 47.0535 53.3918 46.1478 51.3672" stroke="#17141F" stroke-width="1.5" stroke-linecap="round" stroke-linejoin="round"/>
<path d="M32.7188 64.5926L33.8415 65.7153C35.5742 67.448 39.9826 65.8462 43.6913 62.1376C47.4 58.4289 48.9979 54.0204 47.269 52.2877L46.1463 51.165" stroke="#17141F" stroke-width="1.5" stroke-linecap="round" stroke-linejoin="round"/>
<path d="M36.6428 58.0668C36.2686 58.6768 36.3023 59.1895 36.5829 59.4664C36.9347 59.7957 37.7056 59.5637 38.2558 58.9537C39.2587 57.8722 38.005 56.7083 39.0379 55.5856C39.5282 55.0579 40.1868 54.8671 40.5049 55.1627C40.823 55.4584 40.7444 55.8887 40.5311 56.3603" stroke="#17141F" stroke-width="1.5" stroke-miterlimit="10" stroke-linecap="round"/>
<path d="M41.0883 54.5977L35.9688 60.1026" stroke="#17141F" stroke-width="1.5" stroke-miterlimit="10" stroke-linecap="round"/>
<path d="M21.132 7.14428C21.2861 7.25224 21.4724 7.3044 21.6602 7.29215C21.848 7.27991 22.026 7.20398 22.1648 7.07692C22.4231 6.78502 22.2771 6.24238 21.8467 5.86066C21.0983 5.19078 20.1777 6.23489 19.3918 5.53881C19.0175 5.20949 18.9053 4.73047 19.1335 4.46476C19.2552 4.36115 19.4051 4.29648 19.5639 4.27913C19.7227 4.26178 19.8831 4.29255 20.0242 4.36746" stroke="#17141F" stroke-width="1.5" stroke-miterlimit="10" stroke-linecap="round"/>
<path d="M18.7266 4.0752L22.6149 7.48821" stroke="#17141F" stroke-width="1.5" stroke-miterlimit="10" stroke-linecap="round"/>
<path d="M62.4788 13.8916L63.6203 16.2044L66.1725 16.5749L64.3276 18.3749L64.7617 20.916L62.4788 19.7184L60.196 20.916L60.6339 18.3749L58.7852 16.5749L61.3374 16.2044L62.4788 13.8916Z" fill="#A8B8F9"/>
<path d="M3.69369 47.5654L4.83511 49.8782L7.38739 50.2487L5.54241 52.0488L5.97653 54.5936L3.69369 53.3923L1.41086 54.5936L1.84872 52.0488L0 50.2487L2.55228 49.8782L3.69369 47.5654Z" fill="#F3F6FF"/>
<path d="M69.1097 11.1562L69.6299 12.2153L70.7975 12.3837L69.9554 13.2071L70.1538 14.3709L69.1097 13.8208L68.0656 14.3709L68.2639 13.2071L67.4219 12.3837L68.5895 12.2153L69.1097 11.1562Z" fill="#7691F4"/>
<path d="M10.1409 54.0098L10.6611 55.0651L11.8287 55.2335L10.9867 56.0568L11.185 57.2207L10.1409 56.6706L9.09681 57.2207L9.29515 56.0568L8.45312 55.2335L9.62074 55.0651L10.1409 54.0098Z" fill="#7691F4"/>
</svg>
