<svg width="28" height="21" viewBox="0 0 28 21" fill="none" xmlns="http://www.w3.org/2000/svg">
<path d="M6.68641 19.6423C6.74396 19.6495 6.80241 19.642 6.85631 19.6206C6.91021 19.5992 6.95781 19.5645 6.9947 19.5197C8.49659 18.1364 11.5399 18.1917 11.5774 18.1917C14.852 18.1305 17.2016 18.7648 20.2449 17.4961L25.7525 14.2038C26.6003 13.8402 27.1023 13.6268 25.8691 13.2948C25.136 13.0833 24.7131 13.2039 23.0175 13.5971C22.1717 13.779 21.0532 14.0497 19.4367 14.4133C18.9743 13.9291 18.2036 13.9291 17.3162 13.9291C16.3539 13.9291 15.0832 13.8699 14.1544 13.6268C12.5734 13.1742 10.4945 12.6901 9.22382 13.5971C6.60539 15.2591 1.67484 16.4389 1.63531 16.4685C1.52807 16.4977 1.43354 16.5616 1.36655 16.6503C1.28948 16.7393 1.32703 16.8302 1.4041 16.9211C2.74671 18.4771 4.63999 19.4524 6.68641 19.6423ZM13.7354 16.1958H18.2036C19.2825 16.1958 19.8971 15.5615 19.745 14.9271" fill="white"/>
<path d="M13.3111 15.7449H17.7793C18.8583 15.7449 19.4748 14.9346 19.3207 14.1264M6.26214 20.1359C6.32296 20.1431 6.38453 20.1323 6.4393 20.1049C6.49407 20.0775 6.53965 20.0347 6.57042 19.9818C8.07231 18.2032 11.1156 18.2862 11.1532 18.2862C14.4277 18.2092 16.7774 19.0174 19.8207 17.4009L25.7492 14.2035C26.597 13.741 26.674 12.4703 25.4409 12.0455C24.7097 11.7767 24.2848 11.9309 22.5913 12.4407C21.7435 12.6719 20.625 13.0197 19.0085 13.4802C18.546 12.8656 17.7753 12.8656 16.89 12.8656C15.9256 12.8656 14.6549 12.7885 13.7281 12.4703C12.1472 11.8913 10.0702 11.2846 8.78769 12.4308C6.16926 14.5493 1.23871 16.0512 1.19918 16.0907C1.08996 16.1346 0.99923 16.2149 0.942282 16.318C0.910694 16.372 0.897294 16.4348 0.904053 16.4971C0.910812 16.5593 0.937374 16.6178 0.97983 16.6638C3.21883 19.9423 6.14554 20.1359 6.26214 20.1359Z" stroke="url(#paint0_linear)" strokeWidth="1.5" strokeMiterlimit="10" strokeLinecap="round"/>
<path d="M21.8892 2.83487C21.6891 2.58888 21.4352 2.39216 21.147 2.2599C20.8589 2.12764 20.5442 2.06337 20.2272 2.07207H20.1916C19.3004 2.07207 18.5158 2.50683 18.1601 3.16094C17.8044 2.50683 17.0179 2.07207 16.1286 2.07207H16.0931C15.7761 2.06337 15.4614 2.12764 15.1732 2.2599C14.8851 2.39216 14.6312 2.58888 14.4311 2.83487C14.0359 3.34275 13.939 4.02057 14.1426 4.75373C14.4825 5.96315 17.4724 8.62506 18.0673 9.14677C18.0927 9.16982 18.1258 9.18258 18.1601 9.18258C18.1945 9.18258 18.2276 9.16982 18.253 9.14677C18.8459 8.62506 21.8378 5.96315 22.1777 4.75373C22.3773 4.02453 22.2844 3.34275 21.8892 2.83487Z" fill="white"/>
<path d="M22.2838 2.072C22.0532 1.77945 21.7575 1.54475 21.4203 1.38659C21.0831 1.22843 20.7135 1.15118 20.3412 1.16099H20.2997C19.2582 1.16099 18.3373 1.68072 17.9283 2.46131C17.5133 1.67084 16.5924 1.16099 15.5569 1.16099H15.5134C15.141 1.15118 14.7715 1.22843 14.4343 1.38659C14.097 1.54475 13.8014 1.77945 13.5708 2.072C13.0946 2.68264 12.974 3.49287 13.2131 4.36436C13.6084 5.80895 17.1082 8.98861 17.8058 9.6111C17.8349 9.63778 17.873 9.65259 17.9125 9.6526C17.9526 9.6527 17.9913 9.63791 18.0212 9.6111C18.7168 8.98861 22.2146 5.80895 22.6118 4.36436C22.8509 3.49287 22.7304 2.68264 22.2838 2.072Z" stroke="url(#paint1_linear)" strokeWidth="1.5" strokeMiterlimit="10" strokeLinecap="round"/>
<defs>
<linearGradient id="paint0_linear" x1="0.902343" y1="12.5283" x2="6.25336" y2="27.3859" gradientUnits="userSpaceOnUse">
<stop stop-color="#5F7DF1"/>
<stop offset="1" stop-color="#3055EC"/>
</linearGradient>
<linearGradient id="paint1_linear" x1="13.0937" y1="1.91841" x2="21.6187" y2="10.73" gradientUnits="userSpaceOnUse">
<stop stop-color="#5F7DF1"/>
<stop offset="1" stop-color="#3055EC"/>
</linearGradient>
</defs>
</svg>
