<svg width="67" height="68" viewBox="0 0 67 68" fill="none" xmlns="http://www.w3.org/2000/svg">
<path d="M30.0864 63.9873C46.7027 63.9873 60.1729 50.5172 60.1729 33.9009C60.1729 17.2846 46.7027 3.81445 30.0864 3.81445C13.4702 3.81445 0 17.2846 0 33.9009C0 50.5172 13.4702 63.9873 30.0864 63.9873Z" fill="#F2F5F8"/>
<path d="M44.5039 4.28418C47.1218 4.50783 49.5671 5.68291 51.3773 7.58723C53.2356 9.54055 54.355 12.0805 54.5429 14.7699H44.5039V4.28418Z" fill="#D7E9F1"/>
<path d="M41.1373 7.95801V19.2609C41.1372 19.4151 41.1809 19.566 41.2633 19.6963L47.3043 29.4794C45.6574 30.2173 43.8736 30.5998 42.069 30.6021C38.892 30.618 35.8266 29.4312 33.4887 27.2799C32.3703 26.2648 31.4766 25.027 30.865 23.646C30.2534 22.265 29.9375 20.7713 29.9375 19.2609C29.9375 17.7506 30.2534 16.2569 30.865 14.8759C31.4766 13.4949 32.3703 12.2571 33.4887 11.242C35.5858 9.30898 38.2803 8.15035 41.1258 7.95801H41.1373Z" fill="#D7E9F1"/>
<path d="M44.9102 19.0312H56.1902C56.0375 20.9729 55.4507 22.8556 54.4732 24.5402C53.4957 26.2249 52.1525 27.6686 50.5425 28.7648L44.9102 19.0312Z" fill="#466BF0"/>
<path d="M44.1953 1.38184C47.3316 1.62015 50.2789 2.97402 52.503 5.19812C54.7271 7.42223 56.0809 10.3694 56.3193 13.5058H44.1953V1.38184Z" stroke="#17141F" stroke-width="1.5" stroke-linecap="round" stroke-linejoin="round"/>
<path d="M41.0207 4.28418V17.42C41.0206 17.5968 41.0667 17.7706 41.1543 17.9241L47.7299 29.2996C45.9848 30.1357 44.0768 30.5772 42.1418 30.5926C40.2067 30.6079 38.292 30.1968 36.5339 29.3884C34.7757 28.58 33.2172 27.3942 31.9692 25.9153C30.7212 24.4364 29.8143 22.7007 29.313 20.8316C28.8117 18.9626 28.7283 17.006 29.0688 15.1011C29.4092 13.1962 30.1652 11.3896 31.2829 9.80991C32.4006 8.2302 33.8525 6.91612 35.5355 5.96108C37.2186 5.00605 39.0913 4.43351 41.0207 4.28418V4.28418Z" stroke="#17141F" stroke-width="1.5" stroke-linecap="round" stroke-linejoin="round"/>
<path d="M44.5664 17.0723H55.9533C55.8005 19.0359 55.2094 20.9402 54.2234 22.6452C53.2374 24.3501 51.8817 25.8123 50.2561 26.9242L44.5664 17.0723Z" stroke="#17141F" stroke-width="1.5" stroke-linecap="round" stroke-linejoin="round"/>
<path d="M45.3516 56.1974L34.1594 64.8884C33.8612 65.1149 33.5212 65.2803 33.159 65.3752C32.7967 65.4702 32.4193 65.4927 32.0483 65.4417C31.6773 65.3906 31.3201 65.2669 30.9969 65.0776C30.6738 64.8883 30.3912 64.6372 30.1652 64.3385L11.3932 40.1518C10.9219 39.5628 10.7038 38.8108 10.7868 38.0611C10.8699 37.3113 11.2473 36.6253 11.8361 36.1538L24.0555 26.6646C24.3534 26.4389 24.6927 26.274 25.0543 26.1795C25.4159 26.0849 25.7925 26.0625 26.1627 26.1136C26.533 26.1647 26.8895 26.2882 27.212 26.4771C27.5344 26.666 27.8165 26.9166 28.0421 27.2145L44.6948 48.6595C44.6948 48.6595 49.7774 52.7607 45.3516 56.1974Z" fill="white"/>
<path d="M38.8385 61.4631C38.4567 61.9939 37.5173 63.2159 38.3574 64.2889C38.7736 64.8158 39.8848 65.7208 41.2061 64.6707C42.3058 63.655 43.4972 62.5171 44.9521 61.7724C45.0932 61.7021 45.2493 61.6671 45.4069 61.6704C45.5646 61.6738 45.719 61.7153 45.8571 61.7915C47.0778 62.4316 48.3946 62.8688 49.7558 63.086C51.1773 63.3185 52.6122 63.4601 54.0517 63.5099C54.238 63.5052 54.4219 63.5528 54.5825 63.6474L55.4989 64.2049L56.0908 64.5867C56.8049 64.7013 58.4049 63.2846 59.7795 61.6082C60.346 60.932 60.8484 60.2046 61.2802 59.4355C61.6052 58.8816 61.8277 58.2736 61.937 57.6408C61.9189 57.3867 61.8137 57.1466 61.6392 56.9611C60.4401 55.8346 59.4626 54.9372 58.5843 54.1544C55.8044 51.6113 54.1968 50.1526 51.4513 46.3569C51.0665 45.8185 50.5084 45.4289 49.8704 45.2533C49.103 45.0677 48.3075 45.0288 47.5258 45.1388C45.9525 45.303 44.5893 44.7187 43.2184 44.1192C42.1645 43.661 41.0915 43.199 40.007 43.2142L44.6962 48.6748L44.3716 49.2208C42.9053 49.0795 39.9268 49.4461 38.2619 49.4461C36.597 49.4461 34.8863 49.4003 33.084 49.4767C32.221 49.5072 31.2969 50.0838 31.3847 51.2638C31.4228 51.7434 31.617 52.1973 31.9378 52.556C32.2585 52.9146 32.6879 53.1582 33.1603 53.2494C35.0391 53.4938 36.7192 53.7611 38.3765 54.1277C39.9298 54.4761 41.4601 54.9199 42.9588 55.4565C43.0884 55.4556 43.217 55.4804 43.3369 55.5295C43.4569 55.5787 43.5659 55.6512 43.6576 55.7429C43.7462 55.7998 43.8239 55.8722 43.8867 55.9568C43.9164 55.9905 43.9421 56.0277 43.9631 56.0675C44.9826 57.1405 43.8561 57.5682 43.8561 57.5682L38.8385 61.4631Z" fill="#A6B6FA"/>
<path d="M45.1096 56.5946L33.02 65.9806C32.3823 66.4702 31.5772 66.6887 30.7795 66.5886C29.9817 66.4885 29.2556 66.078 28.7585 65.446L8.93256 39.9113C8.44294 39.2736 8.22447 38.4685 8.32455 37.6707C8.42463 36.873 8.83518 36.1468 9.46716 35.6498L22.6717 25.3969C23.31 24.9077 24.1153 24.6899 24.9131 24.7907C25.7109 24.8915 26.4368 25.3028 26.9333 25.9354L44.4986 48.5756" stroke="#17141F" stroke-width="1.5" stroke-linecap="round" stroke-linejoin="round"/>
<path d="M46.3248 49.1487L43.5105 48.7898C41.9144 48.6638 39.3101 48.0795 37.4772 48.1139C35.6443 48.1483 33.7961 48.1139 31.8295 48.2475C30.8864 48.301 29.863 48.9387 29.9203 50.2141C29.9496 50.7312 30.155 51.2226 30.5024 51.6068C30.8497 51.9909 31.318 52.2446 31.8295 52.3258C33.8725 52.5549 35.7016 52.8069 37.5039 53.1697C39.1459 53.5095 42.0595 54.3611 42.4681 54.5176C42.866 54.661 43.2338 54.8773 43.5525 55.1553C43.7969 55.3806 45.5802 57.0646 46.5845 57.5992C47.8067 58.1858 49.1276 58.5393 50.4794 58.6417M38.8137 61.4636C38.4051 62.044 36.3545 63.033 37.2519 64.1748C37.6949 64.7399 38.8748 65.7022 40.3564 64.5223C41.5745 63.4034 42.8805 62.1509 44.5034 61.3147C44.6549 61.2338 44.8241 61.1914 44.9959 61.1914C45.1678 61.1914 45.337 61.2338 45.4885 61.3147C46.8162 61.9858 48.2459 62.4323 49.7195 62.6359C51.2693 62.8606 52.8316 62.9881 54.3973 63.0177C54.5989 63.0095 54.7988 63.0584 54.9739 63.159L55.9629 63.7394L56.6044 64.1213C57.3681 64.232 59.1552 62.6702 60.6902 60.8297C61.3192 60.0877 61.8814 59.2916 62.3704 58.4507C62.7399 57.85 62.9986 57.1878 63.1341 56.4956C63.1761 56.2092 63.1341 56.0069 63.0539 55.9305C62.9676 55.8892 62.8889 55.8337 62.821 55.7663C61.538 54.5711 60.4879 53.6203 59.5599 52.7916C56.5776 50.1186 54.8478 48.553 51.9228 44.5015C51.5074 43.9314 50.9044 43.5258 50.2197 43.356C49.3805 43.171 48.514 43.1451 47.6651 43.2796C45.943 43.4896 44.469 42.8977 42.9797 42.2639C41.8342 41.7865 40.6886 41.3092 39.4934 41.3512" stroke="#17141F" stroke-width="1.5" stroke-linecap="round" stroke-linejoin="round"/>
<path d="M20.428 27.1389L21.6105 26.2206L38.5128 47.9873L37.7914 48.5475C37.6685 48.6429 37.4983 48.6671 37.3183 48.6146C37.1383 48.5622 36.9632 48.4375 36.8315 48.2679L20.4258 27.1406L20.428 27.1389Z" fill="#17141F"/>
<path d="M65.6967 38.8895L66.0547 36.4141L53.6928 34.6261L53.3348 37.1015L65.6967 38.8895Z" fill="#D6E8EF"/>
<path d="M15.6875 24.7593C16.0636 23.974 16.5328 23.2368 17.0851 22.5636C17.645 21.8934 18.2864 21.2956 18.9944 20.7842" stroke="#17141F" stroke-width="1.5" stroke-linecap="round" stroke-linejoin="round"/>
<path d="M6.97266 27.3179C7.35368 23.7054 8.80397 20.2886 11.1379 17.505C13.4719 14.7214 16.5834 12.6975 20.0741 11.6924" stroke="#17141F" stroke-width="1.5" stroke-linecap="round" stroke-linejoin="round"/>
<path d="M11.207 25.7515C11.7277 23.6686 12.7098 21.7294 14.0806 20.0771C15.4513 18.4247 17.1759 17.1015 19.1267 16.2051" stroke="#17141F" stroke-width="1.5" stroke-linecap="round" stroke-linejoin="round"/>
</svg>
