<svg width="35" height="35" viewBox="0 0 35 35" fill="none" xmlns="http://www.w3.org/2000/svg">
<path d="M21.1252 21.4967L20.2873 20.6233C19.7913 20.1549 19.0779 19.2558 18.4673 18.7815C17.8566 18.3072 17.244 17.8053 16.5642 17.3211C16.4811 17.2517 16.3842 17.2008 16.2799 17.1716C16.1756 17.1425 16.0664 17.1358 15.9593 17.1521C15.8523 17.1683 15.7499 17.2071 15.659 17.2659C15.568 17.3247 15.4906 17.4021 15.4319 17.493C15.3098 17.6795 15.2522 17.9009 15.2679 18.1232C15.2836 18.3456 15.3717 18.5567 15.5188 18.7242C16.1354 19.3486 16.6749 19.9237 17.1788 20.5284C17.6486 21.098 18.0828 21.6959 18.4791 22.3188C18.5272 22.3553 18.5675 22.4011 18.5977 22.4533C18.6279 22.5056 18.6473 22.5633 18.655 22.6232C18.6708 22.6689 18.6789 22.717 18.6787 22.7654C18.6807 22.7865 18.6807 22.8077 18.6787 22.8287C18.7155 23.3945 18.8422 23.9509 19.0542 24.4768C19.3049 25.0015 19.6507 25.4752 20.0739 25.874L21.1252 21.4967ZM15.4872 23.7318C15.2026 23.8207 14.2699 23.6152 14.2738 24.2456C14.2738 24.5578 14.4201 25.2001 15.2105 25.1922C15.9022 25.1329 16.6551 25.0519 17.4061 25.1922C17.4781 25.2059 17.5456 25.2372 17.6025 25.2835C17.6594 25.3297 17.704 25.3893 17.7321 25.457C17.9973 26.0378 18.355 26.5718 18.7913 27.0379C19.2449 27.5301 19.7301 27.9922 20.2438 28.4213C20.3126 28.4715 20.3659 28.54 20.398 28.6189L20.5758 29.0813L20.6865 29.3876C20.9157 29.6327 21.9038 29.5694 22.884 29.3461C23.2832 29.2589 23.6734 29.1352 24.0499 28.9766C24.327 28.8673 24.5816 28.7078 24.8009 28.5062C24.8898 28.4193 24.9333 28.3422 24.9195 28.2908C24.9014 28.2536 24.89 28.2134 24.8859 28.1723C24.7673 27.4193 24.6645 26.8127 24.5697 26.2811C24.2752 24.5598 24.1013 23.5658 24.1744 21.396C24.1842 21.0931 24.0916 20.7959 23.9116 20.5521C23.6831 20.2673 23.4037 20.0274 23.0876 19.8447C22.4631 19.4494 22.1311 18.8566 21.7991 18.2459C21.5442 17.7796 21.2813 17.3053 20.8802 17.0029" fill="white"/>
<path d="M19.1353 23.2738H12.5665C12.3931 23.2715 12.2219 23.2351 12.0626 23.1666C11.9033 23.0981 11.7591 22.9989 11.6382 22.8746C11.5173 22.7504 11.422 22.6036 11.3578 22.4425C11.2936 22.2814 11.2618 22.1093 11.2642 21.936V7.7431C11.2621 7.57 11.2941 7.39818 11.3584 7.23746C11.4227 7.07674 11.5181 6.93026 11.639 6.8064C11.7599 6.68253 11.9041 6.58369 12.0632 6.51554C12.2224 6.44738 12.3934 6.41124 12.5665 6.40918H19.74C19.9131 6.41124 20.0841 6.44738 20.2432 6.51554C20.4023 6.58369 20.5465 6.68253 20.6674 6.8064C20.7883 6.93026 20.8837 7.07674 20.948 7.23746C21.0123 7.39818 21.0444 7.57 21.0423 7.7431V20.3313C21.0423 20.3313 21.7379 23.2738 19.1353 23.2738Z" fill="white"/>
<path d="M18.9336 23.3487H11.8392C11.6538 23.3487 11.4703 23.3121 11.2991 23.2411C11.1279 23.17 10.9724 23.0659 10.8415 22.9346C10.7106 22.8034 10.6069 22.6476 10.5363 22.4762C10.4657 22.3048 10.4297 22.1211 10.4302 21.9358V6.9544C10.4307 6.58105 10.5794 6.22317 10.8436 5.95935C11.1078 5.69554 11.4658 5.54736 11.8392 5.54736H19.5878C19.9609 5.54736 20.3188 5.6956 20.5827 5.95947C20.8466 6.22334 20.9948 6.58123 20.9948 6.9544V20.2422" stroke="url(#paint0_linear)" strokeWidth="1.5" strokeMiterlimit="10" strokeLinecap="round"/>
<path d="M21.4967 20.9696L20.5679 20.0368C20.0185 19.5369 19.2281 18.5804 18.5522 18.0745C17.8764 17.5686 17.1926 17.0331 16.4456 16.5173C16.084 16.2683 15.5287 16.211 15.1927 16.7011C15.0576 16.8982 14.9934 17.1354 15.0106 17.3737C15.0279 17.6121 15.1255 17.8376 15.2876 18.0132C15.9713 18.6772 16.5701 19.2899 17.1254 19.9361C17.649 20.5409 18.1335 21.1785 18.5759 21.845C18.6293 21.8822 18.6743 21.93 18.7084 21.9855C18.7424 22.0409 18.7645 22.1028 18.7735 22.1672C18.792 22.2157 18.8007 22.2674 18.7992 22.3193C18.8013 22.3417 18.8013 22.3642 18.7992 22.3865C18.84 22.9912 18.981 23.5848 19.2162 24.1433C19.4957 24.7057 19.8784 25.2105 20.3446 25.6314M15.254 23.3489C14.9378 23.4457 13.9062 23.2244 13.9102 23.8963C13.9029 24.033 13.925 24.1696 13.975 24.297C14.0251 24.4243 14.1018 24.5395 14.2002 24.6347C14.2985 24.7298 14.4161 24.8028 14.5451 24.8486C14.674 24.8944 14.8113 24.912 14.9477 24.9002C15.7124 24.837 16.5464 24.75 17.3784 24.9002C17.4569 24.9142 17.5308 24.9473 17.5935 24.9966C17.6562 25.0458 17.7059 25.1098 17.738 25.1828C18.0336 25.808 18.4302 26.3802 18.9119 26.8764C19.4165 27.3987 19.9537 27.8885 20.5205 28.3427C20.5961 28.3972 20.655 28.4719 20.6904 28.5581L20.888 29.0521L21.0106 29.3782C21.2615 29.6391 22.3583 29.5758 23.4413 29.3328C23.8833 29.2409 24.3159 29.1086 24.7337 28.9375C25.0387 28.8219 25.3204 28.6526 25.5656 28.4376C25.6625 28.3447 25.7099 28.2617 25.6961 28.2063C25.6756 28.167 25.6629 28.124 25.6585 28.0799C25.5281 27.2775 25.4135 26.6333 25.3088 26.0642C24.9827 24.2303 24.789 23.1711 24.872 20.8589C24.8839 20.5307 24.7797 20.2088 24.5776 19.9499C24.3229 19.6436 24.0133 19.3875 23.6646 19.195C22.9749 18.784 22.6073 18.1417 22.2397 17.4915C21.9572 16.9935 21.6667 16.4896 21.222 16.1655" stroke="url(#paint1_linear)" strokeWidth="1.5" strokeMiterlimit="10" strokeLinecap="round"/>
<path d="M18.2696 5.54736H19.2281V18.3213H18.6352C18.5362 18.3213 18.4412 18.282 18.3711 18.212C18.3011 18.1419 18.2617 18.0469 18.2617 17.9478V5.54736H18.2696Z" fill="url(#paint2_linear)"/>
<defs>
<linearGradient id="paint0_linear" x1="10.4302" y1="7.13677" x2="25.3877" y2="15.2211" gradientUnits="userSpaceOnUse">
<stop stop-color="#5F7DF1"/>
<stop offset="1" stop-color="#3055EC"/>
</linearGradient>
<linearGradient id="paint1_linear" x1="13.9088" y1="17.3603" x2="27.0293" y2="27.8881" gradientUnits="userSpaceOnUse">
<stop stop-color="#5F7DF1"/>
<stop offset="1" stop-color="#3055EC"/>
</linearGradient>
<linearGradient id="paint2_linear" x1="18.2617" y1="6.6879" x2="20.0212" y2="6.80912" gradientUnits="userSpaceOnUse">
<stop stop-color="#5F7DF1"/>
<stop offset="1" stop-color="#3055EC"/>
</linearGradient>
</defs>
</svg>
