<svg width="79" height="67" viewBox="0 0 79 67" fill="none" xmlns="http://www.w3.org/2000/svg">
<path d="M35.5058 62.6014C51.2858 62.6014 64.078 49.8092 64.078 34.0292C64.078 18.2492 51.2858 5.45703 35.5058 5.45703C19.7258 5.45703 6.93359 18.2492 6.93359 34.0292C6.93359 49.8092 19.7258 62.6014 35.5058 62.6014Z" fill="#F2F5F8"/>
<path d="M36.9853 53.9891C46.5666 53.9891 54.3339 46.2219 54.3339 36.6406C54.3339 27.0592 46.5666 19.292 36.9853 19.292C27.4039 19.292 19.6367 27.0592 19.6367 36.6406C19.6367 46.2219 27.4039 53.9891 36.9853 53.9891Z" fill="#A8B8F9"/>
<path d="M44.3262 21.377L47.6733 17.5693L49.2979 22.3707L44.3262 21.377Z" fill="#17141F"/>
<path d="M51.0443 25.1953C53.2773 29.0969 53.9814 33.6889 53.0199 38.0803C52.0584 42.4717 49.4999 46.3494 45.8408 48.9609C42.1817 51.5723 37.6829 52.7314 33.2175 52.2132C28.752 51.695 24.6383 49.5364 21.6745 46.1563C18.7107 42.7763 17.1082 38.4157 17.178 33.9208C17.2477 29.4259 18.9848 25.1172 22.052 21.8308C25.1193 18.5443 29.298 16.5144 33.7774 16.135C38.2568 15.7556 42.7174 17.0538 46.2937 19.7775" stroke="#17141F" stroke-width="1.5" stroke-linecap="round" stroke-linejoin="round"/>
<path d="M29.2461 27.6062L38.7146 25.793C38.7146 25.793 38.7871 31.907 35.0882 32.6069C31.3893 33.3068 29.2461 27.6062 29.2461 27.6062Z" fill="white"/>
<path d="M41.7381 41.7175L32.2696 43.5307C32.2696 43.5307 32.1971 37.4167 35.896 36.7168C39.5949 36.0169 41.7381 41.7175 41.7381 41.7175Z" fill="#D7E9F1"/>
<path d="M41.8674 41.8727L41.6679 40.8283C41.537 40.1378 41.2706 39.4801 40.8841 38.8932C40.4976 38.3062 39.9986 37.8017 39.4159 37.4087L35.5176 34.7469L38.1685 30.8413C38.5659 30.2618 38.8448 29.6094 38.9892 28.9217C39.1336 28.234 39.1406 27.5246 39.0098 26.8342L38.8103 25.7861" stroke="#17141F" stroke-width="1.5" stroke-linecap="round" stroke-linejoin="round"/>
<path d="M29.166 27.6182L29.3618 28.6626C29.4931 29.3529 29.7597 30.0105 30.1462 30.5974C30.5327 31.1843 31.0314 31.6889 31.6138 32.0822L35.5158 34.7476L32.8649 38.6496C32.466 39.2298 32.1862 39.8833 32.0418 40.5724C31.8974 41.2616 31.8912 41.9725 32.0236 42.664L32.223 43.7048" stroke="#17141F" stroke-width="1.5" stroke-linecap="round" stroke-linejoin="round"/>
<path d="M40.2703 24.9668L27.0449 27.4835" stroke="#17141F" stroke-width="1.5" stroke-linecap="round" stroke-linejoin="round"/>
<path d="M43.5965 42.0469L30.3711 44.5599" stroke="#17141F" stroke-width="1.5" stroke-linecap="round" stroke-linejoin="round"/>
<path d="M34.5371 29.5977L36.2923 38.834" stroke="#17141F" stroke-width="1.5" stroke-linecap="round" stroke-linejoin="round"/>
<path d="M35.3924 1.00009C34.5728 1.19665 33.8006 1.5544 33.1207 2.05248C32.4408 2.55056 31.8669 3.17901 31.4324 3.90119C30.0943 2.97646 27.8749 3.12877 26.5767 3.85042C26.5279 3.87688 26.4906 3.92046 26.472 3.97278C26.4534 4.0251 26.4548 4.08245 26.476 4.13378C26.4971 4.18511 26.5365 4.2268 26.5866 4.25081C26.6367 4.27482 26.6938 4.27946 26.7471 4.26382C27.5977 3.96749 28.5214 3.95476 29.3799 4.22756C30.1051 4.48141 30.6201 5.02536 31.2728 5.388C31.3745 5.43349 31.4866 5.45044 31.5971 5.43702C31.7076 5.42361 31.8124 5.38033 31.9002 5.31185C31.944 5.28008 31.9831 5.24223 32.0162 5.19943C32.0511 5.14897 32.0792 5.09409 32.0996 5.03624C32.1178 5.02189 32.1348 5.00613 32.1504 4.9891C32.4446 4.19315 32.8966 3.46485 33.4793 2.84793C34.0619 2.231 34.7632 1.73816 35.5411 1.39899C35.7877 1.27932 35.639 0.945691 35.3924 1.00009Z" fill="#17141F"/>
<path d="M68.4911 15.4476C65.7532 15.1176 63.0516 15.7304 60.9301 17.4131C59.4977 15.2626 56.1252 14.1783 53.7826 14.4902C53.6864 14.4902 53.5941 14.5284 53.5261 14.5964C53.4581 14.6644 53.4199 14.7567 53.4199 14.8529C53.4199 14.949 53.4581 15.0413 53.5261 15.1093C53.5941 15.1773 53.6864 15.2155 53.7826 15.2155C55.2139 15.2783 56.5865 15.8024 57.6954 16.7096C58.6165 17.511 59.0589 18.6134 59.8168 19.5345C59.9399 19.661 60.0949 19.7517 60.2654 19.797C60.4359 19.8424 60.6155 19.8406 60.7851 19.792C60.8698 19.7711 60.9506 19.7368 61.0244 19.6904C61.1058 19.6386 61.1791 19.5751 61.242 19.5019C61.2877 19.4762 61.3313 19.4471 61.3726 19.4148C63.2837 17.4276 65.6879 16.1293 68.4911 16.0967C68.5772 16.0967 68.6598 16.0625 68.7206 16.0016C68.7815 15.9408 68.8157 15.8582 68.8157 15.7721C68.8157 15.6861 68.7815 15.6035 68.7206 15.5426C68.6598 15.4818 68.5772 15.4476 68.4911 15.4476Z" fill="#17141F"/>
<path d="M58.4666 51.0441C53.5384 53.3432 49.6654 57.1835 47.845 62.2206C43.1996 60.11 36.4219 61.8108 32.8137 64.759C32.6972 64.8748 32.6235 65.0265 32.6045 65.1896C32.5855 65.3527 32.6224 65.5173 32.7091 65.6567C32.7959 65.7961 32.9273 65.9019 33.082 65.9569C33.2367 66.0119 33.4054 66.0127 33.5607 65.9594C36.0593 64.6575 38.8516 63.925 41.6801 64.3819C44.0554 64.7445 45.9484 66.1516 48.1786 66.9204C48.5171 67.0037 48.8719 66.9938 49.2052 66.8916C49.5385 66.7894 49.8379 66.5989 50.0716 66.3401C50.1883 66.2154 50.2872 66.075 50.3653 65.9231C50.4459 65.7491 50.502 65.5649 50.5321 65.3755C50.5834 65.286 50.6247 65.1912 50.6554 65.0927C51.7941 59.7728 54.4667 55.0875 59.1339 52.1102C59.8338 51.6751 59.181 50.7177 58.4666 51.0441Z" fill="#17141F"/>
<path d="M13.6349 51.5882C15.3538 51.5882 16.7609 50.3443 16.7609 48.8249C16.7609 47.3054 15.3937 46.1015 13.6966 46.0652C13.0547 44.4188 11.2959 43.3019 9.29053 43.3019C8.51552 43.2851 7.74795 43.4561 7.05333 43.8003C6.35872 44.1444 5.75768 44.6515 5.30152 45.2783C3.17647 45.0571 1.36328 46.5765 1.36328 48.4224C1.36328 50.163 2.97702 51.5882 4.94251 51.5882H13.6349Z" fill="white" stroke="#17141F" stroke-width="1.57" stroke-linecap="round" stroke-linejoin="round"/>
<path d="M13.5913 52.3128C15.2195 52.3128 16.554 51.1488 16.554 49.7272C16.554 48.3057 15.2594 47.1888 13.6529 47.1452C13.0437 45.604 11.3792 44.5596 9.47534 44.5596C8.7462 44.544 8.02398 44.7039 7.36953 45.0258C6.71508 45.3476 6.14757 45.8221 5.71479 46.4091C3.67677 46.2024 1.96875 47.6239 1.96875 49.3501C1.96875 50.9783 3.49908 52.3128 5.35941 52.3128H13.5913Z" fill="#D7E9F1"/>
<path d="M13.6349 51.5882C15.3538 51.5882 16.7609 50.3443 16.7609 48.8249C16.7609 47.3054 15.3937 46.1015 13.6966 46.0652C13.0547 44.4188 11.2959 43.3019 9.29053 43.3019C8.51552 43.2851 7.74795 43.4561 7.05333 43.8003C6.35872 44.1444 5.75768 44.6515 5.30152 45.2783C3.17647 45.0571 1.36328 46.5765 1.36328 48.4224C1.36328 50.163 2.97702 51.5882 4.94251 51.5882H13.6349Z" stroke="#17141F" stroke-width="1.5" stroke-linecap="round" stroke-linejoin="round"/>
<path d="M73.068 38.1301C75.2438 38.1301 77.0353 36.5526 77.0353 34.627C77.0353 32.7014 75.3019 31.1674 73.1478 31.1203C72.3355 29.0351 70.1017 27.6172 67.5559 27.6172C66.5762 27.5993 65.6067 27.8177 64.7292 28.2539C63.8518 28.6901 63.0924 29.3312 62.5153 30.1231C59.7846 29.8474 57.5 31.7731 57.5 34.1121C57.5 36.3169 59.5489 38.1265 62.0438 38.1265L73.068 38.1301Z" fill="white" stroke="#17141F" stroke-width="1.99" stroke-linecap="round" stroke-linejoin="round"/>
<path d="M73.0174 39.0481C75.0808 39.0481 76.7707 37.5722 76.7707 35.7844C76.7707 33.9966 75.1316 32.5497 73.09 32.5206C72.3212 30.566 70.207 29.2569 67.7955 29.2569C66.8725 29.2325 65.957 29.4287 65.1251 29.8292C64.2931 30.2297 63.5688 30.8229 63.0123 31.5597C60.4267 31.2986 58.2617 33.1009 58.2617 35.2948C58.2617 37.3546 60.2018 39.0481 62.5662 39.0481H73.0174Z" fill="#D7E9F1"/>
<path d="M73.068 38.1301C75.2438 38.1301 77.0353 36.5526 77.0353 34.627C77.0353 32.7014 75.3019 31.1674 73.1478 31.1203C72.3355 29.0351 70.1017 27.6172 67.5559 27.6172C66.5762 27.5993 65.6067 27.8177 64.7292 28.2539C63.8518 28.6901 63.0924 29.3312 62.5153 30.1231C59.7846 29.8474 57.5 31.7731 57.5 34.1121C57.5 36.3169 59.5489 38.1265 62.0438 38.1265L73.068 38.1301Z" stroke="#17141F" stroke-width="1.5" stroke-linecap="round" stroke-linejoin="round"/>
</svg>
