<svg width="28" height="28" viewBox="0 0 28 28" fill="none" xmlns="http://www.w3.org/2000/svg">
<rect width="28" height="28" rx="7" fill="#FBEECB"/>
<path fill-rule="evenodd" clip-rule="evenodd" d="M13.0282 7.63925C12.5255 7.63925 12.0978 7.98861 11.9777 8.4595H16.0147C15.8947 7.98861 15.467 7.63925 14.9642 7.63925H13.0282ZM17.1553 8.45948H18.6411C20.2169 8.45948 21.5 9.75821 21.5 11.3531C21.5 11.3531 21.455 12.0283 21.44 12.9686C21.4385 13.043 21.4025 13.1159 21.3432 13.16C20.9822 13.4265 20.6521 13.6468 20.6221 13.662C19.3764 14.4974 17.929 15.0853 16.3869 15.3777C16.2864 15.3974 16.1873 15.345 16.1363 15.2554C15.7041 14.5065 14.8967 14.0189 13.9962 14.0189C13.1018 14.0189 12.2869 14.5012 11.8419 15.2508C11.7901 15.3389 11.6926 15.3898 11.5928 15.3708C10.0635 15.0777 8.61606 14.4906 7.37794 13.6696L6.65758 13.1683C6.59755 13.1303 6.56003 13.062 6.56003 12.986C6.53752 12.5987 6.5 11.3531 6.5 11.3531C6.5 9.75821 7.78314 8.45948 9.35893 8.45948H10.8372C10.9797 7.35822 11.9027 6.5 13.0283 6.5H14.9642C16.0898 6.5 17.0128 7.35822 17.1553 8.45948ZM21.2449 14.6114L21.2148 14.6266C19.6991 15.6443 17.8757 16.3203 15.9622 16.6013C15.6921 16.6393 15.4219 16.4646 15.3469 16.1912C15.1818 15.5684 14.6491 15.1583 14.0112 15.1583H14.0037H13.9887C13.3509 15.1583 12.8181 15.5684 12.6531 16.1912C12.578 16.4646 12.3079 16.6393 12.0378 16.6013C10.1243 16.3203 8.30089 15.6443 6.78513 14.6266C6.77763 14.619 6.70259 14.5735 6.64256 14.6114C6.57503 14.6494 6.57503 14.7406 6.57503 14.7406L6.62755 18.6139C6.62755 20.2089 7.90319 21.5 9.47898 21.5H18.5135C20.0893 21.5 21.3649 20.2089 21.3649 18.6139L21.425 14.7406C21.425 14.7406 21.425 14.6494 21.3574 14.6114C21.3199 14.5887 21.2749 14.5962 21.2449 14.6114ZM14.559 17.7937C14.559 18.1127 14.3114 18.3633 13.9962 18.3633C13.6886 18.3633 13.4335 18.1127 13.4335 17.7937V16.8139C13.4335 16.5026 13.6886 16.2443 13.9962 16.2443C14.3114 16.2443 14.559 16.5026 14.559 16.8139V17.7937Z" fill="#CD8025"/>
</svg>
