<svg width="107" height="148" viewBox="0 0 107 148" fill="none" xmlns="http://www.w3.org/2000/svg">
<g clip-path="url(#clip0)">
<path d="M68.3624 5.28022L13.7137 20.0358C11.352 20.6735 9.95444 23.1049 10.5921 25.4666L42.7936 144.728C43.4312 147.089 45.8627 148.487 48.2244 147.849L102.873 133.094C105.235 132.456 106.632 130.025 105.995 127.663L73.7932 8.40182C73.1556 6.04014 70.7241 4.64255 68.3624 5.28022Z" fill="white"/>
<path d="M33.0547 8.95282L37.6095 7.72314" stroke="black" strokeWidth="1.5" strokeLinecap="round" strokeLinejoin="round"/>
<path d="M28.9164 10.0693L3.51048 16.9392C2.56932 17.1963 1.76804 17.8152 1.28145 18.6609C0.794855 19.5065 0.662447 20.5103 0.913109 21.4532L33.3458 141.544C33.6036 142.486 34.2235 143.288 35.0702 143.775C35.9169 144.263 36.9219 144.395 37.8661 144.145L97.1853 128.121C98.1292 127.864 98.9327 127.243 99.4196 126.395C99.9065 125.546 100.037 124.539 99.7826 123.595L89.4308 85.2802L79.8099 49.4471" stroke="black" strokeWidth="1.5" strokeLinecap="round" strokeLinejoin="round"/>
<path d="M55.6055 2.86074L62.8204 0.912715C63.7642 0.660166 64.7696 0.791642 65.6167 1.27839C66.4638 1.76513 67.0836 2.56753 67.3407 3.51009L78.3921 44.4218" stroke="black" strokeWidth="1.5" strokeLinecap="round" strokeLinejoin="round"/>
<path d="M53.7441 133.159L77.9361 126.625" stroke="black" strokeWidth="1.5" strokeLinecap="round" strokeLinejoin="round"/>
<path d="M8.41016 27.6457L69.417 11.1675" stroke="black" strokeWidth="1.5" strokeLinecap="round" strokeLinejoin="round"/>
<path d="M53.7011 67.7137C53.7967 67.566 53.8342 67.388 53.8064 67.2143C53.7786 67.0405 53.6874 66.8831 53.5505 66.7726C53.4372 66.683 53.2945 66.6391 53.1505 66.6496C53.0065 66.66 52.8716 66.7241 52.7725 66.8291L42.2732 77.6546L36.3131 75.4933C35.9423 75.3418 35.642 75.0564 35.4717 74.6938C35.3015 74.3312 35.2737 73.9179 35.394 73.5358C35.4916 73.1919 35.707 72.8932 36.0025 72.692L59.4197 56.6404C59.5543 56.5532 59.7058 56.4954 59.8642 56.4707C60.0227 56.446 60.1846 56.4549 60.3394 56.4969C60.4942 56.539 60.6384 56.6131 60.7626 56.7146C60.8868 56.816 60.9882 56.9425 61.0603 57.0858C61.1857 57.3095 61.2466 57.5636 61.2359 57.8198L60.367 82.0902C60.3691 82.2909 60.3312 82.49 60.2556 82.6758C60.1799 82.8617 60.068 83.0307 59.9264 83.1729C59.7848 83.3151 59.6163 83.4276 59.4308 83.504C59.2452 83.5805 59.0463 83.6192 58.8456 83.6179C58.704 83.6089 58.5646 83.5793 58.4315 83.5301L51.1946 80.9013L46.9786 85.6883C46.8783 85.8051 46.7543 85.8993 46.6148 85.9646C46.4753 86.0299 46.3235 86.0647 46.1696 86.0668C46.0156 86.0688 45.8629 86.0381 45.7217 85.9766C45.5805 85.9152 45.454 85.8244 45.3506 85.7102C45.1342 85.4786 45.0084 85.1768 44.9961 84.8601L44.811 81.2809L53.7011 67.7137Z" fill="#466BF0"/>
<path d="M62.1484 50.9059L66.3707 44.4438L69.859 51.3294L62.1484 50.9059Z" fill="black"/>
<path d="M38.6898 91.5068L34.4707 97.972L30.9824 91.0864L38.6898 91.5068Z" fill="black"/>
<path d="M24.2578 63.0173C25.604 58.763 27.9701 54.9025 31.15 51.772C34.3298 48.6415 38.2268 46.3361 42.5016 45.0565C46.7764 43.777 51.2992 43.5621 55.6761 44.4307C60.0529 45.2993 64.151 47.2249 67.6132 50.0399" stroke="black" strokeWidth="1.5" strokeLinecap="round" strokeLinejoin="round"/>
<path d="M28.6494 87.9279C24.4116 82.4157 22.4349 75.4951 23.1221 68.5762" stroke="black" strokeWidth="1.5" strokeLinecap="round" strokeLinejoin="round"/>
<path d="M71.2419 53.6035C75.6714 58.8432 77.9704 65.556 77.683 72.4111C77.3956 79.2661 74.5429 85.763 69.6903 90.6135C64.8378 95.4641 58.3398 98.3141 51.4846 98.5987C44.6294 98.8833 37.9176 96.5816 32.6797 92.15" stroke="black" strokeWidth="1.5" strokeLinecap="round" strokeLinejoin="round"/>
</g>
<defs>
<clipPath id="clip0">
<rect width="106.153" height="148" fill="white"/>
</clipPath>
</defs>
</svg>
