<svg width="148" height="148" viewBox="0 0 148 148" fill="none" xmlns="http://www.w3.org/2000/svg">
<path d="M74.0007 147.192C114.424 147.192 147.193 114.423 147.193 74.0002C147.193 33.5773 114.424 0.808105 74.0007 0.808105C33.5778 0.808105 0.808594 33.5773 0.808594 74.0002C0.808594 114.423 33.5778 147.192 74.0007 147.192Z" fill="#F2F5F8" stroke="white" strokeWidth="1.5" strokeMiterlimit="10"/>
<path d="M57.6971 14.4822L24.6523 21.1152C22.6611 21.5148 21.3709 23.4531 21.7706 25.4443L35.981 96.2387C36.3807 98.23 38.3189 99.5202 40.3102 99.1205L73.3549 92.4875C75.3462 92.0878 76.6364 90.1496 76.2367 88.1583L62.0263 17.3639C61.6266 15.3727 59.6884 14.0825 57.6971 14.4822Z" fill="white"/>
<path d="M70.7866 39.0393L80.3646 86.7677C80.8235 89.0588 79.5729 91.2432 77.5694 91.6439L39.2639 99.3315C37.2604 99.7322 35.2634 98.2005 34.8045 95.9094L20.3987 24.1197C19.9366 21.8286 21.1872 19.6442 23.1907 19.2435L61.4962 11.5559C63.4997 11.1552 65.4967 12.6869 65.9588 14.978L69.2581 31.4325" stroke="black" strokeWidth="1.5" strokeMiterlimit="10" strokeLinecap="round"/>
<path d="M50.5072 26.7856L42.1055 40.4611" stroke="#CE4242" strokeWidth="1.5" strokeMiterlimit="10" strokeLinecap="round"/>
<path d="M53.1325 37.8343L39.457 29.4067" stroke="#CE4242" strokeWidth="1.5" strokeMiterlimit="10" strokeLinecap="round"/>
<path d="M36.9023 50.6987L61.6099 45.7417" stroke="#CE4242" strokeWidth="1.5" strokeMiterlimit="10" strokeLinecap="round"/>
<path d="M39.6816 66.3485L64.386 61.3979" stroke="#CE4242" strokeWidth="1.5" strokeMiterlimit="10" strokeLinecap="round"/>
<path d="M38.4805 58.5702L48.0972 56.6313" stroke="#CE4242" strokeWidth="1.5" strokeMiterlimit="10" strokeLinecap="round"/>
<path d="M60.9824 54.0556L63.0861 53.6323" stroke="#CE4242" strokeWidth="1.5" strokeMiterlimit="10" strokeLinecap="round"/>
<path d="M52.5098 55.7558L56.7106 54.9092" stroke="#CE4242" strokeWidth="1.5" strokeMiterlimit="10" strokeLinecap="round"/>
<path d="M69.2908 83.8132L102.559 90.5333C104.598 90.9453 106.586 89.6258 106.998 87.586L121.862 14.0026C122.274 11.9629 120.954 9.97537 118.915 9.56335L85.6466 2.84328C83.6069 2.43126 81.6193 3.75077 81.2073 5.79051L66.3436 79.3739C65.9316 81.4136 67.2511 83.4012 69.2908 83.8132Z" fill="white"/>
<path d="M113.103 78.3271L111.701 85.2715C111.226 87.5723 109.226 89.0911 107.222 88.6871L68.9297 80.9511" stroke="black" strokeWidth="1.5" strokeMiterlimit="10" strokeLinecap="round"/>
<path d="M67.6992 68.3778L80.625 4.29828C81.1097 2.01042 83.097 0.478718 85.1005 0.88588L123.396 8.62195C125.397 9.02588 126.647 11.2071 126.185 13.5014L114.193 72.8533" stroke="black" strokeWidth="1.5" strokeMiterlimit="10" strokeLinecap="round"/>
<path d="M106.244 57.6557L81.543 52.6729" stroke="black" strokeWidth="1.5" strokeMiterlimit="10" strokeLinecap="round"/>
<path d="M103.347 40.8589L85.041 37.1621" stroke="black" strokeWidth="1.5" strokeMiterlimit="10" strokeLinecap="round"/>
<path d="M109.738 42.1482L106.604 41.502" stroke="black" strokeWidth="1.5" strokeMiterlimit="10" strokeLinecap="round"/>
<path d="M107.836 49.7875L98.2188 47.8486" stroke="black" strokeWidth="1.5" strokeMiterlimit="10" strokeLinecap="round"/>
<path d="M94.8256 47.0955L83.2344 44.8174" stroke="black" strokeWidth="1.5" strokeMiterlimit="10" strokeLinecap="round"/>
<path fill-rule="evenodd" clip-rule="evenodd" d="M125.909 114.645C125.939 115.173 125.865 115.701 125.691 116.2C125.516 116.698 125.245 117.158 124.892 117.551C124.54 117.945 124.113 118.265 123.637 118.493C123.16 118.722 122.643 118.854 122.116 118.882L29.732 124.769C28.6664 124.846 27.6138 124.497 26.8047 123.8C25.9956 123.102 25.4958 122.112 25.4148 121.047L22.0605 70.3583L122.558 63.9536" fill="white"/>
<path fill-rule="evenodd" clip-rule="evenodd" d="M122.542 118.856L37.6063 124.268C36.6506 124.34 35.7056 124.029 34.9786 123.404C34.2517 122.78 33.8021 121.892 33.7286 120.937L30.8203 76.7825L123.017 70.9077L125.941 115.062C125.968 115.535 125.901 116.008 125.744 116.454C125.588 116.901 125.344 117.312 125.029 117.665C124.713 118.017 124.331 118.304 123.904 118.508C123.477 118.712 123.014 118.831 122.542 118.856Z" fill="#A8B8F9"/>
<path d="M125.155 103.274L125.908 114.645C125.938 115.173 125.864 115.701 125.689 116.2C125.515 116.698 125.243 117.158 124.891 117.551C124.538 117.945 124.112 118.265 123.635 118.493C123.159 118.722 122.642 118.854 122.114 118.882L99.1387 120.346" stroke="black" strokeWidth="1.5" strokeMiterlimit="10" strokeLinecap="round"/>
<path d="M124.49 94.3066L124.846 99.6579" stroke="black" strokeWidth="1.5" strokeMiterlimit="10" strokeLinecap="round"/>
<path d="M80.074 121.561L29.7313 124.77C28.6657 124.846 27.6132 124.497 26.804 123.8C25.9949 123.102 25.4952 122.112 25.4141 121.047L22.3249 74.3236C22.2948 73.7963 22.369 73.2683 22.5434 72.7698C22.7177 72.2714 22.9887 71.8122 23.3408 71.4186C23.693 71.0251 24.1193 70.7049 24.5954 70.4764C25.0715 70.2479 25.588 70.1156 26.1154 70.0872L118.535 64.1962C119.593 64.1209 120.639 64.4646 121.446 65.153C122.254 65.8415 122.759 66.8197 122.852 67.8769L123.999 82.8158" stroke="black" strokeWidth="1.5" strokeMiterlimit="10" strokeLinecap="round"/>
<path fill-rule="evenodd" clip-rule="evenodd" d="M103.273 83.6562L116.625 82.6706L115.62 69.5703L102.268 70.5591L103.273 83.6562Z" stroke="black" strokeWidth="1.5" strokeMiterlimit="10" strokeLinecap="round"/>
<path d="M88.4156 93.415L59.8594 95.5252" stroke="black" strokeWidth="1.5" strokeMiterlimit="10" strokeLinecap="round"/>
<path d="M88.8707 99.3545L60.3145 101.465" stroke="black" strokeWidth="1.5" strokeMiterlimit="10" strokeLinecap="round"/>
<path d="M107.624 24.0779C107.731 25.4907 107.417 26.9035 106.721 28.1377C106.025 29.3719 104.979 30.3721 103.715 31.0118C102.451 31.6515 101.025 31.902 99.6189 31.7316C98.2124 31.5612 96.888 30.9776 95.8131 30.0545C94.7382 29.1315 93.9612 27.9104 93.5802 26.5458C93.1993 25.1811 93.2315 23.7342 93.6729 22.3878C94.1142 21.0415 94.9448 19.8563 96.0598 18.982C97.1747 18.1077 98.5238 17.5837 99.9365 17.4761" stroke="black" strokeWidth="1.5" strokeMiterlimit="10" strokeLinecap="round"/>
<path d="M99.6628 20.3813L99.2266 14.6455L104.41 17.1369L99.6628 20.3813Z" fill="black"/>
</svg>
