<svg width="158" height="148" viewBox="0 0 158 148" fill="none" xmlns="http://www.w3.org/2000/svg">
<g clip-path="url(#clip0)">
<path d="M74.1308 147.192C114.626 147.192 147.453 114.423 147.453 73.9998C147.453 33.5769 114.626 0.807617 74.1308 0.807617C33.6361 0.807617 0.808594 33.5769 0.808594 73.9998C0.808594 114.423 33.6361 147.192 74.1308 147.192Z" fill="#F2F5F8" stroke="white" strokeWidth="1.5" strokeMiterlimit="10"/>
<path d="M17.8231 47.2954H4.76758V95.2823H17.8231V47.2954Z" fill="#A8B8F9"/>
<path d="M54.1798 96.6202L69.5791 97.5121L94.3856 122.275C96.373 124.243 99.0574 125.351 101.857 125.357H127.69C129.014 125.361 130.298 124.898 131.313 124.048C132.328 123.199 133.01 122.019 133.238 120.717L133.857 117.198H137.094C138.48 117.199 139.854 116.927 141.135 116.398C142.417 115.869 143.581 115.094 144.562 114.115C145.552 113.138 146.335 111.973 146.867 110.689C147.399 109.405 147.667 108.027 147.657 106.638C147.656 104.649 147.091 102.7 146.029 101.018C144.966 99.3351 143.449 97.9865 141.652 97.1275C143.889 96.5186 145.864 95.193 147.273 93.3545C148.682 91.516 149.447 89.2665 149.45 86.9517C149.457 85.5656 149.187 84.1919 148.656 82.9113C148.124 81.6306 147.342 80.4687 146.355 79.4936C144.734 77.8806 142.633 76.8352 140.367 76.5142C142.425 75.3921 144.051 73.6179 144.987 71.4713C145.924 69.3248 146.118 66.9281 145.539 64.6593C144.959 62.3906 143.64 60.3789 141.788 58.9416C139.937 57.5043 137.659 56.7232 135.313 56.7216H135.187C137.206 55.5662 138.786 53.7774 139.682 51.6332C140.578 49.489 140.739 47.1095 140.14 44.8645C139.541 42.6196 138.216 40.635 136.371 39.2192C134.526 37.8035 132.264 37.0358 129.936 37.0356H118.283C118.248 37.0501 118.211 37.0576 118.174 37.0576C118.137 37.0576 118.1 37.0501 118.066 37.0356H93.5537C91.4236 37.0356 87.9598 39.5626 84.2953 42.2383C81.3171 44.4163 79.6273 46.856 76.484 46.8786L53.5 47.386L60.8452 48.1033V54.13H53.5939L54.1798 96.6202Z" fill="#A8B8F9"/>
<path d="M28.3242 43.9473C28.3242 42.1603 28.9717 40.7158 29.7615 40.7158H52.7455C53.5387 40.7158 54.1829 42.1635 54.1829 43.9473V95.6826C54.1829 97.4696 53.5354 98.9141 52.7455 98.9141H29.7615C28.9684 98.9141 28.3242 97.4664 28.3242 95.6826V43.9473Z" fill="#F2F5F8" stroke="white" strokeWidth="1.5" strokeMiterlimit="10"/>
<path d="M21.6485 53.7839C21.6464 53.4964 21.7011 53.2112 21.8094 52.9448C21.9178 52.6783 22.0777 52.4358 22.2801 52.2311C22.4824 52.0264 22.7232 51.8636 22.9887 51.7519C23.2541 51.6401 23.539 51.5818 23.8271 51.5801H58.656C58.9438 51.5822 59.2284 51.6409 59.4935 51.7528C59.7585 51.8647 59.9989 52.0276 60.2009 52.2322C60.403 52.4369 60.5626 52.6793 60.6708 52.9455C60.7789 53.2117 60.8335 53.4966 60.8314 53.7839V89.0939C60.8357 89.6744 60.609 90.2329 60.2011 90.6467C59.7933 91.0605 59.2375 91.2958 58.656 91.301H23.8271C23.5389 91.2988 23.2539 91.2401 22.9884 91.128C22.723 91.016 22.4822 90.8528 22.2799 90.6478C22.0776 90.4429 21.9177 90.2002 21.8094 89.9336C21.701 89.6669 21.6464 89.3816 21.6485 89.0939V53.7839Z" fill="#474747"/>
<path d="M40.4223 59.6714C38.4247 59.6714 36.472 60.2627 34.811 61.3705C33.1501 62.4784 31.8555 64.053 31.0911 65.8952C30.3266 67.7375 30.1266 69.7647 30.5163 71.7204C30.9061 73.6762 31.868 75.4726 33.2805 76.8826C34.693 78.2926 36.4927 79.2529 38.4519 79.6419C40.4111 80.0309 42.4419 79.8312 44.2874 79.0681C46.1329 78.3051 47.7104 77.0128 48.8202 75.3548C49.93 73.6968 50.5223 71.7475 50.5223 69.7535C50.5223 67.0796 49.4582 64.5151 47.5641 62.6244C45.67 60.7336 43.101 59.6714 40.4223 59.6714Z" fill="white"/>
<path d="M149.349 74.7559C149.349 74.9207 150.029 75.4732 150.835 76.5493C151.841 77.9001 153.424 79.9068 153.424 86.6476C153.424 93.3884 149.096 96.6198 149.096 97.0625C149.096 97.5052 156.542 97.3146 156.542 107.271C156.542 115.595 149.566 118.678 146.83 118.678H106.887" stroke="black" strokeWidth="1.5" strokeMiterlimit="10" strokeLinecap="round"/>
<path d="M138.725 31.3447C141.469 31.349 144.1 32.4404 146.039 34.3791C147.978 36.3179 149.067 38.9456 149.067 41.6853C149.067 47.3888 144.173 51.2698 144.173 51.7028C144.173 52.1358 152.379 52.711 152.632 63.0452C152.738 67.4011 151.919 70.2222 151.071 72.0092" stroke="black" strokeWidth="1.5" strokeMiterlimit="10" strokeLinecap="round"/>
<path d="M114.113 31.3447H119.6C119.638 31.328 119.679 31.3193 119.72 31.3193C119.761 31.3193 119.802 31.328 119.84 31.3447" stroke="black" strokeWidth="1.5" strokeMiterlimit="10" strokeLinecap="round"/>
<path d="M54.1797 42.464H70.8739C73.0363 42.464 76.5551 39.8789 80.6275 36.9221C84.1884 34.3111 88.2575 31.3511 90.1448 31.3511H107.988" stroke="black" strokeWidth="1.5" strokeMiterlimit="10" strokeLinecap="round"/>
<path d="M68.9995 96.4517H54.1797" stroke="black" strokeWidth="1.5" strokeMiterlimit="10" strokeLinecap="round"/>
<path d="M141.692 118.678L140.915 123.958C140.72 125.062 140.141 126.062 139.28 126.781C138.419 127.5 137.331 127.893 136.208 127.891H107.038C104.297 127.885 101.669 126.799 99.7252 124.869L74.1094 99.3022" stroke="black" strokeWidth="1.5" strokeMiterlimit="10" strokeLinecap="round"/>
<path d="M39.6388 57.7812C37.4018 57.7812 35.215 58.4434 33.3549 59.6841C31.4949 60.9247 30.0452 62.6881 29.1891 64.7512C28.333 66.8143 28.109 69.0844 28.5455 71.2746C28.9819 73.4648 30.0591 75.4766 31.641 77.0556C33.2228 78.6346 35.2382 79.7099 37.4322 80.1456C39.6263 80.5813 41.9005 80.3577 43.9673 79.5031C46.034 78.6485 47.8005 77.2014 49.0434 75.3446C50.2862 73.4879 50.9496 71.305 50.9496 69.0719C50.9496 66.0774 49.7579 63.2056 47.6367 61.0882C45.5156 58.9708 42.6386 57.7812 39.6388 57.7812Z" stroke="black" strokeWidth="1.5" strokeMiterlimit="10" strokeLinecap="round"/>
<path d="M42.5781 38.4248H51.7555C52.3986 38.4248 53.0153 38.6798 53.47 39.1337C53.9247 39.5876 54.1802 40.2032 54.1802 40.8452V47.308" stroke="black" strokeWidth="1.5" strokeMiterlimit="10" strokeLinecap="round"/>
<path d="M25.0938 47.2951V40.8322C25.0972 40.1931 25.3537 39.5813 25.8073 39.1303C26.261 38.6792 26.8749 38.4256 27.5152 38.4248H31.9663" stroke="black" strokeWidth="1.5" strokeMiterlimit="10" strokeLinecap="round"/>
<path d="M54.1811 90.8486V97.3115C54.1811 97.9534 53.9257 98.569 53.471 99.0229C53.0163 99.4769 52.3996 99.7319 51.7565 99.7319H27.5164C26.8734 99.7319 26.2567 99.4769 25.802 99.0229C25.3473 98.569 25.0918 97.9534 25.0918 97.3115V90.8486" stroke="black" strokeWidth="1.5" strokeMiterlimit="10" strokeLinecap="round"/>
<path d="M17.8223 72.0321V49.7158C17.8223 49.0738 18.0777 48.4582 18.5324 48.0043C18.9871 47.5504 19.6039 47.2954 20.2469 47.2954H59.0284C59.3467 47.2954 59.6618 47.358 59.9558 47.4797C60.2498 47.6014 60.5168 47.7797 60.7417 48.0045C60.9666 48.2293 61.1449 48.4961 61.2664 48.7898C61.3879 49.0834 61.4502 49.3981 61.4498 49.7158V88.4284C61.4498 89.0698 61.1948 89.6849 60.7408 90.1387C60.2868 90.5925 59.6709 90.8479 59.0284 90.8488H20.2469C19.6039 90.8488 18.9871 90.5938 18.5324 90.1399C18.0777 89.686 17.8223 89.0703 17.8223 88.4284V84.3827" stroke="black" strokeWidth="1.5" strokeMiterlimit="10" strokeLinecap="round"/>
<path d="M62.9531 73.4859V65.5107" stroke="black" strokeWidth="1.5" strokeMiterlimit="10" strokeLinecap="round"/>
<path d="M47.1806 69.0718H39.6348V75.693" stroke="black" strokeWidth="1.5" strokeMiterlimit="10" strokeLinecap="round"/>
<path d="M38.8459 62.0435C37.1494 62.0435 35.5224 62.7162 34.3228 63.9137C33.1232 65.1112 32.4492 66.7353 32.4492 68.4288" stroke="black" strokeWidth="1.5" strokeMiterlimit="10" strokeLinecap="round"/>
<path d="M37.1523 38.4248H40.1306" stroke="black" strokeWidth="1.5" strokeMiterlimit="10" strokeLinecap="round"/>
<path d="M25.0939 42.4639H4.76758" stroke="black" strokeWidth="1.5" strokeMiterlimit="10" strokeLinecap="round"/>
<path d="M25.0939 96.4517H4.76758" stroke="black" strokeWidth="1.5" strokeMiterlimit="10" strokeLinecap="round"/>
</g>
<defs>
<clipPath id="clip0">
<rect width="157.356" height="148" fill="white"/>
</clipPath>
</defs>
</svg>
