<svg width="126" height="174" viewBox="0 0 126 174" fill="none" xmlns="http://www.w3.org/2000/svg">
<g clip-path="url(#clip0)">
<path d="M62.6148 146.654C97.196 146.654 125.23 118.62 125.23 84.0391C125.23 49.4579 97.196 21.4243 62.6148 21.4243C28.0336 21.4243 0 49.4579 0 84.0391C0 118.62 28.0336 146.654 62.6148 146.654Z" fill="#F2F5F8"/>
<path d="M58.666 131.657C76.3115 152.498 90.095 173.342 90.095 173.342L116.382 157.958C116.382 157.958 103.915 148.686 94.3661 139.712L90.9935 136.423C87.361 132.727 84.5883 129.296 83.8363 126.855L58.666 131.657Z" fill="white"/>
<path d="M69.2909 59.3637C69.2909 59.3637 71.1486 47.7834 75.0962 49.1932C79.0438 50.6031 77.5842 54.4015 75.2068 63.7757C72.8294 73.15 72.6967 85.3384 72.6967 85.3384C72.6967 85.3384 79.3866 72.4976 80.7661 66.3384C82.1456 60.1792 84.5534 49.243 87.5777 49.7793C90.602 50.3156 92.0008 50.6086 91.0222 56.1016C90.0436 61.5946 81.7889 87.6578 81.7889 87.6578C81.7889 87.6578 94.7183 68.1988 97.3113 60.8067C99.9044 53.4146 103.584 55.5238 103.999 57.8543C104.413 60.1847 93.1481 93.1701 93.1481 93.1701C93.1481 93.1701 103.125 84.5229 108.563 85.0371C114 85.5513 114.921 87.8016 113.185 89.7754C111.449 91.7492 105.748 92.4375 101.276 98.2954C96.8027 104.153 96.2249 113.928 92.5675 118.199C88.9102 122.471 78.4688 128.738 76.9235 128.848C75.3782 128.959 49.6633 106.182 69.2909 59.3637Z" fill="white"/>
<path d="M91.9089 119.347C89.3767 122.172 89.7582 122.589 78.1641 128.132" stroke="black" strokeWidth="1.5" strokeLinecap="round" strokeLinejoin="round"/>
<path d="M92.9102 93.7649C93.7146 89.5435 98.1626 86.3727 99.5034 85.4715C102.757 83.2765 110.415 83.6304 112.162 85.4715C117.226 90.8041 105.605 93.3142 103.434 95.8244C101.264 98.3345 98.5137 100.903 97.6927 105.55" stroke="black" strokeWidth="1.5" strokeLinecap="round" strokeLinejoin="round"/>
<path d="M74.1836 100.524C76.1519 97.8699 81.4237 96.131 85.9878 95.064" stroke="black" strokeWidth="1.5" strokeLinecap="round" strokeLinejoin="round"/>
<path d="M108.836 146.638C117.063 155.044 117.226 154.486 117.226 154.486L87.6216 173.309C87.6216 173.309 74.9052 153.543 58.6309 133.777" stroke="black" strokeWidth="1.5" strokeLinecap="round" strokeLinejoin="round"/>
<path d="M87.2051 124.995C87.3378 125.44 88.5237 126.797 90.3566 128.705" stroke="black" strokeWidth="1.5" strokeLinecap="round" strokeLinejoin="round"/>
<path d="M69.846 51.897L68.6932 55.6373C68.5191 56.2842 68.3366 56.978 68.1403 57.7134L65.2598 66.1781" stroke="black" strokeWidth="1.5" strokeLinecap="round" strokeLinejoin="round"/>
<path d="M85.6024 47.9521C82.7744 49.796 81.1987 55.2696 79.6202 62.565C77.4501 72.6027 71.6641 86.7208 71.6641 86.7208C71.6641 86.7208 77.0603 59.0597 77.5302 56.6049C78.0002 54.15 78.1882 52.0131 78.1882 52.0131C78.1882 49.304 75.4624 47.6508 72.9965 48.5023" stroke="black" strokeWidth="1.5" strokeLinecap="round" strokeLinejoin="round"/>
<path d="M88.5547 66.1779C90.6778 59.4382 94.6171 49.0218 89.384 47.5068" stroke="black" strokeWidth="1.5" strokeLinecap="round" strokeLinejoin="round"/>
<path d="M87.568 69.7719C86.794 73.7941 81.7793 87.6551 81.7793 87.6551C81.7793 87.6551 90.4624 70.4077 91.6843 67.1539C92.9062 63.9002 97.2768 53.2874 101.667 54.407C104.907 55.2364 104.873 58.7915 103.936 62.4239L99.8698 73.2551C97.2934 80.3376 92.9947 93.6235 92.9947 93.6235" stroke="black" strokeWidth="1.5" strokeLinecap="round" strokeLinejoin="round"/>
<path d="M87.5681 88.6032C87.5681 88.6032 76.7177 91.1133 60.8027 86.4082" stroke="black" strokeWidth="1.5" strokeLinecap="round" strokeLinejoin="round"/>
<path d="M38.6202 133.661C38.6202 133.661 31.6068 128.76 31.9164 120.61C32.3974 107.824 19.0783 90.3669 16.5958 88.7967C13.6185 86.9113 16.4908 83.8981 23.5346 85.4655C27.4822 86.3584 30.313 95.6608 33.2903 101.936C33.2903 101.936 35.2006 90.7705 30.6917 71.8838C29.0662 65.086 26.9514 51.9936 30.2854 50.9569C32.3062 50.3294 32.2813 52.9971 33.2903 60.8398C33.8432 65.1164 41.4012 83.442 41.4012 83.442L42.2471 54.4152C42.2471 54.4152 41.0584 46.8904 44.8457 45.4861C47.4194 44.5323 48.1824 54.711 48.7657 58.6476C49.5066 63.6678 52.9594 93.3138 52.9594 93.3138C52.9594 93.3138 55.4972 80.6277 55.4972 68.2264C55.4972 64.4612 56.2961 51.6646 58.3141 48.2118C59.7461 45.7653 61.5126 47.7391 62.2231 50.8049C64.6751 61.4148 62.5437 88.5202 62.5437 88.5202C62.5437 88.5202 65.521 76.4451 68.4624 69.3543C70.1902 65.1911 70.6215 61.9871 73.3251 62.7196C79.0447 64.2871 71.8102 84.5588 72.9878 96.2856C74.1655 108.012 79.7165 104.756 79.7165 117.934C79.7165 131.112 73.7978 137.697 59.6936 148.677C45.5894 159.658 31.6068 170.011 31.6068 170.011L8.00391 152.799L38.6202 133.661Z" fill="#A6B6FA"/>
<path d="M36.2617 69.5534C38.4512 76.8571 40.9779 84.6805 40.9779 84.6805L36.8478 51.5845" stroke="black" strokeWidth="1.5" strokeLinecap="round" strokeLinejoin="round"/>
<path d="M19.6641 84.838C23.6117 85.7171 28.3583 89.7007 31.3273 95.976C31.3273 95.976 26.3153 75.7402 25.2013 68.8402C24.0872 61.9401 23.0837 51.3661 26.4176 50.3184" stroke="black" strokeWidth="1.5" strokeLinecap="round" strokeLinejoin="round"/>
<path d="M29.2078 135.814L34.0705 132.422C34.0705 132.422 27.7399 128.132 28.0467 119.982C28.5305 107.197 14.6944 91.4284 12.212 89.8499C10.2381 88.6031 11.0592 86.1123 13.8872 85.0342" stroke="black" strokeWidth="1.5" strokeLinecap="round" strokeLinejoin="round"/>
<path d="M63.2488 62.7255C63.3843 73.6285 62.4416 86.4085 62.4416 86.4085C62.4416 86.4085 64.4099 57.8601 71.8407 59.4275C79.3324 61.0088 72.5042 78.1041 72.377 89.936L72.6756 94.1849C74.2126 104.449 79.9157 105.19 79.9157 117.78C79.9157 128.904 50.2034 152.559 50.2034 152.559C39.6985 161.215 34.0756 167.285 34.0756 167.285L9.42773 149.623L22.3764 140.523" stroke="black" strokeWidth="1.5" strokeLinecap="round" strokeLinejoin="round"/>
<path d="M40.9785 44.8531C45.9877 43.7473 47.2621 48.5879 47.8454 52.5244C48.0417 53.8541 52.2989 84.5257 52.2989 84.5257C52.2989 84.5257 52.6003 53.1271 52.7855 51.4131C52.9707 49.6992 53.3798 46.3265 57.0538 45.9368C60.0228 45.6244 61.5405 47.5788 62.251 50.6363C62.7513 52.7981 63.0554 55.5681 63.2213 58.6035" stroke="black" strokeWidth="1.5" strokeLinecap="round" strokeLinejoin="round"/>
<path d="M35.1403 108.054C35.1403 108.054 32.8126 106.014 31.3281 95.9761" stroke="black" strokeWidth="1.5" strokeLinecap="round" strokeLinejoin="round"/>
<path d="M42.0898 93.4657C42.0898 93.4657 41.2853 90.6432 40.9453 84.8379" stroke="black" strokeWidth="1.5" strokeLinecap="round" strokeLinejoin="round"/>
<path d="M52.8535 93.4658C52.1209 90.7234 51.8306 90.7649 52.3006 87.9756" stroke="black" strokeWidth="1.5" strokeLinecap="round" strokeLinejoin="round"/>
<path d="M62.875 92.5263C62.1424 89.784 61.8521 89.8255 62.3221 87.0361" stroke="black" strokeWidth="1.5" strokeLinecap="round" strokeLinejoin="round"/>
<path d="M95.3603 112.762L93.8066 115.714" stroke="black" strokeWidth="1.5" strokeLinecap="round" strokeLinejoin="round"/>
<path d="M109.22 145.908C116.622 145.908 122.622 139.662 122.622 131.958C122.622 124.254 116.622 118.009 109.22 118.009C101.819 118.009 95.8184 124.254 95.8184 131.958C95.8184 139.662 101.819 145.908 109.22 145.908Z" fill="#47B26B"/>
<path d="M109.696 145.927C107.359 146.26 104.978 146.043 102.74 145.294" stroke="black" strokeWidth="1.5" strokeMiterlimit="10" strokeLinecap="round"/>
<path d="M100.271 144.208C97.2859 142.56 94.9483 139.947 93.6415 136.798C92.3346 133.648 92.1359 130.148 93.0779 126.871C94.0199 123.594 96.0468 120.733 98.8266 118.758C101.606 116.783 104.974 115.811 108.379 116C111.784 116.189 115.024 117.528 117.568 119.799C120.112 122.07 121.809 125.137 122.383 128.498C122.956 131.86 122.371 135.316 120.724 138.302C119.076 141.287 116.464 143.625 113.314 144.932" stroke="black" strokeWidth="1.5" strokeMiterlimit="10" strokeLinecap="round"/>
<path d="M114.865 125.614L104.061 136.417L100.232 132.591" stroke="white" strokeWidth="1.5" strokeMiterlimit="10" strokeLinecap="round"/>
<path d="M96.2739 26.9785L97.305 29.0712L99.6161 29.4085L97.9436 31.0367L98.3389 33.3367L96.2739 32.2503L94.2088 33.3367L94.6014 31.0367L92.9316 29.4085L95.2399 29.0712L96.2739 26.9785Z" fill="#D6E8EF"/>
<path d="M96.2739 10.27L97.305 12.3627L99.6161 12.6972L97.9436 14.3255L98.3389 16.6255L96.2739 15.5391L94.2088 16.6255L94.6014 14.3255L92.9316 12.6972L95.2399 12.3627L96.2739 10.27Z" fill="#D6E8EF"/>
<path d="M44.1047 0L45.0031 1.81901L47.0101 2.11204L45.5588 3.52744L45.9015 5.52614L44.1047 4.58346L42.3105 5.52614L42.6533 3.52744L41.1992 2.11204L43.2062 1.81901L44.1047 0Z" fill="#D6E8EF"/>
<path d="M28.5246 26.8511L29.423 28.6701L31.43 28.9631L29.9759 30.3785L30.3187 32.38L28.5246 31.4345L26.7277 32.38L27.0705 30.3785L25.6191 28.9631L27.6261 28.6701L28.5246 26.8511Z" fill="#D6E8EF"/>
<path d="M77.2767 2.76465L77.9374 4.09988L79.4136 4.3155L78.3438 5.35494L78.5981 6.82563L77.2767 6.13175L75.9581 6.82563L76.2097 5.35494L75.1426 4.3155L76.6188 4.09988L77.2767 2.76465Z" fill="#D6E8EF"/>
<path d="M80.7163 12.9404L85.297 16.255L73.1113 32.1865L80.7163 12.9404Z" fill="#7794F8"/>
<path d="M47.9941 26.6134L53.0835 23.9761L56.9399 35.2329L47.9941 26.6134Z" fill="#7794F8"/>
<path d="M60.2871 13.4491L62.6175 12.9404L61.4509 19.0471L60.2871 13.4491Z" fill="#7794F8"/>
<path d="M45.3145 33.0433L36.9824 25.2061" stroke="black" strokeWidth="1.5" strokeLinecap="round" strokeLinejoin="round"/>
<path d="M35.2253 23.5062L34.877 23.1772" stroke="black" strokeWidth="1.5" strokeLinecap="round" strokeLinejoin="round"/>
<path d="M79.2051 34.2847L82.6772 29.6045" stroke="black" strokeWidth="1.5" strokeLinecap="round" strokeLinejoin="round"/>
<path d="M62.2129 35.8027L68.7591 16.645" stroke="black" strokeWidth="1.5" strokeLinecap="round" strokeLinejoin="round"/>
<path d="M85.082 25.4966L85.5105 24.916" stroke="black" strokeWidth="1.5" strokeLinecap="round" strokeLinejoin="round"/>
</g>
<defs>
<clipPath id="clip0">
<rect width="125.23" height="174" fill="white"/>
</clipPath>
</defs>
</svg>
