<svg width="25" height="24" viewBox="0 0 25 24" fill="none" xmlns="http://www.w3.org/2000/svg">
<path d="M10.9909 19.6759C13.9551 22.0473 16.5914 22.6402 18.4509 22.6402C20.1919 22.6402 21.2512 22.1323 21.2512 22.1323C22.2156 21.7845 23.0159 20.8379 23.0633 20.8142C23.3696 20.4683 23.5099 20.1205 23.4586 19.7747C23.4173 19.4397 23.2489 19.1334 22.9882 18.919L20.4943 16.5555C20.38 16.4311 20.2422 16.3304 20.089 16.2592C19.9357 16.1879 19.7699 16.1476 19.6011 16.1405C19.3144 16.1525 19.044 16.2767 18.8481 16.4864L17.6624 17.595C17.5216 17.7319 17.3413 17.8212 17.147 17.8503C16.9528 17.8793 16.7543 17.8467 16.5795 17.757C15.7117 17.3383 14.8915 16.8275 14.133 16.2334L9.69649 11.957C9.04451 11.2328 8.47639 10.4372 8.00291 9.58556C7.91096 9.41778 7.87283 9.22578 7.89368 9.0356C7.91454 8.84541 7.99337 8.66624 8.1195 8.52238L9.20245 7.33668C9.39377 7.12803 9.50264 6.85689 9.50875 6.57387C9.49848 6.4079 9.4534 6.24595 9.37646 6.09853C9.29951 5.95111 9.19242 5.82153 9.06214 5.71819L6.54449 3.35864C6.31363 3.1027 5.99301 2.94558 5.64929 2.91993C5.45598 2.9192 5.26454 2.95771 5.08655 3.03312C4.90856 3.10853 4.74772 3.21927 4.61377 3.35864C4.56634 3.40607 3.6494 4.23804 3.34309 5.18462C3.31938 5.23205 2.80162 6.37033 2.94785 8.19038C3.06445 9.87606 3.76994 12.4886 6.50497 15.354L10.9909 19.6759Z" fill="white"/>
<path d="M17.6557 7.01855L3.46484 21.9564" stroke="url(#paint0_linear)" strokeWidth="1.5" strokeMiterlimit="10" strokeLinecap="round"/>
<path d="M8.89256 11.4593C8.20037 10.6731 7.5991 9.81131 7.10017 8.89028C7.00312 8.7089 6.96309 8.50246 6.9853 8.29795C7.00751 8.09345 7.09094 7.90041 7.22467 7.7441L8.37085 6.4754C8.48486 6.35558 8.57211 6.21291 8.62684 6.05684C8.68157 5.90077 8.70254 5.73486 8.68834 5.57008C8.67414 5.4053 8.6251 5.24542 8.54448 5.10101C8.46386 4.9566 8.35348 4.83096 8.22066 4.73241L5.55678 2.19896C5.31657 1.92077 4.97655 1.74828 4.61019 1.71875C4.40493 1.71847 4.20181 1.76043 4.01346 1.84202C3.82512 1.92362 3.65558 2.0431 3.51539 2.19303C3.46599 2.24244 2.49371 3.13962 2.1716 4.1692C2.14591 4.21861 1.59851 5.43988 1.7487 7.40617C1.87319 9.22425 2.61821 12.0363 5.50342 15.1231" stroke="url(#paint1_linear)" strokeWidth="1.5" strokeMiterlimit="10" strokeLinecap="round"/>
<path d="M10.2617 19.7749C13.3999 22.3439 16.1902 22.9625 18.1546 22.9625C19.9963 22.9625 21.1188 22.4151 21.1188 22.4151C22.1405 22.0416 22.9863 21.0199 23.0357 20.9962C23.3598 20.6227 23.51 20.2492 23.4606 19.8757C23.4167 19.5169 23.2388 19.1879 22.9626 18.9548L20.3224 16.4154C20.2025 16.2813 20.057 16.1726 19.8944 16.0955C19.7319 16.0185 19.5555 15.9747 19.3758 15.9668C19.0738 15.9839 18.7903 16.1178 18.5854 16.3403L17.3305 17.528C17.1823 17.6736 16.9919 17.7688 16.7865 17.8C16.5811 17.8312 16.3711 17.7969 16.1863 17.7019C15.2663 17.2494 14.3982 16.6981 13.5975 16.0577" stroke="url(#paint2_linear)" strokeWidth="1.5" strokeMiterlimit="10" strokeLinecap="round"/>
<defs>
<linearGradient id="paint0_linear" x1="3.46484" y1="8.35229" x2="18.3121" y2="21.1978" gradientUnits="userSpaceOnUse">
<stop stop-color="#5F7DF1"/>
<stop offset="1" stop-color="#3055EC"/>
</linearGradient>
<linearGradient id="paint1_linear" x1="1.72266" y1="2.91557" x2="12.3237" y2="8.07969" gradientUnits="userSpaceOnUse">
<stop stop-color="#5F7DF1"/>
<stop offset="1" stop-color="#3055EC"/>
</linearGradient>
<linearGradient id="paint2_linear" x1="10.2617" y1="16.5914" x2="16.3688" y2="27.0923" gradientUnits="userSpaceOnUse">
<stop stop-color="#5F7DF1"/>
<stop offset="1" stop-color="#3055EC"/>
</linearGradient>
</defs>
</svg>
