<svg width="85" height="68" viewBox="0 0 85 68" fill="none" xmlns="http://www.w3.org/2000/svg">
<path d="M44.6029 64.4967C61.3382 64.4967 74.9049 50.93 74.9049 34.1947C74.9049 17.4593 61.3382 3.89258 44.6029 3.89258C27.8675 3.89258 14.3008 17.4593 14.3008 34.1947C14.3008 50.93 27.8675 64.4967 44.6029 64.4967Z" fill="#F2F5F8"/>
<path d="M53.0132 3.32765L27.3233 9.82343C26.1804 10.1124 25.4882 11.2732 25.7772 12.416L39.1722 65.3918C39.4612 66.5346 40.622 67.2269 41.7648 66.9379L67.4548 60.4421C68.5977 60.1531 69.2899 58.9924 69.0009 57.8495L55.6058 4.87377C55.3168 3.73089 54.1561 3.03867 53.0132 3.32765Z" fill="#ACB9F1"/>
<path d="M48.7359 1.45363L23.0459 7.94941C21.903 8.23839 21.2108 9.39914 21.4998 10.542L34.8949 63.5177C35.1839 64.6606 36.3446 65.3528 37.4875 65.0639L63.1774 58.5681C64.3203 58.2791 65.0125 57.1183 64.7236 55.9755L51.3285 2.99975C51.0395 1.85687 49.8787 1.16465 48.7359 1.45363Z" stroke="#17141F" stroke-width="1.5" stroke-linecap="round" stroke-linejoin="round"/>
<path d="M44.1719 60.4237L55.0328 57.6777" stroke="#17141F" stroke-width="1.5" stroke-linecap="round" stroke-linejoin="round"/>
<path d="M43.3646 41.5856C48.2711 41.5856 52.2487 37.608 52.2487 32.7015C52.2487 27.7949 48.2711 23.8174 43.3646 23.8174C38.458 23.8174 34.4805 27.7949 34.4805 32.7015C34.4805 37.608 38.458 41.5856 43.3646 41.5856Z" fill="white"/>
<path d="M44.3279 41.1097C48.6014 41.1097 52.0659 37.5041 52.0659 33.0563C52.0659 28.6085 48.6014 25.0029 44.3279 25.0029C40.0543 25.0029 36.5898 28.6085 36.5898 33.0563C36.5898 37.5041 40.0543 41.1097 44.3279 41.1097Z" fill="white"/>
<path d="M44.6051 41.1212C44.0142 41.2062 43.4162 41.2294 42.8205 41.1904C42.0622 41.1457 41.3133 40.9996 40.5938 40.7559" stroke="#17141F" stroke-width="1.5" stroke-miterlimit="10" stroke-linecap="round"/>
<path d="M39.1596 40.1291C37.4369 39.1776 36.0882 37.6694 35.3344 35.8514C34.5806 34.0335 34.4664 32.0134 35.0105 30.1221C35.5546 28.2307 36.7247 26.5801 38.3292 25.4406C39.9338 24.301 41.8777 23.74 43.8427 23.8494C45.8077 23.9588 47.6774 24.7321 49.1456 26.0427C50.6137 27.3533 51.5934 29.1236 51.9242 31.0636C52.255 33.0037 51.9173 34.9986 50.9664 36.7217C50.0155 38.4447 48.5077 39.7939 46.69 40.5483" stroke="#17141F" stroke-width="1.5" stroke-miterlimit="10" stroke-linecap="round"/>
<path d="M42.6926 35.6137C43.5659 36.383 44.6794 36.8248 45.8425 36.8637C46.2467 36.8739 46.6486 36.8006 47.0232 36.6483C47.3159 36.5186 47.578 36.3285 47.7923 36.0906C47.8512 36.0346 47.8969 35.9662 47.9261 35.8904C47.9554 35.8146 47.9675 35.7332 47.9616 35.6522C47.9439 35.5113 47.8739 35.3823 47.7654 35.2907L46.7116 34.2946C46.6621 34.2419 46.6026 34.1994 46.5366 34.1697C46.4706 34.14 46.3994 34.1236 46.327 34.1215C46.2667 34.123 46.2073 34.1367 46.1525 34.1619C46.0976 34.187 46.0484 34.223 46.0078 34.2677L45.5117 34.733C45.4533 34.7927 45.377 34.8317 45.2945 34.8442C45.2119 34.8567 45.1275 34.842 45.054 34.8022C44.6871 34.626 44.3402 34.4107 44.0195 34.16L42.1504 32.3562C41.8729 32.0512 41.6328 31.7143 41.435 31.3524C41.3947 31.2818 41.3778 31.2002 41.3868 31.1193C41.3958 31.0385 41.4302 30.9625 41.485 30.9025L41.9388 30.4063C42.0204 30.3182 42.0669 30.2033 42.0696 30.0833C42.0651 30.0132 42.046 29.9449 42.0136 29.8826C41.9811 29.8204 41.936 29.7656 41.8812 29.7218L40.8158 28.7257C40.7674 28.6707 40.7084 28.626 40.6423 28.5943C40.5762 28.5626 40.5044 28.5445 40.4312 28.5411C40.3499 28.5399 40.2693 28.5558 40.1945 28.5875C40.1196 28.6193 40.0523 28.6664 39.9966 28.7257C39.7618 28.9385 39.5778 29.2014 39.4582 29.4949C39.3006 29.8981 39.2425 30.3335 39.289 30.764C39.339 31.4755 39.639 32.5793 40.7889 33.7869L42.6926 35.6137Z" fill="white"/>
<path d="M45.5075 30.2715L39.5117 36.5788" stroke="#17141F" stroke-width="1.5" stroke-linecap="round" stroke-linejoin="round"/>
<path d="M41.808 32.1525C41.5107 31.8218 41.2526 31.4579 41.0388 31.0679C40.9973 30.9915 40.9798 30.9044 40.9887 30.8179C40.9977 30.7314 41.0325 30.6496 41.0888 30.5833L41.5734 30.0488C41.6602 29.9541 41.7094 29.831 41.7119 29.7026C41.7063 29.6283 41.6857 29.5559 41.6513 29.4898C41.617 29.4237 41.5695 29.3652 41.5119 29.318L40.385 28.2489C40.3372 28.1919 40.2786 28.1449 40.2126 28.1105C40.1466 28.0762 40.0745 28.0553 40.0004 28.0489C39.9137 28.0478 39.8278 28.0651 39.7483 28.0996C39.6688 28.134 39.5974 28.1849 39.5389 28.2489C39.2894 28.479 39.0937 28.7613 38.9659 29.0757C38.8024 29.5111 38.7418 29.9784 38.7889 30.441C38.8428 31.2102 39.1735 32.3948 40.3773 33.6985" stroke="#17141F" stroke-width="1.5" stroke-linecap="round" stroke-linejoin="round"/>
<path d="M42.3828 35.6593C43.3019 36.4854 44.4822 36.9619 45.7172 37.0054C46.1458 37.0162 46.5717 36.9363 46.9672 36.7708C47.2742 36.6293 47.5491 36.4264 47.7748 36.1746C47.8354 36.1194 47.8832 36.0516 47.915 35.976C47.9468 35.9004 47.9617 35.8187 47.9588 35.7368C47.9559 35.6548 47.9351 35.5745 47.8981 35.5013C47.861 35.4282 47.8084 35.364 47.744 35.3132L46.6287 34.2401C46.5804 34.1844 46.5216 34.1387 46.4556 34.1057C46.3896 34.0727 46.3177 34.0531 46.2441 34.0479C46.1156 34.0563 45.9948 34.1125 45.9057 34.2055L45.3788 34.7132C45.3165 34.7743 45.2365 34.8143 45.1502 34.8274C45.0639 34.8406 44.9757 34.8261 44.8981 34.7863C44.5038 34.5905 44.1324 34.3519 43.7904 34.0748" stroke="#17141F" stroke-width="1.5" stroke-linecap="round" stroke-linejoin="round"/>
<path d="M80.249 7.60731C79.5093 6.85928 78.6286 6.26541 77.6578 5.8601C76.687 5.45479 75.6455 5.24609 74.5935 5.24609C73.5415 5.24609 72.5 5.45479 71.5292 5.8601C70.5585 6.26541 69.6777 6.85928 68.9381 7.60731C67.6058 8.95073 66.7875 10.7192 66.6258 12.6043C66.4641 14.4894 66.9694 16.3715 68.0535 17.9221L65.4883 22.7757L65.5306 22.9103C65.5562 22.9976 65.6094 23.0744 65.6822 23.1291C65.7549 23.1838 65.8434 23.2136 65.9344 23.2141C65.9765 23.2197 66.0192 23.2197 66.0613 23.2141H66.0998L70.8303 20.4258C72.5321 21.3175 74.4969 21.5702 76.369 21.1381C78.241 20.7059 79.8963 19.6176 81.035 18.0701C82.1738 16.5227 82.7205 14.6186 82.5763 12.7027C82.4321 10.7869 81.6065 8.98608 80.249 7.62654V7.60731Z" fill="#D7E9F1"/>
<path d="M81.5169 6.09941C79.9009 4.47742 77.7347 3.52148 75.4473 3.42093C73.1599 3.32038 70.9181 4.08255 69.1661 5.55649C67.414 7.03042 66.2793 9.10862 65.9869 11.3795C65.6944 13.6503 66.2655 15.9482 67.5869 17.818L64.6602 23.3061L64.7102 23.4599C64.7396 23.5589 64.7999 23.6458 64.8822 23.708C64.9646 23.7703 65.0646 23.8046 65.1678 23.8061C65.2187 23.8059 65.2693 23.7982 65.3178 23.783H65.3601L70.7444 20.6178C72.6768 21.6561 74.9183 21.9643 77.0591 21.486C79.2 21.0078 81.0973 19.7751 82.4041 18.0132C83.7109 16.2513 84.34 14.0779 84.1764 11.8904C84.0128 9.70289 83.0674 7.6473 81.513 6.09941H81.5169Z" stroke="#17141F" stroke-width="1.5" stroke-linecap="round" stroke-linejoin="round"/>
<path d="M79.3749 12.2729C79.3749 13.3766 78.3635 14.3035 78.3212 14.342L75.4559 17.1033C75.4027 17.1499 75.3344 17.1755 75.2636 17.1755C75.1929 17.1755 75.1246 17.1499 75.0713 17.1033L72.2023 14.3343C72.1638 14.3035 71.1523 13.3766 71.1523 12.2729C71.1523 10.9268 71.9754 10.1191 73.3522 10.1191C74.156 10.1191 74.8906 10.7537 75.2752 11.1152C75.6367 10.7537 76.3905 10.1191 77.1981 10.1191C78.5519 10.1191 79.3749 10.9268 79.3749 12.2729Z" fill="#466BF0"/>
<path d="M1.38281 49.8281L16.1358 44.2207" stroke="#17141F" stroke-width="1.5" stroke-linecap="round" stroke-linejoin="round"/>
<path d="M6.53906 56.9053L28.1686 48.6865" stroke="#17141F" stroke-width="1.5" stroke-linecap="round" stroke-linejoin="round"/>
<path d="M4.02344 39.7865L19.3687 33.9561" stroke="#17141F" stroke-width="1.5" stroke-linecap="round" stroke-linejoin="round"/>
<path d="M67.1926 35.1861C67.4242 35.1861 67.6119 34.9984 67.6119 34.7669C67.6119 34.5353 67.4242 34.3477 67.1926 34.3477C66.9611 34.3477 66.7734 34.5353 66.7734 34.7669C66.7734 34.9984 66.9611 35.1861 67.1926 35.1861Z" fill="#17141F"/>
<path d="M67.1926 32.5025C67.4242 32.5025 67.6119 32.3148 67.6119 32.0833C67.6119 31.8517 67.4242 31.6641 67.1926 31.6641C66.9611 31.6641 66.7734 31.8517 66.7734 32.0833C66.7734 32.3148 66.9611 32.5025 67.1926 32.5025Z" fill="#17141F"/>
<path d="M69.884 35.1861C70.1156 35.1861 70.3033 34.9984 70.3033 34.7669C70.3033 34.5353 70.1156 34.3477 69.884 34.3477C69.6525 34.3477 69.4648 34.5353 69.4648 34.7669C69.4648 34.9984 69.6525 35.1861 69.884 35.1861Z" fill="#17141F"/>
<path d="M69.884 32.5025C70.1156 32.5025 70.3033 32.3148 70.3033 32.0833C70.3033 31.8517 70.1156 31.6641 69.884 31.6641C69.6525 31.6641 69.4648 31.8517 69.4648 32.0833C69.4648 32.3148 69.6525 32.5025 69.884 32.5025Z" fill="#17141F"/>
<path d="M72.5676 35.1861C72.7992 35.1861 72.9868 34.9984 72.9868 34.7669C72.9868 34.5353 72.7992 34.3477 72.5676 34.3477C72.3361 34.3477 72.1484 34.5353 72.1484 34.7669C72.1484 34.9984 72.3361 35.1861 72.5676 35.1861Z" fill="#17141F"/>
<path d="M72.5676 32.5025C72.7992 32.5025 72.9868 32.3148 72.9868 32.0833C72.9868 31.8517 72.7992 31.6641 72.5676 31.6641C72.3361 31.6641 72.1484 31.8517 72.1484 32.0833C72.1484 32.3148 72.3361 32.5025 72.5676 32.5025Z" fill="#17141F"/>
<path d="M75.2551 35.1861C75.4867 35.1861 75.6743 34.9984 75.6743 34.7669C75.6743 34.5353 75.4867 34.3477 75.2551 34.3477C75.0236 34.3477 74.8359 34.5353 74.8359 34.7669C74.8359 34.9984 75.0236 35.1861 75.2551 35.1861Z" fill="#17141F"/>
<path d="M75.2551 32.5025C75.4867 32.5025 75.6743 32.3148 75.6743 32.0833C75.6743 31.8517 75.4867 31.6641 75.2551 31.6641C75.0236 31.6641 74.8359 31.8517 74.8359 32.0833C74.8359 32.3148 75.0236 32.5025 75.2551 32.5025Z" fill="#17141F"/>
<path d="M77.9387 35.1861C78.1703 35.1861 78.3579 34.9984 78.3579 34.7669C78.3579 34.5353 78.1703 34.3477 77.9387 34.3477C77.7072 34.3477 77.5195 34.5353 77.5195 34.7669C77.5195 34.9984 77.7072 35.1861 77.9387 35.1861Z" fill="#17141F"/>
<path d="M77.9387 32.5025C78.1703 32.5025 78.3579 32.3148 78.3579 32.0833C78.3579 31.8517 78.1703 31.6641 77.9387 31.6641C77.7072 31.6641 77.5195 31.8517 77.5195 32.0833C77.5195 32.3148 77.7072 32.5025 77.9387 32.5025Z" fill="#17141F"/>
<path d="M80.6262 35.1861C80.8578 35.1861 81.0454 34.9984 81.0454 34.7669C81.0454 34.5353 80.8578 34.3477 80.6262 34.3477C80.3947 34.3477 80.207 34.5353 80.207 34.7669C80.207 34.9984 80.3947 35.1861 80.6262 35.1861Z" fill="#17141F"/>
<path d="M80.6262 32.5025C80.8578 32.5025 81.0454 32.3148 81.0454 32.0833C81.0454 31.8517 80.8578 31.6641 80.6262 31.6641C80.3947 31.6641 80.207 31.8517 80.207 32.0833C80.207 32.3148 80.3947 32.5025 80.6262 32.5025Z" fill="#17141F"/>
<path d="M83.3137 35.1861C83.5453 35.1861 83.7329 34.9984 83.7329 34.7669C83.7329 34.5353 83.5453 34.3477 83.3137 34.3477C83.0822 34.3477 82.8945 34.5353 82.8945 34.7669C82.8945 34.9984 83.0822 35.1861 83.3137 35.1861Z" fill="#17141F"/>
<path d="M83.3137 32.5025C83.5453 32.5025 83.7329 32.3148 83.7329 32.0833C83.7329 31.8517 83.5453 31.6641 83.3137 31.6641C83.0822 31.6641 82.8945 31.8517 82.8945 32.0833C82.8945 32.3148 83.0822 32.5025 83.3137 32.5025Z" fill="#17141F"/>
</svg>
