<svg width="27" height="22" viewBox="0 0 27 22" fill="none" xmlns="http://www.w3.org/2000/svg">
<path d="M15.5043 18.0856H20.3815L22.8497 19.5816L22.7806 18.0856H24.737C24.8749 18.0893 25.0087 18.0385 25.1093 17.9441C25.21 17.8498 25.2693 17.7195 25.2745 17.5817V12.6076C25.2693 12.4698 25.21 12.3395 25.1093 12.2452C25.0087 12.1508 24.8749 12.1 24.737 12.1037H15.5043C15.3669 12.101 15.2338 12.1522 15.1337 12.2464C15.0336 12.3406 14.9744 12.4703 14.9688 12.6076V17.5777C14.9734 17.7158 15.0322 17.8464 15.1324 17.9415C15.2326 18.0365 15.3662 18.0883 15.5043 18.0856Z" fill="white"/>
<path d="M20.0925 11.3809H15.6757C15.4108 11.3819 15.1571 11.4876 14.9698 11.6749C14.7825 11.8622 14.6768 12.1159 14.6758 12.3808V17.2224C14.6768 17.4873 14.7825 17.741 14.9698 17.9283C15.1571 18.1156 15.4108 18.2213 15.6757 18.2224H20.1241L22.871 20.0009L22.8374 18.2224H24.5725C24.8354 18.2187 25.0865 18.1118 25.2713 17.9248C25.4562 17.7377 25.5601 17.4854 25.5606 17.2224V12.3808C25.5601 12.1178 25.4562 11.8655 25.2713 11.6785C25.0865 11.4914 24.8354 11.3845 24.5725 11.3809H22.8848" stroke="url(#paint0_linear)" strokeWidth="1.5" strokeMiterlimit="10" strokeLinecap="round"/>
<path d="M20.9927 14.05H11.9419L7.35912 17.0142L7.48955 14.05H3.85932C3.59632 14.0495 3.34405 13.9456 3.15697 13.7607C2.9699 13.5759 2.86301 13.3249 2.85938 13.0619V3.2166C2.86301 2.95362 2.9699 2.70262 3.15697 2.51776C3.34405 2.3329 3.59632 2.22901 3.85932 2.22852H20.9927C21.2558 2.22901 21.508 2.3329 21.6951 2.51776C21.8822 2.70262 21.9891 2.95362 21.9927 3.2166V13.052C21.9916 13.3167 21.8859 13.5702 21.6985 13.7572C21.5112 13.9442 21.2574 14.0495 20.9927 14.05Z" fill="white"/>
<path d="M9.6837 1.1123H20.355C20.8556 1.11387 21.3352 1.31341 21.6892 1.66737C22.0431 2.02133 22.2427 2.50095 22.2443 3.00153V12.1571C22.2427 12.6577 22.0431 13.1373 21.6892 13.4913C21.3352 13.8452 20.8556 14.0448 20.355 14.0464H11.9405L6.74315 17.4059L6.80639 14.0464H3.52594C3.02537 14.0448 2.54575 13.8452 2.19179 13.4913C1.83783 13.1373 1.63828 12.6577 1.63672 12.1571V3.00153C1.63828 2.50095 1.83783 2.02133 2.19179 1.66737C2.54575 1.31341 3.02537 1.11387 3.52594 1.1123H6.71944" stroke="url(#paint1_linear)" strokeWidth="1.5" strokeMiterlimit="10" strokeLinecap="round"/>
<path d="M6.37891 4.71875H17.655" stroke="url(#paint2_linear)" strokeWidth="1.5" strokeMiterlimit="10" strokeLinecap="round"/>
<path d="M6.37891 7.23242H17.655" stroke="url(#paint3_linear)" strokeWidth="1.5" strokeMiterlimit="10" strokeLinecap="round"/>
<path d="M6.37891 9.74805H11.2107" stroke="url(#paint4_linear)" strokeWidth="1.5" strokeMiterlimit="10" strokeLinecap="round"/>
<defs>
<linearGradient id="paint0_linear" x1="14.6758" y1="12.1505" x2="23.2497" y2="22.0104" gradientUnits="userSpaceOnUse">
<stop stop-color="#5F7DF1"/>
<stop offset="1" stop-color="#3055EC"/>
</linearGradient>
<linearGradient id="paint1_linear" x1="1.63672" y1="2.56709" x2="17.8394" y2="21.23" gradientUnits="userSpaceOnUse">
<stop stop-color="#5F7DF1"/>
<stop offset="1" stop-color="#3055EC"/>
</linearGradient>
<linearGradient id="paint2_linear" x1="6.37891" y1="4.80804" x2="6.57268" y2="6.79792" gradientUnits="userSpaceOnUse">
<stop stop-color="#5F7DF1"/>
<stop offset="1" stop-color="#3055EC"/>
</linearGradient>
<linearGradient id="paint3_linear" x1="6.37891" y1="7.32171" x2="6.57268" y2="9.31159" gradientUnits="userSpaceOnUse">
<stop stop-color="#5F7DF1"/>
<stop offset="1" stop-color="#3055EC"/>
</linearGradient>
<linearGradient id="paint4_linear" x1="6.37891" y1="9.83733" x2="6.81299" y2="11.7474" gradientUnits="userSpaceOnUse">
<stop stop-color="#5F7DF1"/>
<stop offset="1" stop-color="#3055EC"/>
</linearGradient>
</defs>
</svg>
