<svg width="75" height="67" viewBox="0 0 75 67" fill="none" xmlns="http://www.w3.org/2000/svg">
<path d="M37.8459 67.0005C54.0662 67.0005 67.2153 53.8514 67.2153 37.6311C67.2153 21.4108 54.0662 8.26172 37.8459 8.26172C21.6257 8.26172 8.47656 21.4108 8.47656 37.6311C8.47656 53.8514 21.6257 67.0005 37.8459 67.0005Z" fill="#F2F5F8"/>
<path d="M48.5742 24.3937L59.1903 32.408C59.6051 32.6905 60.1127 32.8025 60.6079 32.7208C61.103 32.6391 61.5478 32.37 61.8498 31.9692C62.1519 31.5684 62.288 31.0667 62.2301 30.5682C62.1721 30.0697 61.9245 29.6126 61.5386 29.2917L51.1462 21.4639" fill="white"/>
<path d="M48.251 6.46484H22.2663C20.5184 6.46484 19.1016 7.88172 19.1016 9.62953V50.5431C19.1016 52.2909 20.5184 53.7078 22.2663 53.7078H48.251C49.9988 53.7078 51.4157 52.2909 51.4157 50.5431V9.62953C51.4157 7.88172 49.9988 6.46484 48.251 6.46484Z" fill="white" stroke="#17141F" stroke-width="1.5" stroke-linecap="round" stroke-linejoin="round"/>
<path d="M48.2742 10.6689H24.6788C23.0936 10.6689 21.8086 11.954 21.8086 13.5392V50.5761C21.8086 52.1613 23.0936 53.4463 24.6788 53.4463H48.2742C49.8594 53.4463 51.1444 52.1613 51.1444 50.5761V13.5392C51.1444 11.954 49.8594 10.6689 48.2742 10.6689Z" fill="#A6B6FA"/>
<path d="M53.8272 1.37305H27.8424C26.0946 1.37305 24.6777 2.78993 24.6777 4.53774V45.4513C24.6777 47.1991 26.0946 48.616 27.8424 48.616H53.8272C55.575 48.616 56.9919 47.1991 56.9919 45.4513V4.53774C56.9919 2.78993 55.575 1.37305 53.8272 1.37305Z" fill="white"/>
<path d="M32.4249 1.37305H30.6953" stroke="#17141F" stroke-width="1.5" stroke-linecap="round" stroke-linejoin="round"/>
<path d="M56.9935 45.4513C56.9915 46.2901 56.6574 47.0939 56.0644 47.6869C55.4713 48.28 54.6675 48.6141 53.8288 48.616H27.8366C26.9978 48.6141 26.194 48.28 25.601 47.6869C25.0079 47.0939 24.6738 46.2901 24.6719 45.4513V4.53774C24.6738 3.69901 25.0079 2.89521 25.601 2.30214C26.194 1.70907 26.9978 1.37502 27.8366 1.37305" stroke="#17141F" stroke-width="1.5" stroke-linecap="round" stroke-linejoin="round"/>
<path d="M56.9941 32.1064V42.9163" stroke="#17141F" stroke-width="1.5" stroke-linecap="round" stroke-linejoin="round"/>
<path d="M35.2617 1.37305H49.3034" stroke="#17141F" stroke-width="1.5" stroke-linecap="round" stroke-linejoin="round"/>
<path d="M31.9043 32.3818H43.7877" stroke="#17141F" stroke-width="1.5" stroke-linecap="round" stroke-linejoin="round"/>
<path d="M31.9043 37.6982H49.9121" stroke="#17141F" stroke-width="1.5" stroke-linecap="round" stroke-linejoin="round"/>
<path d="M53.8281 1.37305C54.6668 1.37502 55.4707 1.70907 56.0637 2.30214C56.6568 2.89521 56.9908 3.69901 56.9928 4.53774V21.3453" stroke="#17141F" stroke-width="1.5" stroke-linecap="round" stroke-linejoin="round"/>
<path d="M48.5059 25.0469L59.1256 33.0574C59.5406 33.3331 60.0453 33.4398 60.5364 33.3557C61.0274 33.2715 61.4678 33.0029 61.7673 32.6048C62.0669 32.2067 62.203 31.7091 62.1477 31.214C62.0925 30.7188 61.8502 30.2635 61.4703 29.9411L51.0779 22.1133" stroke="#17141F" stroke-width="1.5" stroke-linecap="round" stroke-linejoin="round"/>
<path d="M40.7368 27.9247C47.0095 27.9247 52.0946 22.8396 52.0946 16.5668C52.0946 10.2941 47.0095 5.20898 40.7368 5.20898C34.464 5.20898 29.3789 10.2941 29.3789 16.5668C29.3789 22.8396 34.464 27.9247 40.7368 27.9247Z" stroke="#17141F" stroke-width="1.5" stroke-linecap="round" stroke-linejoin="round"/>
<path d="M47.9359 11.6728C49.1257 13.3864 49.65 15.475 49.4103 17.5474C49.1707 19.6198 48.1836 21.5338 46.6341 22.9306C45.0845 24.3274 43.0788 25.1113 40.9927 25.1354C38.9067 25.1595 36.8834 24.4222 35.302 23.0615C33.7206 21.7008 32.6896 19.8102 32.4021 17.7439C32.1147 15.6776 32.5905 13.5774 33.7405 11.8368C34.8904 10.0961 36.6356 8.83453 38.6491 8.28833C40.6625 7.74212 42.806 7.94881 44.678 8.86966" stroke="#17141F" stroke-width="1.5" stroke-linecap="round" stroke-linejoin="round"/>
<path d="M41.5782 24.294C45.6502 24.294 48.9513 20.993 48.9513 16.9209C48.9513 12.8489 45.6502 9.54785 41.5782 9.54785C37.5061 9.54785 34.2051 12.8489 34.2051 16.9209C34.2051 20.993 37.5061 24.294 41.5782 24.294Z" fill="#F2F5F8"/>
<path d="M41.0378 12.418L41.0117 17.5433" stroke="#17141F" stroke-width="1.5" stroke-miterlimit="10" stroke-linecap="round"/>
<path d="M41.014 20.7156C41.3249 20.7156 41.5769 20.4636 41.5769 20.1527C41.5769 19.8418 41.3249 19.5898 41.014 19.5898C40.7032 19.5898 40.4512 19.8418 40.4512 20.1527C40.4512 20.4636 40.7032 20.7156 41.014 20.7156Z" fill="#17141F"/>
<path d="M61.3477 44.4005C61.5721 44.4005 61.754 44.2186 61.754 43.9942C61.754 43.7698 61.5721 43.5879 61.3477 43.5879C61.1233 43.5879 60.9414 43.7698 60.9414 43.9942C60.9414 44.2186 61.1233 44.4005 61.3477 44.4005Z" fill="#17141F"/>
<path d="M63.1387 42.5138C63.3631 42.5138 63.545 42.3319 63.545 42.1075C63.545 41.8831 63.3631 41.7012 63.1387 41.7012C62.9143 41.7012 62.7324 41.8831 62.7324 42.1075C62.7324 42.3319 62.9143 42.5138 63.1387 42.5138Z" fill="#17141F"/>
<path d="M63.2325 46.1935C63.4569 46.1935 63.6388 46.0116 63.6388 45.7872C63.6388 45.5628 63.4569 45.3809 63.2325 45.3809C63.0081 45.3809 62.8262 45.5628 62.8262 45.7872C62.8262 46.0116 63.0081 46.1935 63.2325 46.1935Z" fill="#17141F"/>
<path d="M65.0274 44.3067C65.2518 44.3067 65.4337 44.1248 65.4337 43.9004C65.4337 43.676 65.2518 43.4941 65.0274 43.4941C64.803 43.4941 64.6211 43.676 64.6211 43.9004C64.6211 44.1248 64.803 44.3067 65.0274 44.3067Z" fill="#17141F"/>
<path d="M65.1192 47.9903C65.3436 47.9903 65.5255 47.8084 65.5255 47.584C65.5255 47.3596 65.3436 47.1777 65.1192 47.1777C64.8948 47.1777 64.7129 47.3596 64.7129 47.584C64.7129 47.8084 64.8948 47.9903 65.1192 47.9903Z" fill="#17141F"/>
<path d="M66.9141 46.1036C67.1385 46.1036 67.3204 45.9217 67.3204 45.6973C67.3204 45.4729 67.1385 45.291 66.9141 45.291C66.6897 45.291 66.5078 45.4729 66.5078 45.6973C66.5078 45.9217 66.6897 46.1036 66.9141 46.1036Z" fill="#17141F"/>
<path d="M67.0059 49.7823C67.2303 49.7823 67.4122 49.6004 67.4122 49.376C67.4122 49.1516 67.2303 48.9697 67.0059 48.9697C66.7815 48.9697 66.5996 49.1516 66.5996 49.376C66.5996 49.6004 66.7815 49.7823 67.0059 49.7823Z" fill="#17141F"/>
<path d="M68.7989 47.8966C69.0233 47.8966 69.2052 47.7147 69.2052 47.4903C69.2052 47.2659 69.0233 47.084 68.7989 47.084C68.5745 47.084 68.3926 47.2659 68.3926 47.4903C68.3926 47.7147 68.5745 47.8966 68.7989 47.8966Z" fill="#17141F"/>
<path d="M68.8907 51.5792C69.1151 51.5792 69.297 51.3973 69.297 51.1729C69.297 50.9485 69.1151 50.7666 68.8907 50.7666C68.6663 50.7666 68.4844 50.9485 68.4844 51.1729C68.4844 51.3973 68.6663 51.5792 68.8907 51.5792Z" fill="#17141F"/>
<path d="M70.6856 49.6935C70.91 49.6935 71.0919 49.5116 71.0919 49.2872C71.0919 49.0628 70.91 48.8809 70.6856 48.8809C70.4612 48.8809 70.2793 49.0628 70.2793 49.2872C70.2793 49.5116 70.4612 49.6935 70.6856 49.6935Z" fill="#17141F"/>
<path d="M70.7794 53.3722C71.0037 53.3722 71.1857 53.1903 71.1857 52.9659C71.1857 52.7415 71.0037 52.5596 70.7794 52.5596C70.555 52.5596 70.373 52.7415 70.373 52.9659C70.373 53.1903 70.555 53.3722 70.7794 53.3722Z" fill="#17141F"/>
<path d="M72.5704 51.4864C72.7948 51.4864 72.9767 51.3045 72.9767 51.0801C72.9767 50.8557 72.7948 50.6738 72.5704 50.6738C72.346 50.6738 72.1641 50.8557 72.1641 51.0801C72.1641 51.3045 72.346 51.4864 72.5704 51.4864Z" fill="#17141F"/>
<path d="M72.6622 55.1691C72.8866 55.1691 73.0685 54.9871 73.0685 54.7627C73.0685 54.5384 72.8866 54.3564 72.6622 54.3564C72.4378 54.3564 72.2559 54.5384 72.2559 54.7627C72.2559 54.9871 72.4378 55.1691 72.6622 55.1691Z" fill="#17141F"/>
<path d="M74.4571 53.2833C74.6815 53.2833 74.8634 53.1014 74.8634 52.877C74.8634 52.6526 74.6815 52.4707 74.4571 52.4707C74.2327 52.4707 74.0508 52.6526 74.0508 52.877C74.0508 53.1014 74.2327 53.2833 74.4571 53.2833Z" fill="#17141F"/>
<path d="M1.37109 43.5242L4.15557 36.96L11.9872 42.3612L1.37109 43.5242Z" fill="#466BF0"/>
<path d="M1.37109 58.5947H12.3711" stroke="#17141F" stroke-width="1.5" stroke-linecap="round" stroke-linejoin="round"/>
<path d="M2.98047 61.2266H27.0343" stroke="#17141F" stroke-width="1.5" stroke-linecap="round" stroke-linejoin="round"/>
</svg>
