<svg width="86" height="14" viewBox="0 0 86 14" fill="none" xmlns="http://www.w3.org/2000/svg">
<path opacity="0.2" d="M1 9.7881C8.7158 9.7881 16.3047 9.71424 23.9968 8.98513C33.5238 8.08211 43.1986 7.45279 52.6773 6.15242C60.3717 5.09683 67.9654 3.43289 75.7616 3.36431C76.4148 3.35857 78.7698 3.75857 79.3029 3.27509C80.2549 2.41168 76.7738 2.95225 75.5211 2.71747C73.5227 2.34295 67.6308 1 69.6626 1C73.8027 1 77.988 1.32701 82.1447 1.35688C82.244 1.35759 85.9488 1.08404 84.7679 2.02602C82.871 3.53929 80.3808 4.25573 78.188 5.171C74.0964 6.87891 71.1373 9.64238 68.2854 13" stroke="white" stroke-width="2" stroke-linecap="round"/>
</svg>
