<svg width="30" height="30" fill="none" xmlns="http://www.w3.org/2000/svg"><path d="M13.3814 7.59037a1.86233 1.86233 0 0 1 .6826-.68802 1.86297 1.86297 0 0 1 .9358-.25208c.3288 0 .6516.08697.9359.25208.2842.16511.5197.40248.6826.68802L24.0967 20.545c.1654.2837.2529.6061.2535.9345.0007.3285-.0854.6512-.2496.9356a1.86375 1.86375 0 0 1-.6854.684c-.2848.1636-.6077.249-.9361.2476H7.52061a1.86316 1.86316 0 0 1-1.62154-.9316 1.8632 1.8632 0 0 1 .00391-1.8701l5.74552-9.9531M15 11.5426v6.9211" stroke="#3055EC" stroke-width="1.5" stroke-miterlimit="10" stroke-linecap="round"/><path d="M14.9992 20.7991c.334 0 .6047-.2708.6047-.6048 0-.3339-.2707-.6047-.6047-.6047-.3339 0-.6047.2708-.6047.6047 0 .334.2708.6048.6047.6048Z" fill="#3055EC"/></svg>