<svg width="52" height="39" viewBox="0 0 52 39" fill="none"
    xmlns="http://www.w3.org/2000/svg">
    <path d="M50.3818 29.8388V18.1862C50.3636 17.4311 50.0496 16.7138 49.5081 16.1906C48.9666 15.6673 48.2415 15.3805 47.4907 15.3925H23.3426C22.5921 15.3805 21.8673 15.6674 21.3262 16.1907C20.7852 16.7141 20.4717 17.4313 20.4542 18.1862V29.8388C20.4717 30.5936 20.7852 31.3109 21.3262 31.8342C21.8673 32.3575 22.5921 32.6445 23.3426 32.6325H34.621L42.5694 37.6025L42.4694 32.6325H47.4879C48.2392 32.6452 48.965 32.3587 49.5071 31.8354C50.0492 31.312 50.3636 30.5943 50.3818 29.8388Z" fill="#A6B6FA"/>
    <path d="M40.6199 12.9289H21.7513C20.9859 12.9311 20.2525 13.2379 19.7113 13.7823C19.1701 14.3267 18.8651 15.0645 18.8629 15.8344V29.9258C18.8651 30.6957 19.1701 31.4335 19.7113 31.9779C20.2525 32.5223 20.9859 32.8291 21.7513 32.8313H34.621L42.5695 37.9997L42.4695 32.8313H47.488C48.2541 32.8298 48.9885 32.5234 49.5307 31.979C50.0729 31.4346 50.3789 30.6965 50.3819 29.9258V21.0167" stroke="black" stroke-width="1.5" stroke-linecap="round" stroke-linejoin="round"/>
    <path d="M50.3828 15.8344C50.3799 15.0642 50.0742 14.3265 49.5326 13.7822C48.991 13.2378 48.2573 12.9311 47.4917 12.9289H43.7174" stroke="black" stroke-width="1.5" stroke-linecap="round" stroke-linejoin="round"/>
    <path d="M25.9976 19.3543H43.2415" stroke="white" stroke-width="1.5" stroke-linecap="round" stroke-linejoin="round"/>
    <path d="M25.9976 23.2236H43.2415" stroke="white" stroke-width="1.5" stroke-linecap="round" stroke-linejoin="round"/>
    <path d="M25.9976 27.0908H33.3878" stroke="white" stroke-width="1.5" stroke-linecap="round" stroke-linejoin="round"/>
    <path d="M29.6251 1C30.3907 1.00221 31.1244 1.30894 31.666 1.85326C32.2076 2.39758 32.5132 3.13531 32.5162 3.90546V17.9886C32.5132 18.7587 32.2076 19.4964 31.666 20.0408C31.1244 20.5851 30.3907 20.8918 29.6251 20.894H16.7581L8.80961 26.0708L8.90682 20.9024H3.88834C3.12154 20.9002 2.3869 20.5922 1.84547 20.046C1.30404 19.4998 0.999997 18.7599 1 17.9886V3.90546C1.0022 3.13556 1.30721 2.39783 1.8484 1.85343C2.38959 1.30903 3.12298 1.00221 3.88834 1" fill="white"/>
    <path d="M3.17004 18.2849V6.6072C3.18898 5.85235 3.50326 5.13551 4.0446 4.61241C4.58593 4.08931 5.3106 3.80221 6.06116 3.81349H29.6205C30.3711 3.80221 31.0958 4.08931 31.6371 4.61241C32.1784 5.13551 32.4927 5.85235 32.5116 6.6072V18.2849C32.4927 19.0398 32.1784 19.7566 31.6371 20.2797C31.0958 20.8028 30.3711 21.0899 29.6205 21.0786H16.7591L8.81063 26.071L8.90783 21.087H6.06671C5.31379 21.0997 4.58647 20.8122 4.04369 20.2871C3.50091 19.7621 3.18682 19.0422 3.17004 18.2849Z" fill="#F2F5F8"/>
    <path d="M13.3088 1H29.6251C30.3907 1.00221 31.1244 1.30894 31.666 1.85326C32.2076 2.39758 32.5132 3.13531 32.5162 3.90546V17.9886C32.5132 18.7587 32.2076 19.4964 31.666 20.0408C31.1244 20.5851 30.3907 20.8918 29.6251 20.894H16.7581L8.80961 26.0708L8.90682 20.9024H3.88834C3.12154 20.9002 2.3869 20.5922 1.84547 20.046C1.30404 19.4998 0.999997 18.7599 1 17.9886V3.90546C1.0022 3.13556 1.30721 2.39783 1.8484 1.85343C2.38959 1.30903 3.12298 1.00221 3.88834 1H8.77351" stroke="black" stroke-width="1.5" stroke-linecap="round" stroke-linejoin="round"/>
    <path d="M8.25391 7.1064H25.495" stroke="black" stroke-width="1.5" stroke-linecap="round" stroke-linejoin="round"/>
    <path d="M8.25391 10.9736H25.495" stroke="black" stroke-width="1.5" stroke-linecap="round" stroke-linejoin="round"/>
    <path d="M8.25391 14.8429H15.6442" stroke="black" stroke-width="1.5" stroke-linecap="round" stroke-linejoin="round"/>
</svg>
