<svg width="10" height="10" viewBox="0 0 10 10" fill="none" xmlns="http://www.w3.org/2000/svg">
<path fillRule="evenodd" clipRule="evenodd" d="M2.835 -0.000366211H7.17C8.865 -0.000366211 10 1.18963 10 2.95963V7.04513C10 8.81013 8.865 9.99963 7.17 9.99963H2.835C1.14 9.99963 0 8.81013 0 7.04513V2.95963C0 1.18963 1.14 -0.000366211 2.835 -0.000366211ZM6.5052 6.49959C6.6752 6.33009 6.6752 6.05509 6.5052 5.88509L5.6152 4.99509L6.5052 4.10459C6.6752 3.93509 6.6752 3.65509 6.5052 3.48509C6.3352 3.31459 6.0602 3.31459 5.8852 3.48509L5.0002 4.37459L4.1102 3.48509C3.9352 3.31459 3.6602 3.31459 3.4902 3.48509C3.3202 3.65509 3.3202 3.93509 3.4902 4.10459L4.3802 4.99509L3.4902 5.88009C3.3202 6.05509 3.3202 6.33009 3.4902 6.49959C3.5752 6.58459 3.6902 6.63009 3.8002 6.63009C3.9152 6.63009 4.0252 6.58459 4.1102 6.49959L5.0002 5.61509L5.8902 6.49959C5.9752 6.59009 6.0852 6.63009 6.1952 6.63009C6.3102 6.63009 6.4202 6.58459 6.5052 6.49959Z" fill="#B92033"/>
</svg>
