<svg width="25" height="25" viewBox="0 0 25 25" fill="none" xmlns="http://www.w3.org/2000/svg">
<path d="M16.7701 8.00378L8.21558 17.01" stroke="white" stroke-width="1.5" stroke-miterlimit="10" stroke-linecap="round"/>
<path d="M14.1727 6.9875C13.6363 6.86045 13.0716 6.80399 12.5211 6.80399C7.07219 6.80399 4.53125 12.4929 4.53125 12.4929C4.99709 13.4528 5.58997 14.3421 6.29579 15.1326" stroke="white" stroke-width="1.5" stroke-miterlimit="10" stroke-linecap="round" stroke-linejoin="round"/>
<path d="M10.8414 17.9982C11.392 18.1252 11.9707 18.1958 12.5354 18.1817C17.9984 18.1817 20.4829 12.4928 20.4829 12.4928C19.9606 11.42 19.283 10.4318 18.4642 9.55661" stroke="white" stroke-width="1.5" stroke-miterlimit="10" stroke-linecap="round" stroke-linejoin="round"/>
<path d="M10.8694 14.2012C9.95185 13.326 9.9095 11.872 10.7847 10.9544C11.6599 10.0369 13.1139 9.99453 14.0315 10.8697" stroke="white" stroke-width="1.5" stroke-miterlimit="10" stroke-linecap="round"/>
</svg>
