<svg width="35" height="42" viewBox="0 0 35 42" fill="none"
    xmlns="http://www.w3.org/2000/svg">
    <path d="M28.4518 10.5943H15.3133C14.6444 10.5943 14.1021 11.1301 14.1021 11.7909V13.3662C14.1021 14.027 14.6444 14.5627 15.3133 14.5627H28.4518C29.1208 14.5627 29.6631 14.027 29.6631 13.3662V11.7909C29.6631 11.1301 29.1208 10.5943 28.4518 10.5943Z" fill="#A6B6FA"/>
    <path d="M32.2686 1H2.21128C1.54231 1 1 1.53571 1 2.19654V31.8881C1 32.549 1.54231 33.0847 2.21128 33.0847H32.2686C32.9375 33.0847 33.4798 32.549 33.4798 31.8881V2.19654C33.4798 1.53571 32.9375 1 32.2686 1Z" stroke="#17141F" stroke-width="1.5" stroke-linecap="round" stroke-linejoin="round"/>
    <path d="M27.5925 9.59993H14.4541C13.7851 9.59993 13.2428 10.1356 13.2428 10.7965V12.3718C13.2428 13.0326 13.7851 13.5683 14.4541 13.5683H27.5925C28.2615 13.5683 28.8038 13.0326 28.8038 12.3718V10.7965C28.8038 10.1356 28.2615 9.59993 27.5925 9.59993Z" stroke="#17141F" stroke-width="1.5" stroke-linecap="round" stroke-linejoin="round"/>
    <path d="M8.67101 8.65877H8.60751C6.98904 8.65877 5.677 9.95484 5.677 11.5536V11.6163C5.677 13.2151 6.98904 14.5112 8.60751 14.5112H8.67101C10.2895 14.5112 11.6015 13.2151 11.6015 11.6163V11.5536C11.6015 9.95484 10.2895 8.65877 8.67101 8.65877Z" stroke="#17141F" stroke-width="1.5" stroke-linecap="round" stroke-linejoin="round"/>
    <path d="M27.5925 20.2221H14.4541C13.7851 20.2221 13.2428 20.7578 13.2428 21.4187V22.9939C13.2428 23.6548 13.7851 24.1905 14.4541 24.1905H27.5925C28.2615 24.1905 28.8038 23.6548 28.8038 22.9939V21.4187C28.8038 20.7578 28.2615 20.2221 27.5925 20.2221Z" stroke="#17141F" stroke-width="1.5" stroke-linecap="round" stroke-linejoin="round"/>
    <path d="M8.67101 19.2789H8.60751C6.98904 19.2789 5.677 20.575 5.677 22.1737V22.2365C5.677 23.8352 6.98904 25.1313 8.60751 25.1313H8.67101C10.2895 25.1313 11.6015 23.8352 11.6015 22.2365V22.1737C11.6015 20.575 10.2895 19.2789 8.67101 19.2789Z" stroke="#17141F" stroke-width="1.5" stroke-linecap="round" stroke-linejoin="round"/>
    <path d="M8.63901 13.1852C9.53321 13.1852 10.2581 12.4692 10.2581 11.5858C10.2581 10.7025 9.53321 9.98642 8.63901 9.98642C7.7448 9.98642 7.0199 10.7025 7.0199 11.5858C7.0199 12.4692 7.7448 13.1852 8.63901 13.1852Z" fill="#A6B6FA"/>
    <path fill-rule="evenodd" clip-rule="evenodd" d="M30.8791 32.2182C30.8489 32.2007 30.817 32.1862 30.7839 32.1747L19.5088 28.3149L19.4599 28.3004H19.4086C19.34 28.2884 19.2697 28.2884 19.2011 28.3004C19.0854 28.3205 18.9788 28.3753 18.8958 28.4573C18.8128 28.5393 18.7574 28.6446 18.7371 28.7588C18.7249 28.8266 18.7249 28.896 18.7371 28.9639C18.7359 28.9807 18.7359 28.9976 18.7371 29.0145L18.7517 29.0628L22.6591 40.2007C22.6707 40.2334 22.6854 40.2649 22.703 40.2948C22.7281 40.3392 22.7584 40.3805 22.7934 40.4178C22.8716 40.4987 22.9709 40.5568 23.0802 40.5857C23.1896 40.6146 23.305 40.6133 23.4137 40.5819C23.4638 40.568 23.5115 40.5469 23.5553 40.5192C23.5849 40.5027 23.6127 40.4833 23.6383 40.4613L23.6774 40.4251L25.741 38.3384L28.3052 40.8111C28.3311 40.8356 28.3589 40.8581 28.3882 40.8786C28.4617 40.9276 28.545 40.9605 28.6324 40.9751C28.6673 40.9787 28.7025 40.9787 28.7374 40.9751H28.7912C28.8266 40.971 28.8616 40.9646 28.8962 40.9558C28.9652 40.9362 29.0305 40.9052 29.0891 40.8641C29.1171 40.843 29.144 40.8205 29.1697 40.7966L30.2637 39.6917L31.3822 38.611C31.4064 38.5856 31.4292 38.5591 31.4506 38.5314C31.4921 38.4734 31.5235 38.409 31.5434 38.3408C31.5523 38.3067 31.5588 38.272 31.5629 38.237C31.5641 38.2194 31.5641 38.2016 31.5629 38.184C31.5666 38.1495 31.5666 38.1147 31.5629 38.0802C31.5481 37.9939 31.5148 37.9116 31.4652 37.839C31.4445 37.81 31.4217 37.7826 31.3969 37.757L28.8937 35.224L31.0061 33.1855L31.0428 33.1469C31.065 33.1216 31.0847 33.0941 31.1014 33.0649C31.1294 33.0216 31.1508 32.9745 31.1649 32.925C31.1967 32.8176 31.198 32.7037 31.1688 32.5956C31.1395 32.4876 31.0807 32.3895 30.9988 32.3122C30.9628 32.2763 30.9226 32.2448 30.8791 32.2182Z" fill="white"/>
    <path fill-rule="evenodd" clip-rule="evenodd" d="M29.0937 33.7532L29.0082 33.7026L18.7685 28.8223L18.7246 28.803L18.6782 28.7861C18.6208 28.7668 18.5604 28.7578 18.4999 28.7596C18.4099 28.7571 18.3224 28.7891 18.2557 28.8489C18.196 28.9154 18.163 29.0012 18.1629 29.0901C18.1614 29.1499 18.1705 29.2095 18.1897 29.2662C18.1897 29.2807 18.1897 29.2952 18.2068 29.312L18.2264 29.3555L22.9811 39.7794C22.9955 39.8093 23.0118 39.8383 23.03 39.8662C23.0591 39.9083 23.0918 39.9478 23.1277 39.9844C23.1953 40.0637 23.2805 40.1267 23.3765 40.1685C23.4726 40.2103 23.5771 40.2298 23.682 40.2257C23.7217 40.2199 23.7604 40.2085 23.7968 40.1919C23.8194 40.1805 23.8407 40.1667 23.8603 40.1509L23.8871 40.1267L25.5502 38.3078L28.1071 40.7901C28.1322 40.8146 28.1591 40.8372 28.1877 40.8577C28.255 40.9097 28.331 40.9498 28.4123 40.9759C28.4424 40.9865 28.4735 40.9938 28.5051 40.9976H28.5515C28.5799 41.0013 28.6086 41.0013 28.637 40.9976C28.6915 40.9925 28.7442 40.9752 28.7909 40.947C28.8125 40.9336 28.8322 40.9173 28.8495 40.8987L29.6334 40.1002L30.4393 39.3282C30.4583 39.3105 30.4747 39.2902 30.4881 39.2679C30.5175 39.2228 30.5359 39.1716 30.5418 39.1184C30.5443 39.0895 30.5443 39.0604 30.5418 39.0315C30.5406 39.0171 30.5406 39.0025 30.5418 38.9881C30.5418 38.9471 30.5418 38.9374 30.5199 38.8964C30.4937 38.816 30.4532 38.7408 30.4002 38.6745C30.3785 38.6463 30.3549 38.6197 30.3294 38.5949L27.8165 36.0691L29.3428 34.6096L29.3696 34.5831C29.3846 34.5634 29.3977 34.5424 29.4087 34.5204C29.4263 34.4855 29.4378 34.448 29.4429 34.4094C29.4488 34.3066 29.4312 34.2038 29.3915 34.1086C29.3517 34.0134 29.2909 33.9282 29.2133 33.8594C29.1774 33.8199 29.1373 33.7843 29.0937 33.7532Z" fill="#F2F5F8"/>
    <path fill-rule="evenodd" clip-rule="evenodd" d="M30.8791 32.2182C30.8489 32.2007 30.817 32.1862 30.7839 32.1747L19.5088 28.3149L19.4599 28.3004H19.4086C19.34 28.2884 19.2697 28.2884 19.2011 28.3004C19.0854 28.3205 18.9788 28.3753 18.8958 28.4573C18.8128 28.5393 18.7574 28.6446 18.7371 28.7588C18.7249 28.8266 18.7249 28.896 18.7371 28.9639C18.7359 28.9807 18.7359 28.9976 18.7371 29.0145L18.7517 29.0628L22.6591 40.2007C22.6707 40.2334 22.6854 40.2649 22.703 40.2948C22.7281 40.3392 22.7584 40.3805 22.7934 40.4178C22.8716 40.4987 22.9709 40.5568 23.0802 40.5857C23.1896 40.6146 23.305 40.6133 23.4137 40.5819C23.4638 40.568 23.5115 40.5469 23.5553 40.5192C23.5849 40.5027 23.6127 40.4833 23.6383 40.4613L23.6774 40.4251L25.741 38.3384L28.3052 40.8111C28.3311 40.8356 28.3589 40.8581 28.3882 40.8786C28.4617 40.9276 28.545 40.9605 28.6324 40.9751C28.6673 40.9787 28.7025 40.9787 28.7374 40.9751H28.7912C28.8266 40.971 28.8616 40.9646 28.8962 40.9558C28.9652 40.9362 29.0305 40.9052 29.0891 40.8641C29.1171 40.843 29.144 40.8205 29.1697 40.7966L30.2637 39.6917L31.3822 38.611C31.4064 38.5856 31.4292 38.5591 31.4506 38.5314C31.4921 38.4734 31.5235 38.409 31.5434 38.3408C31.5523 38.3067 31.5588 38.272 31.5629 38.237C31.5641 38.2194 31.5641 38.2016 31.5629 38.184C31.5666 38.1495 31.5666 38.1147 31.5629 38.0802C31.5481 37.9939 31.5148 37.9116 31.4652 37.839C31.4445 37.81 31.4217 37.7826 31.3969 37.757L28.8937 35.224L31.0061 33.1855L31.0428 33.1469C31.065 33.1216 31.0847 33.0941 31.1014 33.0649C31.1294 33.0216 31.1508 32.9745 31.1649 32.925C31.1967 32.8176 31.198 32.7037 31.1688 32.5956C31.1395 32.4876 31.0807 32.3895 30.9988 32.3122C30.9628 32.2763 30.9226 32.2448 30.8791 32.2182V32.2182Z" stroke="#17141F" stroke-width="1.5" stroke-linecap="round" stroke-linejoin="round"/>
</svg>
