<svg width="10" height="10" viewBox="0 0 10 10" fill="none" xmlns="http://www.w3.org/2000/svg">
<path fillRule="evenodd" clipRule="evenodd" d="M2.835 -0.00012207H7.17C8.865 -0.00012207 10 1.18988 10 2.95988V7.04538C10 8.80988 8.865 9.99988 7.17 9.99988H2.835C1.14 9.99988 0 8.80988 0 7.04538V2.95988C0 1.18988 1.14 -0.00012207 2.835 -0.00012207ZM4.71527 6.49482L7.09027 4.11982C7.26027 3.94982 7.26027 3.67482 7.09027 3.49982C6.92027 3.32982 6.64027 3.32982 6.47027 3.49982L4.40527 5.56482L3.53027 4.68982C3.36027 4.51982 3.08027 4.51982 2.91027 4.68982C2.74027 4.85982 2.74027 5.13482 2.91027 5.30982L4.10027 6.49482C4.18527 6.57982 4.29527 6.61982 4.40527 6.61982C4.52027 6.61982 4.63027 6.57982 4.71527 6.49482Z" fill="#46B512"/>
</svg>
