<svg width="25" height="25" viewBox="0 0 25 25" fill="none" xmlns="http://www.w3.org/2000/svg">
<path d="M20.2041 11.3004C20.1947 11.2416 20.1692 11.1865 20.1303 11.1413C20.0914 11.0962 20.0407 11.0628 19.9839 11.0449L18.3013 10.5226C18.1704 10.1405 18.002 9.77215 17.7988 9.42305C17.5972 9.06235 17.3516 8.72808 17.0676 8.4279L17.4388 6.70581C17.4521 6.64753 17.4487 6.58668 17.429 6.53024C17.4093 6.47381 17.374 6.42409 17.3273 6.3868C16.7114 5.89384 16.0241 5.49737 15.289 5.21098C15.2334 5.18944 15.1729 5.18385 15.1143 5.19482C15.0557 5.20579 15.0014 5.2329 14.9573 5.27309L13.6573 6.46443C12.8653 6.30587 12.0497 6.30587 11.2576 6.46443L9.95619 5.27167C9.91217 5.23143 9.85771 5.2044 9.79905 5.19366C9.74039 5.18293 9.67988 5.18893 9.62447 5.21098C8.88709 5.49743 8.19783 5.8949 7.58054 6.38962C7.53407 6.4268 7.49897 6.47628 7.47925 6.53243C7.45954 6.58859 7.45599 6.64915 7.46903 6.70722L7.84309 8.42649C7.34272 9.07466 6.95086 9.79974 6.6828 10.5735L5.00446 11.1141C4.94771 11.1323 4.89716 11.166 4.85851 11.2114C4.81986 11.2568 4.79463 11.3121 4.78567 11.371C4.67106 12.152 4.67582 12.9459 4.79979 13.7255C4.80938 13.7844 4.83519 13.8395 4.87433 13.8847C4.91347 13.9298 4.96439 13.9631 5.0214 13.9809L6.70397 14.5032C6.96727 15.2697 7.37986 15.9764 7.91791 16.5824L7.54243 18.3059C7.53037 18.3644 7.53481 18.4251 7.55525 18.4812C7.57569 18.5372 7.61133 18.5865 7.65818 18.6235C8.27667 19.1132 8.96581 19.5063 9.70211 19.7895C9.7579 19.811 9.81864 19.8163 9.87732 19.8048C9.936 19.7933 9.99025 19.7655 10.0338 19.7246L11.3296 18.5346C12.1254 18.6913 12.9445 18.6884 13.7391 18.5261L15.0406 19.7048C15.0849 19.745 15.1396 19.772 15.1985 19.7827C15.2574 19.7935 15.3181 19.7875 15.3737 19.7655C16.1066 19.4739 16.7918 19.0742 17.4064 18.5798C17.4522 18.5419 17.4866 18.492 17.5058 18.4356C17.525 18.3793 17.5282 18.3188 17.515 18.2608L17.1255 16.5457C17.6575 15.9335 18.0642 15.2227 18.3225 14.4538L19.998 13.9118C20.055 13.894 20.1058 13.8604 20.1445 13.815C20.1832 13.7695 20.2083 13.714 20.2168 13.6549C20.3325 12.874 20.3283 12.08 20.2041 11.3004V11.3004Z" stroke="#25B5D3" strokeWidth="1.2" strokeMiterlimit="10" strokeLinecap="round"/>
<path d="M14.4394 10.1997C14.9986 10.6714 15.3666 11.3308 15.4745 12.0544C15.5824 12.778 15.4227 13.5161 15.0254 14.1305C14.6282 14.7448 14.0205 15.1932 13.3164 15.3917C12.6122 15.5902 11.8599 15.5251 11.2002 15.2086C10.5406 14.8922 10.019 14.3461 9.73317 13.6726C9.4473 12.9992 9.41679 12.2446 9.64734 11.5503C9.87789 10.856 10.3537 10.2696 10.9856 9.9009C11.6175 9.53222 12.3622 9.40659 13.08 9.54755" stroke="#25B5D3" strokeWidth="1.2" strokeMiterlimit="10" strokeLinecap="round"/>
</svg>
