<svg width="25" height="25" viewBox="0 0 25 25" fill="none"
    xmlns="http://www.w3.org/2000/svg">
    <g opacity="0.9">
        <path d="M7.70717 8.5246C6.36971 9.60074 5.28581 10.9584 4.53259 12.5009C4.53259 12.5009 7.07339 18.1867 12.5206 18.1867C17.9677 18.1867 20.4676 12.5009 20.4676 12.5009C20.4676 12.5009 17.9762 6.8138 12.5206 6.8138C11.7471 6.81202 10.978 6.9306 10.2409 7.16528" stroke="white" stroke-width="1.5" stroke-linecap="round" stroke-linejoin="round"/>
        <path d="M12.5007 14.7929C13.7668 14.7929 14.7931 13.7665 14.7931 12.5005C14.7931 11.2345 13.7668 10.2081 12.5007 10.2081C11.2347 10.2081 10.2084 11.2345 10.2084 12.5005C10.2084 13.7665 11.2347 14.7929 12.5007 14.7929Z" stroke="white" stroke-width="1.5" stroke-miterlimit="10" stroke-linecap="round"/>
    </g>
</svg>
