<svg width="35" height="35" viewBox="0 0 35 35" fill="none" xmlns="http://www.w3.org/2000/svg">
<g opacity="0.9">
<path d="M10.2758 20.2771C7.37875 17.1923 6.63175 14.3762 6.50725 12.5582C6.35904 10.5919 6.90249 9.37256 6.93015 9.32118C7.25425 8.30148 8.22652 7.40429 8.27593 7.34501C8.41591 7.19496 8.58546 7.07553 8.77388 6.99424C8.96231 6.91296 9.16552 6.87157 9.37073 6.8727C9.73585 6.9004 10.0756 7.06993 10.3173 7.34501L12.9812 9.89427C13.1191 10.0069 13.2323 10.1469 13.3136 10.3054C13.3948 10.4639 13.4425 10.6374 13.4535 10.8152C13.4482 11.1193 13.3331 11.4113 13.1294 11.6373L11.9852 12.9079C11.8505 13.0633 11.7661 13.2558 11.7432 13.4601C11.7203 13.6644 11.7599 13.8708 11.8568 14.0521C12.3547 14.973 20.0223 22.4173 20.9471 22.8659C21.1319 22.9609 21.342 22.9952 21.5474 22.964C21.7528 22.9328 21.9431 22.8376 22.0914 22.692L23.3363 21.5063C23.5418 21.2845 23.825 21.1506 24.1268 21.1328C24.3065 21.1407 24.4828 21.1845 24.6454 21.2615C24.808 21.3385 24.9535 21.4473 25.0734 21.5814L27.7195 24.1089C27.9965 24.3414 28.1746 24.6707 28.2175 25.0298C28.2689 25.4033 28.1187 25.7768 27.7946 26.1503C27.7452 26.176 26.8994 27.1957 25.8777 27.5692C25.8777 27.5692 24.7572 28.1166 22.9134 28.1166C20.9471 28.1166 18.1588 27.4941 15.0206 24.931L10.2758 20.2771Z" stroke="#17141F" stroke-width="1.5" stroke-miterlimit="10" stroke-linecap="round"/>
<path d="M23.1014 6.91663H27.5181C27.7811 6.91712 28.0334 7.02101 28.2205 7.20587C28.4076 7.39073 28.5144 7.64173 28.5181 7.90471V12.7641C28.5144 13.0271 28.4076 13.2781 28.2205 13.463C28.0334 13.6478 27.7811 13.7517 27.5181 13.7522H23.0698L20.3229 15.5308L20.3565 13.7522H18.6214C18.3603 13.7491 18.1107 13.644 17.9261 13.4594C17.7415 13.2748 17.6364 13.0252 17.6333 12.7641V7.92052C17.6364 7.65942 17.7415 7.40988 17.9261 7.22524C18.1107 7.0406 18.3603 6.93551 18.6214 6.93244H20.309" stroke="#17141F" stroke-width="1.5" stroke-miterlimit="10" stroke-linecap="round"/>
<path d="M20.5484 10.968C20.8638 10.968 21.1195 10.7123 21.1195 10.3969C21.1195 10.0815 20.8638 9.82581 20.5484 9.82581C20.233 9.82581 19.9773 10.0815 19.9773 10.3969C19.9773 10.7123 20.233 10.968 20.5484 10.968Z" fill="#17141F"/>
<path d="M23.0699 10.968C23.3853 10.968 23.641 10.7123 23.641 10.3969C23.641 10.0815 23.3853 9.82581 23.0699 9.82581C22.7545 9.82581 22.4988 10.0815 22.4988 10.3969C22.4988 10.7123 22.7545 10.968 23.0699 10.968Z" fill="#17141F"/>
<path d="M25.5916 10.968C25.907 10.968 26.1627 10.7123 26.1627 10.3969C26.1627 10.0815 25.907 9.82581 25.5916 9.82581C25.2762 9.82581 25.0205 10.0815 25.0205 10.3969C25.0205 10.7123 25.2762 10.968 25.5916 10.968Z" fill="#17141F"/>
</g>
</svg>
