<svg width="20" height="20" viewBox="0 0 20 20" fill="none" xmlns="http://www.w3.org/2000/svg">
<g opacity="0.9">
<path fillRule="evenodd" clipRule="evenodd" d="M5.67 -0.000793457H14.34C17.73 -0.000793457 20 2.37921 20 5.91921V14.0902C20 17.6202 17.73 19.9992 14.34 19.9992H5.67C2.28 19.9992 0 17.6202 0 14.0902V5.91921C0 2.37921 2.28 -0.000793457 5.67 -0.000793457ZM9.99 7.06021C9.52 7.06021 9.13 6.66921 9.13 6.19021C9.13 5.70021 9.52 5.31021 10.01 5.31021C10.49 5.31021 10.88 5.70021 10.88 6.19021C10.88 6.66921 10.49 7.06021 9.99 7.06021ZM10.87 13.7802C10.87 14.2602 10.48 14.6502 9.99 14.6502C9.51 14.6502 9.12 14.2602 9.12 13.7802V9.36021C9.12 8.87921 9.51 8.48021 9.99 8.48021C10.48 8.48021 10.87 8.87921 10.87 9.36021V13.7802Z" fill="url(#paint0_linear)"/>
</g>
<defs>
<linearGradient id="paint0_linear" x1="-2.92701e-07" y1="1.78492" x2="20" y2="19.9992" gradientUnits="userSpaceOnUse">
<stop stopColor="#5F7DF1"/>
<stop offset="1" stopColor="#3055EC"/>
</linearGradient>
</defs>
</svg>
