<svg width="20" height="20" viewBox="0 0 20 20" fill="none" xmlns="http://www.w3.org/2000/svg">
<path d="M10 20C15.5228 20 20 15.5228 20 10C20 4.47715 15.5228 0 10 0C4.47715 0 0 4.47715 0 10C0 15.5228 4.47715 20 10 20Z" fill="url(#paint0_linear)"/>
<path d="M7.08984 6.99999C7.32495 6.33166 7.789 5.7681 8.3998 5.40912C9.0106 5.05015 9.72874 4.91893 10.427 5.0387C11.1253 5.15848 11.7587 5.52151 12.2149 6.06352C12.6712 6.60552 12.9209 7.29151 12.9198 7.99999C12.9198 9.99999 9.91984 11 9.91984 11" stroke="white" strokeWidth="2" strokeLinecap="round" strokeLinejoin="round"/>
<path d="M10 15H10.01" stroke="white" strokeWidth="2" strokeLinecap="round" strokeLinejoin="round"/>
<defs>
<linearGradient id="paint0_linear" x1="-2.92701e-07" y1="1.78571" x2="20" y2="20" gradientUnits="userSpaceOnUse">
<stop stop-color="#5F7DF1"/>
<stop offset="1" stop-color="#3055EC"/>
</linearGradient>
</defs>
</svg>


