<svg width="35" height="35" viewBox="0 0 35 35" fill="none" xmlns="http://www.w3.org/2000/svg">
<g opacity="0.9">
<path d="M17.169 22.609H21.6371C22.7161 22.609 23.3307 21.8007 23.1766 20.9925M10.12 27C10.1806 27.0073 10.2419 26.9966 10.2964 26.9691C10.3509 26.9417 10.3961 26.8989 10.4263 26.8459C11.9302 25.0673 14.9715 25.1523 15.011 25.1523C18.2856 25.0753 20.6352 25.8835 23.6785 24.265L29.607 21.0676C30.4548 20.6071 30.5319 19.3345 29.2988 18.9116C28.5656 18.6408 28.1427 18.795 26.4471 19.3068C25.5994 19.538 24.4828 19.8838 22.8663 20.3463C22.4039 19.7297 21.6332 19.7297 20.7459 19.7297C19.7835 19.7297 18.5128 19.6526 17.584 19.3345C16.0031 18.7574 13.9241 18.1488 12.6436 19.2969C10.0429 21.4154 5.11041 22.9232 5.07286 22.9568C4.95859 22.9994 4.86328 23.0814 4.8041 23.188C4.77251 23.2421 4.75911 23.3049 4.76587 23.3671C4.77263 23.4294 4.79919 23.4878 4.84165 23.5338C7.0767 26.8084 10.0034 27 10.12 27Z" stroke="#17141F" stroke-width="1.5" stroke-miterlimit="10" stroke-linecap="round"/>
<path d="M18.9119 10.9082V13.7243H21.722" stroke="#17141F" stroke-width="1.5" stroke-miterlimit="10" stroke-linecap="round"/>
<path d="M18.9117 16.5404V13.7244H16.0996" stroke="#17141F" stroke-width="1.5" stroke-miterlimit="10" stroke-linecap="round"/>
<path d="M24.5972 7.99915V9.39827H25.9943" stroke="#17141F" stroke-width="1.5" stroke-miterlimit="10" stroke-linecap="round"/>
<path d="M24.5976 10.7983V9.39917H23.2004" stroke="#17141F" stroke-width="1.5" stroke-miterlimit="10" stroke-linecap="round"/>
<path d="M25.9946 14.6237V15.5228H26.8938" stroke="#17141F" stroke-width="1.5" stroke-miterlimit="10" stroke-linecap="round"/>
<path d="M25.9946 16.4222V15.5231H25.0974" stroke="#17141F" stroke-width="1.5" stroke-miterlimit="10" stroke-linecap="round"/>
</g>
</svg>
