<svg width="35" height="35" viewBox="0 0 35 35" fill="none" xmlns="http://www.w3.org/2000/svg">
<g opacity="0.9">
<path d="M22.1333 11.4163C22.1333 14.0308 20.0307 18.2242 17.4261 18.2242C14.8215 18.2242 12.7109 14.0308 12.7109 11.4163C12.7109 10.1658 13.2077 8.96647 14.092 8.08221C14.9762 7.19795 16.1755 6.70117 17.4261 6.70117C18.6766 6.70117 19.8759 7.19795 20.7602 8.08221C21.6445 8.96647 22.1412 10.1658 22.1412 11.4163H22.1333Z" stroke="#17141F" stroke-width="1.5" stroke-miterlimit="10" stroke-linecap="round"/>
<path d="M15.6598 17.7725C15.6598 17.7725 15.6084 18.4463 14.0788 18.8692C12.5493 19.2921 9.34787 19.4483 8.44871 21.5094C7.54955 23.5706 6.90927 25.2226 7.51991 26.2107C8.1009 27.1514 13.0196 28.2739 17.4265 28.2976H17.5747C21.9815 28.2739 26.9002 27.1514 27.4812 26.2107C28.0919 25.2226 27.4536 23.5686 26.5524 21.5094C25.6513 19.4502 22.4558 19.2902 20.9243 18.8692C19.3927 18.4483 19.3433 17.7725 19.3433 17.7725" stroke="#17141F" stroke-width="1.5" stroke-miterlimit="10" stroke-linecap="round"/>
<path d="M14.0762 18.8682C14.0762 18.8682 14.5425 20.789 17.5009 20.789C20.4592 20.789 20.9236 18.8682 20.9236 18.8682" stroke="#17141F" stroke-width="1.5" stroke-miterlimit="10" stroke-linecap="round"/>
</g>
</svg>
