<svg width="35" height="35" viewBox="0 0 35 35" fill="none" xmlns="http://www.w3.org/2000/svg">
<path d="M22.4514 17.5013H31.1209" stroke="#EB4646" stroke-width="1.5" stroke-miterlimit="10" stroke-linecap="round"/>
<path d="M27.9253 13.8018L31.6346 17.5012L27.9253 21.1986" stroke="#EB4646" stroke-width="1.5" stroke-miterlimit="10" stroke-linecap="round"/>
<path d="M25.3602 15.9556V8.34934C25.3602 7.82523 25.152 7.32258 24.7814 6.95198C24.4108 6.58137 23.9081 6.37317 23.384 6.37317" stroke="#EB4646" stroke-width="1.5" stroke-miterlimit="10" stroke-linecap="round"/>
<path d="M23.384 28.621C23.9081 28.621 24.4108 28.4128 24.7814 28.0422C25.152 27.6716 25.3602 27.169 25.3602 26.6449V19.0386" stroke="#EB4646" stroke-width="1.5" stroke-miterlimit="10" stroke-linecap="round"/>
<path d="M22.4515 26.4928C22.4515 27.8761 21.4437 28.8998 20.4062 28.5539L10.7328 25.3189C10.0096 25.0778 9.50366 24.2301 9.50366 23.2598V11.7406C9.50366 10.7703 10.0096 9.92256 10.7328 9.68147L20.4161 6.44647C21.4536 6.10064 22.4614 7.11639 22.4614 8.50762L22.4515 26.4928Z" stroke="#EB4646" stroke-width="1.5" stroke-miterlimit="10" stroke-linecap="round"/>
</svg>
