<svg width="35" height="35" viewBox="0 0 35 35" fill="none" xmlns="http://www.w3.org/2000/svg">
<g opacity="0.9">
<path d="M12.5085 21.736H22.4902" stroke="#17141F" stroke-width="1.5" stroke-miterlimit="10" stroke-linecap="round"/>
<path d="M12.5085 17.501H22.4902" stroke="#17141F" stroke-width="1.5" stroke-miterlimit="10" stroke-linecap="round"/>
<path d="M12.5085 13.264H17.3403" stroke="#17141F" stroke-width="1.5" stroke-miterlimit="10" stroke-linecap="round"/>
<path d="M21.3093 28.6544H11.7289C11.2047 28.6544 10.7021 28.4462 10.3315 28.0756C9.96089 27.705 9.75269 27.2023 9.75269 26.6782V8.31956C9.75269 7.79544 9.96089 7.2928 10.3315 6.92219C10.7021 6.55159 11.2047 6.34338 11.7289 6.34338H13.6359" stroke="#17141F" stroke-width="1.5" stroke-miterlimit="10" stroke-linecap="round"/>
<path d="M16.2046 6.34338H23.2635C23.7876 6.34338 24.2902 6.55159 24.6608 6.92219C25.0314 7.2928 25.2397 7.79544 25.2397 8.31956V24.3799" stroke="#17141F" stroke-width="1.5" stroke-miterlimit="10" stroke-linecap="round"/>
<path d="M25.2476 24.38L21.3091 28.6545V25.7653C21.3085 25.4114 21.4474 25.0716 21.6955 24.8193C21.9437 24.5671 22.2813 24.4227 22.6351 24.4176H25.2476" stroke="#17141F" stroke-width="1.5" stroke-linecap="round" stroke-linejoin="round"/>
</g>
</svg>
