<svg width="44" height="36" viewBox="0 0 44 36" fill="none" xmlns="http://www.w3.org/2000/svg">
<path d="M25.4376 30.7179H33.7985L38.0298 33.2824L37.9112 30.7179H41.265C41.5015 30.7243 41.7309 30.6372 41.9034 30.4754C42.0759 30.3137 42.1777 30.0903 42.1865 29.854V21.3271C42.1777 21.0908 42.0759 20.8675 41.9034 20.7057C41.7309 20.5439 41.5015 20.4568 41.265 20.4632H25.4376C25.202 20.4586 24.974 20.5464 24.8024 20.7079C24.6308 20.8694 24.5292 21.0917 24.5195 21.3271V29.8472C24.5275 30.0839 24.6283 30.3079 24.8001 30.4708C24.9719 30.6337 25.2009 30.7225 25.4376 30.7179Z" fill="white"/>
<path d="M33.3014 19.2236H25.7298C25.2757 19.2254 24.8408 19.4066 24.5197 19.7277C24.1986 20.0488 24.0174 20.4837 24.0156 20.9378V29.2377C24.0174 29.6918 24.1986 30.1268 24.5197 30.4479C24.8408 30.769 25.2757 30.9501 25.7298 30.9519H33.3556L38.0645 34.0009L38.0069 30.9519H40.9814C41.4322 30.9457 41.8625 30.7625 42.1794 30.4418C42.4963 30.1211 42.6744 29.6886 42.6752 29.2377V20.9378C42.6744 20.487 42.4963 20.0545 42.1794 19.7338C41.8625 19.4131 41.4322 19.2299 40.9814 19.2236H38.0883" stroke="url(#paint0_linear)" strokeWidth="1.5" strokeMiterlimit="10" strokeLinecap="round"/>
<path d="M34.8436 23.8005H19.3278L11.4717 28.8821L11.6953 23.8005H5.472C5.02114 23.7997 4.58869 23.6216 4.26798 23.3047C3.94728 22.9878 3.76404 22.5575 3.75781 22.1067V5.22902C3.76404 4.7782 3.94728 4.3479 4.26798 4.031C4.58869 3.7141 5.02114 3.536 5.472 3.53516H34.8436C35.2945 3.536 35.7269 3.7141 36.0476 4.031C36.3683 4.3479 36.5516 4.7782 36.5578 5.22902V22.0897C36.556 22.5435 36.3747 22.9781 36.0535 23.2987C35.7323 23.6192 35.2974 23.7996 34.8436 23.8005Z" fill="white"/>
<path d="M15.4589 1.62109H33.7526C34.6107 1.62377 35.4329 1.96585 36.0397 2.57264C36.6465 3.17943 36.9886 4.00164 36.9913 4.85976V20.5551C36.9886 21.4132 36.6465 22.2354 36.0397 22.8422C35.4329 23.449 34.6107 23.7911 33.7526 23.7938H19.3277L10.4179 29.5529L10.5263 23.7938H4.90273C4.0446 23.7911 3.22239 23.449 2.61561 22.8422C2.00882 22.2354 1.66674 21.4132 1.66406 20.5551V4.85976C1.66674 4.00164 2.00882 3.17943 2.61561 2.57264C3.22239 1.96585 4.0446 1.62377 4.90273 1.62109H10.3773" stroke="url(#paint1_linear)" strokeWidth="1.5" strokeMiterlimit="10" strokeLinecap="round"/>
<path d="M9.79297 7.80371H29.1233" stroke="url(#paint2_linear)" strokeWidth="1.5" strokeMiterlimit="10" strokeLinecap="round"/>
<path d="M9.79297 12.1123H29.1233" stroke="url(#paint3_linear)" strokeWidth="1.5" strokeMiterlimit="10" strokeLinecap="round"/>
<path d="M9.79297 16.4248H18.076" stroke="url(#paint4_linear)" strokeWidth="1.5" strokeMiterlimit="10" strokeLinecap="round"/>
<defs>
<linearGradient id="paint0_linear" x1="24.0156" y1="20.543" x2="38.7138" y2="37.4457" gradientUnits="userSpaceOnUse">
<stop stop-color="#5F7DF1"/>
<stop offset="1" stop-color="#3055EC"/>
</linearGradient>
<linearGradient id="paint1_linear" x1="1.66406" y1="4.115" x2="29.4401" y2="36.1086" gradientUnits="userSpaceOnUse">
<stop stop-color="#5F7DF1"/>
<stop offset="1" stop-color="#3055EC"/>
</linearGradient>
<linearGradient id="paint2_linear" x1="9.79297" y1="7.893" x2="9.90671" y2="9.89529" gradientUnits="userSpaceOnUse">
<stop stop-color="#5F7DF1"/>
<stop offset="1" stop-color="#3055EC"/>
</linearGradient>
<linearGradient id="paint3_linear" x1="9.79297" y1="12.2016" x2="9.90671" y2="14.2039" gradientUnits="userSpaceOnUse">
<stop stop-color="#5F7DF1"/>
<stop offset="1" stop-color="#3055EC"/>
</linearGradient>
<linearGradient id="paint4_linear" x1="9.79297" y1="16.5141" x2="10.0547" y2="18.4882" gradientUnits="userSpaceOnUse">
<stop stop-color="#5F7DF1"/>
<stop offset="1" stop-color="#3055EC"/>
</linearGradient>
</defs>
</svg>
