<svg width="40" height="39" viewBox="0 0 40 39" fill="none" xmlns="http://www.w3.org/2000/svg">
<path d="M17.4107 32.3027C22.4923 36.3679 27.0115 37.3842 30.1994 37.3842C33.184 37.3842 34.9998 36.5136 34.9998 36.5136C36.653 35.9174 38.025 34.2946 38.1063 34.254C38.6314 33.6611 38.872 33.0649 38.7839 32.472C38.7132 31.8978 38.4245 31.3726 37.9776 31.0052L33.7023 26.9534C33.5063 26.7401 33.2702 26.5675 33.0074 26.4454C32.7447 26.3233 32.4605 26.2542 32.171 26.242C31.6797 26.2626 31.2161 26.4755 30.8803 26.8349L28.8477 28.7354C28.6062 28.9701 28.2972 29.1232 27.9641 29.173C27.6311 29.2229 27.2908 29.1669 26.9912 29.0132C25.5036 28.2954 24.0975 27.4197 22.7972 26.4012L15.1918 19.0702C14.0741 17.8287 13.1001 16.465 12.2885 15.0049C12.1308 14.7173 12.0655 14.3882 12.1012 14.0621C12.137 13.7361 12.2721 13.429 12.4883 13.1823L14.3448 11.1497C14.6728 10.792 14.8594 10.3272 14.8699 9.84204C14.8523 9.55752 14.775 9.27988 14.6431 9.02717C14.5112 8.77445 14.3276 8.55231 14.1043 8.37516L9.78833 4.33022C9.39256 3.89146 8.84293 3.62211 8.25369 3.57814C7.92231 3.5769 7.59412 3.64291 7.28899 3.77218C6.98387 3.90145 6.70814 4.09129 6.47852 4.33022C6.39721 4.41152 4.82531 5.83775 4.30021 7.46047C4.25955 7.54178 3.37197 9.49311 3.62266 12.6132C3.82254 15.5029 5.03196 19.9815 9.72057 24.8937L17.4107 32.3027Z" fill="white"/>
<path d="M28.8351 10.6045L4.50781 36.2123" stroke="url(#paint0_linear)" strokeWidth="1.5" strokeMiterlimit="10" strokeLinecap="round"/>
<path d="M13.8147 18.2166C12.6281 16.8689 11.5973 15.3915 10.742 13.8126C10.5757 13.5017 10.507 13.1478 10.5451 12.7972C10.5832 12.4466 10.7262 12.1157 10.9555 11.8477L12.9203 9.67281C13.1158 9.4674 13.2654 9.22283 13.3592 8.95528C13.453 8.68773 13.4889 8.40331 13.4646 8.12083C13.4403 7.83835 13.3562 7.56427 13.218 7.31671C13.0798 7.06916 12.8906 6.85378 12.6629 6.68484L8.09622 2.34177C7.68444 1.86488 7.10154 1.56917 6.4735 1.51856C6.12163 1.51807 5.77342 1.59 5.45054 1.72988C5.12766 1.86976 4.83702 2.07458 4.5967 2.33161C4.51201 2.4163 2.84525 3.95433 2.29305 5.71933C2.24901 5.80403 1.31061 7.89764 1.56808 11.2684C1.7815 14.3851 3.05868 19.2059 8.00475 24.4975" stroke="url(#paint1_linear)" strokeWidth="1.5" strokeMiterlimit="10" strokeLinecap="round"/>
<path d="M16.1641 32.4725C21.5438 36.8765 26.3272 37.9369 29.6946 37.9369C32.852 37.9369 34.7762 36.9985 34.7762 36.9985C36.5277 36.3582 37.9776 34.6068 38.0623 34.5661C38.6179 33.9258 38.8754 33.2855 38.7907 32.6453C38.7155 32.0302 38.4105 31.4663 37.937 31.0666L33.411 26.7134C33.2054 26.4835 32.9559 26.2971 32.6773 26.165C32.3986 26.0329 32.0963 25.9579 31.7883 25.9443C31.2705 25.9736 30.7845 26.2032 30.4332 26.5846L28.282 28.6206C28.0279 28.8703 27.7016 29.0334 27.3494 29.0869C26.9973 29.1405 26.6372 29.0816 26.3205 28.9188C24.7433 28.143 23.2552 27.1979 21.8825 26.1002" stroke="url(#paint2_linear)" strokeWidth="1.5" strokeMiterlimit="10" strokeLinecap="round"/>
<defs>
<linearGradient id="paint0_linear" x1="4.50781" y1="12.8909" x2="29.9603" y2="34.9117" gradientUnits="userSpaceOnUse">
<stop stop-color="#5F7DF1"/>
<stop offset="1" stop-color="#3055EC"/>
</linearGradient>
<linearGradient id="paint1_linear" x1="1.52344" y1="3.57025" x2="19.6966" y2="12.423" gradientUnits="userSpaceOnUse">
<stop stop-color="#5F7DF1"/>
<stop offset="1" stop-color="#3055EC"/>
</linearGradient>
<linearGradient id="paint2_linear" x1="16.1641" y1="27.0151" x2="26.6333" y2="45.0166" gradientUnits="userSpaceOnUse">
<stop stop-color="#5F7DF1"/>
<stop offset="1" stop-color="#3055EC"/>
</linearGradient>
</defs>
</svg>
