<svg width="28" height="44" viewBox="0 0 28 44" fill="none" xmlns="http://www.w3.org/2000/svg">
<path d="M19.214 28.8521L17.7776 27.3547C16.9273 26.5519 15.7043 25.0104 14.6575 24.1974C13.6107 23.3843 12.5605 22.5239 11.3951 21.6939C11.2527 21.5749 11.0865 21.4876 10.9078 21.4377C10.729 21.3877 10.5417 21.3763 10.3582 21.4042C10.1747 21.432 9.99921 21.4985 9.84333 21.5993C9.68745 21.7 9.55474 21.8327 9.45398 21.9886C9.24473 22.3083 9.14601 22.6878 9.17293 23.069C9.19985 23.4501 9.35093 23.812 9.60304 24.0991C10.66 25.1697 11.5849 26.1555 12.4487 27.1921C13.2541 28.1685 13.9985 29.1935 14.6779 30.2614C14.7602 30.324 14.8293 30.4024 14.8811 30.4919C14.9328 30.5815 14.9663 30.6805 14.9794 30.7831C15.0065 30.8616 15.0203 30.944 15.02 31.027C15.0234 31.0631 15.0234 31.0994 15.02 31.1354C15.0831 32.1055 15.3004 33.0592 15.6637 33.9608C16.0936 34.8602 16.6862 35.6723 17.4117 36.3559L19.214 28.8521ZM9.54884 32.6836C9.061 32.8361 7.462 32.4838 7.46877 33.5644C7.46877 34.0997 7.71946 35.2007 9.07455 35.1872C10.2603 35.0855 11.551 34.9466 12.8383 35.1872C12.9618 35.2106 13.0775 35.2644 13.1751 35.3436C13.2726 35.4229 13.349 35.5251 13.3973 35.6411C13.8518 36.6369 14.4651 37.5522 15.2131 38.3513C15.9907 39.1951 16.8224 39.9872 17.7031 40.7227C17.8209 40.8089 17.9124 40.9262 17.9673 41.0615L18.2722 41.8542L18.4619 42.3793C18.8549 42.7994 20.5488 42.691 22.2291 42.3082C22.9133 42.1587 23.5824 41.9466 24.2279 41.6747C24.7029 41.4873 25.1393 41.214 25.5152 40.8684C25.6676 40.7193 25.7422 40.5872 25.7185 40.4991C25.6875 40.4353 25.668 40.3665 25.6609 40.2959C25.4576 39.0051 25.2814 37.9651 25.1188 37.0538C24.6141 34.1031 24.3159 32.3991 24.4413 28.6793C24.458 28.1602 24.2992 27.6506 23.9907 27.2328C23.599 26.7445 23.12 26.3332 22.578 26.02C21.5075 25.3424 20.9384 24.3261 20.3692 23.2793C19.9322 22.4798 19.4817 21.6668 18.7939 21.1484" fill="white"/>
<path d="M15.8021 31.8972H4.54131C4.24412 31.8932 3.95063 31.8307 3.67759 31.7133C3.40455 31.5959 3.15731 31.4258 2.95 31.2128C2.74269 30.9999 2.57936 30.7481 2.46934 30.472C2.35932 30.1959 2.30477 29.9009 2.3088 29.6037V5.27304C2.30522 4.9763 2.36013 4.68176 2.47039 4.40624C2.58065 4.13072 2.7441 3.87962 2.95142 3.66727C3.15873 3.45492 3.40584 3.2855 3.67863 3.16866C3.95143 3.05182 4.24457 2.98987 4.54131 2.98633H16.8388C17.1355 2.98987 17.4286 3.05182 17.7014 3.16866C17.9742 3.2855 18.2213 3.45492 18.4287 3.66727C18.636 3.87962 18.7994 4.13072 18.9097 4.40624C19.0199 4.68176 19.0748 4.9763 19.0713 5.27304V26.8528C19.0713 26.8528 20.2637 31.8972 15.8021 31.8972Z" fill="white"/>
<path d="M15.4563 32.0264H3.29436C2.97659 32.0264 2.66194 31.9637 2.36844 31.8419C2.07495 31.7201 1.80837 31.5415 1.58398 31.3165C1.3596 31.0915 1.18182 30.8244 1.06083 30.5306C0.939844 30.2367 0.878024 29.9219 0.878916 29.6042V3.92182C0.879813 3.2818 1.13469 2.66829 1.58758 2.21604C2.04047 1.76378 2.65433 1.50976 3.29436 1.50977H16.5776C17.2173 1.50977 17.8309 1.76389 18.2832 2.21624C18.7356 2.66859 18.9897 3.28211 18.9897 3.92182V26.7009" stroke="url(#paint0_linear)" strokeWidth="1.5" strokeMiterlimit="10" strokeLinecap="round"/>
<path d="M9.14974 32.0263C8.6077 32.1923 6.83931 31.8129 6.84608 32.9647C6.83358 33.1989 6.87149 33.4332 6.95725 33.6515C7.04302 33.8699 7.17464 34.0673 7.34323 34.2304C7.51182 34.3936 7.71346 34.5186 7.93452 34.5971C8.15558 34.6757 8.39091 34.7059 8.62464 34.6857C9.93569 34.5772 11.3653 34.4282 12.7915 34.6857C12.9262 34.7096 13.0528 34.7663 13.1604 34.8508C13.2679 34.9353 13.353 35.045 13.4081 35.1701C13.9148 36.2419 14.5947 37.2228 15.4204 38.0734C16.2854 38.9689 17.2065 39.8085 18.178 40.5871C18.3077 40.6806 18.4086 40.8085 18.4694 40.9563L18.8081 41.8033L19.0182 42.3622C19.4484 42.8094 21.3286 42.701 23.1851 42.2843C23.9428 42.1269 24.6845 41.9001 25.4007 41.6068C25.9235 41.4086 26.4065 41.1183 26.8269 40.7497C26.9929 40.5905 27.0742 40.4482 27.0505 40.3533C27.0154 40.2858 26.9935 40.2122 26.9861 40.1365C26.7625 38.7611 26.566 37.6567 26.3865 36.681C25.8275 33.5372 25.4955 31.7214 25.6378 27.7578C25.6582 27.1951 25.4795 26.6432 25.133 26.1994C24.6965 25.6743 24.1657 25.2353 23.5679 24.9053C22.3856 24.2006 21.7555 23.0996 21.1254 21.9851C20.6409 21.1314 20.1429 20.2675 19.3807 19.7119M19.8516 27.9475L18.2593 26.3485C17.3175 25.4914 15.9625 23.8517 14.8039 22.9845C13.6453 22.1172 12.4731 21.1991 11.1925 20.3149C10.5726 19.8881 9.62063 19.7898 9.04472 20.63C8.81309 20.9679 8.70304 21.3745 8.73258 21.7832C8.76212 22.1918 8.9295 22.5783 9.20733 22.8794C10.3795 24.0177 11.406 25.0679 12.3579 26.1757C13.2555 27.2126 14.086 28.3056 14.8445 29.4482C14.9359 29.512 15.0132 29.594 15.0715 29.689C15.1298 29.784 15.1679 29.89 15.1833 30.0004C15.215 30.0836 15.2299 30.1723 15.2273 30.2613C15.2308 30.2996 15.2308 30.3382 15.2273 30.3765C15.2973 31.413 15.5389 32.4307 15.9421 33.3882C16.4212 34.3523 17.0774 35.2177 17.8765 35.9391L19.8516 27.9475Z" stroke="url(#paint1_linear)" strokeWidth="1.5" strokeMiterlimit="10" strokeLinecap="round"/>
<path d="M14.3182 1.50977H15.9613V23.408H14.945C14.7752 23.408 14.6123 23.3406 14.4922 23.2205C14.3721 23.1004 14.3047 22.9376 14.3047 22.7677V1.50977H14.3182Z" fill="url(#paint2_linear)"/>
<defs>
<linearGradient id="paint0_linear" x1="0.878906" y1="4.23446" x2="26.5203" y2="18.0932" gradientUnits="userSpaceOnUse">
<stop stop-color="#5F7DF1"/>
<stop offset="1" stop-color="#3055EC"/>
</linearGradient>
<linearGradient id="paint1_linear" x1="6.84375" y1="21.76" x2="29.3359" y2="39.8077" gradientUnits="userSpaceOnUse">
<stop stop-color="#5F7DF1"/>
<stop offset="1" stop-color="#3055EC"/>
</linearGradient>
<linearGradient id="paint2_linear" x1="14.3047" y1="3.46497" x2="17.3209" y2="3.67277" gradientUnits="userSpaceOnUse">
<stop stop-color="#5F7DF1"/>
<stop offset="1" stop-color="#3055EC"/>
</linearGradient>
</defs>
</svg>
