<svg width="35" height="35" viewBox="0 0 35 35" fill="none" xmlns="http://www.w3.org/2000/svg">
<path d="M23.4782 11.2051L11.502 23.8138" stroke="#17141F" strokeWidth="1.5" strokeMiterlimit="10" strokeLinecap="round"/>
<path d="M19.8418 9.78231C19.0908 9.60444 18.3003 9.52539 17.5295 9.52539C9.90106 9.52539 6.34375 17.4898 6.34375 17.4898C6.99592 18.8337 7.82596 20.0788 8.81411 21.1855" stroke="#17141F" strokeWidth="1.5" strokeMiterlimit="10" strokeLinecap="round" strokeLinejoin="round"/>
<path d="M15.1777 25.1971C15.9485 25.375 16.7588 25.4738 17.5493 25.454C25.1975 25.454 28.6758 17.4896 28.6758 17.4896C27.9445 15.9876 26.9959 14.6042 25.8497 13.3789" stroke="#17141F" strokeWidth="1.5" strokeMiterlimit="10" strokeLinecap="round" strokeLinejoin="round"/>
<path d="M15.2165 19.8821C13.9319 18.6568 13.8726 16.6212 15.0979 15.3366C16.3232 14.0521 18.3588 13.9928 19.6434 15.2181" stroke="#17141F" strokeWidth="1.5" strokeMiterlimit="10" strokeLinecap="round"/>
</svg>
