<svg width="35" height="35" viewBox="0 0 35 35" fill="none" xmlns="http://www.w3.org/2000/svg">
<path d="M10.7901 11.9342C8.91766 13.4408 7.40021 15.3415 6.3457 17.5011C6.3457 17.5011 9.90281 25.4611 17.5289 25.4611C25.1549 25.4611 28.6547 17.5011 28.6547 17.5011C28.6547 17.5011 25.1668 9.53909 17.5289 9.53909C16.4459 9.5366 15.3692 9.7026 14.3373 10.0312" stroke="#17141F" strokeWidth="1.5" strokeLinecap="round" strokeLinejoin="round"/>
<path d="M17.5003 20.7096C19.2728 20.7096 20.7096 19.2728 20.7096 17.5003C20.7096 15.7279 19.2728 14.291 17.5003 14.291C15.7279 14.291 14.291 15.7279 14.291 17.5003C14.291 19.2728 15.7279 20.7096 17.5003 20.7096Z" stroke="#17141F" strokeWidth="1.5" strokeMiterlimit="10" strokeLinecap="round"/>
</svg>
