<svg width="43" height="43" viewBox="0 0 43 43" fill="none" xmlns="http://www.w3.org/2000/svg">
<rect opacity="0.1" width="43" height="43" rx="12" fill="url(#paint0_linear)"/>
<g opacity="0.9">
<path fill-rule="evenodd" clip-rule="evenodd" d="M12 21.015C12 15.7471 16.21 11 22.02 11C27.7 11 32 15.657 32 20.985C32 27.1642 26.96 31 22 31C20.36 31 18.54 30.5593 17.08 29.698C16.57 29.3876 16.14 29.1572 15.59 29.3375L13.57 29.9384C13.06 30.0986 12.6 29.698 12.75 29.1572L13.42 26.9139C13.53 26.6034 13.51 26.2729 13.35 26.0125C12.49 24.4301 12 22.6975 12 21.015ZM20.7 21.015C20.7 21.7261 21.27 22.2969 21.98 22.307C22.69 22.307 23.26 21.7261 23.26 21.025C23.26 20.314 22.69 19.7431 21.98 19.7431C21.28 19.7331 20.7 20.314 20.7 21.015ZM25.31 21.025C25.31 21.7261 25.88 22.307 26.59 22.307C27.3 22.307 27.87 21.7261 27.87 21.025C27.87 20.314 27.3 19.7431 26.59 19.7431C25.88 19.7431 25.31 20.314 25.31 21.025ZM17.37 22.307C16.67 22.307 16.09 21.7261 16.09 21.025C16.09 20.314 16.66 19.7431 17.37 19.7431C18.08 19.7431 18.65 20.314 18.65 21.025C18.65 21.7261 18.08 22.2969 17.37 22.307Z" fill="url(#paint1_linear)"/>
</g>
<defs>
<linearGradient id="paint0_linear" x1="-6.29308e-07" y1="3.83929" x2="43" y2="43" gradientUnits="userSpaceOnUse">
<stop stop-color="#5F7DF1"/>
<stop offset="1" stop-color="#3055EC"/>
</linearGradient>
<linearGradient id="paint1_linear" x1="12" y1="12.7857" x2="32" y2="31" gradientUnits="userSpaceOnUse">
<stop stop-color="#5F7DF1"/>
<stop offset="1" stop-color="#3055EC"/>
</linearGradient>
</defs>
</svg>
