<svg width="43" height="43" viewBox="0 0 43 43" fill="none" xmlns="http://www.w3.org/2000/svg">
<rect opacity="0.1" width="43" height="43" rx="12" fill="url(#paint0_linear)"/>
<g opacity="0.9">
<path fill-rule="evenodd" clip-rule="evenodd" d="M22 31.0001C16.48 31.0001 12 26.5301 12 21.0001C12 15.4801 16.48 11.0001 22 11.0001C27.53 11.0001 32 15.4801 32 21.0001C32 26.5301 27.53 31.0001 22 31.0001ZM25.19 24.7101C25.31 24.7801 25.44 24.8201 25.58 24.8201C25.83 24.8201 26.08 24.6901 26.22 24.4501C26.43 24.1001 26.32 23.6401 25.96 23.4201L22.4 21.3001V16.6801C22.4 16.2601 22.06 15.9301 21.65 15.9301C21.24 15.9301 20.9 16.2601 20.9 16.6801V21.7301C20.9 21.9901 21.04 22.2301 21.27 22.3701L25.19 24.7101Z" fill="url(#paint1_linear)"/>
</g>
<defs>
<linearGradient id="paint0_linear" x1="-6.29308e-07" y1="3.83929" x2="43" y2="43" gradientUnits="userSpaceOnUse">
<stop stop-color="#5F7DF1"/>
<stop offset="1" stop-color="#3055EC"/>
</linearGradient>
<linearGradient id="paint1_linear" x1="12" y1="12.7858" x2="32" y2="31.0001" gradientUnits="userSpaceOnUse">
<stop stop-color="#5F7DF1"/>
<stop offset="1" stop-color="#3055EC"/>
</linearGradient>
</defs>
</svg>
